<?xml version="1.0" encoding="utf-8"?>
<!-- Generator: Adobe Illustrator 14.0.0, SVG Export Plug-In . SVG Version: 6.00 Build 43363)  -->
<!DOCTYPE svg PUBLIC "-//W3C//DTD SVG 1.1//EN" "http://www.w3.org/Graphics/SVG/1.1/DTD/svg11.dtd">
<svg version="1.1" id="Layer_1" xmlns="http://www.w3.org/2000/svg" xmlns:xlink="http://www.w3.org/1999/xlink" x="0px" y="0px"
	 width="25px" height="25px" viewBox="0 0 25 25" enable-background="new 0 0 25 25" xml:space="preserve">
<g>
	<linearGradient id="SVGID_1_" gradientUnits="userSpaceOnUse" x1="42.2578" y1="40.209" x2="42.2578" y2="32.0215">
		<stop  offset="0.0982" style="stop-color:#5B2400"/>
		<stop  offset="0.8221" style="stop-color:#EEA43D"/>
		<stop  offset="1" style="stop-color:#FBB040"/>
	</linearGradient>
	<ellipse fill-rule="evenodd" clip-rule="evenodd" fill="url(#SVGID_1_)" cx="42.257" cy="36.115" rx="3.508" ry="4.094"/>
	<linearGradient id="SVGID_2_" gradientUnits="userSpaceOnUse" x1="47.3428" y1="40.5215" x2="47.3428" y2="33.2715">
		<stop  offset="0.2945" style="stop-color:#5B2400"/>
		<stop  offset="0.8221" style="stop-color:#EEA43D"/>
		<stop  offset="1" style="stop-color:#FBB040"/>
	</linearGradient>
	<ellipse fill-rule="evenodd" clip-rule="evenodd" fill="url(#SVGID_2_)" cx="47.343" cy="36.896" rx="2.906" ry="3.625"/>
	<linearGradient id="SVGID_3_" gradientUnits="userSpaceOnUse" x1="46.8574" y1="47.584" x2="46.8574" y2="38.752">
		<stop  offset="0" style="stop-color:#A76426"/>
		<stop  offset="0.169" style="stop-color:#A26023"/>
		<stop  offset="0.3959" style="stop-color:#95551B"/>
		<stop  offset="0.6558" style="stop-color:#80430B"/>
		<stop  offset="0.9382" style="stop-color:#632B00"/>
		<stop  offset="1" style="stop-color:#5B2400"/>
	</linearGradient>
	<path fill-rule="evenodd" clip-rule="evenodd" fill="url(#SVGID_3_)" d="M43.457,38.752c0,0,0.642,0.182,0.581,0.846
		c-0.055,0.586,0.182,6.221,0.047,7.688c-0.028,0.275-0.014,0.32,0.089,0.291c0.461-0.131,0.563-0.215,5.212-1.605
		c0,0,0.928-0.121,0.869-1.363c-0.061-1.328-0.121-4.648-0.121-4.648s-0.056-0.543-0.842-0.662
		C48.505,39.174,43.457,38.752,43.457,38.752z"/>
	<g>
		<path fill-rule="evenodd" clip-rule="evenodd" fill="#FBB040" d="M44.36,47.115c0,0.396-0.31,0.625-0.688,0.508l-5.361-1.658
			c-0.378-0.117-0.688-0.537-0.688-0.934v-5.684c0-0.396,0.324-0.713,0.72-0.705l5.297,0.117c0.396,0.01,0.72,0.34,0.72,0.736
			V47.115z"/>
	</g>
	<linearGradient id="SVGID_4_" gradientUnits="userSpaceOnUse" x1="38.3564" y1="42.6055" x2="41.4131" y2="42.6055">
		<stop  offset="0" style="stop-color:#A76426"/>
		<stop  offset="1" style="stop-color:#5B2400"/>
	</linearGradient>
	<path fill-rule="evenodd" clip-rule="evenodd" fill="url(#SVGID_4_)" d="M38.356,37.98v9.25c0.281-0.455,3.057-3.398,3.057-3.398
		v-2.594L38.356,37.98z"/>
	<polygon fill-rule="evenodd" clip-rule="evenodd" fill="#FBB040" points="38.356,47.23 32.503,44.902 32.503,39.135 38.356,37.98 	
		"/>
	<linearGradient id="SVGID_5_" gradientUnits="userSpaceOnUse" x1="47.1846" y1="39.3027" x2="48.7473" y2="33.4704">
		<stop  offset="0" style="stop-color:#A76426"/>
		<stop  offset="0.169" style="stop-color:#A26023"/>
		<stop  offset="0.3959" style="stop-color:#95551B"/>
		<stop  offset="0.6558" style="stop-color:#80430B"/>
		<stop  offset="0.9382" style="stop-color:#632B00"/>
		<stop  offset="1" style="stop-color:#5B2400"/>
	</linearGradient>
	<path fill-rule="evenodd" clip-rule="evenodd" fill="url(#SVGID_5_)" d="M49.438,39.336c0.631-0.611,1.045-1.578,1.045-2.676
		c0-1.848-1.16-3.348-2.591-3.348s-2.59,1.5-2.59,3.348c0,0.91,0.282,1.732,0.737,2.336C46.879,39.072,48.142,39.199,49.438,39.336z
		"/>
	<linearGradient id="SVGID_6_" gradientUnits="userSpaceOnUse" x1="41.8262" y1="38.9834" x2="43.6152" y2="32.3068">
		<stop  offset="0" style="stop-color:#A76426"/>
		<stop  offset="0.169" style="stop-color:#A26023"/>
		<stop  offset="0.3959" style="stop-color:#95551B"/>
		<stop  offset="0.6558" style="stop-color:#80430B"/>
		<stop  offset="0.9382" style="stop-color:#632B00"/>
		<stop  offset="1" style="stop-color:#5B2400"/>
	</linearGradient>
	<path fill-rule="evenodd" clip-rule="evenodd" fill="url(#SVGID_6_)" d="M44.54,38.836c0.768-0.68,1.271-1.752,1.271-2.971
		c0-2.053-1.41-3.719-3.148-3.719c-1.739,0-3.148,1.666-3.148,3.719c0,1.01,0.431,2.09,0.984,2.762
		C41.517,38.711,42.915,38.752,44.54,38.836z"/>
	<circle fill-rule="evenodd" clip-rule="evenodd" fill="#FBB040" cx="42.915" cy="35.752" r="0.25"/>
	<g>
		<linearGradient id="SVGID_7_" gradientUnits="userSpaceOnUse" x1="32.5029" y1="42.0186" x2="36.6963" y2="42.0186">
			<stop  offset="0" style="stop-color:#A76426"/>
			<stop  offset="0.169" style="stop-color:#A26023"/>
			<stop  offset="0.3959" style="stop-color:#95551B"/>
			<stop  offset="0.6558" style="stop-color:#80430B"/>
			<stop  offset="0.9382" style="stop-color:#632B00"/>
			<stop  offset="1" style="stop-color:#5B2400"/>
		</linearGradient>
		<path fill-rule="evenodd" clip-rule="evenodd" fill="url(#SVGID_7_)" d="M32.503,39.135v5.768c0.281-0.285,4.192-1.35,4.192-1.35
			s0-2.688,0.001-2.688L32.503,39.135z"/>
		
			<radialGradient id="SVGID_8_" cx="36.1729" cy="41.9902" r="3.1123" gradientTransform="matrix(-0.0094 -1 0.8074 -0.0076 2.6125 78.481)" gradientUnits="userSpaceOnUse">
			<stop  offset="0" style="stop-color:#27AAE1"/>
			<stop  offset="0.1288" style="stop-color:#7556A4"/>
			<stop  offset="0.3129" style="stop-color:#000000"/>
			<stop  offset="0.5583" style="stop-color:#150100"/>
		</radialGradient>
		<path fill-rule="evenodd" clip-rule="evenodd" fill="url(#SVGID_8_)" d="M37.149,41.143c-0.214-0.334-0.527-0.549-0.881-0.549
			c-0.643,0-1.164,0.697-1.164,1.557c0,0.861,0.521,1.559,1.164,1.559c0.354,0,0.667-0.215,0.881-0.549V41.143z"/>
	</g>
	<ellipse fill-rule="evenodd" clip-rule="evenodd" fill="#FBB040" cx="48.041" cy="36.584" rx="0.206" ry="0.25"/>
</g>
<g opacity="0.8">
	<linearGradient id="SVGID_9_" gradientUnits="userSpaceOnUse" x1="13.3809" y1="12.4941" x2="13.3809" y2="2.1055">
		<stop  offset="0.0982" style="stop-color:#5B2400"/>
		<stop  offset="0.8221" style="stop-color:#EEA43D"/>
		<stop  offset="1" style="stop-color:#FBB040"/>
	</linearGradient>
	<ellipse fill-rule="evenodd" clip-rule="evenodd" fill="url(#SVGID_9_)" cx="13.381" cy="7.299" rx="4.452" ry="5.195"/>
	<linearGradient id="SVGID_10_" gradientUnits="userSpaceOnUse" x1="19.833" y1="12.8906" x2="19.833" y2="3.6914">
		<stop  offset="0.2945" style="stop-color:#5B2400"/>
		<stop  offset="0.8221" style="stop-color:#EEA43D"/>
		<stop  offset="1" style="stop-color:#FBB040"/>
	</linearGradient>
	<ellipse fill-rule="evenodd" clip-rule="evenodd" fill="url(#SVGID_10_)" cx="19.833" cy="8.291" rx="3.688" ry="4.6"/>
	<linearGradient id="SVGID_11_" gradientUnits="userSpaceOnUse" x1="19.2188" y1="21.8506" x2="19.2188" y2="10.6436">
		<stop  offset="0" style="stop-color:#A76426"/>
		<stop  offset="0.169" style="stop-color:#A26023"/>
		<stop  offset="0.3959" style="stop-color:#95551B"/>
		<stop  offset="0.6558" style="stop-color:#80430B"/>
		<stop  offset="0.9382" style="stop-color:#632B00"/>
		<stop  offset="1" style="stop-color:#5B2400"/>
	</linearGradient>
	<path fill-rule="evenodd" clip-rule="evenodd" fill="url(#SVGID_11_)" d="M14.903,10.643c0,0,0.813,0.23,0.739,1.073
		c-0.069,0.744,0.228,7.894,0.06,9.755c-0.038,0.349-0.018,0.406,0.111,0.369c0.585-0.166,0.714-0.272,6.614-2.037
		c0,0,1.177-0.154,1.103-1.729c-0.079-1.686-0.154-5.899-0.154-5.899s-0.071-0.687-1.07-0.84
		C21.31,11.178,14.903,10.643,14.903,10.643z"/>
	<g>
		<path fill-rule="evenodd" clip-rule="evenodd" fill="#FBB040" d="M16.049,21.45c0,0.396-0.31,0.624-0.688,0.507l-7.172-2.218
			c-0.378-0.117-0.688-0.537-0.688-0.933v-7.602c0-0.396,0.324-0.713,0.72-0.704l7.108,0.159c0.396,0.009,0.72,0.34,0.72,0.736
			V21.45z"/>
	</g>
	<linearGradient id="SVGID_12_" gradientUnits="userSpaceOnUse" x1="8.4336" y1="15.5332" x2="12.3115" y2="15.5332">
		<stop  offset="0" style="stop-color:#A76426"/>
		<stop  offset="1" style="stop-color:#5B2400"/>
	</linearGradient>
	<path fill-rule="evenodd" clip-rule="evenodd" fill="url(#SVGID_12_)" d="M8.434,9.664v11.737c0.356-0.577,3.875-4.312,3.875-4.312
		s0-3.291,0.002-3.291L8.434,9.664z"/>
	<polygon fill-rule="evenodd" clip-rule="evenodd" fill="#FBB040" points="8.434,21.401 1.006,18.448 1.006,11.129 8.434,9.664 	"/>
	<linearGradient id="SVGID_13_" gradientUnits="userSpaceOnUse" x1="19.6328" y1="11.3452" x2="21.6167" y2="3.9414">
		<stop  offset="0" style="stop-color:#A76426"/>
		<stop  offset="0.169" style="stop-color:#A26023"/>
		<stop  offset="0.3959" style="stop-color:#95551B"/>
		<stop  offset="0.6558" style="stop-color:#80430B"/>
		<stop  offset="0.9382" style="stop-color:#632B00"/>
		<stop  offset="1" style="stop-color:#5B2400"/>
	</linearGradient>
	<path fill-rule="evenodd" clip-rule="evenodd" fill="url(#SVGID_13_)" d="M22.492,11.384c0.803-0.776,1.325-2,1.325-3.395
		c0-2.345-1.472-4.248-3.286-4.248c-1.813,0-3.286,1.903-3.286,4.248c0,1.155,0.359,2.197,0.935,2.966
		C19.245,11.049,20.847,11.21,22.492,11.384z"/>
	<linearGradient id="SVGID_14_" gradientUnits="userSpaceOnUse" x1="12.8354" y1="10.9365" x2="15.1047" y2="2.4677">
		<stop  offset="0" style="stop-color:#A76426"/>
		<stop  offset="0.169" style="stop-color:#A26023"/>
		<stop  offset="0.3959" style="stop-color:#95551B"/>
		<stop  offset="0.6558" style="stop-color:#80430B"/>
		<stop  offset="0.9382" style="stop-color:#632B00"/>
		<stop  offset="1" style="stop-color:#5B2400"/>
	</linearGradient>
	<path fill-rule="evenodd" clip-rule="evenodd" fill="url(#SVGID_14_)" d="M16.279,10.75c0.972-0.86,1.61-2.221,1.61-3.767
		c0-2.606-1.789-4.718-3.994-4.718c-2.206,0-3.995,2.112-3.995,4.718c0,1.281,0.548,2.652,1.249,3.502
		C12.443,10.591,14.215,10.643,16.279,10.75z"/>
	<circle fill-rule="evenodd" clip-rule="evenodd" fill="#FBB040" cx="14.217" cy="6.837" r="0.317"/>
	<g>
		<linearGradient id="SVGID_15_" gradientUnits="userSpaceOnUse" x1="1.0039" y1="14.7891" x2="6.3247" y2="14.7891">
			<stop  offset="0" style="stop-color:#A76426"/>
			<stop  offset="0.169" style="stop-color:#A26023"/>
			<stop  offset="0.3959" style="stop-color:#95551B"/>
			<stop  offset="0.6558" style="stop-color:#80430B"/>
			<stop  offset="0.9382" style="stop-color:#632B00"/>
			<stop  offset="1" style="stop-color:#5B2400"/>
		</linearGradient>
		<path fill-rule="evenodd" clip-rule="evenodd" fill="url(#SVGID_15_)" d="M1.004,11.129v7.319
			c0.357-0.362,5.321-1.713,5.321-1.713v-3.41L1.004,11.129z"/>
		
			<radialGradient id="SVGID_16_" cx="5.6602" cy="14.7529" r="3.9489" gradientTransform="matrix(-0.0094 -1 0.8074 -0.0076 -6.1974 20.5251)" gradientUnits="userSpaceOnUse">
			<stop  offset="0" style="stop-color:#27AAE1"/>
			<stop  offset="0.1288" style="stop-color:#7556A4"/>
			<stop  offset="0.3129" style="stop-color:#000000"/>
			<stop  offset="0.5583" style="stop-color:#150100"/>
		</radialGradient>
		<path fill-rule="evenodd" clip-rule="evenodd" fill="url(#SVGID_16_)" d="M6.899,13.678c-0.27-0.424-0.667-0.697-1.118-0.697
			c-0.815,0-1.477,0.886-1.477,1.976c0,1.093,0.662,1.978,1.477,1.978c0.451,0,0.848-0.272,1.118-0.696V13.678z"/>
	</g>
	<ellipse fill-rule="evenodd" clip-rule="evenodd" fill="#FBB040" cx="20.72" cy="7.894" rx="0.26" ry="0.317"/>
</g>
<g>
	<g>
		<linearGradient id="SVGID_17_" gradientUnits="userSpaceOnUse" x1="-11.8149" y1="49.668" x2="-11.8149" y2="36.2422">
			<stop  offset="0.0982" style="stop-color:#5B2400"/>
			<stop  offset="0.8221" style="stop-color:#EEA43D"/>
			<stop  offset="1" style="stop-color:#FBB040"/>
		</linearGradient>
		<path fill="url(#SVGID_17_)" d="M-3.211,48.947c0,0.396-0.324,0.721-0.72,0.721h-15.766c-0.396,0-0.72-0.324-0.72-0.721V37.695
			c0-0.396,0.316-0.721,0.702-0.721s0.921-0.164,1.19-0.365s0.812-0.367,1.208-0.367h2.647c0.396,0,0.94,0.166,1.209,0.367
			c0.269,0.201,0.812,0.365,1.208,0.365h8.321c0.396,0,0.72,0.324,0.72,0.721V48.947z"/>
		<path fill="none" stroke="#673C30" stroke-width="0.25" d="M-3.211,48.947c0,0.396-0.324,0.721-0.72,0.721h-15.766
			c-0.396,0-0.72-0.324-0.72-0.721V37.695c0-0.396,0.316-0.721,0.702-0.721s0.921-0.164,1.19-0.365s0.812-0.367,1.208-0.367h2.647
			c0.396,0,0.94,0.166,1.209,0.367c0.269,0.201,0.812,0.365,1.208,0.365h8.321c0.396,0,0.72,0.324,0.72,0.721V48.947z"/>
	</g>
	<path fill="#C3D2D1" d="M-19.942,48.582c2.539-6.092,0.832-10.588,3.365-14.359c4.014,0.346,14.196,1.891,14.196,1.891
		c-1.679,3.818-0.243,6.586-2.559,10.857C-7.256,51.244-19.942,48.582-19.942,48.582z"/>
	<path fill="#FFFFFF" d="M-19.218,47.699c3.012-6.117,1.544-10.861,4.398-14.586c4.117,0.617,14.514,2.867,14.514,2.867
		c-1.978,3.828-0.677,6.775-3.34,11.029C-6.312,51.264-19.218,47.699-19.218,47.699z"/>
	<g>
		<g>
			<path d="M-13.933,35.153c-0.059-0.013-0.089-0.021-0.147-0.033c0.005-0.021,0.008-0.033,0.013-0.055
				c0.143,0.031,0.214,0.047,0.357,0.078c-0.005,0.021-0.006,0.033-0.01,0.055c-0.059-0.013-0.091-0.02-0.15-0.032
				c-0.037,0.171-0.054,0.255-0.085,0.427c-0.025-0.006-0.037-0.007-0.062-0.013C-13.986,35.408-13.97,35.324-13.933,35.153z"/>
			<path d="M-13.457,35.521c-0.024,0.128-0.124,0.161-0.208,0.143c-0.093-0.021-0.157-0.102-0.135-0.211
				c0.022-0.115,0.115-0.168,0.21-0.147C-13.489,35.328-13.437,35.417-13.457,35.521z M-13.733,35.465
				c-0.014,0.075,0.019,0.143,0.081,0.156c0.06,0.013,0.115-0.035,0.13-0.113c0.011-0.059-0.004-0.138-0.079-0.154
				C-13.674,35.338-13.72,35.399-13.733,35.465z"/>
			<path d="M-13.165,35.409c0.005,0.074,0.007,0.111,0.013,0.186c0.002,0.041,0.005,0.078,0.005,0.116c0,0,0,0,0.001,0
				c0.014-0.033,0.033-0.07,0.051-0.104c0.036-0.066,0.053-0.098,0.09-0.163c0.021,0.005,0.033,0.007,0.054,0.012
				c0.008,0.074,0.013,0.11,0.021,0.185c0.006,0.044,0.009,0.082,0.01,0.119c0.001,0.002,0.001,0.004,0.001,0.003
				c0.012-0.034,0.03-0.069,0.048-0.107c0.032-0.065,0.049-0.1,0.082-0.165c0.025,0.006,0.037,0.009,0.062,0.015
				c-0.071,0.129-0.105,0.192-0.174,0.321c-0.023-0.005-0.036-0.006-0.059-0.011c-0.01-0.07-0.015-0.108-0.024-0.179
				c-0.006-0.041-0.01-0.079-0.011-0.122l0,0.001c-0.017,0.039-0.034,0.074-0.053,0.108c-0.034,0.061-0.052,0.091-0.086,0.151
				c-0.023-0.005-0.035-0.01-0.058-0.015c-0.019-0.147-0.028-0.221-0.042-0.368C-13.206,35.397-13.191,35.403-13.165,35.409z"/>
			<path d="M-12.629,35.357c0.025,0.006,0.037,0.008,0.062,0.014c-0.018,0.087-0.026,0.13-0.042,0.217h0.001
				c0.014-0.016,0.034-0.031,0.055-0.037c0.021-0.006,0.043-0.006,0.067-0.001c0.048,0.011,0.115,0.055,0.095,0.174
				c-0.015,0.083-0.022,0.127-0.036,0.209c-0.025-0.006-0.037-0.009-0.062-0.015c0.013-0.08,0.02-0.119,0.034-0.198
				c0.01-0.056-0.002-0.11-0.062-0.123c-0.041-0.009-0.078,0.013-0.097,0.043c-0.006,0.009-0.009,0.02-0.011,0.03
				c-0.015,0.084-0.021,0.126-0.035,0.21c-0.025-0.006-0.037-0.01-0.062-0.016C-12.688,35.66-12.67,35.561-12.629,35.357z"/>
			<path d="M-11.977,35.848c-0.021,0.127-0.122,0.165-0.204,0.146c-0.095-0.021-0.157-0.106-0.138-0.217
				c0.02-0.116,0.109-0.166,0.206-0.145C-12.013,35.654-11.959,35.742-11.977,35.848z M-12.253,35.791
				c-0.013,0.075,0.021,0.143,0.083,0.156s0.115-0.035,0.129-0.114c0.01-0.059-0.007-0.137-0.081-0.153
				S-12.242,35.726-12.253,35.791z"/>
			<path d="M-11.883,35.787c0.006-0.037,0.009-0.065,0.013-0.094c0.022,0.005,0.034,0.006,0.056,0.011
				c-0.002,0.023-0.003,0.034-0.006,0.058c0,0.002,0.001-0.001,0.001,0.001c0.026-0.029,0.065-0.051,0.123-0.038
				c0.047,0.011,0.077,0.045,0.085,0.089c-0.001,0.004,0,0.003,0.002,0.003c0.014-0.018,0.031-0.029,0.047-0.037
				c0.024-0.012,0.048-0.016,0.081-0.008c0.047,0.011,0.109,0.056,0.09,0.176c-0.013,0.081-0.021,0.121-0.033,0.202
				c-0.025-0.006-0.037-0.008-0.062-0.014c0.012-0.078,0.019-0.117,0.031-0.195c0.011-0.068-0.007-0.11-0.057-0.122
				c-0.037-0.008-0.069,0.011-0.086,0.038c-0.004,0.009-0.009,0.021-0.011,0.032c-0.014,0.086-0.02,0.128-0.033,0.214
				c-0.025-0.006-0.037-0.007-0.062-0.013c0.013-0.083,0.021-0.126,0.034-0.209c0.009-0.056-0.009-0.102-0.058-0.113
				c-0.038-0.008-0.073,0.021-0.089,0.047c-0.005,0.008-0.01,0.021-0.012,0.031c-0.014,0.083-0.021,0.124-0.034,0.207
				c-0.025-0.006-0.038-0.008-0.062-0.014C-11.91,35.938-11.9,35.888-11.883,35.787z"/>
			<path d="M-11.168,36.205c0.021-0.139,0.032-0.208,0.056-0.347c0.025,0.006,0.038,0.009,0.063,0.015
				c-0.023,0.139-0.033,0.209-0.054,0.348C-11.128,36.215-11.143,36.211-11.168,36.205z M-11.024,35.778
				c-0.004,0.021-0.022,0.036-0.047,0.03c-0.023-0.005-0.036-0.025-0.032-0.047c0.003-0.021,0.023-0.037,0.047-0.031
				C-11.034,35.735-11.021,35.756-11.024,35.778z"/>
			<path d="M-10.853,35.829c-0.006,0.033-0.009,0.052-0.014,0.085c0.037,0.008,0.054,0.011,0.091,0.019
				c-0.003,0.02-0.004,0.03-0.007,0.05c-0.037-0.008-0.056-0.013-0.093-0.021c-0.012,0.075-0.017,0.11-0.028,0.186
				c-0.007,0.043,0,0.07,0.037,0.078c0.018,0.004,0.027,0.006,0.038,0.005c-0.002,0.02-0.002,0.029-0.003,0.049
				c-0.013,0.001-0.034,0.002-0.06-0.004c-0.028-0.006-0.053-0.024-0.065-0.044c-0.014-0.021-0.015-0.053-0.009-0.094
				c0.012-0.076,0.017-0.113,0.029-0.189c-0.021-0.005-0.033-0.006-0.054-0.011c0.003-0.02,0.005-0.029,0.009-0.049
				c0.021,0.005,0.033,0.007,0.054,0.012c0.004-0.025,0.006-0.039,0.011-0.064C-10.892,35.834-10.879,35.831-10.853,35.829z"/>
			<path d="M-10.566,36.078c0.005-0.037,0.009-0.067,0.013-0.096c0.022,0.005,0.032,0.009,0.054,0.014
				c-0.002,0.023-0.003,0.032-0.005,0.056c0.001,0.001,0.002,0,0.003,0c0.025-0.029,0.063-0.051,0.121-0.038
				c0.047,0.01,0.079,0.045,0.087,0.09c0,0.002,0,0.002,0,0.002c0.014-0.018,0.032-0.03,0.047-0.038
				c0.024-0.012,0.048-0.016,0.082-0.008c0.047,0.01,0.111,0.056,0.093,0.176c-0.012,0.081-0.018,0.124-0.029,0.205
				c-0.025-0.006-0.038-0.009-0.063-0.015c0.011-0.078,0.017-0.117,0.029-0.195c0.01-0.068-0.01-0.111-0.06-0.122
				c-0.038-0.009-0.07,0.01-0.085,0.037c-0.004,0.009-0.007,0.021-0.009,0.032c-0.013,0.086-0.018,0.129-0.03,0.215
				c-0.025-0.006-0.039-0.008-0.064-0.014c0.012-0.083,0.017-0.127,0.03-0.21c0.009-0.056-0.01-0.1-0.059-0.11
				c-0.038-0.009-0.07,0.021-0.086,0.047c-0.004,0.008-0.009,0.02-0.011,0.029c-0.013,0.083-0.018,0.125-0.03,0.209
				c-0.025-0.006-0.038-0.008-0.062-0.014C-10.589,36.229-10.583,36.179-10.566,36.078z"/>
			<path d="M-9.741,36.433c-0.004,0.029-0.007,0.061-0.006,0.085c-0.023-0.005-0.035-0.007-0.058-0.012
				c0-0.018,0.001-0.027,0.001-0.045l-0.001-0.001c-0.023,0.022-0.063,0.039-0.115,0.028c-0.07-0.016-0.101-0.073-0.094-0.123
				c0.012-0.084,0.095-0.115,0.23-0.085c0-0.003,0-0.006,0.001-0.009c0.004-0.027,0.003-0.079-0.069-0.094
				c-0.032-0.007-0.068-0.006-0.095,0.006c-0.003-0.019-0.004-0.026-0.008-0.045c0.031-0.011,0.075-0.015,0.119-0.005
				c0.107,0.023,0.123,0.102,0.113,0.17C-9.729,36.355-9.734,36.381-9.741,36.433z M-9.79,36.326
				c-0.069-0.017-0.15-0.022-0.16,0.045c-0.006,0.042,0.02,0.067,0.052,0.074c0.046,0.01,0.079-0.012,0.094-0.039
				c0.003-0.006,0.006-0.014,0.007-0.02C-9.793,36.362-9.793,36.351-9.79,36.326z"/>
			<path d="M-9.582,36.194c0.018,0.089,0.026,0.135,0.045,0.224c0.007,0.025,0.012,0.051,0.014,0.072
				c-0.001,0.004,0.001,0.004,0.001,0.004c0.01-0.019,0.021-0.047,0.034-0.07c0.04-0.075,0.059-0.11,0.099-0.186
				c0.027,0.006,0.042,0.007,0.068,0.013c-0.053,0.091-0.08,0.14-0.132,0.23c-0.062,0.109-0.102,0.161-0.15,0.188
				c-0.036,0.02-0.067,0.024-0.084,0.023c-0.003-0.022-0.005-0.031-0.009-0.054c0.017-0.002,0.038-0.01,0.06-0.021
				c0.02-0.011,0.043-0.031,0.062-0.061c0.004-0.006,0.007-0.011,0.008-0.015c0.001-0.003,0.001-0.01-0.001-0.019
				c-0.034-0.14-0.051-0.207-0.083-0.347C-9.623,36.185-9.609,36.188-9.582,36.194z"/>
			<path d="M-8.907,36.688c-0.018,0.004-0.056,0.01-0.104,0c-0.105-0.022-0.166-0.11-0.151-0.217
				c0.015-0.106,0.103-0.168,0.217-0.143c0.039,0.008,0.069,0.024,0.085,0.038c-0.008,0.018-0.013,0.028-0.021,0.046
				c-0.014-0.012-0.037-0.025-0.071-0.033c-0.08-0.018-0.134,0.031-0.144,0.104c-0.011,0.081,0.035,0.141,0.105,0.156
				c0.037,0.008,0.061,0.004,0.08,0C-8.91,36.658-8.909,36.668-8.907,36.688z"/>
			<path d="M-8.496,36.609c-0.017,0.128-0.114,0.165-0.2,0.146c-0.094-0.021-0.161-0.104-0.146-0.215
				c0.016-0.116,0.105-0.167,0.201-0.146C-8.539,36.418-8.482,36.504-8.496,36.609z M-8.775,36.553
				c-0.01,0.075,0.026,0.143,0.089,0.156c0.06,0.013,0.115-0.033,0.125-0.111c0.008-0.059-0.012-0.141-0.088-0.157
				C-8.723,36.425-8.766,36.487-8.775,36.553z"/>
			<path d="M-8.404,36.551c0.005-0.037,0.009-0.065,0.011-0.095c0.022,0.005,0.033,0.008,0.055,0.013
				c-0.002,0.023-0.003,0.036-0.005,0.06c0.001-0.001,0.001-0.001,0.002-0.001c0.022-0.028,0.067-0.052,0.125-0.039
				c0.048,0.011,0.12,0.055,0.104,0.174c-0.011,0.082-0.017,0.125-0.027,0.207c-0.026-0.006-0.038-0.009-0.063-0.015
				c0.01-0.08,0.015-0.12,0.025-0.2c0.007-0.056-0.007-0.106-0.067-0.119c-0.042-0.009-0.079,0.013-0.096,0.045
				c-0.004,0.007-0.006,0.018-0.008,0.027c-0.011,0.084-0.017,0.128-0.027,0.212c-0.025-0.006-0.037-0.008-0.062-0.014
				C-8.423,36.704-8.417,36.652-8.404,36.551z"/>
			<path d="M-7.779,36.937c-0.019,0.004-0.057,0.009-0.105-0.002c-0.106-0.023-0.166-0.112-0.152-0.219
				c0.014-0.106,0.099-0.167,0.214-0.142c0.038,0.009,0.07,0.024,0.086,0.037c-0.008,0.018-0.013,0.027-0.021,0.045
				c-0.015-0.011-0.038-0.026-0.073-0.034c-0.081-0.018-0.132,0.034-0.141,0.106c-0.01,0.08,0.037,0.14,0.106,0.155
				c0.038,0.008,0.062,0.005,0.081,0.001C-7.784,36.905-7.782,36.916-7.779,36.937z"/>
			<path d="M-7.654,36.808c-0.01,0.085,0.04,0.131,0.105,0.146c0.045,0.01,0.074,0.008,0.099,0.003
				c0.003,0.019,0.004,0.031,0.007,0.05c-0.024,0.006-0.063,0.012-0.12-0.001c-0.109-0.023-0.166-0.113-0.153-0.218
				s0.088-0.171,0.19-0.148c0.115,0.025,0.132,0.133,0.124,0.196c-0.001,0.013-0.004,0.023-0.007,0.029
				C-7.507,36.843-7.556,36.829-7.654,36.808z M-7.461,36.806c0.006-0.039-0.003-0.109-0.076-0.125
				c-0.066-0.015-0.1,0.04-0.112,0.083C-7.574,36.78-7.536,36.789-7.461,36.806z"/>
			<path d="M-7.315,36.804c0.005-0.041,0.008-0.075,0.011-0.107c0.022,0.005,0.034,0.004,0.056,0.009
				c-0.003,0.028-0.003,0.043-0.006,0.071c0.001,0,0.002-0.003,0.003-0.003c0.021-0.043,0.065-0.061,0.107-0.051
				c0.007,0.002,0.012,0.005,0.018,0.007c-0.003,0.024-0.005,0.034-0.008,0.058c-0.007-0.004-0.013-0.007-0.021-0.009
				c-0.044-0.011-0.082,0.017-0.096,0.062c-0.002,0.009-0.004,0.021-0.005,0.03c-0.009,0.074-0.014,0.111-0.023,0.186
				c-0.026-0.006-0.04-0.008-0.065-0.014C-7.334,36.946-7.328,36.899-7.315,36.804z"/>
			<path d="M-7.073,36.842c0.004-0.037,0.008-0.067,0.009-0.097c0.022,0.005,0.034,0.01,0.056,0.015
				c-0.001,0.023-0.003,0.036-0.004,0.06c0.002,0,0.002,0,0.001,0c0.022-0.028,0.068-0.053,0.126-0.04
				c0.048,0.011,0.12,0.055,0.106,0.174c-0.01,0.083-0.014,0.126-0.023,0.209c-0.026-0.006-0.039-0.013-0.065-0.019
				c0.009-0.08,0.013-0.118,0.022-0.198c0.007-0.056-0.008-0.106-0.067-0.119c-0.042-0.009-0.079,0.013-0.095,0.045
				c-0.004,0.008-0.007,0.021-0.008,0.03c-0.01,0.084-0.015,0.122-0.025,0.206c-0.026-0.006-0.038-0.007-0.063-0.013
				C-7.092,36.994-7.086,36.942-7.073,36.842z"/>
			<path d="M-6.71,37.146c0.003-0.026,0.023-0.045,0.049-0.039s0.042,0.025,0.039,0.052c-0.003,0.025-0.023,0.045-0.05,0.039
				C-6.697,37.191-6.713,37.171-6.71,37.146z M-6.68,36.89c0.003-0.026,0.023-0.043,0.049-0.037s0.04,0.029,0.037,0.056
				c-0.003,0.025-0.023,0.039-0.05,0.033C-6.668,36.937-6.683,36.915-6.68,36.89z"/>
			<path d="M-14.292,36.797c0.025,0.006,0.038,0.008,0.063,0.014c-0.011,0.093-0.018,0.141-0.028,0.234c0.002,0,0.002,0,0.003,0.002
				c0.016-0.016,0.029-0.033,0.042-0.047c0.068-0.06,0.104-0.09,0.172-0.149c0.032,0.007,0.048,0.012,0.08,0.019
				c-0.081,0.066-0.122,0.1-0.203,0.166c0.064,0.129,0.097,0.191,0.163,0.32c-0.03-0.007-0.046-0.009-0.076-0.016
				c-0.055-0.109-0.081-0.164-0.134-0.273c-0.021,0.017-0.033,0.023-0.054,0.04c-0.008,0.074-0.012,0.113-0.02,0.188
				c-0.025-0.006-0.038-0.009-0.063-0.015C-14.327,37.085-14.315,36.989-14.292,36.797z"/>
			<path d="M-13.685,37.337c-0.003,0.03-0.003,0.062-0.002,0.087c-0.023-0.005-0.036-0.006-0.059-0.011c0-0.018,0-0.027,0-0.045
				c-0.001,0-0.003-0.001-0.002-0.001c-0.022,0.023-0.065,0.037-0.116,0.026c-0.07-0.016-0.103-0.073-0.097-0.124
				c0.009-0.084,0.092-0.113,0.227-0.082c0-0.003,0-0.005,0.001-0.008c0.003-0.028,0.002-0.081-0.07-0.097
				c-0.034-0.008-0.07-0.005-0.097,0.006c-0.003-0.019-0.005-0.026-0.009-0.045c0.031-0.012,0.077-0.018,0.122-0.008
				c0.108,0.023,0.123,0.105,0.116,0.175C-13.677,37.263-13.68,37.285-13.685,37.337z M-13.739,37.233
				c-0.069-0.017-0.149-0.024-0.157,0.044c-0.004,0.042,0.022,0.068,0.054,0.075c0.047,0.01,0.08-0.013,0.093-0.039
				c0.003-0.007,0.005-0.014,0.005-0.02C-13.741,37.27-13.741,37.258-13.739,37.233z"/>
			<path d="M-13.534,36.933c0.025,0.006,0.038,0.013,0.063,0.019c-0.01,0.087-0.016,0.131-0.026,0.218h0.002
				c0.028-0.034,0.072-0.051,0.129-0.038c0.088,0.02,0.141,0.103,0.129,0.208c-0.014,0.124-0.099,0.17-0.18,0.152
				c-0.051-0.011-0.089-0.037-0.113-0.088l-0.001-0.002c-0.004,0.022-0.005,0.034-0.009,0.057c-0.022-0.005-0.033-0.009-0.055-0.014
				c0.004-0.023,0.009-0.061,0.013-0.092C-13.563,37.185-13.554,37.1-13.534,36.933z M-13.513,37.321c0,0.008,0,0.017,0.002,0.023
				c0.008,0.045,0.042,0.083,0.089,0.093c0.068,0.015,0.112-0.031,0.12-0.111c0.007-0.069-0.021-0.137-0.091-0.152
				c-0.042-0.01-0.085,0.012-0.104,0.056c-0.004,0.008-0.008,0.017-0.009,0.026C-13.509,37.281-13.51,37.296-13.513,37.321z"/>
			<path d="M-12.917,37.506c-0.003,0.03-0.004,0.059-0.003,0.083c-0.023-0.005-0.035-0.006-0.058-0.011c0-0.018,0-0.027-0.001-0.045
				c-0.002,0-0.001-0.002-0.002-0.002c-0.022,0.023-0.062,0.04-0.113,0.029c-0.07-0.016-0.104-0.072-0.098-0.123
				c0.009-0.084,0.091-0.112,0.227-0.081c0-0.003-0.001-0.005,0-0.008c0.003-0.028,0.002-0.084-0.07-0.099
				c-0.033-0.008-0.07-0.004-0.096,0.007c-0.004-0.018-0.005-0.028-0.009-0.046c0.031-0.012,0.078-0.016,0.122-0.006
				c0.108,0.023,0.124,0.102,0.117,0.171C-12.909,37.428-12.912,37.454-12.917,37.506z M-12.97,37.401
				c-0.069-0.018-0.149-0.023-0.156,0.044c-0.004,0.041,0.02,0.065,0.051,0.072c0.047,0.01,0.08-0.014,0.093-0.04
				c0.003-0.007,0.006-0.013,0.007-0.019C-12.973,37.435-12.973,37.426-12.97,37.401z"/>
			<path d="M-12.768,37.104c0.026,0.006,0.038,0.008,0.064,0.014c-0.023,0.204-0.033,0.306-0.054,0.51
				c-0.026-0.006-0.04-0.008-0.065-0.014C-12.803,37.41-12.791,37.309-12.768,37.104z"/>
			<path d="M-12.391,37.618c-0.003,0.03-0.005,0.062-0.004,0.087c-0.023-0.005-0.035-0.006-0.058-0.011c0-0.018,0-0.027,0-0.045
				c-0.001,0.001-0.002,0.001-0.002,0.001c-0.023,0.023-0.064,0.034-0.115,0.023c-0.071-0.016-0.103-0.07-0.098-0.121
				c0.009-0.084,0.09-0.115,0.227-0.084c0-0.003-0.001-0.006,0-0.009c0.003-0.028,0.001-0.082-0.072-0.098
				c-0.033-0.008-0.068-0.004-0.095,0.007c-0.004-0.018-0.005-0.027-0.009-0.045c0.032-0.012,0.074-0.014,0.119-0.004
				c0.107,0.023,0.128,0.101,0.121,0.17C-12.383,37.542-12.385,37.566-12.391,37.618z M-12.445,37.514
				c-0.07-0.017-0.15-0.022-0.157,0.045c-0.004,0.041,0.021,0.067,0.053,0.074c0.047,0.01,0.079-0.012,0.093-0.038
				c0.003-0.007,0.004-0.014,0.005-0.02C-12.449,37.551-12.447,37.538-12.445,37.514z"/>
			<path d="M-12.09,37.608c-0.008,0.086,0.043,0.132,0.109,0.146c0.045,0.01,0.076,0.008,0.101,0.003
				c0.002,0.02,0.003,0.027,0.006,0.047c-0.023,0.005-0.064,0.007-0.121-0.006c-0.109-0.023-0.166-0.109-0.155-0.214
				s0.082-0.17,0.186-0.147c0.116,0.025,0.135,0.129,0.128,0.193c-0.001,0.013-0.003,0.023-0.006,0.03
				C-11.941,37.64-11.991,37.63-12.09,37.608z M-11.897,37.602c0.005-0.039-0.006-0.105-0.077-0.121
				c-0.066-0.015-0.099,0.037-0.109,0.08C-12.009,37.577-11.973,37.585-11.897,37.602z"/>
			<path d="M-11.749,37.586c0.004-0.036,0.006-0.064,0.007-0.094c0.022,0.005,0.034,0.007,0.056,0.012
				c-0.001,0.023-0.002,0.035-0.003,0.059c0.001,0,0.003,0.002,0.002,0.002c0.021-0.029,0.065-0.054,0.124-0.041
				c0.049,0.011,0.123,0.058,0.11,0.177c-0.008,0.083-0.014,0.124-0.022,0.207c-0.026-0.006-0.038-0.008-0.063-0.014
				c0.008-0.08,0.012-0.122,0.02-0.202c0.006-0.057-0.01-0.107-0.07-0.121c-0.042-0.009-0.08,0.015-0.095,0.048
				c-0.004,0.007-0.006,0.019-0.007,0.029c-0.009,0.083-0.013,0.124-0.021,0.207c-0.025-0.006-0.038-0.006-0.063-0.012
				C-11.765,37.741-11.76,37.688-11.749,37.586z"/>
			<path d="M-11.062,37.943c-0.008,0.081-0.031,0.126-0.066,0.148c-0.038,0.023-0.09,0.022-0.134,0.014
				c-0.043-0.01-0.088-0.03-0.115-0.055c0.008-0.019,0.012-0.025,0.021-0.044c0.021,0.02,0.058,0.04,0.102,0.049
				c0.065,0.015,0.118-0.008,0.127-0.097c0.002-0.016,0.001-0.024,0.003-0.04c-0.001,0.001,0,0.001,0,0.001
				c-0.022,0.027-0.064,0.047-0.119,0.035c-0.087-0.02-0.145-0.106-0.135-0.203c0.012-0.118,0.099-0.167,0.181-0.149
				c0.062,0.014,0.09,0.054,0.104,0.086c0.001,0,0.001-0.001,0.002-0.001c0.003-0.021,0.005-0.032,0.008-0.053
				c0.022,0.005,0.034,0.007,0.056,0.012c-0.005,0.024-0.01,0.052-0.014,0.094C-11.05,37.821-11.053,37.862-11.062,37.943z
				 M-11.109,37.771c0.001-0.011,0-0.021-0.002-0.029c-0.007-0.04-0.033-0.077-0.081-0.087c-0.062-0.014-0.113,0.024-0.122,0.105
				c-0.007,0.068,0.025,0.134,0.093,0.149c0.041,0.009,0.077-0.01,0.095-0.047c0.005-0.01,0.008-0.021,0.009-0.031
				C-11.114,37.807-11.112,37.797-11.109,37.771z"/>
			<path d="M-10.966,38.016c0.014-0.139,0.021-0.21,0.036-0.349c0.026,0.006,0.038,0.008,0.063,0.014
				c-0.014,0.139-0.019,0.21-0.033,0.349C-10.925,38.023-10.94,38.021-10.966,38.016z M-10.849,37.586
				c-0.002,0.021-0.02,0.039-0.046,0.033c-0.023-0.005-0.035-0.028-0.033-0.05s0.019-0.036,0.043-0.03
				C-10.861,37.544-10.846,37.564-10.849,37.586z"/>
			<path d="M-10.77,37.8c0.004-0.036,0.006-0.065,0.007-0.095c0.022,0.005,0.034,0.011,0.057,0.016c0,0.023-0.001,0.034-0.002,0.058
				h0.001c0.02-0.028,0.066-0.055,0.125-0.042c0.05,0.011,0.122,0.057,0.109,0.176c-0.008,0.083-0.013,0.124-0.021,0.207
				c-0.025-0.006-0.038-0.008-0.063-0.014c0.008-0.08,0.012-0.122,0.02-0.202c0.006-0.057-0.01-0.104-0.071-0.117
				c-0.042-0.009-0.079,0.011-0.094,0.044c-0.004,0.007-0.006,0.018-0.007,0.029c-0.009,0.083-0.011,0.126-0.02,0.209
				c-0.026-0.006-0.041-0.008-0.067-0.014C-10.785,37.953-10.78,37.901-10.77,37.8z"/>
			<path d="M-10.337,37.985c-0.007,0.086,0.044,0.135,0.11,0.149c0.045,0.01,0.075,0.006,0.1,0.001
				c0.003,0.02,0.004,0.03,0.007,0.05c-0.025,0.005-0.065,0.01-0.122-0.003c-0.109-0.023-0.167-0.108-0.156-0.213
				c0.011-0.105,0.083-0.173,0.186-0.15c0.116,0.025,0.135,0.13,0.128,0.194c-0.001,0.013-0.002,0.02-0.004,0.026
				C-10.188,38.019-10.237,38.007-10.337,37.985z M-10.146,37.982c0.005-0.039-0.004-0.105-0.078-0.121
				c-0.065-0.015-0.1,0.036-0.109,0.079C-10.257,37.957-10.221,37.966-10.146,37.982z"/>
			<path d="M-9.843,38.016c0.004-0.041,0.006-0.074,0.008-0.107c0.022,0.005,0.033,0.007,0.056,0.012
				c-0.002,0.027-0.003,0.041-0.005,0.068c0.001,0,0.002-0.001,0.003-0.001c0.021-0.043,0.063-0.062,0.106-0.054
				c0.007,0.002,0.013,0.004,0.019,0.006c-0.002,0.023-0.005,0.035-0.008,0.059c-0.007-0.002-0.013-0.002-0.021-0.004
				c-0.046-0.01-0.082,0.019-0.096,0.064c-0.002,0.009-0.003,0.016-0.004,0.025c-0.007,0.074-0.012,0.111-0.02,0.186
				c-0.026-0.006-0.038-0.008-0.063-0.014C-9.857,38.16-9.853,38.111-9.843,38.016z"/>
			<path d="M-9.322,38.277c-0.004,0.036-0.007,0.065-0.008,0.093c-0.022-0.005-0.035-0.003-0.057-0.008
				c0-0.023,0.001-0.036,0.001-0.06l0,0.001c-0.018,0.024-0.061,0.052-0.123,0.038c-0.056-0.012-0.119-0.058-0.106-0.18
				c0.008-0.081,0.011-0.122,0.019-0.203c0.026,0.006,0.04,0.011,0.066,0.017c-0.008,0.076-0.012,0.113-0.02,0.189
				c-0.007,0.065,0.009,0.117,0.066,0.13c0.043,0.01,0.077-0.013,0.092-0.039c0.004-0.008,0.008-0.021,0.009-0.033
				c0.009-0.085,0.013-0.129,0.022-0.214c0.025,0.006,0.038,0.008,0.063,0.014C-9.308,38.123-9.312,38.177-9.322,38.277z"/>
			<path d="M-9.174,37.885c0.026,0.006,0.039,0.006,0.064,0.012c-0.021,0.204-0.031,0.309-0.052,0.513
				C-9.187,38.403-9.2,38.4-9.226,38.395C-9.205,38.19-9.195,38.089-9.174,37.885z"/>
			<path d="M-9.001,38.279c-0.007,0.086,0.044,0.132,0.108,0.146c0.046,0.01,0.077,0.01,0.102,0.005
				c0.002,0.02,0.004,0.026,0.007,0.046c-0.024,0.005-0.064,0.01-0.121-0.002c-0.109-0.023-0.167-0.113-0.156-0.218
				s0.083-0.172,0.186-0.149c0.116,0.025,0.135,0.129,0.129,0.193c-0.001,0.013-0.004,0.024-0.006,0.031
				C-8.853,38.311-8.901,38.301-9.001,38.279z M-8.809,38.273c0.005-0.039-0.005-0.104-0.078-0.12
				c-0.065-0.015-0.1,0.036-0.109,0.079C-8.921,38.249-8.884,38.257-8.809,38.273z"/>
			<path d="M-8.688,38.448c0.018,0.016,0.051,0.035,0.082,0.042c0.047,0.01,0.07-0.008,0.074-0.037
				c0.003-0.031-0.012-0.052-0.058-0.079c-0.062-0.037-0.088-0.076-0.084-0.118c0.006-0.056,0.056-0.089,0.131-0.073
				c0.036,0.008,0.067,0.024,0.083,0.041c-0.008,0.018-0.012,0.022-0.02,0.04c-0.013-0.012-0.038-0.029-0.07-0.037
				c-0.038-0.008-0.061,0.009-0.063,0.034c-0.003,0.028,0.017,0.048,0.062,0.076c0.058,0.035,0.088,0.072,0.083,0.124
				c-0.006,0.062-0.06,0.095-0.143,0.076c-0.039-0.009-0.074-0.026-0.098-0.046C-8.702,38.474-8.697,38.466-8.688,38.448z"/>
			<path d="M-8.417,38.534c0.002-0.025,0.023-0.041,0.048-0.035c0.026,0.006,0.041,0.026,0.038,0.054
				c-0.002,0.025-0.021,0.042-0.049,0.036C-8.403,38.584-8.419,38.56-8.417,38.534z"/>
			<path d="M-8.001,38.506c-0.027,0.057-0.039,0.083-0.066,0.14c-0.026-0.006-0.04-0.007-0.066-0.013
				c0.087-0.179,0.13-0.269,0.217-0.447c0.03,0.007,0.046,0.01,0.076,0.017c0.048,0.208,0.071,0.312,0.118,0.521
				c-0.027-0.006-0.041-0.01-0.068-0.016c-0.015-0.065-0.022-0.096-0.037-0.161C-7.896,38.53-7.932,38.521-8.001,38.506z
				 M-7.833,38.492c-0.014-0.06-0.021-0.087-0.035-0.146c-0.007-0.034-0.013-0.068-0.017-0.098c-0.001,0-0.001,0-0.001,0
				c-0.01,0.026-0.021,0.054-0.035,0.081c-0.025,0.052-0.038,0.078-0.062,0.13C-7.923,38.472-7.893,38.479-7.833,38.492z"/>
			<path d="M-7.658,38.67c0.019,0.016,0.052,0.039,0.084,0.046c0.047,0.01,0.07-0.008,0.073-0.037
				c0.003-0.03-0.014-0.051-0.059-0.077c-0.062-0.037-0.089-0.079-0.085-0.121c0.006-0.056,0.058-0.093,0.134-0.076
				c0.036,0.008,0.066,0.024,0.083,0.041c-0.008,0.018-0.012,0.027-0.02,0.045c-0.014-0.012-0.037-0.031-0.071-0.039
				c-0.037-0.008-0.061,0.009-0.063,0.034c-0.003,0.028,0.019,0.048,0.062,0.075c0.057,0.036,0.086,0.073,0.081,0.125
				c-0.006,0.061-0.059,0.094-0.141,0.076c-0.04-0.009-0.076-0.028-0.099-0.048C-7.671,38.696-7.667,38.688-7.658,38.67z"/>
			<path d="M-6.854,38.391c-0.017,0.168-0.025,0.252-0.043,0.42c-0.003,0.031-0.004,0.066-0.005,0.091
				c-0.023-0.005-0.035-0.011-0.058-0.016c0.002-0.024,0.003-0.032,0.005-0.057c-0.001-0.003,0,0-0.002,0
				c-0.024,0.034-0.07,0.052-0.127,0.039c-0.086-0.019-0.142-0.104-0.132-0.208c0.012-0.116,0.091-0.171,0.178-0.152
				c0.055,0.012,0.088,0.047,0.102,0.077h0.001c0.009-0.083,0.012-0.127,0.021-0.21C-6.892,38.381-6.879,38.385-6.854,38.391z
				 M-6.948,38.683c0.001-0.009,0-0.021,0-0.028c-0.006-0.042-0.038-0.085-0.085-0.095c-0.065-0.015-0.113,0.037-0.122,0.113
				c-0.007,0.07,0.024,0.133,0.092,0.147c0.043,0.01,0.086-0.007,0.103-0.052c0.003-0.008,0.004-0.019,0.005-0.028
				C-6.953,38.717-6.95,38.706-6.948,38.683z"/>
			<path d="M-6.46,38.815c-0.014,0.129-0.112,0.166-0.197,0.147c-0.094-0.021-0.161-0.107-0.149-0.217
				c0.012-0.115,0.098-0.165,0.194-0.145C-6.51,38.624-6.449,38.709-6.46,38.815z M-6.74,38.761
				c-0.008,0.077,0.03,0.141,0.094,0.154c0.061,0.013,0.113-0.032,0.121-0.11c0.007-0.059-0.018-0.14-0.093-0.156
				S-6.733,38.696-6.74,38.761z"/>
			<path d="M-6.122,38.627c-0.003,0.033-0.003,0.055-0.006,0.088c0.037,0.008,0.055,0.011,0.092,0.019
				c-0.002,0.02-0.004,0.027-0.006,0.047c-0.037-0.008-0.056-0.011-0.093-0.019c-0.008,0.075-0.011,0.112-0.02,0.188
				c-0.005,0.044,0.006,0.07,0.042,0.078c0.018,0.004,0.027,0.004,0.037,0.003c-0.001,0.02,0,0.027-0.001,0.047
				c-0.012,0.003-0.032,0.005-0.057,0c-0.03-0.007-0.055-0.024-0.067-0.044c-0.016-0.024-0.019-0.054-0.015-0.096
				c0.008-0.076,0.013-0.113,0.021-0.189c-0.022-0.005-0.033-0.007-0.056-0.012c0.002-0.02,0.004-0.03,0.006-0.05
				c0.022,0.005,0.032,0.01,0.055,0.015c0.002-0.026,0.003-0.036,0.006-0.062C-6.159,38.637-6.147,38.629-6.122,38.627z"/>
			<path d="M-5.947,38.588c0.026,0.006,0.04,0.008,0.065,0.014c-0.009,0.087-0.015,0.131-0.024,0.218l0-0.001
				c0.013-0.017,0.031-0.029,0.052-0.036c0.021-0.006,0.043-0.007,0.068-0.001c0.048,0.01,0.121,0.058,0.107,0.177
				c-0.009,0.083-0.014,0.121-0.023,0.203c-0.026-0.006-0.039-0.003-0.065-0.009c0.009-0.08,0.014-0.123,0.023-0.203
				c0.006-0.056-0.011-0.108-0.072-0.121c-0.042-0.009-0.076,0.012-0.092,0.043c-0.005,0.008-0.006,0.02-0.007,0.031
				c-0.009,0.084-0.014,0.125-0.023,0.209c-0.026-0.006-0.039-0.008-0.064-0.014C-5.979,38.894-5.968,38.792-5.947,38.588z"/>
			<path d="M-5.544,39.031c-0.008,0.086,0.043,0.136,0.109,0.149c0.045,0.01,0.077,0.006,0.101,0.001
				c0.002,0.02,0.003,0.028,0.005,0.048c-0.025,0.005-0.063,0.011-0.12-0.002c-0.109-0.023-0.167-0.112-0.155-0.218
				c0.012-0.104,0.084-0.171,0.187-0.148c0.116,0.025,0.135,0.131,0.128,0.195c-0.001,0.013-0.002,0.022-0.004,0.029
				C-5.393,39.064-5.444,39.053-5.544,39.031z M-5.35,39.027c0.006-0.039-0.005-0.107-0.078-0.123
				c-0.064-0.015-0.1,0.04-0.109,0.083C-5.462,39.004-5.425,39.011-5.35,39.027z"/>
			<path d="M-4.818,39.271c-0.003,0.03-0.006,0.058-0.005,0.082c-0.023-0.005-0.034-0.004-0.057-0.009c0-0.018,0-0.029,0-0.047
				c-0.001,0-0.001,0-0.002,0c-0.023,0.023-0.063,0.038-0.114,0.027c-0.071-0.016-0.103-0.07-0.097-0.121
				c0.01-0.085,0.09-0.114,0.227-0.084c0-0.003,0-0.005,0-0.008c0.003-0.028,0.002-0.082-0.071-0.098
				c-0.033-0.007-0.069-0.005-0.096,0.006c-0.004-0.019-0.004-0.026-0.008-0.045c0.032-0.012,0.075-0.017,0.12-0.007
				c0.108,0.023,0.127,0.105,0.12,0.175C-4.809,39.195-4.812,39.219-4.818,39.271z M-4.87,39.165
				c-0.07-0.018-0.15-0.023-0.158,0.044c-0.005,0.041,0.02,0.065,0.053,0.072c0.046,0.01,0.082-0.012,0.093-0.036
				c0.003-0.007,0.005-0.017,0.005-0.022C-4.875,39.199-4.873,39.189-4.87,39.165z"/>
			<path d="M-4.697,39.139c0.004-0.041,0.008-0.078,0.009-0.111c0.022,0.005,0.032,0.006,0.055,0.011
				c-0.001,0.027-0.002,0.043-0.004,0.07c0.001,0.001,0.001,0,0.002,0c0.021-0.044,0.065-0.062,0.107-0.054
				c0.007,0.002,0.011,0.006,0.017,0.008c-0.002,0.023-0.005,0.036-0.007,0.06c-0.007-0.002-0.013-0.008-0.022-0.01
				c-0.044-0.009-0.08,0.019-0.095,0.064c-0.003,0.008-0.003,0.018-0.004,0.027c-0.008,0.074-0.013,0.111-0.022,0.186
				c-0.026-0.006-0.04-0.007-0.065-0.013C-4.714,39.281-4.708,39.234-4.697,39.139z"/>
			<path d="M-4.344,39.016c-0.003,0.033-0.005,0.053-0.008,0.086c0.037,0.008,0.055,0.012,0.091,0.02
				c-0.002,0.02-0.002,0.026-0.005,0.046c-0.037-0.008-0.055-0.012-0.092-0.02c-0.008,0.075-0.012,0.117-0.021,0.192
				c-0.005,0.043,0.004,0.066,0.04,0.074c0.018,0.004,0.027,0.007,0.036,0.006c-0.001,0.02,0,0.023-0.002,0.043
				c-0.012,0.002-0.033,0.006-0.059,0c-0.029-0.006-0.052-0.023-0.065-0.043c-0.016-0.023-0.019-0.055-0.014-0.096
				c0.009-0.075,0.013-0.112,0.021-0.188c-0.022-0.005-0.033-0.006-0.055-0.011c0.002-0.02,0.004-0.032,0.007-0.052
				c0.022,0.005,0.032,0.01,0.054,0.015c0.003-0.026,0.004-0.037,0.007-0.063C-4.382,39.022-4.37,39.018-4.344,39.016z"/>
			<path d="M-4.229,39.483c0.017-0.139,0.026-0.207,0.042-0.347c0.026,0.006,0.037,0.011,0.063,0.017
				c-0.016,0.14-0.023,0.206-0.041,0.345C-4.191,39.492-4.203,39.489-4.229,39.483z M-4.106,39.056
				c-0.002,0.021-0.018,0.032-0.044,0.027c-0.023-0.005-0.037-0.023-0.035-0.046c0.002-0.021,0.02-0.035,0.044-0.029
				C-4.118,39.013-4.104,39.034-4.106,39.056z"/>
			<path d="M-4.059,39.456c0.019,0.017,0.05,0.034,0.081,0.041c0.047,0.01,0.071-0.006,0.075-0.035
				c0.004-0.03-0.012-0.049-0.058-0.076c-0.061-0.036-0.087-0.078-0.083-0.12c0.006-0.056,0.06-0.092,0.135-0.075
				c0.036,0.008,0.066,0.026,0.082,0.042c-0.008,0.018-0.012,0.023-0.02,0.041c-0.014-0.012-0.038-0.028-0.071-0.035
				c-0.037-0.008-0.06,0.008-0.062,0.033c-0.003,0.028,0.015,0.047,0.058,0.074c0.057,0.035,0.088,0.072,0.082,0.124
				c-0.007,0.061-0.062,0.093-0.144,0.075c-0.04-0.009-0.074-0.026-0.097-0.046C-4.073,39.481-4.068,39.474-4.059,39.456z"/>
			<path d="M-3.642,39.171c-0.003,0.033-0.005,0.05-0.009,0.083c0.037,0.008,0.055,0.011,0.092,0.019
				c-0.002,0.019-0.004,0.029-0.006,0.048c-0.037-0.008-0.057-0.013-0.094-0.021c-0.009,0.075-0.011,0.113-0.021,0.188
				c-0.005,0.043,0.005,0.07,0.041,0.078c0.018,0.004,0.028,0.007,0.039,0.006c-0.001,0.02-0.004,0.027-0.005,0.047
				c-0.013,0.002-0.032,0.002-0.057-0.004c-0.03-0.006-0.051-0.024-0.065-0.044c-0.016-0.023-0.02-0.055-0.015-0.096
				c0.009-0.075,0.014-0.112,0.023-0.188c-0.022-0.005-0.032-0.009-0.054-0.014c0.002-0.019,0.003-0.026,0.006-0.045
				c0.022,0.005,0.032,0.006,0.054,0.011c0.003-0.025,0.005-0.038,0.008-0.064C-3.681,39.174-3.668,39.173-3.642,39.171z"/>
			<path d="M-3.532,39.571c0.019,0.016,0.05,0.033,0.084,0.041c0.045,0.01,0.07-0.005,0.074-0.034
				c0.004-0.03-0.014-0.052-0.059-0.079c-0.062-0.037-0.084-0.076-0.079-0.118c0.007-0.056,0.057-0.091,0.131-0.074
				c0.037,0.008,0.067,0.022,0.085,0.039c-0.008,0.017-0.014,0.028-0.022,0.045c-0.013-0.012-0.038-0.032-0.07-0.039
				c-0.039-0.009-0.06,0.008-0.062,0.033c-0.003,0.028,0.014,0.049,0.059,0.077c0.058,0.035,0.086,0.073,0.08,0.125
				c-0.008,0.061-0.062,0.092-0.144,0.073c-0.039-0.009-0.074-0.029-0.097-0.049C-3.544,39.594-3.54,39.589-3.532,39.571z"/>
			<path d="M-14.378,37.799c0.012,0.075,0.019,0.112,0.03,0.188c0.006,0.041,0.011,0.081,0.014,0.118
				c0.001,0,0.001-0.001,0.002-0.001c0.012-0.033,0.027-0.068,0.042-0.104c0.031-0.065,0.046-0.1,0.077-0.165
				c0.021,0.005,0.032,0.009,0.053,0.014c0.015,0.074,0.024,0.11,0.039,0.185c0.007,0.044,0.014,0.082,0.018,0.119
				c0.002,0,0.001,0,0.003,0.002c0.01-0.034,0.022-0.068,0.038-0.106c0.027-0.065,0.042-0.099,0.069-0.164
				c0.025,0.006,0.039,0.006,0.063,0.012c-0.06,0.129-0.09,0.193-0.149,0.322c-0.023-0.005-0.035-0.004-0.059-0.009
				c-0.015-0.071-0.024-0.107-0.039-0.179c-0.007-0.041-0.013-0.078-0.018-0.121c-0.002-0.001-0.003,0-0.004,0
				c-0.012,0.04-0.025,0.07-0.041,0.105c-0.03,0.062-0.044,0.093-0.074,0.154c-0.023-0.005-0.036-0.011-0.059-0.016
				c-0.028-0.148-0.042-0.22-0.07-0.368C-14.415,37.791-14.404,37.793-14.378,37.799z"/>
			<path d="M-13.568,38.15c-0.014,0.129-0.111,0.166-0.197,0.147c-0.094-0.021-0.162-0.109-0.151-0.219
				c0.012-0.115,0.097-0.166,0.193-0.146C-13.621,37.956-13.558,38.045-13.568,38.15z M-13.85,38.094
				c-0.007,0.076,0.03,0.143,0.094,0.156c0.061,0.013,0.114-0.033,0.123-0.111c0.006-0.06-0.018-0.14-0.094-0.156
				S-13.843,38.028-13.85,38.094z"/>
			<path d="M-13.481,38.106c0.004-0.04,0.008-0.077,0.009-0.11c0.022,0.005,0.033,0.007,0.056,0.012
				c-0.002,0.028-0.003,0.042-0.005,0.07c0.001,0,0.002-0.001,0.003-0.001c0.021-0.044,0.062-0.063,0.105-0.054
				c0.007,0.001,0.011,0.004,0.017,0.006c-0.002,0.023-0.004,0.037-0.006,0.061c-0.006-0.002-0.012-0.004-0.02-0.006
				c-0.045-0.01-0.083,0.015-0.096,0.061c-0.002,0.008-0.003,0.018-0.004,0.027c-0.007,0.074-0.012,0.113-0.02,0.188
				c-0.026-0.006-0.04-0.01-0.065-0.016C-13.496,38.248-13.491,38.202-13.481,38.106z"/>
			<path d="M-13.182,38.223c0.001,0.002,0.001,0.002,0.002,0.004c0.009-0.01,0.022-0.029,0.035-0.039
				c0.046-0.039,0.071-0.056,0.117-0.095c0.031,0.007,0.045,0.009,0.076,0.016c-0.06,0.045-0.09,0.068-0.15,0.113
				c0.054,0.096,0.08,0.145,0.133,0.24c-0.031-0.007-0.046-0.01-0.078-0.017c-0.042-0.077-0.062-0.117-0.104-0.194
				c-0.015,0.012-0.022,0.02-0.037,0.031c-0.005,0.053-0.008,0.075-0.014,0.127c-0.025-0.006-0.038-0.006-0.063-0.012
				c0.021-0.204,0.033-0.303,0.053-0.507c0.025,0.006,0.036,0.003,0.061,0.009C-13.163,38.028-13.168,38.094-13.182,38.223z"/>
			<path d="M-12.907,38.475c0.015-0.139,0.02-0.209,0.034-0.348c0.026,0.006,0.04,0.012,0.065,0.018
				c-0.014,0.139-0.021,0.205-0.036,0.344C-12.869,38.482-12.881,38.48-12.907,38.475z M-12.791,38.044
				c-0.002,0.021-0.02,0.035-0.045,0.029c-0.024-0.005-0.035-0.024-0.032-0.046c0.002-0.021,0.019-0.033,0.043-0.028
				C-12.802,38.004-12.789,38.021-12.791,38.044z"/>
			<path d="M-12.713,38.26c0.003-0.036,0.007-0.066,0.009-0.096c0.022,0.005,0.033,0.007,0.056,0.012
				c-0.001,0.023,0,0.035-0.001,0.059c0,0,0,0,0.001-0.001c0.021-0.028,0.066-0.052,0.125-0.039
				c0.049,0.011,0.123,0.056,0.111,0.176c-0.008,0.083-0.014,0.126-0.023,0.209c-0.026-0.006-0.038-0.011-0.063-0.017
				c0.008-0.08,0.012-0.119,0.02-0.199c0.006-0.057-0.012-0.109-0.071-0.122c-0.042-0.01-0.078,0.014-0.093,0.047
				c-0.004,0.007-0.005,0.017-0.007,0.027c-0.008,0.083-0.014,0.126-0.022,0.209c-0.026-0.006-0.038-0.007-0.064-0.013
				C-12.727,38.41-12.723,38.361-12.713,38.26z"/>
			<path d="M-12.023,38.615c-0.009,0.08-0.03,0.122-0.067,0.146c-0.039,0.023-0.091,0.024-0.134,0.016
				c-0.042-0.01-0.089-0.031-0.115-0.055c0.008-0.019,0.014-0.025,0.022-0.044c0.021,0.02,0.058,0.043,0.101,0.052
				c0.065,0.015,0.117-0.01,0.126-0.099c0.001-0.016,0.002-0.021,0.004-0.036c0,0.001,0-0.001-0.001-0.001
				c-0.022,0.028-0.063,0.042-0.118,0.03c-0.088-0.019-0.145-0.104-0.135-0.2c0.012-0.118,0.099-0.169,0.181-0.151
				c0.061,0.014,0.091,0.055,0.104,0.086c0.001,0.001,0.001-0.002,0.001,0.002c0.002-0.021,0.005-0.033,0.007-0.054
				c0.022,0.005,0.035,0.008,0.057,0.013c-0.004,0.023-0.008,0.053-0.013,0.095C-12.011,38.495-12.015,38.534-12.023,38.615z
				 M-12.072,38.441c0.001-0.011,0.001-0.022,0-0.03c-0.007-0.039-0.036-0.074-0.084-0.085c-0.062-0.014-0.11,0.028-0.118,0.109
				c-0.007,0.067,0.023,0.133,0.09,0.147c0.042,0.009,0.078-0.009,0.096-0.046c0.005-0.01,0.007-0.021,0.009-0.032
				C-12.077,38.479-12.074,38.467-12.072,38.441z"/>
			<path d="M-11.43,38.615c-0.014,0.129-0.111,0.166-0.197,0.146c-0.094-0.021-0.163-0.105-0.151-0.215
				c0.013-0.116,0.1-0.168,0.196-0.146C-11.48,38.423-11.418,38.51-11.43,38.615z M-11.711,38.559
				c-0.008,0.076,0.029,0.142,0.092,0.155c0.061,0.013,0.115-0.031,0.124-0.109c0.006-0.06-0.016-0.142-0.093-0.158
				C-11.663,38.431-11.704,38.493-11.711,38.559z"/>
			<path d="M-11.34,38.557c0.004-0.036,0.006-0.064,0.008-0.093c0.022,0.005,0.033,0.006,0.056,0.011
				c-0.001,0.023-0.002,0.035-0.004,0.059c0.002,0,0.003,0,0.003,0c0.021-0.029,0.065-0.053,0.124-0.04
				c0.049,0.011,0.121,0.055,0.108,0.174c-0.009,0.083-0.012,0.124-0.021,0.207c-0.026-0.006-0.04-0.007-0.065-0.013
				c0.009-0.08,0.013-0.118,0.021-0.198c0.006-0.057-0.009-0.109-0.069-0.122c-0.042-0.009-0.079,0.012-0.094,0.045
				c-0.004,0.007-0.007,0.019-0.009,0.029c-0.009,0.083-0.012,0.126-0.021,0.209c-0.025-0.006-0.039-0.008-0.064-0.014
				C-11.356,38.709-11.351,38.658-11.34,38.557z"/>
			<path d="M-10.684,38.517c-0.003,0.033-0.004,0.052-0.008,0.085c0.037,0.008,0.055,0.014,0.092,0.021
				c-0.002,0.02-0.004,0.027-0.006,0.047c-0.037-0.008-0.055-0.015-0.092-0.022c-0.008,0.075-0.013,0.115-0.021,0.19
				c-0.005,0.043,0.005,0.071,0.041,0.079c0.018,0.004,0.028,0.003,0.038,0.002c-0.001,0.02-0.001,0.027-0.002,0.047
				c-0.013,0.003-0.031,0.003-0.056-0.003c-0.03-0.006-0.056-0.021-0.068-0.041c-0.016-0.023-0.018-0.056-0.013-0.097
				c0.008-0.076,0.012-0.115,0.02-0.191c-0.022-0.005-0.034-0.004-0.057-0.009c0.002-0.02,0.003-0.028,0.005-0.048
				c0.022,0.005,0.033,0.004,0.056,0.009c0.002-0.026,0.005-0.036,0.007-0.062C-10.722,38.521-10.71,38.519-10.684,38.517z"/>
			<path d="M-10.511,38.477c0.026,0.006,0.039,0.009,0.065,0.015c-0.009,0.087-0.015,0.127-0.024,0.214v0.002
				c0.013-0.017,0.032-0.028,0.052-0.035s0.043-0.007,0.068-0.001c0.047,0.01,0.121,0.058,0.107,0.177
				c-0.009,0.083-0.013,0.122-0.022,0.204c-0.026-0.006-0.04-0.009-0.065-0.015c0.009-0.08,0.015-0.118,0.023-0.198
				c0.006-0.056-0.012-0.111-0.072-0.124c-0.042-0.009-0.076,0.014-0.093,0.046c-0.005,0.008-0.005,0.017-0.006,0.028
				c-0.009,0.084-0.015,0.128-0.024,0.212c-0.026-0.006-0.039-0.008-0.064-0.014C-10.543,38.783-10.532,38.681-10.511,38.477z"/>
			<path d="M-10.108,38.918c-0.007,0.086,0.042,0.132,0.108,0.146c0.045,0.01,0.074,0.008,0.099,0.003
				c0.002,0.019,0.006,0.031,0.008,0.05c-0.025,0.005-0.065,0.011-0.122-0.002c-0.109-0.023-0.164-0.112-0.152-0.218
				c0.012-0.104,0.082-0.171,0.185-0.148c0.116,0.025,0.138,0.131,0.13,0.194c-0.001,0.013-0.003,0.023-0.005,0.029
				C-9.958,38.951-10.008,38.939-10.108,38.918z M-9.914,38.915c0.005-0.039-0.006-0.106-0.079-0.122
				c-0.065-0.014-0.1,0.037-0.11,0.079C-10.028,38.889-9.989,38.898-9.914,38.915z"/>
			<path d="M-9.2,39.066c0.003-0.067,0.008-0.153,0.014-0.213c0-0.001-0.001-0.001-0.001,0c-0.024,0.052-0.049,0.109-0.081,0.172
				c-0.045,0.086-0.069,0.126-0.115,0.212c-0.02-0.004-0.029-0.004-0.048-0.008c-0.021-0.099-0.033-0.15-0.055-0.25
				c-0.016-0.074-0.026-0.138-0.035-0.198h0c-0.007,0.06-0.02,0.143-0.033,0.214c-0.015,0.082-0.022,0.12-0.037,0.202
				c-0.024-0.005-0.037-0.009-0.061-0.014c0.037-0.19,0.054-0.285,0.089-0.476c0.032,0.007,0.049,0.008,0.081,0.015
				c0.023,0.101,0.035,0.152,0.058,0.253c0.013,0.064,0.024,0.122,0.032,0.175c0-0.001,0.002-0.002,0.002-0.001
				c0.019-0.046,0.042-0.091,0.071-0.147c0.045-0.086,0.068-0.131,0.113-0.217c0.033,0.007,0.048,0.011,0.081,0.018
				c-0.009,0.196-0.013,0.294-0.024,0.49c-0.025-0.006-0.039-0.008-0.064-0.014C-9.208,39.193-9.205,39.152-9.2,39.066z"/>
			<path d="M-8.995,39.16c-0.009,0.086,0.041,0.134,0.106,0.148c0.045,0.01,0.074,0.008,0.099,0.003
				c0.002,0.02,0.004,0.028,0.007,0.048c-0.024,0.005-0.064,0.009-0.12-0.004c-0.109-0.023-0.165-0.11-0.153-0.215
				s0.084-0.17,0.187-0.147c0.116,0.025,0.134,0.128,0.126,0.191c-0.001,0.013-0.002,0.024-0.005,0.03
				C-8.847,39.193-8.896,39.182-8.995,39.16z M-8.804,39.155c0.005-0.039-0.003-0.104-0.075-0.12
				c-0.066-0.015-0.099,0.037-0.11,0.079C-8.915,39.131-8.878,39.139-8.804,39.155z"/>
			<path d="M-8.558,38.979c-0.003,0.033-0.004,0.052-0.008,0.085c0.037,0.008,0.055,0.015,0.092,0.022
				c-0.002,0.02-0.003,0.026-0.006,0.046c-0.037-0.008-0.057-0.01-0.094-0.018c-0.009,0.074-0.011,0.11-0.021,0.185
				c-0.006,0.044,0.002,0.072,0.039,0.08c0.017,0.004,0.029,0.004,0.039,0.003c-0.001,0.02-0.002,0.027-0.004,0.047
				c-0.014,0.003-0.034,0.002-0.059-0.004c-0.03-0.006-0.053-0.021-0.065-0.041c-0.015-0.022-0.018-0.055-0.013-0.097
				c0.009-0.075,0.013-0.113,0.022-0.188c-0.022-0.005-0.033-0.01-0.055-0.015c0.002-0.02,0.005-0.022,0.008-0.042
				c0.022,0.005,0.03,0.001,0.052,0.006c0.003-0.026,0.006-0.036,0.009-0.062C-8.595,38.984-8.583,38.981-8.558,38.979z"/>
			<path d="M-8.187,39.418c-0.004,0.03-0.004,0.059-0.003,0.084c-0.023-0.005-0.036-0.007-0.059-0.012c0-0.019,0-0.025,0-0.044
				c-0.001,0-0.002,0-0.003,0c-0.023,0.023-0.063,0.036-0.113,0.024c-0.071-0.016-0.101-0.068-0.095-0.118
				c0.01-0.084,0.091-0.114,0.227-0.084c0-0.003,0-0.006,0.001-0.009c0.003-0.028,0-0.084-0.071-0.099
				c-0.034-0.008-0.068-0.005-0.095,0.007c-0.004-0.019-0.004-0.028-0.008-0.047c0.031-0.012,0.074-0.012,0.118-0.002
				c0.108,0.023,0.126,0.103,0.118,0.171C-8.177,39.342-8.181,39.366-8.187,39.418z M-8.236,39.312
				c-0.07-0.018-0.151-0.024-0.16,0.043c-0.005,0.042,0.021,0.069,0.054,0.077c0.046,0.01,0.082-0.016,0.093-0.041
				c0.003-0.007,0.005-0.011,0.006-0.016C-8.241,39.351-8.239,39.336-8.236,39.312z"/>
			<path d="M-8.103,39.483c0.003-0.025,0.026-0.04,0.052-0.034c0.025,0.005,0.041,0.029,0.037,0.055
				c-0.003,0.024-0.024,0.042-0.051,0.036C-8.089,39.534-8.106,39.508-8.103,39.483z M-8.07,39.387
				c0.013-0.139,0.019-0.209,0.03-0.348c0.028,0.006,0.04,0.014,0.068,0.02C-7.992,39.196-8,39.26-8.021,39.396
				C-8.041,39.393-8.05,39.391-8.07,39.387z"/>
			<path d="M-7.867,39.087c0.028-0.001,0.073,0.003,0.117,0.013c0.063,0.014,0.104,0.033,0.132,0.062
				c0.022,0.024,0.035,0.059,0.031,0.097c-0.006,0.047-0.043,0.081-0.097,0.088c0.001,0.001,0,0.003,0.001,0.004
				c0.045,0.021,0.095,0.068,0.086,0.14c-0.006,0.042-0.028,0.07-0.056,0.088c-0.036,0.022-0.093,0.025-0.174,0.008
				c-0.043-0.009-0.076-0.019-0.097-0.026C-7.9,39.37-7.889,39.277-7.867,39.087z M-7.855,39.527
				c0.014,0.005,0.031,0.008,0.054,0.013c0.066,0.015,0.127,0.006,0.137-0.065c0.008-0.064-0.047-0.104-0.117-0.119
				c-0.021-0.005-0.028-0.007-0.049-0.012C-7.84,39.417-7.846,39.454-7.855,39.527z M-7.828,39.297
				c0.023,0.005,0.034,0.007,0.057,0.012c0.067,0.015,0.112-0.014,0.117-0.06c0.007-0.056-0.034-0.087-0.099-0.101
				c-0.03-0.007-0.045-0.011-0.056-0.011C-7.815,39.2-7.82,39.234-7.828,39.297z"/>
			<path d="M-7.47,39.14c0.026,0.006,0.039,0.007,0.064,0.013c-0.023,0.203-0.036,0.305-0.063,0.508
				c-0.026-0.006-0.04-0.008-0.065-0.014C-7.507,39.443-7.493,39.343-7.47,39.14z"/>
			<path d="M-7.104,39.654c-0.004,0.03-0.007,0.059-0.006,0.083c-0.023-0.005-0.035-0.006-0.058-0.011c0-0.018,0-0.026,0-0.044
				c-0.001,0-0.002-0.001-0.001-0.002c-0.022,0.023-0.066,0.041-0.116,0.03c-0.07-0.016-0.101-0.075-0.094-0.125
				c0.011-0.084,0.093-0.114,0.229-0.083c0-0.003,0-0.004,0-0.007c0.003-0.028,0.003-0.083-0.069-0.099
				c-0.033-0.008-0.069-0.004-0.094,0.007c-0.004-0.019-0.008-0.026-0.012-0.045c0.031-0.012,0.078-0.014,0.122-0.004
				c0.108,0.023,0.123,0.103,0.114,0.171C-7.094,39.578-7.097,39.603-7.104,39.654z M-7.153,39.548
				c-0.069-0.018-0.151-0.022-0.16,0.045c-0.005,0.041,0.021,0.066,0.052,0.073c0.046,0.01,0.083-0.014,0.095-0.039
				c0.003-0.007,0.004-0.015,0.005-0.02C-7.158,39.583-7.157,39.572-7.153,39.548z"/>
			<path d="M-7.012,39.696c0.017,0.016,0.049,0.033,0.08,0.04c0.046,0.01,0.071-0.006,0.075-0.035
				c0.004-0.03-0.011-0.051-0.055-0.078c-0.06-0.037-0.087-0.075-0.082-0.116c0.007-0.056,0.061-0.094,0.136-0.077
				c0.036,0.008,0.063,0.022,0.08,0.039c-0.008,0.017-0.011,0.029-0.02,0.046c-0.013-0.012-0.037-0.031-0.069-0.039
				c-0.038-0.008-0.06,0.009-0.063,0.034c-0.004,0.028,0.014,0.046,0.057,0.073c0.056,0.035,0.087,0.074,0.08,0.126
				c-0.008,0.062-0.063,0.09-0.146,0.072c-0.039-0.009-0.073-0.024-0.094-0.044C-7.024,39.72-7.021,39.714-7.012,39.696z"/>
			<path d="M-6.591,39.41c-0.004,0.033-0.005,0.052-0.009,0.085c0.037,0.008,0.054,0.011,0.091,0.019
				c-0.002,0.019-0.003,0.031-0.006,0.051c-0.037-0.008-0.055-0.014-0.092-0.021c-0.01,0.074-0.015,0.11-0.025,0.185
				c-0.006,0.044,0.003,0.072,0.039,0.08c0.018,0.004,0.027,0.004,0.038,0.003c-0.001,0.02-0.002,0.027-0.004,0.047
				c-0.014,0.003-0.033,0.002-0.059-0.004c-0.029-0.006-0.052-0.018-0.064-0.037c-0.015-0.023-0.018-0.057-0.012-0.099
				c0.01-0.075,0.015-0.115,0.024-0.19c-0.022-0.005-0.032-0.01-0.054-0.015c0.002-0.02,0.002-0.024,0.005-0.043
				c0.022,0.005,0.034,0.005,0.056,0.01c0.003-0.026,0.004-0.04,0.007-0.066C-6.63,39.411-6.617,39.412-6.591,39.41z"/>
			<path d="M-6.298,39.676c0.006-0.044,0.008-0.079,0.012-0.112c0.022,0.005,0.034,0.006,0.057,0.011
				c-0.001,0.024-0.001,0.034-0.003,0.059v0.001c0.033-0.036,0.077-0.051,0.135-0.038c0.085,0.019,0.141,0.104,0.126,0.208
				c-0.018,0.125-0.105,0.17-0.188,0.151c-0.046-0.01-0.083-0.038-0.1-0.077h-0.002c-0.011,0.075-0.016,0.113-0.028,0.188
				c-0.025-0.006-0.037-0.008-0.062-0.014C-6.329,39.902-6.318,39.826-6.298,39.676z M-6.248,39.781c-0.001,0.01,0,0.019,0,0.027
				c0.006,0.046,0.039,0.086,0.084,0.096c0.068,0.016,0.113-0.033,0.125-0.113c0.01-0.069-0.019-0.133-0.087-0.148
				c-0.043-0.01-0.084,0.015-0.104,0.055c-0.003,0.007-0.007,0.017-0.009,0.024C-6.242,39.745-6.245,39.758-6.248,39.781z"/>
			<path d="M-5.883,39.763c0.006-0.04,0.009-0.078,0.011-0.11c0.022,0.005,0.034,0.011,0.056,0.016
				c-0.003,0.027-0.004,0.039-0.007,0.066c0.001,0,0.002,0,0.004,0.002c0.022-0.044,0.064-0.066,0.108-0.057
				c0.007,0.002,0.012,0.003,0.018,0.006c-0.003,0.023-0.006,0.036-0.009,0.06c-0.005-0.003-0.013-0.003-0.021-0.005
				c-0.044-0.011-0.083,0.016-0.098,0.062c-0.002,0.009-0.003,0.019-0.004,0.029c-0.01,0.074-0.016,0.108-0.027,0.183
				C-5.878,40.008-5.892,40.006-5.917,40C-5.903,39.904-5.896,39.858-5.883,39.763z"/>
			<path d="M-5.344,39.941c-0.019,0.128-0.119,0.166-0.202,0.147c-0.095-0.021-0.158-0.104-0.143-0.213
				c0.017-0.115,0.103-0.168,0.201-0.147C-5.387,39.751-5.329,39.836-5.344,39.941z M-5.623,39.888
				c-0.011,0.075,0.023,0.143,0.085,0.156s0.115-0.034,0.127-0.112c0.008-0.06-0.01-0.14-0.085-0.156
				C-5.571,39.76-5.614,39.822-5.623,39.888z"/>
			<path d="M-5.392,40.221c0.03,0.004,0.055,0.002,0.071-0.011c0.02-0.016,0.033-0.046,0.045-0.13
				c0.018-0.116,0.028-0.17,0.044-0.286c0.025,0.006,0.038,0.006,0.063,0.012c-0.018,0.127-0.026,0.192-0.046,0.318
				c-0.01,0.067-0.028,0.106-0.065,0.131c-0.033,0.021-0.082,0.024-0.115,0.017C-5.394,40.251-5.392,40.241-5.392,40.221z
				 M-5.146,39.711c-0.003,0.021-0.022,0.035-0.048,0.029c-0.022-0.005-0.034-0.025-0.031-0.047c0.002-0.021,0.02-0.037,0.044-0.032
				C-5.157,39.666-5.144,39.69-5.146,39.711z"/>
			<path d="M-5.055,40.021c-0.011,0.086,0.037,0.132,0.102,0.146c0.045,0.01,0.077,0.008,0.101,0.004
				c0.002,0.019,0.002,0.03,0.004,0.049c-0.025,0.005-0.064,0.006-0.12-0.007c-0.108-0.023-0.162-0.104-0.146-0.21
				c0.016-0.104,0.089-0.174,0.192-0.151c0.115,0.025,0.132,0.131,0.122,0.194c-0.001,0.013-0.004,0.023-0.006,0.03
				C-4.906,40.056-4.956,40.043-5.055,40.021z M-4.86,40.018c0.007-0.039-0.003-0.105-0.076-0.121
				c-0.064-0.014-0.1,0.035-0.111,0.077C-4.973,39.99-4.935,40.001-4.86,40.018z"/>
			<path d="M-4.501,40.298c-0.018,0.004-0.055,0.006-0.102-0.004c-0.106-0.023-0.163-0.105-0.146-0.212
				c0.016-0.108,0.101-0.17,0.215-0.145c0.04,0.009,0.07,0.025,0.086,0.038c-0.009,0.018-0.012,0.026-0.021,0.044
				c-0.015-0.011-0.039-0.021-0.074-0.029c-0.08-0.018-0.13,0.027-0.142,0.1c-0.012,0.08,0.033,0.142,0.102,0.157
				c0.037,0.008,0.061,0.006,0.081,0.002C-4.502,40.269-4.502,40.278-4.501,40.298z"/>
			<path d="M-4.275,39.916c-0.004,0.033-0.007,0.049-0.012,0.082c0.037,0.008,0.055,0.011,0.091,0.019
				c-0.003,0.02-0.005,0.03-0.008,0.05c-0.037-0.008-0.056-0.014-0.092-0.021c-0.011,0.075-0.016,0.113-0.027,0.188
				c-0.007,0.043,0.002,0.069,0.037,0.077c0.018,0.004,0.027,0.008,0.038,0.007c-0.002,0.02-0.003,0.03-0.005,0.05
				c-0.014,0.002-0.034-0.002-0.058-0.008c-0.029-0.006-0.052-0.023-0.064-0.043c-0.013-0.022-0.016-0.054-0.009-0.095
				c0.012-0.075,0.017-0.113,0.028-0.188c-0.022-0.005-0.033-0.008-0.055-0.013c0.003-0.02,0.005-0.029,0.008-0.049
				c0.022,0.005,0.033,0.01,0.055,0.015c0.004-0.025,0.006-0.04,0.009-0.065C-4.314,39.919-4.301,39.918-4.275,39.916z"/>
			<path d="M-4.237,40.462c0.023-0.039,0.056-0.116,0.072-0.167c0.029,0.004,0.043,0.008,0.072,0.012
				c-0.027,0.057-0.074,0.129-0.099,0.158C-4.21,40.463-4.218,40.464-4.237,40.462z"/>
			<path d="M-14.476,38.849c-0.008,0.085,0.041,0.132,0.106,0.146c0.045,0.01,0.075,0.008,0.1,0.003
				c0.002,0.02,0.002,0.03,0.005,0.05c-0.023,0.005-0.062,0.01-0.118-0.002c-0.109-0.023-0.165-0.114-0.153-0.219
				s0.083-0.17,0.187-0.147c0.115,0.025,0.134,0.129,0.127,0.192c-0.001,0.013-0.004,0.022-0.007,0.029
				C-14.329,38.88-14.376,38.87-14.476,38.849z M-14.283,38.848c0.006-0.039-0.005-0.109-0.077-0.125
				c-0.066-0.015-0.101,0.039-0.112,0.082C-14.396,38.821-14.358,38.831-14.283,38.848z"/>
			<path d="M-14.166,39.018c0.018,0.016,0.05,0.034,0.083,0.042c0.045,0.01,0.07-0.01,0.073-0.039
				c0.004-0.029-0.015-0.048-0.06-0.075c-0.061-0.037-0.085-0.078-0.081-0.119c0.006-0.056,0.059-0.09,0.133-0.073
				c0.037,0.008,0.066,0.021,0.085,0.037c-0.008,0.017-0.014,0.026-0.022,0.043c-0.013-0.012-0.037-0.03-0.069-0.037
				c-0.04-0.009-0.061,0.013-0.064,0.038c-0.003,0.028,0.014,0.043,0.059,0.07c0.058,0.035,0.087,0.074,0.081,0.126
				c-0.007,0.062-0.061,0.097-0.144,0.078c-0.039-0.009-0.072-0.025-0.095-0.046C-14.178,39.045-14.174,39.035-14.166,39.018z"/>
			<path d="M-13.849,38.908c0.005-0.044,0.006-0.078,0.009-0.111c0.022,0.005,0.035,0.01,0.057,0.015
				c-0.001,0.024-0.001,0.036-0.002,0.061h0.001c0.031-0.037,0.075-0.054,0.134-0.041c0.085,0.02,0.142,0.102,0.129,0.207
				c-0.015,0.125-0.099,0.171-0.183,0.152c-0.046-0.01-0.084-0.038-0.102-0.078h-0.001c-0.009,0.075-0.015,0.113-0.024,0.188
				c-0.025-0.006-0.036-0.011-0.062-0.017C-13.874,39.134-13.866,39.059-13.849,38.908z M-13.796,39.019
				c-0.001,0.009,0,0.018,0,0.026c0.005,0.045,0.042,0.084,0.087,0.094c0.068,0.015,0.114-0.029,0.123-0.108
				c0.008-0.068-0.022-0.14-0.091-0.154c-0.043-0.01-0.088,0.013-0.105,0.058c-0.004,0.008-0.005,0.019-0.006,0.026
				C-13.791,38.984-13.793,38.994-13.796,39.019z"/>
			<path d="M-13.405,39.082c-0.009,0.085,0.041,0.133,0.106,0.147c0.045,0.01,0.074,0.009,0.099,0.004
				c0.002,0.019,0.003,0.027,0.005,0.046c-0.024,0.006-0.065,0.009-0.121-0.004c-0.109-0.023-0.165-0.108-0.152-0.213
				s0.084-0.173,0.187-0.15c0.116,0.025,0.136,0.131,0.128,0.194c-0.001,0.013-0.002,0.021-0.005,0.028
				C-13.257,39.113-13.306,39.104-13.405,39.082z M-13.212,39.079c0.006-0.039-0.004-0.105-0.077-0.121
				c-0.066-0.015-0.1,0.037-0.112,0.08C-13.325,39.055-13.287,39.062-13.212,39.079z"/>
			<path d="M-12.843,39.358c-0.018,0.004-0.059,0.008-0.106-0.003c-0.106-0.023-0.166-0.108-0.152-0.215
				c0.013-0.106,0.097-0.167,0.213-0.142c0.037,0.008,0.07,0.023,0.085,0.036c-0.008,0.018-0.012,0.027-0.02,0.045
				c-0.015-0.011-0.037-0.024-0.071-0.032c-0.081-0.019-0.134,0.03-0.143,0.102c-0.009,0.08,0.037,0.141,0.107,0.156
				c0.037,0.008,0.063,0.008,0.082,0.004C-12.846,39.33-12.845,39.338-12.843,39.358z"/>
			<path d="M-12.771,39.387c0.018-0.139,0.027-0.206,0.043-0.345c0.026,0.006,0.039,0.006,0.064,0.012
				c-0.017,0.139-0.026,0.209-0.044,0.348C-12.733,39.396-12.745,39.393-12.771,39.387z M-12.646,38.96
				c-0.002,0.021-0.022,0.031-0.047,0.025c-0.024-0.005-0.036-0.022-0.033-0.044c0.003-0.021,0.021-0.037,0.046-0.031
				C-12.657,38.915-12.643,38.938-12.646,38.96z"/>
			<path d="M-12.342,39.395c-0.004,0.03-0.008,0.059-0.008,0.083c-0.023-0.005-0.034-0.006-0.057-0.011
				c0-0.018,0.002-0.027,0.003-0.045c-0.001,0-0.002,0.001-0.003,0.001c-0.023,0.022-0.065,0.039-0.115,0.028
				c-0.071-0.016-0.101-0.075-0.095-0.125c0.011-0.084,0.091-0.111,0.229-0.081c0-0.003,0.001-0.006,0.001-0.009
				c0.003-0.027,0.003-0.084-0.069-0.099c-0.034-0.008-0.071-0.004-0.097,0.007c-0.004-0.019-0.005-0.029-0.009-0.048
				c0.032-0.012,0.076-0.012,0.12-0.002c0.107,0.022,0.125,0.104,0.116,0.172C-12.333,39.318-12.336,39.343-12.342,39.395z
				 M-12.393,39.287c-0.07-0.017-0.15-0.023-0.159,0.044c-0.005,0.042,0.02,0.068,0.052,0.075c0.046,0.01,0.082-0.011,0.095-0.038
				c0.003-0.006,0.005-0.017,0.005-0.022C-12.396,39.321-12.396,39.312-12.393,39.287z"/>
			<path d="M-12.188,38.989c0.026,0.006,0.039,0.011,0.064,0.017c-0.023,0.203-0.037,0.304-0.064,0.508
				c-0.026-0.006-0.036-0.009-0.062-0.015C-12.222,39.295-12.211,39.193-12.188,38.989z"/>
			<path d="M-12.017,39.025c0.025,0.006,0.039,0.014,0.064,0.02c-0.024,0.204-0.035,0.306-0.063,0.509
				c-0.025-0.006-0.038-0.012-0.063-0.018C-12.051,39.332-12.04,39.229-12.017,39.025z"/>
			<path d="M-11.839,39.235c0.021,0.089,0.031,0.131,0.051,0.22c0.004,0.024,0.01,0.054,0.014,0.076l0,0
				c0.01-0.019,0.021-0.043,0.033-0.066c0.038-0.075,0.057-0.114,0.095-0.189c0.027,0.006,0.041,0.008,0.068,0.014
				c-0.051,0.091-0.076,0.137-0.127,0.228c-0.061,0.109-0.102,0.161-0.151,0.189c-0.034,0.02-0.068,0.024-0.083,0.024
				c-0.004-0.022-0.004-0.031-0.008-0.054c0.018-0.002,0.037-0.009,0.059-0.021c0.02-0.01,0.045-0.029,0.065-0.059
				c0.003-0.006,0.006-0.009,0.007-0.013c0-0.003,0-0.011-0.003-0.019c-0.034-0.14-0.054-0.209-0.09-0.349
				C-11.882,39.224-11.868,39.229-11.839,39.235z"/>
			<path d="M-11.31,39.548c-0.029,0.057-0.043,0.085-0.072,0.142c-0.026-0.006-0.039-0.006-0.065-0.012
				c0.094-0.179,0.14-0.269,0.23-0.447c0.03,0.007,0.045,0.009,0.075,0.016c0.044,0.208,0.066,0.312,0.105,0.52
				c-0.027-0.006-0.042-0.009-0.069-0.015c-0.012-0.065-0.017-0.098-0.029-0.163C-11.204,39.572-11.24,39.563-11.31,39.548z
				 M-11.142,39.536c-0.012-0.06-0.018-0.09-0.03-0.149c-0.007-0.034-0.011-0.065-0.014-0.095c0-0.003-0.001-0.001-0.002-0.002
				c-0.01,0.026-0.021,0.058-0.034,0.085c-0.026,0.052-0.04,0.077-0.066,0.129C-11.23,39.517-11.201,39.523-11.142,39.536z"/>
			<path d="M-10.934,39.527c0.005-0.037,0.006-0.066,0.008-0.095c0.022,0.005,0.033,0.008,0.055,0.013
				c-0.001,0.023-0.001,0.036-0.003,0.06c0.001,0,0.001,0,0.002,0.001c0.024-0.029,0.061-0.058,0.119-0.045
				c0.047,0.01,0.081,0.05,0.089,0.094c0.001,0,0.001-0.001,0.002-0.001c0.014-0.019,0.03-0.028,0.046-0.036
				c0.023-0.012,0.046-0.015,0.08-0.007c0.047,0.01,0.113,0.057,0.097,0.177c-0.011,0.081-0.019,0.123-0.031,0.204
				c-0.025-0.006-0.038-0.009-0.063-0.015c0.012-0.078,0.019-0.117,0.03-0.195c0.009-0.068-0.01-0.111-0.061-0.122
				c-0.039-0.009-0.069,0.011-0.084,0.038c-0.004,0.009-0.006,0.022-0.008,0.033c-0.012,0.086-0.02,0.123-0.033,0.209
				c-0.025-0.006-0.038-0.003-0.063-0.009c0.012-0.083,0.02-0.127,0.031-0.21c0.007-0.056-0.012-0.101-0.061-0.111
				c-0.04-0.009-0.072,0.019-0.086,0.048c-0.005,0.008-0.009,0.016-0.011,0.025c-0.011,0.084-0.018,0.128-0.03,0.212
				c-0.025-0.006-0.037-0.009-0.062-0.015C-10.955,39.679-10.947,39.629-10.934,39.527z"/>
			<path d="M-10.301,39.567c0.02,0.089,0.028,0.136,0.047,0.225c0.004,0.024,0.008,0.053,0.011,0.074h0.002
				c0.01-0.019,0.021-0.045,0.034-0.068c0.04-0.075,0.058-0.111,0.097-0.187c0.027,0.006,0.041,0.009,0.067,0.015
				c-0.052,0.091-0.079,0.135-0.131,0.226c-0.062,0.11-0.103,0.164-0.153,0.191c-0.035,0.02-0.069,0.022-0.084,0.022
				c-0.003-0.022-0.004-0.03-0.008-0.053c0.018-0.002,0.039-0.009,0.061-0.02c0.02-0.011,0.044-0.032,0.065-0.062
				c0.004-0.006,0.006-0.009,0.007-0.013c0-0.004-0.001-0.011-0.004-0.02c-0.032-0.14-0.048-0.204-0.083-0.344
				C-10.344,39.562-10.329,39.562-10.301,39.567z"/>
			<path d="M-9.622,39.99c-0.005,0.03-0.009,0.059-0.008,0.084c-0.023-0.005-0.032-0.007-0.055-0.012c0-0.018,0-0.026,0-0.044
				c-0.001,0-0.001,0.001-0.001,0.001c-0.023,0.022-0.065,0.035-0.116,0.023c-0.071-0.016-0.099-0.073-0.092-0.123
				c0.013-0.084,0.095-0.112,0.229-0.082c0-0.003,0-0.003,0.001-0.006c0.004-0.028,0.003-0.083-0.067-0.098
				c-0.034-0.008-0.068-0.006-0.095,0.006c-0.003-0.019-0.004-0.025-0.008-0.044c0.031-0.012,0.074-0.018,0.118-0.008
				c0.107,0.023,0.124,0.102,0.113,0.17C-9.61,39.91-9.614,39.938-9.622,39.99z M-9.668,39.884c-0.07-0.016-0.15-0.023-0.16,0.044
				c-0.006,0.042,0.017,0.066,0.049,0.074c0.046,0.01,0.08-0.013,0.095-0.04c0.003-0.006,0.006-0.012,0.007-0.018
				C-9.674,39.92-9.672,39.908-9.668,39.884z"/>
			<path d="M-9.493,39.844c0.006-0.037,0.009-0.066,0.011-0.096c0.022,0.005,0.034,0.006,0.057,0.011
				c-0.001,0.023-0.003,0.036-0.004,0.06h0.001c0.022-0.028,0.066-0.052,0.125-0.039c0.049,0.011,0.121,0.058,0.103,0.176
				c-0.013,0.082-0.017,0.123-0.03,0.206c-0.025-0.006-0.04-0.006-0.065-0.012c0.013-0.08,0.02-0.122,0.032-0.202
				c0.008-0.056-0.006-0.106-0.066-0.12c-0.042-0.009-0.078,0.013-0.095,0.045c-0.004,0.008-0.008,0.017-0.009,0.027
				c-0.013,0.084-0.019,0.127-0.033,0.211c-0.025-0.006-0.037-0.009-0.062-0.015C-9.515,39.994-9.508,39.945-9.493,39.844z"/>
			<path d="M-8.752,39.74c-0.023,0.168-0.036,0.251-0.063,0.419c-0.005,0.03-0.01,0.067-0.012,0.091
				c-0.023-0.005-0.034-0.007-0.057-0.012c0.003-0.024,0.005-0.036,0.008-0.061c0.001,0.001-0.001,0.001,0,0.001
				c-0.025,0.034-0.073,0.053-0.13,0.04C-9.092,40.2-9.146,40.115-9.13,40.01c0.017-0.116,0.102-0.173,0.187-0.154
				c0.054,0.012,0.085,0.047,0.097,0.078l0.001-0.001c0.012-0.083,0.019-0.119,0.03-0.202C-8.791,39.736-8.778,39.734-8.752,39.74z
				 M-8.861,40.03c0.001-0.008,0.003-0.017,0.002-0.025c-0.003-0.041-0.034-0.086-0.082-0.096c-0.066-0.015-0.113,0.035-0.125,0.11
				c-0.011,0.07,0.015,0.137,0.084,0.152c0.042,0.009,0.086-0.012,0.104-0.055c0.003-0.008,0.004-0.018,0.006-0.028
				C-8.867,40.064-8.865,40.055-8.861,40.03z"/>
			<path d="M-8.516,40.321c-0.016-0.204-0.025-0.309-0.047-0.513c0.027,0.006,0.04,0.01,0.066,0.016
				c0.009,0.104,0.013,0.153,0.021,0.257c0.005,0.063,0.01,0.127,0.011,0.175h0.001c0.017-0.046,0.039-0.101,0.065-0.159
				c0.042-0.092,0.064-0.138,0.104-0.229c0.026,0.006,0.038,0.012,0.064,0.018c0.01,0.104,0.014,0.152,0.022,0.256
				c0.004,0.061,0.008,0.12,0.006,0.173H-8.2c0.02-0.051,0.043-0.1,0.067-0.156c0.042-0.092,0.062-0.14,0.103-0.231
				c0.025,0.006,0.038,0.008,0.063,0.014c-0.084,0.182-0.126,0.272-0.216,0.453c-0.026-0.006-0.039-0.01-0.064-0.016
				c-0.007-0.106-0.01-0.156-0.019-0.263c-0.005-0.064-0.009-0.116-0.008-0.166h-0.001c-0.016,0.046-0.036,0.089-0.063,0.147
				c-0.044,0.095-0.067,0.142-0.112,0.236C-8.477,40.326-8.489,40.327-8.516,40.321z"/>
			<path d="M-7.997,40.433c0.025-0.139,0.035-0.208,0.057-0.347c0.025,0.006,0.039,0.008,0.064,0.014
				c-0.022,0.139-0.034,0.21-0.059,0.349C-7.96,40.442-7.972,40.438-7.997,40.433z M-7.854,40.004
				c-0.003,0.021-0.023,0.036-0.048,0.03c-0.022-0.005-0.035-0.026-0.032-0.048c0.003-0.021,0.023-0.035,0.047-0.03
				S-7.85,39.981-7.854,40.004z"/>
			<path d="M-7.745,39.961c0.025,0.006,0.038,0.007,0.063,0.013c-0.031,0.203-0.048,0.309-0.085,0.512
				c-0.025-0.006-0.038-0.008-0.063-0.014C-7.793,40.269-7.775,40.164-7.745,39.961z"/>
			<path d="M-7.573,39.998c0.025,0.006,0.036,0.007,0.062,0.013c-0.031,0.203-0.046,0.308-0.084,0.511
				c-0.025-0.006-0.038-0.008-0.063-0.014C-7.622,40.305-7.604,40.202-7.573,39.998z"/>
			<path d="M-7.505,40.501c0.005-0.025,0.028-0.039,0.052-0.034c0.025,0.006,0.038,0.028,0.033,0.055
				c-0.005,0.025-0.025,0.04-0.053,0.034C-7.496,40.55-7.51,40.526-7.505,40.501z"/>
			<path d="M-14.543,39.728c-0.029,0.057-0.044,0.089-0.074,0.146c-0.026-0.006-0.039-0.011-0.064-0.017
				c0.097-0.179,0.145-0.267,0.237-0.445c0.03,0.007,0.043,0.007,0.073,0.014c0.041,0.208,0.061,0.312,0.097,0.521
				c-0.027-0.006-0.04-0.01-0.067-0.016c-0.011-0.065-0.017-0.1-0.028-0.165C-14.438,39.749-14.475,39.743-14.543,39.728z
				 M-14.375,39.716c-0.011-0.06-0.016-0.089-0.027-0.148c-0.006-0.033-0.011-0.065-0.014-0.095c-0.001,0-0.001,0.001-0.002,0
				c-0.011,0.026-0.021,0.053-0.036,0.08c-0.027,0.052-0.042,0.08-0.069,0.132C-14.464,39.697-14.435,39.703-14.375,39.716z"/>
			<path d="M-14.13,39.451c0.026,0.006,0.037,0.01,0.063,0.016c-0.027,0.203-0.042,0.305-0.075,0.508
				c-0.025-0.006-0.037-0.008-0.062-0.014C-14.172,39.758-14.158,39.655-14.13,39.451z"/>
			<path d="M-14.034,39.932c0.018,0.017,0.048,0.033,0.08,0.04c0.046,0.01,0.07-0.005,0.074-0.034
				c0.005-0.029-0.01-0.048-0.054-0.075c-0.06-0.037-0.082-0.077-0.076-0.119c0.008-0.056,0.061-0.094,0.135-0.077
				c0.036,0.008,0.064,0.023,0.081,0.039c-0.009,0.017-0.012,0.029-0.021,0.046c-0.013-0.011-0.037-0.031-0.068-0.038
				c-0.039-0.009-0.062,0.009-0.066,0.034c-0.004,0.028,0.012,0.048,0.056,0.075c0.057,0.035,0.086,0.072,0.078,0.124
				c-0.01,0.062-0.066,0.093-0.148,0.075c-0.039-0.009-0.072-0.026-0.095-0.047C-14.048,39.957-14.043,39.949-14.034,39.932z"/>
			<path d="M-13.404,39.954c-0.021,0.129-0.12,0.164-0.204,0.146c-0.094-0.021-0.158-0.104-0.14-0.214
				c0.018-0.116,0.106-0.167,0.203-0.146C-13.444,39.762-13.387,39.849-13.404,39.954z M-13.682,39.897
				c-0.012,0.075,0.021,0.141,0.083,0.154s0.117-0.034,0.129-0.113c0.009-0.059-0.009-0.137-0.084-0.153
				C-13.628,39.769-13.672,39.832-13.682,39.897z"/>
			<path d="M-13.426,40.225c0.024-0.039,0.056-0.113,0.072-0.163c0.029,0.003,0.042,0.005,0.071,0.008
				c-0.027,0.058-0.072,0.13-0.097,0.159C-13.398,40.227-13.407,40.227-13.426,40.225z"/>
			<path d="M-12.617,40.087c0.007-0.068,0.016-0.148,0.025-0.208c-0.001,0.001-0.002,0.002-0.003,0
				c-0.026,0.053-0.054,0.11-0.09,0.171c-0.05,0.086-0.076,0.129-0.127,0.215c-0.019-0.004-0.028-0.006-0.046-0.01
				c-0.016-0.099-0.024-0.15-0.041-0.249c-0.012-0.073-0.021-0.141-0.025-0.201c-0.001,0,0,0-0.002,0
				c-0.011,0.061-0.025,0.138-0.042,0.21c-0.019,0.082-0.03,0.124-0.049,0.206c-0.024-0.006-0.036-0.008-0.061-0.014
				c0.048-0.19,0.071-0.284,0.113-0.475c0.032,0.007,0.048,0.011,0.08,0.018c0.02,0.101,0.028,0.151,0.046,0.252
				c0.01,0.064,0.019,0.119,0.023,0.173c0,0.002,0.001,0.001,0.001,0.001c0.021-0.046,0.046-0.093,0.079-0.148
				c0.05-0.086,0.075-0.132,0.124-0.218c0.032,0.007,0.048,0.012,0.08,0.019c-0.017,0.196-0.025,0.293-0.049,0.488
				c-0.024-0.006-0.039-0.007-0.063-0.013C-12.635,40.218-12.627,40.173-12.617,40.087z"/>
			<path d="M-12.224,40.309c-0.005,0.03-0.009,0.062-0.01,0.085c-0.022-0.005-0.035-0.01-0.057-0.015
				c0.001-0.019,0.001-0.024,0.002-0.043c-0.001,0-0.002,0-0.003,0.001c-0.024,0.022-0.064,0.038-0.114,0.026
				c-0.07-0.016-0.1-0.072-0.091-0.122c0.015-0.084,0.1-0.112,0.233-0.082c0-0.003,0-0.006,0-0.009
				c0.005-0.027,0.005-0.08-0.066-0.095c-0.033-0.008-0.068-0.007-0.096,0.005c-0.002-0.019-0.004-0.028-0.007-0.047
				c0.031-0.012,0.075-0.016,0.119-0.006c0.106,0.023,0.122,0.103,0.11,0.172C-12.21,40.231-12.214,40.257-12.224,40.309z
				 M-12.269,40.201c-0.07-0.017-0.15-0.02-0.162,0.048c-0.008,0.042,0.018,0.062,0.05,0.07c0.046,0.01,0.08-0.011,0.096-0.038
				c0.003-0.006,0.004-0.014,0.005-0.02C-12.275,40.237-12.273,40.226-12.269,40.201z"/>
			<path d="M-12.095,40.177c0.007-0.041,0.012-0.075,0.015-0.107c0.022,0.005,0.034,0.006,0.056,0.011
				c-0.003,0.027-0.004,0.04-0.007,0.067c0,0,0.001,0.002,0.002,0.004c0.023-0.043,0.066-0.066,0.108-0.057
				c0.007,0.002,0.013,0.003,0.019,0.005c-0.004,0.024-0.006,0.038-0.01,0.062c-0.007-0.004-0.013-0.005-0.023-0.007
				c-0.044-0.01-0.081,0.015-0.098,0.06c-0.003,0.008-0.006,0.02-0.008,0.029c-0.013,0.074-0.019,0.112-0.033,0.187
				c-0.025-0.006-0.039-0.01-0.064-0.016C-12.12,40.319-12.111,40.272-12.095,40.177z"/>
			<path d="M-11.802,40.295L-11.802,40.295c0.012-0.01,0.026-0.023,0.039-0.033c0.049-0.039,0.074-0.059,0.124-0.098
				c0.031,0.007,0.045,0.01,0.076,0.017c-0.063,0.045-0.096,0.066-0.16,0.111c0.047,0.096,0.071,0.145,0.116,0.239
				c-0.031-0.007-0.045-0.009-0.076-0.016c-0.035-0.077-0.054-0.116-0.09-0.193c-0.016,0.012-0.023,0.018-0.039,0.029
				c-0.009,0.052-0.014,0.078-0.024,0.13c-0.025-0.006-0.038-0.008-0.062-0.014c0.039-0.203,0.056-0.306,0.088-0.509
				c0.025,0.006,0.038,0.008,0.063,0.014C-11.767,40.101-11.779,40.167-11.802,40.295z"/>
			<path d="M-11.405,40.509c0.017,0.017,0.046,0.037,0.079,0.044c0.046,0.01,0.071-0.009,0.077-0.038
				c0.006-0.029-0.011-0.047-0.053-0.074c-0.059-0.037-0.081-0.078-0.073-0.12c0.01-0.056,0.063-0.092,0.137-0.075
				c0.035,0.008,0.065,0.024,0.082,0.04c-0.009,0.017-0.013,0.026-0.022,0.043c-0.011-0.011-0.036-0.031-0.067-0.038
				c-0.038-0.009-0.061,0.011-0.065,0.036c-0.005,0.028,0.012,0.047,0.055,0.074c0.055,0.035,0.082,0.071,0.072,0.123
				c-0.012,0.062-0.069,0.094-0.151,0.075c-0.038-0.009-0.07-0.026-0.092-0.047C-11.419,40.534-11.415,40.526-11.405,40.509z"/>
			<path d="M-10.815,40.606c-0.007,0.036-0.013,0.069-0.017,0.097c-0.022-0.005-0.034-0.007-0.056-0.012
				c0.003-0.023,0.005-0.036,0.008-0.06v0.001c-0.021,0.024-0.066,0.054-0.128,0.04c-0.055-0.012-0.114-0.058-0.091-0.179
				c0.015-0.081,0.023-0.122,0.037-0.203c0.025,0.006,0.038,0.012,0.062,0.018c-0.013,0.076-0.021,0.113-0.035,0.189
				c-0.013,0.066,0,0.114,0.057,0.127c0.043,0.01,0.078-0.014,0.094-0.04c0.004-0.008,0.011-0.019,0.013-0.03
				c0.016-0.085,0.024-0.126,0.039-0.211c0.025,0.006,0.038,0.006,0.063,0.012C-10.786,40.456-10.795,40.506-10.815,40.606z"/>
			<path d="M-10.479,40.769c-0.02,0.004-0.059,0.007-0.106-0.004c-0.104-0.022-0.158-0.108-0.138-0.214
				c0.021-0.106,0.11-0.168,0.225-0.143c0.037,0.008,0.068,0.024,0.083,0.037c-0.009,0.018-0.013,0.027-0.023,0.045
				c-0.014-0.011-0.035-0.024-0.07-0.032c-0.08-0.018-0.137,0.032-0.15,0.104c-0.015,0.08,0.028,0.144,0.096,0.159
				c0.037,0.008,0.062,0.003,0.081-0.002C-10.479,40.739-10.479,40.748-10.479,40.769z"/>
			<path d="M-10.307,40.623C-10.306,40.623-10.307,40.624-10.307,40.623c0.011-0.01,0.026-0.025,0.039-0.035
				c0.05-0.039,0.076-0.054,0.125-0.093c0.03,0.007,0.044,0.011,0.075,0.018c-0.064,0.045-0.097,0.064-0.161,0.109
				c0.045,0.095,0.067,0.145,0.11,0.239c-0.031-0.007-0.046-0.011-0.078-0.018c-0.033-0.077-0.049-0.115-0.083-0.192
				c-0.016,0.012-0.024,0.018-0.041,0.029c-0.011,0.052-0.016,0.078-0.027,0.13c-0.025-0.006-0.037-0.009-0.062-0.015
				c0.043-0.203,0.062-0.304,0.097-0.507c0.025,0.006,0.039,0.008,0.063,0.014C-10.27,40.431-10.281,40.495-10.307,40.623z"/>
			<path d="M-10.068,40.807c0.017,0.016,0.048,0.032,0.081,0.04c0.045,0.01,0.07-0.005,0.076-0.035
				c0.006-0.029-0.009-0.05-0.051-0.077c-0.058-0.037-0.081-0.077-0.073-0.119c0.011-0.056,0.066-0.09,0.141-0.074
				c0.035,0.008,0.065,0.024,0.082,0.041c-0.01,0.017-0.015,0.024-0.024,0.041c-0.012-0.012-0.037-0.028-0.069-0.035
				c-0.038-0.009-0.061,0.011-0.066,0.037c-0.005,0.028,0.012,0.043,0.054,0.07c0.055,0.035,0.08,0.072,0.069,0.124
				c-0.014,0.062-0.07,0.095-0.15,0.077c-0.039-0.009-0.072-0.027-0.093-0.047C-10.082,40.832-10.078,40.824-10.068,40.807z"/>
			<path d="M-9.803,40.89c0.005-0.025,0.027-0.042,0.052-0.036c0.025,0.006,0.04,0.033,0.034,0.06
				c-0.006,0.025-0.028,0.04-0.054,0.034C-9.796,40.941-9.809,40.915-9.803,40.89z"/>
		</g>
	</g>
	<g>
		
			<linearGradient id="SVGID_18_" gradientUnits="userSpaceOnUse" x1="-36.3691" y1="62.9941" x2="-36.3691" y2="20.5823" gradientTransform="matrix(1 0 0.1763 1 19.2647 0)">
			<stop  offset="0.0982" style="stop-color:#5B2400"/>
			<stop  offset="0.8221" style="stop-color:#EEA43D"/>
			<stop  offset="1" style="stop-color:#FBB040"/>
		</linearGradient>
		<path fill="url(#SVGID_18_)" d="M-20.36,49.172c-0.189,0.348-0.02,0.633,0.376,0.633h15.766c0.396,0,0.875-0.285,1.064-0.633
			l5.013-9.236c0.189-0.348,0.028-0.633-0.358-0.633S0.654,39.168,0.476,39c-0.178-0.166-0.648-0.301-1.044-0.301h-2.647
			c-0.396,0-1.014,0.135-1.374,0.301c-0.359,0.168-0.977,0.303-1.373,0.303h-8.321c-0.396,0-0.875,0.285-1.064,0.633L-20.36,49.172z
			"/>
		<path fill="none" stroke="#673C30" stroke-width="0.25" d="M-20.36,49.172c-0.189,0.348-0.02,0.633,0.376,0.633h15.766
			c0.396,0,0.875-0.285,1.064-0.633l5.013-9.236c0.189-0.348,0.028-0.633-0.358-0.633S0.654,39.168,0.476,39
			c-0.178-0.166-0.648-0.301-1.044-0.301h-2.647c-0.396,0-1.014,0.135-1.374,0.301c-0.359,0.168-0.977,0.303-1.373,0.303h-8.321
			c-0.396,0-0.875,0.285-1.064,0.633L-20.36,49.172z"/>
	</g>
</g>
<g>
	<g>
		<radialGradient id="SVGID_19_" cx="15" cy="40.001" r="17.7978" gradientUnits="userSpaceOnUse">
			<stop  offset="0.0061" style="stop-color:#FFC40C"/>
			<stop  offset="0.054" style="stop-color:#F8BD11"/>
			<stop  offset="0.1108" style="stop-color:#EBB01A"/>
			<stop  offset="0.172" style="stop-color:#D69B22"/>
			<stop  offset="0.2365" style="stop-color:#B97F26"/>
			<stop  offset="0.3035" style="stop-color:#965E23"/>
			<stop  offset="0.3717" style="stop-color:#6F3B18"/>
			<stop  offset="0.3742" style="stop-color:#6E3A17"/>
			<stop  offset="0.5583" style="stop-color:#150100"/>
		</radialGradient>
		<circle fill="url(#SVGID_19_)" cx="17.458" cy="42.271" r="5.295"/>
		<radialGradient id="SVGID_20_" cx="15.8818" cy="41.5576" r="2.5435" gradientUnits="userSpaceOnUse">
			<stop  offset="0.2331" style="stop-color:#FFFFFF"/>
			<stop  offset="0.7481" style="stop-color:#FFFFFF;stop-opacity:0"/>
		</radialGradient>
		<circle opacity="0.63" fill="url(#SVGID_20_)" cx="15.882" cy="41.557" r="2.543"/>
	</g>
	<polygon fill="none" stroke="#FBB040" stroke-width="0.5" points="8.958,36.848 8.958,46.941 17.34,51.84 25.958,46.822 
		25.958,36.906 17.399,32.006 	"/>
	<polygon opacity="0.4" fill="#FBB040" points="8.958,36.936 8.958,47.029 17.34,51.93 25.958,46.91 25.958,36.994 17.399,32.096 	
		"/>
	<g>
		<polyline fill="none" stroke="#FBB040" stroke-width="0.5" points="8.958,36.848 17.399,41.629 25.958,36.906 		"/>
		<line fill="none" stroke="#FBB040" stroke-width="0.5" x1="17.34" y1="51.84" x2="17.34" y2="41.629"/>
	</g>
</g>
</svg>
