<?xml version="1.0" encoding="utf-8"?>
<!-- Generator: Adobe Illustrator 14.0.0, SVG Export Plug-In . SVG Version: 6.00 Build 43363)  -->
<!DOCTYPE svg PUBLIC "-//W3C//DTD SVG 1.1//EN" "http://www.w3.org/Graphics/SVG/1.1/DTD/svg11.dtd">
<svg version="1.1" id="Layer_1" xmlns="http://www.w3.org/2000/svg" xmlns:xlink="http://www.w3.org/1999/xlink" x="0px" y="0px"
	 width="25px" height="25px" viewBox="0 0 25 25" enable-background="new 0 0 25 25" xml:space="preserve">
<g>
	<linearGradient id="SVGID_1_" gradientUnits="userSpaceOnUse" x1="7.2573" y1="40.209" x2="7.2573" y2="32.0215">
		<stop  offset="0.0982" style="stop-color:#5B2400"/>
		<stop  offset="0.8221" style="stop-color:#EEA43D"/>
		<stop  offset="1" style="stop-color:#FBB040"/>
	</linearGradient>
	<ellipse fill-rule="evenodd" clip-rule="evenodd" fill="url(#SVGID_1_)" cx="7.257" cy="36.115" rx="3.508" ry="4.094"/>
	<linearGradient id="SVGID_2_" gradientUnits="userSpaceOnUse" x1="12.3433" y1="40.5215" x2="12.3433" y2="33.2715">
		<stop  offset="0.2945" style="stop-color:#5B2400"/>
		<stop  offset="0.8221" style="stop-color:#EEA43D"/>
		<stop  offset="1" style="stop-color:#FBB040"/>
	</linearGradient>
	<ellipse fill-rule="evenodd" clip-rule="evenodd" fill="url(#SVGID_2_)" cx="12.343" cy="36.896" rx="2.906" ry="3.625"/>
	<linearGradient id="SVGID_3_" gradientUnits="userSpaceOnUse" x1="11.8579" y1="47.584" x2="11.8579" y2="38.752">
		<stop  offset="0" style="stop-color:#A76426"/>
		<stop  offset="0.169" style="stop-color:#A26023"/>
		<stop  offset="0.3959" style="stop-color:#95551B"/>
		<stop  offset="0.6558" style="stop-color:#80430B"/>
		<stop  offset="0.9382" style="stop-color:#632B00"/>
		<stop  offset="1" style="stop-color:#5B2400"/>
	</linearGradient>
	<path fill-rule="evenodd" clip-rule="evenodd" fill="url(#SVGID_3_)" d="M8.457,38.752c0,0,0.642,0.182,0.581,0.846
		c-0.055,0.586,0.182,6.221,0.047,7.688c-0.028,0.275-0.014,0.32,0.089,0.291c0.461-0.131,0.563-0.215,5.212-1.605
		c0,0,0.928-0.121,0.869-1.363c-0.061-1.328-0.121-4.648-0.121-4.648s-0.056-0.543-0.842-0.662
		C13.505,39.174,8.457,38.752,8.457,38.752z"/>
	<g>
		<path fill-rule="evenodd" clip-rule="evenodd" fill="#FBB040" d="M9.36,47.115c0,0.396-0.31,0.625-0.688,0.508l-5.361-1.658
			c-0.378-0.117-0.688-0.537-0.688-0.934v-5.684c0-0.396,0.324-0.713,0.72-0.705l5.297,0.117c0.396,0.01,0.72,0.34,0.72,0.736
			V47.115z"/>
	</g>
	<linearGradient id="SVGID_4_" gradientUnits="userSpaceOnUse" x1="3.3564" y1="42.6055" x2="6.4131" y2="42.6055">
		<stop  offset="0" style="stop-color:#A76426"/>
		<stop  offset="1" style="stop-color:#5B2400"/>
	</linearGradient>
	<path fill-rule="evenodd" clip-rule="evenodd" fill="url(#SVGID_4_)" d="M3.356,37.98v9.25c0.281-0.455,3.057-3.398,3.057-3.398
		v-2.594L3.356,37.98z"/>
	<polygon fill-rule="evenodd" clip-rule="evenodd" fill="#FBB040" points="3.356,47.23 -2.497,44.902 -2.497,39.135 3.356,37.98 	
		"/>
	<linearGradient id="SVGID_5_" gradientUnits="userSpaceOnUse" x1="12.1846" y1="39.3027" x2="13.7473" y2="33.4704">
		<stop  offset="0" style="stop-color:#A76426"/>
		<stop  offset="0.169" style="stop-color:#A26023"/>
		<stop  offset="0.3959" style="stop-color:#95551B"/>
		<stop  offset="0.6558" style="stop-color:#80430B"/>
		<stop  offset="0.9382" style="stop-color:#632B00"/>
		<stop  offset="1" style="stop-color:#5B2400"/>
	</linearGradient>
	<path fill-rule="evenodd" clip-rule="evenodd" fill="url(#SVGID_5_)" d="M14.438,39.336c0.631-0.611,1.045-1.578,1.045-2.676
		c0-1.848-1.16-3.348-2.591-3.348s-2.59,1.5-2.59,3.348c0,0.91,0.282,1.732,0.737,2.336C11.879,39.072,13.142,39.199,14.438,39.336z
		"/>
	<linearGradient id="SVGID_6_" gradientUnits="userSpaceOnUse" x1="6.8262" y1="38.9834" x2="8.6152" y2="32.3068">
		<stop  offset="0" style="stop-color:#A76426"/>
		<stop  offset="0.169" style="stop-color:#A26023"/>
		<stop  offset="0.3959" style="stop-color:#95551B"/>
		<stop  offset="0.6558" style="stop-color:#80430B"/>
		<stop  offset="0.9382" style="stop-color:#632B00"/>
		<stop  offset="1" style="stop-color:#5B2400"/>
	</linearGradient>
	<path fill-rule="evenodd" clip-rule="evenodd" fill="url(#SVGID_6_)" d="M9.54,38.836c0.768-0.68,1.271-1.752,1.271-2.971
		c0-2.053-1.41-3.719-3.148-3.719c-1.739,0-3.148,1.666-3.148,3.719c0,1.01,0.431,2.09,0.984,2.762
		C6.517,38.711,7.915,38.752,9.54,38.836z"/>
	<circle fill-rule="evenodd" clip-rule="evenodd" fill="#FBB040" cx="7.915" cy="35.752" r="0.25"/>
	<g>
		<linearGradient id="SVGID_7_" gradientUnits="userSpaceOnUse" x1="-2.4971" y1="42.0186" x2="1.6963" y2="42.0186">
			<stop  offset="0" style="stop-color:#A76426"/>
			<stop  offset="0.169" style="stop-color:#A26023"/>
			<stop  offset="0.3959" style="stop-color:#95551B"/>
			<stop  offset="0.6558" style="stop-color:#80430B"/>
			<stop  offset="0.9382" style="stop-color:#632B00"/>
			<stop  offset="1" style="stop-color:#5B2400"/>
		</linearGradient>
		<path fill-rule="evenodd" clip-rule="evenodd" fill="url(#SVGID_7_)" d="M-2.497,39.135v5.768c0.281-0.285,4.192-1.35,4.192-1.35
			s0-2.688,0.001-2.688L-2.497,39.135z"/>
		
			<radialGradient id="SVGID_8_" cx="1.1729" cy="41.9902" r="3.1123" gradientTransform="matrix(-0.0094 -1 0.8074 -0.0076 -32.7173 43.4825)" gradientUnits="userSpaceOnUse">
			<stop  offset="0" style="stop-color:#27AAE1"/>
			<stop  offset="0.1288" style="stop-color:#7556A4"/>
			<stop  offset="0.3129" style="stop-color:#000000"/>
			<stop  offset="0.5583" style="stop-color:#150100"/>
		</radialGradient>
		<path fill-rule="evenodd" clip-rule="evenodd" fill="url(#SVGID_8_)" d="M2.149,41.143c-0.214-0.334-0.527-0.549-0.881-0.549
			c-0.643,0-1.164,0.697-1.164,1.557c0,0.861,0.521,1.559,1.164,1.559c0.354,0,0.667-0.215,0.881-0.549V41.143z"/>
	</g>
	<ellipse fill-rule="evenodd" clip-rule="evenodd" fill="#FBB040" cx="13.041" cy="36.584" rx="0.206" ry="0.25"/>
</g>
<g opacity="0.8">
	<linearGradient id="SVGID_9_" gradientUnits="userSpaceOnUse" x1="-16.6187" y1="12.4941" x2="-16.6187" y2="2.1055">
		<stop  offset="0.0982" style="stop-color:#5B2400"/>
		<stop  offset="0.8221" style="stop-color:#EEA43D"/>
		<stop  offset="1" style="stop-color:#FBB040"/>
	</linearGradient>
	<ellipse fill-rule="evenodd" clip-rule="evenodd" fill="url(#SVGID_9_)" cx="-16.619" cy="7.299" rx="4.452" ry="5.195"/>
	<linearGradient id="SVGID_10_" gradientUnits="userSpaceOnUse" x1="-10.167" y1="12.8906" x2="-10.167" y2="3.6914">
		<stop  offset="0.2945" style="stop-color:#5B2400"/>
		<stop  offset="0.8221" style="stop-color:#EEA43D"/>
		<stop  offset="1" style="stop-color:#FBB040"/>
	</linearGradient>
	<ellipse fill-rule="evenodd" clip-rule="evenodd" fill="url(#SVGID_10_)" cx="-10.167" cy="8.291" rx="3.688" ry="4.6"/>
	<linearGradient id="SVGID_11_" gradientUnits="userSpaceOnUse" x1="-10.7817" y1="21.8506" x2="-10.7817" y2="10.6436">
		<stop  offset="0" style="stop-color:#A76426"/>
		<stop  offset="0.169" style="stop-color:#A26023"/>
		<stop  offset="0.3959" style="stop-color:#95551B"/>
		<stop  offset="0.6558" style="stop-color:#80430B"/>
		<stop  offset="0.9382" style="stop-color:#632B00"/>
		<stop  offset="1" style="stop-color:#5B2400"/>
	</linearGradient>
	<path fill-rule="evenodd" clip-rule="evenodd" fill="url(#SVGID_11_)" d="M-15.097,10.643c0,0,0.813,0.23,0.739,1.073
		c-0.069,0.744,0.228,7.894,0.06,9.755c-0.038,0.349-0.018,0.406,0.111,0.369c0.585-0.166,0.714-0.272,6.614-2.037
		c0,0,1.177-0.154,1.103-1.729c-0.079-1.686-0.154-5.899-0.154-5.899s-0.071-0.687-1.07-0.84
		C-8.69,11.178-15.097,10.643-15.097,10.643z"/>
	<g>
		<path fill-rule="evenodd" clip-rule="evenodd" fill="#FBB040" d="M-13.951,21.45c0,0.396-0.31,0.624-0.688,0.507l-7.172-2.218
			c-0.378-0.117-0.688-0.537-0.688-0.933v-7.602c0-0.396,0.324-0.713,0.72-0.704l7.108,0.159c0.396,0.009,0.72,0.34,0.72,0.736
			V21.45z"/>
	</g>
	<linearGradient id="SVGID_12_" gradientUnits="userSpaceOnUse" x1="-21.5664" y1="15.5332" x2="-17.6885" y2="15.5332">
		<stop  offset="0" style="stop-color:#A76426"/>
		<stop  offset="1" style="stop-color:#5B2400"/>
	</linearGradient>
	<path fill-rule="evenodd" clip-rule="evenodd" fill="url(#SVGID_12_)" d="M-21.566,9.664v11.737
		c0.356-0.577,3.875-4.312,3.875-4.312s0-3.291,0.002-3.291L-21.566,9.664z"/>
	<polygon fill-rule="evenodd" clip-rule="evenodd" fill="#FBB040" points="-21.566,21.401 -28.994,18.448 -28.994,11.129 
		-21.566,9.664 	"/>
	<linearGradient id="SVGID_13_" gradientUnits="userSpaceOnUse" x1="-10.3682" y1="11.3452" x2="-8.3843" y2="3.9414">
		<stop  offset="0" style="stop-color:#A76426"/>
		<stop  offset="0.169" style="stop-color:#A26023"/>
		<stop  offset="0.3959" style="stop-color:#95551B"/>
		<stop  offset="0.6558" style="stop-color:#80430B"/>
		<stop  offset="0.9382" style="stop-color:#632B00"/>
		<stop  offset="1" style="stop-color:#5B2400"/>
	</linearGradient>
	<path fill-rule="evenodd" clip-rule="evenodd" fill="url(#SVGID_13_)" d="M-7.508,11.384c0.803-0.776,1.325-2,1.325-3.395
		c0-2.345-1.472-4.248-3.286-4.248c-1.813,0-3.286,1.903-3.286,4.248c0,1.155,0.359,2.197,0.935,2.966
		C-10.755,11.049-9.153,11.21-7.508,11.384z"/>
	<linearGradient id="SVGID_14_" gradientUnits="userSpaceOnUse" x1="-17.1655" y1="10.9365" x2="-14.8962" y2="2.4672">
		<stop  offset="0" style="stop-color:#A76426"/>
		<stop  offset="0.169" style="stop-color:#A26023"/>
		<stop  offset="0.3959" style="stop-color:#95551B"/>
		<stop  offset="0.6558" style="stop-color:#80430B"/>
		<stop  offset="0.9382" style="stop-color:#632B00"/>
		<stop  offset="1" style="stop-color:#5B2400"/>
	</linearGradient>
	<path fill-rule="evenodd" clip-rule="evenodd" fill="url(#SVGID_14_)" d="M-13.721,10.75c0.972-0.86,1.61-2.221,1.61-3.767
		c0-2.606-1.789-4.718-3.994-4.718c-2.206,0-3.995,2.112-3.995,4.718c0,1.281,0.548,2.652,1.249,3.502
		C-17.557,10.591-15.785,10.643-13.721,10.75z"/>
	<circle fill-rule="evenodd" clip-rule="evenodd" fill="#FBB040" cx="-15.783" cy="6.837" r="0.317"/>
	<g>
		<linearGradient id="SVGID_15_" gradientUnits="userSpaceOnUse" x1="-28.9961" y1="14.7891" x2="-23.6753" y2="14.7891">
			<stop  offset="0" style="stop-color:#A76426"/>
			<stop  offset="0.169" style="stop-color:#A26023"/>
			<stop  offset="0.3959" style="stop-color:#95551B"/>
			<stop  offset="0.6558" style="stop-color:#80430B"/>
			<stop  offset="0.9382" style="stop-color:#632B00"/>
			<stop  offset="1" style="stop-color:#5B2400"/>
		</linearGradient>
		<path fill-rule="evenodd" clip-rule="evenodd" fill="url(#SVGID_15_)" d="M-28.996,11.129v7.319
			c0.357-0.362,5.321-1.713,5.321-1.713v-3.41L-28.996,11.129z"/>
		
			<radialGradient id="SVGID_16_" cx="-24.3398" cy="14.7529" r="3.9489" gradientTransform="matrix(-0.0094 -1 0.8074 -0.0076 -36.4801 -9.4736)" gradientUnits="userSpaceOnUse">
			<stop  offset="0" style="stop-color:#27AAE1"/>
			<stop  offset="0.1288" style="stop-color:#7556A4"/>
			<stop  offset="0.3129" style="stop-color:#000000"/>
			<stop  offset="0.5583" style="stop-color:#150100"/>
		</radialGradient>
		<path fill-rule="evenodd" clip-rule="evenodd" fill="url(#SVGID_16_)" d="M-23.101,13.678c-0.27-0.424-0.667-0.697-1.118-0.697
			c-0.815,0-1.477,0.886-1.477,1.976c0,1.093,0.662,1.978,1.477,1.978c0.451,0,0.848-0.272,1.118-0.696V13.678z"/>
	</g>
	<ellipse fill-rule="evenodd" clip-rule="evenodd" fill="#FBB040" cx="-9.28" cy="7.894" rx="0.26" ry="0.317"/>
</g>
<g>
	<g>
		<linearGradient id="SVGID_17_" gradientUnits="userSpaceOnUse" x1="9.7573" y1="21.5068" x2="9.7573" y2="7.4956">
			<stop  offset="0.0982" style="stop-color:#5B2400"/>
			<stop  offset="0.8221" style="stop-color:#EEA43D"/>
			<stop  offset="1" style="stop-color:#FBB040"/>
		</linearGradient>
		<path fill="url(#SVGID_17_)" d="M18.735,20.787c0,0.396-0.324,0.72-0.72,0.72H1.5c-0.396,0-0.72-0.324-0.72-0.72V8.98
			c0-0.396,0.324-0.72,0.72-0.72h0.024c0.396,0,0.95-0.172,1.23-0.382s0.834-0.382,1.23-0.382H6.81c0.396,0,0.95,0.172,1.23,0.382
			S8.874,8.26,9.27,8.26h8.746c0.396,0,0.72,0.324,0.72,0.72V20.787z"/>
		<path fill="none" stroke="#673C30" stroke-width="0.25" d="M18.735,20.787c0,0.396-0.324,0.72-0.72,0.72H1.5
			c-0.396,0-0.72-0.324-0.72-0.72V8.98c0-0.396,0.324-0.72,0.72-0.72h0.024c0.396,0,0.95-0.172,1.23-0.382s0.834-0.382,1.23-0.382
			H6.81c0.396,0,0.95,0.172,1.23,0.382S8.874,8.26,9.27,8.26h8.746c0.396,0,0.72,0.324,0.72,0.72V20.787z"/>
	</g>
	<path fill="#C3D2D1" d="M1.276,20.373C3.925,14.016,2.145,9.324,4.789,5.388c4.189,0.361,14.814,1.973,14.814,1.973
		c-1.751,3.985-0.253,6.874-2.67,11.331C14.516,23.152,1.276,20.373,1.276,20.373z"/>
	<path fill="#FFFFFF" d="M2.032,19.453C5.175,13.068,3.644,8.117,6.622,4.23C10.918,4.874,21.77,7.222,21.77,7.222
		c-2.064,3.995-0.708,7.071-3.487,11.51C15.502,23.172,2.032,19.453,2.032,19.453z"/>
	<g>
		<g>
			<path d="M7.547,6.357C7.485,6.344,7.456,6.337,7.395,6.323C7.399,6.301,7.402,6.29,7.407,6.268
				c0.148,0.033,0.222,0.05,0.371,0.083C7.773,6.373,7.771,6.384,7.766,6.406C7.705,6.392,7.673,6.385,7.612,6.371
				C7.573,6.55,7.557,6.64,7.524,6.819C7.498,6.813,7.485,6.81,7.458,6.804C7.491,6.625,7.508,6.536,7.547,6.357z"/>
			<path d="M8.041,6.743C8.016,6.876,7.915,6.914,7.828,6.895c-0.098-0.021-0.162-0.111-0.14-0.225
				c0.023-0.12,0.117-0.172,0.217-0.15C8.009,6.542,8.062,6.633,8.041,6.743z M7.755,6.682c-0.015,0.08,0.02,0.149,0.084,0.163
				c0.063,0.014,0.12-0.033,0.136-0.115c0.012-0.061-0.003-0.145-0.08-0.162C7.817,6.551,7.769,6.615,7.755,6.682z"/>
			<path d="M8.345,6.625C8.351,6.703,8.354,6.741,8.36,6.819C8.362,6.861,8.364,6.901,8.365,6.94c0.001,0,0.002,0,0.003,0
				c0.015-0.035,0.035-0.071,0.052-0.107C8.458,6.765,8.476,6.73,8.514,6.662C8.536,6.667,8.547,6.669,8.57,6.674
				c0.009,0.077,0.012,0.117,0.022,0.194c0.006,0.045,0.012,0.086,0.013,0.124c0.001,0,0,0,0.001,0
				c0.013-0.035,0.028-0.07,0.048-0.11C8.688,6.814,8.705,6.78,8.74,6.712C8.766,6.718,8.779,6.72,8.805,6.726
				C8.731,6.86,8.693,6.927,8.622,7.061C8.598,7.056,8.587,7.053,8.563,7.048c-0.011-0.074-0.017-0.11-0.026-0.184
				C8.533,6.821,8.528,6.782,8.526,6.738h0C8.509,6.778,8.491,6.813,8.473,6.85c-0.036,0.063-0.055,0.095-0.09,0.158
				C8.358,7.002,8.347,7,8.323,6.994C8.304,6.84,8.294,6.764,8.279,6.61C8.306,6.616,8.319,6.619,8.345,6.625z"/>
			<path d="M8.905,6.571c0.026,0.006,0.041,0.01,0.067,0.016C8.954,6.677,8.946,6.721,8.93,6.812h0.001
				c0.013-0.016,0.034-0.027,0.056-0.034c0.02-0.006,0.045-0.01,0.069-0.004c0.049,0.011,0.12,0.058,0.099,0.182
				C9.139,7.041,9.133,7.083,9.119,7.169C9.092,7.163,9.079,7.16,9.052,7.154c0.014-0.083,0.02-0.124,0.034-0.207
				c0.01-0.058-0.001-0.112-0.062-0.125C8.981,6.812,8.941,6.835,8.922,6.868c-0.005,0.009-0.008,0.018-0.01,0.03
				C8.896,6.984,8.891,7.029,8.876,7.116C8.849,7.11,8.834,7.108,8.808,7.103C8.843,6.891,8.863,6.783,8.905,6.571z"/>
			<path d="M9.587,7.082C9.565,7.215,9.461,7.255,9.373,7.235C9.275,7.214,9.211,7.125,9.23,7.011
				c0.021-0.12,0.114-0.173,0.214-0.152C9.549,6.882,9.606,6.972,9.587,7.082z M9.298,7.022C9.284,7.102,9.32,7.171,9.384,7.186
				C9.448,7.199,9.505,7.151,9.519,7.07c0.01-0.061-0.006-0.145-0.084-0.162C9.357,6.891,9.31,6.955,9.298,7.022z"/>
			<path d="M9.686,7.021c0.007-0.038,0.009-0.068,0.013-0.099C9.722,6.928,9.734,6.93,9.757,6.936
				C9.754,6.959,9.753,6.971,9.75,6.995c0.001,0,0.002,0.001,0.003,0.001c0.026-0.03,0.066-0.056,0.126-0.042
				c0.049,0.01,0.082,0.049,0.089,0.096c0-0.001,0,0,0.002,0.001c0.016-0.018,0.031-0.032,0.049-0.04
				c0.025-0.011,0.05-0.013,0.084-0.006c0.048,0.011,0.114,0.059,0.094,0.184c-0.014,0.085-0.02,0.126-0.032,0.211
				c-0.026-0.006-0.04-0.01-0.066-0.016c0.012-0.082,0.019-0.123,0.032-0.204c0.012-0.069-0.007-0.116-0.06-0.127
				c-0.038-0.008-0.072,0.012-0.09,0.041C9.976,7.104,9.972,7.114,9.97,7.125C9.955,7.215,9.949,7.26,9.936,7.35
				C9.91,7.344,9.897,7.342,9.871,7.336c0.014-0.086,0.02-0.131,0.034-0.218c0.009-0.058-0.01-0.104-0.06-0.114
				C9.806,6.995,9.771,7.02,9.754,7.051c-0.005,0.008-0.011,0.02-0.013,0.03C9.727,7.168,9.721,7.213,9.707,7.3
				c-0.025-0.006-0.04-0.01-0.065-0.016C9.659,7.179,9.667,7.127,9.686,7.021z"/>
			<path d="M10.433,7.458c0.021-0.145,0.033-0.216,0.058-0.36c0.027,0.006,0.039,0.009,0.066,0.015
				c-0.024,0.145-0.035,0.215-0.057,0.36C10.473,7.466,10.46,7.464,10.433,7.458z M10.583,7.012
				c-0.004,0.022-0.024,0.036-0.049,0.03c-0.024-0.005-0.038-0.026-0.034-0.049s0.023-0.037,0.048-0.032
				C10.571,6.967,10.587,6.988,10.583,7.012z"/>
			<path d="M10.761,7.065c-0.006,0.035-0.009,0.053-0.015,0.088c0.038,0.008,0.057,0.012,0.095,0.021
				c-0.003,0.02-0.005,0.03-0.009,0.05c-0.038-0.008-0.056-0.013-0.094-0.021c-0.013,0.078-0.021,0.118-0.032,0.196
				c-0.007,0.045,0.003,0.073,0.041,0.081c0.018,0.004,0.03,0.005,0.04,0.005c-0.001,0.02-0.004,0.029-0.005,0.049
				c-0.014,0.002-0.034,0.002-0.06-0.004c-0.032-0.007-0.056-0.022-0.069-0.042c-0.016-0.023-0.016-0.058-0.01-0.1
				c0.012-0.079,0.02-0.118,0.033-0.197c-0.023-0.005-0.036-0.009-0.059-0.014c0.003-0.02,0.006-0.029,0.01-0.049
				c0.023,0.005,0.035,0.008,0.058,0.013c0.004-0.027,0.006-0.041,0.011-0.067C10.721,7.069,10.734,7.068,10.761,7.065z"/>
			<path d="M11.061,7.324c0.006-0.038,0.01-0.069,0.014-0.099c0.023,0.005,0.035,0.008,0.058,0.013
				c-0.002,0.024-0.005,0.036-0.008,0.06c0.001,0,0.003,0,0.004,0c0.026-0.03,0.065-0.055,0.126-0.042
				c0.049,0.011,0.082,0.049,0.089,0.096c0.001,0,0.001,0,0.001,0c0.016-0.019,0.032-0.03,0.05-0.038
				c0.023-0.012,0.05-0.016,0.084-0.009c0.048,0.011,0.116,0.059,0.098,0.185c-0.013,0.085-0.019,0.126-0.031,0.211
				c-0.026-0.006-0.041-0.009-0.067-0.015c0.011-0.082,0.018-0.123,0.03-0.205c0.011-0.07-0.009-0.116-0.062-0.128
				c-0.038-0.008-0.072,0.014-0.087,0.042c-0.005,0.009-0.009,0.02-0.011,0.032c-0.014,0.089-0.021,0.133-0.033,0.223
				c-0.026-0.006-0.04-0.006-0.065-0.012c0.012-0.086,0.02-0.131,0.033-0.218c0.009-0.058-0.01-0.105-0.061-0.116
				c-0.041-0.009-0.078,0.017-0.094,0.048c-0.005,0.009-0.008,0.021-0.01,0.032c-0.013,0.087-0.02,0.13-0.032,0.217
				c-0.026-0.006-0.04-0.01-0.065-0.016C11.037,7.48,11.044,7.43,11.061,7.324z"/>
			<path d="M11.922,7.696c-0.004,0.031-0.007,0.061-0.006,0.087c-0.024-0.005-0.036-0.007-0.06-0.013
				c0-0.019,0.001-0.027,0.001-0.046c-0.001-0.001-0.001,0-0.002-0.001c-0.024,0.023-0.068,0.04-0.12,0.028
				c-0.074-0.017-0.105-0.076-0.098-0.128c0.012-0.087,0.099-0.117,0.239-0.085c0-0.003,0.001-0.004,0.002-0.007
				c0.004-0.029,0.003-0.086-0.071-0.102c-0.034-0.007-0.072-0.005-0.099,0.007c-0.003-0.019-0.005-0.028-0.009-0.047
				c0.032-0.012,0.079-0.017,0.125-0.006c0.112,0.024,0.127,0.107,0.117,0.178C11.934,7.615,11.93,7.642,11.922,7.696z
				 M11.871,7.583c-0.071-0.018-0.155-0.021-0.165,0.049c-0.006,0.043,0.019,0.069,0.052,0.076c0.048,0.01,0.084-0.014,0.098-0.042
				c0.003-0.007,0.007-0.014,0.007-0.02C11.867,7.622,11.867,7.608,11.871,7.583z"/>
			<path d="M12.09,7.448c0.019,0.092,0.026,0.139,0.046,0.231c0.006,0.025,0.013,0.055,0.016,0.078
				c-0.001,0.001,0.001,0.001,0.002,0.002c0.01-0.02,0.019-0.048,0.033-0.071c0.041-0.079,0.062-0.118,0.104-0.197
				c0.028,0.006,0.041,0.011,0.068,0.017c-0.055,0.095-0.081,0.14-0.135,0.235c-0.064,0.113-0.105,0.169-0.155,0.199
				c-0.037,0.021-0.072,0.024-0.089,0.023c-0.004-0.023-0.005-0.035-0.009-0.058c0.018-0.001,0.041-0.007,0.062-0.02
				c0.02-0.01,0.047-0.032,0.067-0.062c0.004-0.006,0.006-0.009,0.007-0.012c0-0.004,0-0.009-0.003-0.019
				c-0.036-0.145-0.054-0.218-0.088-0.363C12.046,7.439,12.061,7.442,12.09,7.448z"/>
			<path d="M12.795,7.962c-0.019,0.005-0.057,0.008-0.106-0.002c-0.111-0.024-0.174-0.114-0.159-0.225
				c0.015-0.111,0.103-0.175,0.223-0.149c0.039,0.008,0.072,0.026,0.089,0.04c-0.009,0.019-0.014,0.029-0.023,0.047
				c-0.015-0.012-0.038-0.027-0.074-0.034c-0.084-0.019-0.139,0.033-0.149,0.107c-0.012,0.083,0.036,0.148,0.109,0.165
				c0.039,0.008,0.063,0.004,0.083,0C12.791,7.931,12.792,7.941,12.795,7.962z"/>
			<path d="M13.223,7.879c-0.019,0.132-0.119,0.172-0.207,0.153c-0.099-0.021-0.166-0.111-0.151-0.226
				c0.017-0.12,0.108-0.172,0.208-0.15C13.179,7.68,13.237,7.77,13.223,7.879z M12.934,7.82c-0.011,0.08,0.025,0.149,0.091,0.163
				c0.064,0.014,0.118-0.035,0.129-0.117c0.008-0.062-0.01-0.144-0.089-0.161C12.985,7.688,12.943,7.752,12.934,7.82z"/>
			<path d="M13.318,7.818c0.005-0.038,0.011-0.066,0.013-0.097c0.023,0.005,0.034,0.007,0.058,0.012
				c-0.002,0.024-0.001,0.036-0.003,0.061h-0.001c0.023-0.03,0.07-0.054,0.131-0.041c0.052,0.011,0.127,0.057,0.111,0.182
				c-0.012,0.086-0.018,0.13-0.028,0.216c-0.027-0.006-0.04-0.009-0.067-0.015c0.01-0.083,0.015-0.124,0.025-0.208
				c0.008-0.059-0.007-0.111-0.069-0.125c-0.043-0.01-0.081,0.013-0.099,0.046c-0.005,0.008-0.007,0.019-0.008,0.03
				c-0.012,0.087-0.017,0.129-0.027,0.216c-0.027-0.006-0.043-0.008-0.07-0.014C13.297,7.977,13.304,7.923,13.318,7.818z"/>
			<path d="M13.973,8.219c-0.02,0.005-0.062,0.009-0.11-0.002c-0.11-0.024-0.175-0.114-0.16-0.225
				c0.015-0.111,0.104-0.176,0.224-0.15c0.039,0.008,0.07,0.026,0.088,0.041C14.005,7.901,14,7.91,13.991,7.928
				c-0.016-0.012-0.039-0.025-0.075-0.033c-0.084-0.018-0.135,0.033-0.145,0.107c-0.011,0.083,0.036,0.147,0.109,0.163
				c0.039,0.008,0.063,0.005,0.084,0.001C13.967,8.188,13.971,8.198,13.973,8.219z"/>
			<path d="M14.103,8.088c-0.01,0.09,0.043,0.138,0.11,0.153c0.049,0.01,0.077,0.009,0.104,0.004
				c0.002,0.02,0.005,0.029,0.007,0.049c-0.024,0.006-0.067,0.009-0.126-0.003c-0.114-0.025-0.173-0.114-0.158-0.223
				s0.091-0.18,0.197-0.156c0.12,0.026,0.139,0.137,0.13,0.204c-0.002,0.014-0.005,0.021-0.007,0.028
				C14.256,8.121,14.206,8.11,14.103,8.088z M14.303,8.083c0.006-0.042-0.002-0.109-0.077-0.126
				c-0.069-0.015-0.104,0.039-0.116,0.083C14.188,8.057,14.225,8.066,14.303,8.083z"/>
			<path d="M14.455,8.082c0.005-0.042,0.011-0.079,0.013-0.113c0.023,0.005,0.036,0.007,0.06,0.012
				c-0.003,0.029-0.006,0.045-0.009,0.074c0.001,0,0.002,0,0.003,0c0.023-0.045,0.065-0.067,0.111-0.057
				c0.006,0.001,0.013,0.003,0.019,0.005c-0.003,0.025-0.003,0.038-0.006,0.062c-0.007-0.003-0.012-0.005-0.021-0.007
				c-0.046-0.011-0.089,0.019-0.104,0.066c-0.002,0.009-0.004,0.019-0.005,0.029c-0.01,0.077-0.015,0.115-0.023,0.192
				c-0.026-0.006-0.042-0.009-0.068-0.015C14.436,8.231,14.442,8.181,14.455,8.082z"/>
			<path d="M14.709,8.122c0.005-0.038,0.007-0.068,0.009-0.098c0.023,0.005,0.037,0.008,0.061,0.013
				c-0.001,0.024-0.004,0.036-0.005,0.061h0.002c0.023-0.03,0.069-0.054,0.13-0.041c0.052,0.011,0.125,0.059,0.11,0.183
				c-0.011,0.086-0.018,0.128-0.027,0.214c-0.026-0.006-0.038-0.008-0.064-0.014c0.01-0.083,0.015-0.126,0.024-0.209
				c0.007-0.059-0.009-0.111-0.071-0.125c-0.044-0.009-0.083,0.014-0.1,0.047c-0.004,0.008-0.006,0.019-0.007,0.03
				C14.76,8.27,14.754,8.313,14.744,8.4c-0.027-0.006-0.042-0.008-0.069-0.014C14.688,8.281,14.695,8.228,14.709,8.122z"/>
			<path d="M15.089,8.437c0.003-0.028,0.024-0.045,0.05-0.039c0.027,0.006,0.044,0.03,0.041,0.058
				c-0.003,0.026-0.022,0.042-0.05,0.036C15.104,8.486,15.086,8.463,15.089,8.437z M15.121,8.173
				c0.004-0.028,0.025-0.043,0.051-0.037c0.027,0.006,0.041,0.029,0.037,0.057c-0.004,0.025-0.022,0.042-0.05,0.035
				C15.133,8.222,15.117,8.199,15.121,8.173z"/>
			<path d="M7.17,8.074C7.196,8.08,7.211,8.084,7.237,8.09C7.226,8.187,7.219,8.235,7.208,8.333c0.001,0,0.002,0,0.003,0
				c0.016-0.017,0.031-0.032,0.045-0.046c0.071-0.062,0.108-0.092,0.179-0.154C7.469,8.14,7.485,8.143,7.518,8.15
				C7.434,8.22,7.392,8.254,7.308,8.324c0.067,0.134,0.1,0.201,0.167,0.335c-0.031-0.007-0.047-0.01-0.078-0.017
				C7.34,8.528,7.313,8.47,7.257,8.356C7.235,8.374,7.223,8.383,7.201,8.4C7.192,8.478,7.188,8.517,7.179,8.594
				c-0.026-0.006-0.04-0.009-0.066-0.015C7.134,8.377,7.146,8.275,7.17,8.074z"/>
			<path d="M7.804,8.643C7.801,8.674,7.799,8.703,7.8,8.729c-0.024-0.005-0.035-0.007-0.06-0.012c0-0.019-0.001-0.029-0.001-0.048
				c0,0,0,0-0.002,0C7.713,8.693,7.672,8.709,7.62,8.698C7.544,8.682,7.512,8.622,7.518,8.57c0.009-0.088,0.095-0.118,0.237-0.086
				c0-0.003,0-0.006,0.001-0.009c0.003-0.029,0-0.086-0.075-0.102c-0.036-0.007-0.072-0.005-0.1,0.006
				C7.577,8.36,7.575,8.351,7.571,8.332C7.603,8.32,7.65,8.316,7.697,8.327C7.81,8.352,7.828,8.433,7.82,8.505
				C7.814,8.56,7.81,8.588,7.804,8.643z M7.75,8.53C7.677,8.512,7.593,8.507,7.586,8.577C7.581,8.621,7.608,8.645,7.642,8.652
				C7.691,8.663,7.723,8.64,7.737,8.612C7.74,8.605,7.743,8.597,7.743,8.591C7.746,8.565,7.748,8.555,7.75,8.53z"/>
			<path d="M7.963,8.221C7.99,8.227,8.003,8.229,8.03,8.234C8.019,8.325,8.014,8.371,8.004,8.462c0,0,0.001,0,0.002,0
				c0.027-0.036,0.073-0.052,0.13-0.04c0.093,0.021,0.15,0.108,0.139,0.218C8.261,8.771,8.171,8.818,8.088,8.8
				C8.036,8.789,7.995,8.759,7.972,8.706c-0.001,0-0.001,0-0.002,0C7.965,8.729,7.962,8.74,7.958,8.764
				C7.935,8.759,7.924,8.756,7.902,8.751c0.004-0.025,0.01-0.062,0.014-0.094C7.934,8.482,7.943,8.396,7.963,8.221z M7.988,8.621
				c0,0.009-0.002,0.017-0.001,0.024C7.994,8.693,8.031,8.733,8.08,8.744c0.071,0.015,0.118-0.032,0.127-0.115
				c0.008-0.072-0.023-0.142-0.096-0.158C8.066,8.461,8.02,8.483,8.002,8.529C7.999,8.537,7.995,8.547,7.994,8.557
				C7.991,8.583,7.991,8.595,7.988,8.621z"/>
			<path d="M8.606,8.815C8.604,8.847,8.601,8.878,8.602,8.904C8.578,8.898,8.565,8.895,8.541,8.89c0-0.019,0.001-0.027,0.002-0.046
				C8.542,8.843,8.54,8.843,8.541,8.843c-0.024,0.024-0.066,0.04-0.119,0.028C8.346,8.854,8.313,8.796,8.319,8.744
				c0.009-0.088,0.094-0.118,0.236-0.086c0-0.003,0.002-0.004,0.002-0.007C8.561,8.621,8.555,8.564,8.48,8.549
				c-0.035-0.008-0.073-0.004-0.1,0.007c-0.004-0.019-0.006-0.03-0.01-0.049c0.033-0.012,0.08-0.015,0.126-0.005
				C8.61,8.526,8.628,8.608,8.62,8.68C8.614,8.734,8.612,8.761,8.606,8.815z M8.552,8.704C8.479,8.686,8.395,8.681,8.388,8.75
				C8.383,8.794,8.41,8.82,8.442,8.827c0.049,0.011,0.084-0.014,0.099-0.042c0.003-0.007,0.004-0.013,0.005-0.02
				C8.549,8.741,8.549,8.729,8.552,8.704z"/>
			<path d="M8.765,8.395c0.027,0.006,0.04,0.008,0.066,0.014c-0.024,0.213-0.036,0.32-0.058,0.532
				C8.747,8.936,8.732,8.933,8.705,8.927C8.727,8.714,8.741,8.608,8.765,8.395z"/>
			<path d="M9.155,8.935C9.152,8.966,9.15,8.999,9.15,9.024C9.126,9.019,9.114,9.016,9.09,9.01c0-0.019,0-0.028,0-0.047
				c0,0-0.001,0-0.001,0C9.065,8.987,9.022,9.002,8.97,8.99C8.894,8.974,8.862,8.916,8.868,8.863
				c0.009-0.088,0.094-0.119,0.237-0.087c0-0.003,0-0.005,0-0.008c0.003-0.029-0.001-0.084-0.076-0.1
				c-0.035-0.007-0.07-0.006-0.098,0.005C8.926,8.655,8.923,8.647,8.918,8.628c0.033-0.012,0.08-0.017,0.126-0.007
				c0.113,0.024,0.132,0.106,0.125,0.178C9.164,8.854,9.161,8.88,9.155,8.935z M9.101,8.822C9.027,8.804,8.944,8.801,8.937,8.871
				C8.932,8.915,8.958,8.94,8.99,8.948c0.05,0.011,0.083-0.014,0.098-0.042c0.003-0.007,0.004-0.014,0.005-0.021
				C9.096,8.86,9.098,8.847,9.101,8.822z"/>
			<path d="M9.471,8.919c-0.007,0.09,0.045,0.139,0.114,0.154c0.048,0.01,0.08,0.008,0.105,0.003c0.003,0.02,0.003,0.03,0.006,0.05
				C9.672,9.131,9.629,9.135,9.571,9.122C9.457,9.097,9.397,9.008,9.409,8.899S9.495,8.72,9.603,8.744
				c0.121,0.026,0.14,0.136,0.133,0.203C9.734,8.96,9.733,8.968,9.73,8.976C9.627,8.953,9.575,8.942,9.471,8.919z M9.674,8.915
				c0.005-0.041-0.007-0.11-0.083-0.126c-0.069-0.015-0.103,0.04-0.114,0.084C9.556,8.89,9.596,8.898,9.674,8.915z"/>
			<path d="M9.827,8.899C9.83,8.862,9.833,8.832,9.834,8.801c0.024,0.005,0.035,0.008,0.059,0.013c-0.001,0.024,0,0.035-0.001,0.06
				l0,0.002c0.022-0.03,0.068-0.055,0.128-0.042c0.052,0.011,0.129,0.059,0.116,0.184c-0.009,0.086-0.014,0.128-0.022,0.215
				c-0.027-0.006-0.041-0.008-0.067-0.014c0.009-0.083,0.013-0.126,0.021-0.209c0.006-0.059-0.01-0.111-0.073-0.125
				c-0.043-0.01-0.081,0.014-0.098,0.047C9.892,8.938,9.891,8.95,9.89,8.961C9.88,9.048,9.876,9.091,9.867,9.179
				C9.84,9.173,9.826,9.171,9.799,9.165C9.81,9.059,9.815,9.005,9.827,8.899z"/>
			<path d="M10.543,9.271c-0.009,0.083-0.031,0.132-0.069,0.155c-0.039,0.024-0.093,0.024-0.14,0.014
				c-0.044-0.01-0.091-0.033-0.119-0.059c0.009-0.019,0.013-0.025,0.022-0.044c0.022,0.021,0.061,0.042,0.106,0.052
				c0.067,0.015,0.122-0.008,0.131-0.101c0.001-0.016,0.003-0.025,0.005-0.041h-0.001c-0.023,0.03-0.067,0.048-0.124,0.035
				c-0.092-0.02-0.149-0.11-0.139-0.211c0.013-0.123,0.102-0.173,0.188-0.155c0.062,0.014,0.094,0.053,0.107,0.087h0
				c0.003-0.021,0.007-0.032,0.011-0.054c0.024,0.005,0.035,0.008,0.059,0.014c-0.006,0.025-0.01,0.054-0.015,0.098
				C10.555,9.146,10.551,9.187,10.543,9.271z M10.494,9.09c0.001-0.011,0.001-0.021,0-0.029c-0.009-0.042-0.04-0.081-0.089-0.091
				c-0.063-0.014-0.115,0.029-0.124,0.113c-0.007,0.072,0.025,0.139,0.095,0.154c0.042,0.009,0.083-0.008,0.102-0.047
				c0.005-0.011,0.008-0.022,0.01-0.034C10.491,9.13,10.492,9.116,10.494,9.09z"/>
			<path d="M10.644,9.348c0.015-0.145,0.022-0.216,0.038-0.361c0.027,0.006,0.04,0.008,0.067,0.014
				c-0.015,0.145-0.023,0.218-0.038,0.363C10.684,9.357,10.671,9.354,10.644,9.348z M10.767,8.899
				c-0.002,0.022-0.021,0.037-0.047,0.031c-0.025-0.005-0.039-0.026-0.037-0.049c0.002-0.022,0.021-0.038,0.046-0.032
				C10.753,8.855,10.769,8.876,10.767,8.899z"/>
			<path d="M10.85,9.123c0.003-0.037,0.004-0.069,0.006-0.099c0.024,0.005,0.038,0.008,0.062,0.014
				c-0.001,0.024-0.002,0.035-0.003,0.06l0.001,0.001c0.022-0.03,0.069-0.054,0.129-0.041c0.052,0.011,0.127,0.059,0.115,0.184
				c-0.009,0.086-0.014,0.129-0.022,0.215c-0.027-0.006-0.04-0.009-0.066-0.015c0.009-0.083,0.013-0.125,0.021-0.208
				c0.006-0.059-0.014-0.112-0.076-0.125c-0.043-0.01-0.079,0.013-0.095,0.047c-0.004,0.007-0.007,0.019-0.008,0.03
				c-0.009,0.087-0.014,0.131-0.022,0.218c-0.027-0.006-0.041-0.01-0.068-0.016C10.833,9.28,10.839,9.229,10.85,9.123z"/>
			<path d="M11.302,9.316c-0.007,0.09,0.044,0.14,0.113,0.154c0.048,0.011,0.078,0.009,0.104,0.004
				c0.003,0.02,0.005,0.029,0.008,0.049c-0.025,0.005-0.067,0.009-0.125-0.004c-0.114-0.024-0.175-0.113-0.164-0.223
				s0.085-0.18,0.193-0.157c0.121,0.026,0.142,0.136,0.135,0.203c-0.001,0.013-0.003,0.023-0.006,0.03
				C11.455,9.352,11.405,9.339,11.302,9.316z M11.502,9.313c0.005-0.042-0.007-0.111-0.083-0.127
				c-0.069-0.015-0.103,0.04-0.113,0.085C11.384,9.288,11.424,9.296,11.502,9.313z"/>
			<path d="M11.817,9.348c0.004-0.043,0.005-0.079,0.007-0.113c0.023,0.005,0.036,0.008,0.059,0.014
				c-0.002,0.029-0.003,0.043-0.005,0.072c0.001,0,0.004,0,0.005,0c0.021-0.045,0.064-0.068,0.109-0.058
				c0.007,0.001,0.012,0.002,0.018,0.004c-0.002,0.025-0.003,0.04-0.006,0.064c-0.006-0.002-0.014-0.004-0.023-0.007
				c-0.047-0.01-0.089,0.019-0.098,0.063c-0.001,0.008-0.003,0.019-0.004,0.03c-0.008,0.077-0.014,0.118-0.021,0.195
				c-0.027-0.006-0.039-0.01-0.065-0.016C11.801,9.497,11.807,9.447,11.817,9.348z"/>
			<path d="M12.359,9.618c-0.004,0.039-0.007,0.072-0.007,0.102c-0.024-0.005-0.034-0.008-0.058-0.014
				c0.001-0.024,0.001-0.036,0.002-0.06c-0.002,0-0.002,0-0.002,0c-0.02,0.025-0.064,0.054-0.13,0.04
				c-0.058-0.013-0.124-0.059-0.111-0.186c0.009-0.084,0.012-0.127,0.021-0.212c0.027,0.006,0.04,0.01,0.066,0.016
				c-0.008,0.08-0.011,0.119-0.02,0.199c-0.007,0.069,0.011,0.12,0.072,0.133c0.045,0.01,0.077-0.014,0.092-0.041
				c0.005-0.008,0.009-0.02,0.011-0.032c0.009-0.088,0.013-0.132,0.022-0.22c0.027,0.006,0.041,0.007,0.068,0.013
				C12.375,9.461,12.37,9.513,12.359,9.618z"/>
			<path d="M12.515,9.212c0.027,0.006,0.039,0.009,0.066,0.015c-0.022,0.212-0.031,0.319-0.053,0.531
				c-0.027-0.006-0.041-0.008-0.067-0.014C12.482,9.532,12.493,9.424,12.515,9.212z"/>
			<path d="M12.694,9.621c-0.007,0.089,0.047,0.139,0.114,0.153c0.049,0.011,0.079,0.008,0.104,0.003
				c0.002,0.02,0.004,0.03,0.007,0.05c-0.024,0.006-0.064,0.01-0.123-0.003c-0.114-0.025-0.175-0.115-0.164-0.224
				s0.086-0.18,0.193-0.156c0.121,0.026,0.14,0.136,0.133,0.203c-0.001,0.013-0.002,0.023-0.006,0.031
				C12.85,9.656,12.798,9.644,12.694,9.621z M12.897,9.618c0.005-0.041-0.008-0.111-0.083-0.128
				c-0.069-0.015-0.103,0.04-0.113,0.084C12.779,9.591,12.819,9.601,12.897,9.618z"/>
			<path d="M13.02,9.797c0.019,0.017,0.053,0.036,0.086,0.043c0.048,0.011,0.076-0.005,0.079-0.036
				c0.003-0.032-0.017-0.052-0.063-0.081c-0.064-0.039-0.093-0.081-0.088-0.125c0.006-0.059,0.061-0.097,0.139-0.08
				c0.038,0.008,0.069,0.027,0.088,0.044c-0.009,0.018-0.013,0.025-0.021,0.043c-0.014-0.012-0.04-0.03-0.075-0.037
				c-0.039-0.008-0.061,0.008-0.063,0.035c-0.003,0.03,0.018,0.049,0.062,0.078c0.06,0.038,0.092,0.077,0.086,0.13
				C13.241,9.876,13.186,9.91,13.1,9.891c-0.04-0.008-0.076-0.027-0.101-0.048C13.008,9.825,13.011,9.816,13.02,9.797z"/>
			<path d="M13.304,9.889c0.003-0.027,0.025-0.045,0.053-0.039c0.025,0.006,0.041,0.028,0.038,0.056
				c-0.003,0.027-0.023,0.044-0.051,0.038C13.317,9.938,13.301,9.915,13.304,9.889z"/>
			<path d="M13.737,9.857c-0.028,0.059-0.041,0.089-0.069,0.148C13.641,10,13.627,9.997,13.6,9.991
				c0.091-0.187,0.136-0.28,0.227-0.467c0.031,0.007,0.047,0.01,0.078,0.017c0.05,0.217,0.075,0.326,0.124,0.543
				c-0.027-0.006-0.04-0.009-0.067-0.016c-0.016-0.068-0.025-0.103-0.041-0.171C13.848,9.883,13.81,9.873,13.737,9.857z
				 M13.911,9.844c-0.015-0.062-0.019-0.093-0.033-0.155c-0.009-0.035-0.016-0.066-0.021-0.097l0.001-0.002
				c-0.011,0.028-0.024,0.058-0.037,0.085c-0.025,0.054-0.039,0.081-0.065,0.135C13.817,9.823,13.85,9.83,13.911,9.844z"/>
			<path d="M14.097,10.031c0.02,0.017,0.053,0.037,0.087,0.044c0.048,0.01,0.072-0.008,0.075-0.039
				c0.003-0.032-0.014-0.052-0.061-0.081c-0.064-0.039-0.093-0.079-0.088-0.123c0.006-0.059,0.059-0.096,0.138-0.079
				c0.037,0.008,0.07,0.025,0.088,0.042c-0.008,0.018-0.014,0.026-0.021,0.044c-0.014-0.013-0.04-0.03-0.074-0.038
				c-0.039-0.008-0.06,0.01-0.062,0.037c-0.003,0.029,0.017,0.048,0.062,0.076c0.061,0.037,0.091,0.076,0.085,0.13
				c-0.007,0.064-0.062,0.098-0.147,0.08c-0.042-0.009-0.077-0.027-0.103-0.048C14.083,10.058,14.088,10.05,14.097,10.031z"/>
			<path d="M14.938,9.739C14.92,9.915,14.908,10,14.89,10.176c-0.004,0.032-0.004,0.069-0.005,0.095
				c-0.023-0.005-0.037-0.008-0.061-0.013c0.002-0.025,0.001-0.039,0.003-0.064c-0.001,0-0.001,0-0.004,0
				c-0.025,0.036-0.07,0.057-0.131,0.043c-0.088-0.02-0.15-0.109-0.14-0.219c0.013-0.12,0.1-0.176,0.188-0.157
				c0.058,0.013,0.09,0.047,0.104,0.079c0.001-0.001,0.002,0,0.002,0c0.009-0.086,0.014-0.129,0.022-0.216
				C14.896,9.729,14.911,9.733,14.938,9.739z M14.836,10.041c0.001-0.009-0.001-0.021-0.002-0.028
				c-0.006-0.044-0.036-0.087-0.087-0.098c-0.069-0.015-0.115,0.036-0.124,0.116c-0.008,0.074,0.021,0.143,0.093,0.158
				c0.045,0.01,0.089-0.012,0.106-0.058c0.003-0.008,0.006-0.017,0.007-0.027C14.832,10.079,14.833,10.066,14.836,10.041z"/>
			<path d="M15.344,10.182c-0.015,0.134-0.116,0.172-0.205,0.153c-0.099-0.021-0.167-0.11-0.154-0.225
				c0.013-0.12,0.101-0.174,0.202-0.152C15.293,9.981,15.355,10.072,15.344,10.182z M15.051,10.121
				c-0.009,0.08,0.031,0.151,0.097,0.165c0.064,0.014,0.12-0.035,0.129-0.117c0.007-0.061-0.017-0.145-0.096-0.162
				S15.059,10.053,15.051,10.121z"/>
			<path d="M15.701,9.989c-0.004,0.035-0.006,0.052-0.01,0.087c0.038,0.008,0.058,0.013,0.096,0.021
				c-0.002,0.02-0.005,0.029-0.007,0.049c-0.038-0.008-0.056-0.012-0.094-0.021c-0.008,0.078-0.012,0.118-0.021,0.196
				c-0.005,0.045,0.004,0.074,0.041,0.082c0.019,0.004,0.03,0.004,0.04,0.003c-0.001,0.021-0.003,0.029-0.004,0.05
				c-0.014,0.002-0.034,0.002-0.061-0.003c-0.03-0.007-0.052-0.022-0.066-0.043c-0.017-0.024-0.022-0.058-0.018-0.101
				c0.009-0.079,0.014-0.119,0.022-0.198c-0.023-0.005-0.035-0.007-0.059-0.012c0.002-0.02,0.005-0.03,0.007-0.05
				c0.023,0.005,0.034,0.009,0.058,0.014c0.003-0.027,0.004-0.042,0.007-0.069C15.661,9.992,15.674,9.991,15.701,9.989z"/>
			<path d="M15.882,9.944c0.027,0.006,0.04,0.009,0.067,0.015c-0.01,0.091-0.014,0.136-0.023,0.227l0.002,0
				c0.012-0.016,0.029-0.03,0.051-0.037c0.02-0.006,0.047-0.009,0.071-0.003c0.051,0.011,0.125,0.057,0.111,0.182
				c-0.01,0.086-0.015,0.13-0.024,0.216c-0.027-0.006-0.038-0.007-0.065-0.013c0.01-0.083,0.011-0.126,0.021-0.209
				c0.006-0.059-0.009-0.112-0.072-0.126c-0.044-0.01-0.084,0.015-0.098,0.045c-0.004,0.008-0.005,0.02-0.006,0.032
				c-0.01,0.087-0.016,0.13-0.025,0.218c-0.027-0.006-0.038-0.009-0.065-0.015C15.85,10.263,15.859,10.157,15.882,9.944z"/>
			<path d="M16.301,10.408c-0.008,0.089,0.045,0.137,0.113,0.152c0.048,0.01,0.078,0.009,0.104,0.004
				c0.003,0.02,0.006,0.029,0.008,0.049c-0.024,0.005-0.066,0.011-0.125-0.002c-0.114-0.025-0.174-0.114-0.161-0.224
				s0.085-0.181,0.192-0.158c0.121,0.027,0.143,0.137,0.135,0.203c-0.001,0.014-0.004,0.022-0.006,0.03
				C16.457,10.44,16.404,10.43,16.301,10.408z M16.502,10.402c0.006-0.042-0.004-0.111-0.078-0.127
				c-0.069-0.015-0.106,0.039-0.117,0.084C16.385,10.375,16.424,10.385,16.502,10.402z"/>
			<path d="M17.056,10.655c-0.004,0.031-0.004,0.064-0.003,0.089c-0.024-0.005-0.036-0.009-0.061-0.014
				c0-0.019,0.001-0.028,0.001-0.046c0.001,0-0.001,0-0.002,0c-0.024,0.023-0.065,0.039-0.118,0.027
				c-0.075-0.017-0.105-0.075-0.1-0.127c0.01-0.087,0.091-0.118,0.233-0.086c0.001-0.003,0.003-0.004,0.004-0.007
				c0.003-0.029-0.002-0.087-0.077-0.102c-0.035-0.008-0.07-0.006-0.098,0.005c-0.005-0.019-0.009-0.027-0.014-0.046
				c0.033-0.012,0.079-0.015,0.126-0.005c0.113,0.024,0.135,0.106,0.127,0.179C17.069,10.576,17.062,10.601,17.056,10.655z
				 M17.005,10.543c-0.073-0.018-0.157-0.021-0.165,0.048c-0.005,0.044,0.021,0.07,0.054,0.077c0.05,0.011,0.084-0.013,0.099-0.042
				c0.003-0.007,0.004-0.014,0.005-0.021C17,10.582,17.002,10.569,17.005,10.543z"/>
			<path d="M17.187,10.518c0.005-0.043,0.005-0.081,0.007-0.115c0.023,0.005,0.035,0.009,0.059,0.014
				c-0.002,0.029-0.001,0.042-0.003,0.071c0.001,0,0,0.001,0.001,0.001c0.021-0.045,0.066-0.067,0.112-0.057
				c0.007,0.001,0.011,0.003,0.018,0.005c-0.003,0.025-0.003,0.038-0.006,0.062c-0.007-0.003-0.014-0.003-0.023-0.006
				c-0.047-0.01-0.086,0.015-0.101,0.062c-0.002,0.009-0.003,0.021-0.004,0.031c-0.009,0.077-0.016,0.115-0.025,0.192
				c-0.026-0.006-0.039-0.008-0.065-0.014C17.167,10.667,17.175,10.618,17.187,10.518z"/>
			<path d="M17.556,10.393c-0.004,0.035-0.011,0.052-0.015,0.087c0.038,0.008,0.063,0.013,0.102,0.021
				c-0.002,0.02-0.007,0.029-0.009,0.049c-0.038-0.008-0.057-0.012-0.095-0.021c-0.009,0.079-0.014,0.118-0.022,0.195
				c-0.006,0.044,0.007,0.071,0.044,0.08c0.019,0.004,0.029,0.006,0.039,0.005c-0.001,0.02-0.003,0.031-0.004,0.051
				c-0.014,0.001-0.035,0.001-0.061-0.004c-0.031-0.007-0.055-0.022-0.069-0.044c-0.017-0.024-0.019-0.058-0.014-0.1
				c0.01-0.079,0.012-0.119,0.021-0.199c-0.023-0.005-0.032-0.006-0.056-0.011c0.002-0.02,0.004-0.029,0.006-0.049
				c0.023,0.005,0.035,0.006,0.059,0.011c0.003-0.027,0.004-0.04,0.007-0.067C17.515,10.396,17.529,10.395,17.556,10.393z"/>
			<path d="M17.672,10.88c0.018-0.145,0.029-0.217,0.046-0.362c0.027,0.006,0.042,0.009,0.069,0.015
				c-0.017,0.146-0.029,0.216-0.047,0.361C17.713,10.887,17.699,10.886,17.672,10.88z M17.803,10.432
				c-0.002,0.022-0.021,0.037-0.046,0.031c-0.024-0.005-0.04-0.028-0.037-0.051c0.002-0.022,0.024-0.037,0.049-0.032
				C17.792,10.386,17.805,10.41,17.803,10.432z"/>
			<path d="M17.853,10.849c0.02,0.016,0.051,0.038,0.084,0.045c0.048,0.01,0.074-0.007,0.078-0.038
				c0.004-0.032-0.016-0.052-0.062-0.081c-0.063-0.039-0.09-0.08-0.085-0.124c0.007-0.058,0.061-0.097,0.14-0.08
				c0.037,0.008,0.073,0.026,0.091,0.042c-0.008,0.018-0.016,0.025-0.023,0.043c-0.014-0.012-0.04-0.028-0.073-0.036
				c-0.039-0.008-0.062,0.009-0.064,0.036c-0.003,0.03,0.017,0.047,0.062,0.076c0.061,0.038,0.087,0.075,0.08,0.128
				c-0.008,0.064-0.062,0.1-0.146,0.081c-0.042-0.009-0.078-0.027-0.104-0.048C17.837,10.877,17.844,10.867,17.853,10.849z"/>
			<path d="M18.287,10.555c-0.004,0.035-0.004,0.051-0.008,0.086c0.038,0.008,0.055,0.012,0.093,0.02
				c-0.002,0.02-0.003,0.03-0.006,0.05c-0.038-0.008-0.059-0.012-0.097-0.021c-0.009,0.078-0.012,0.117-0.021,0.195
				c-0.006,0.045,0.007,0.072,0.043,0.08c0.019,0.004,0.027,0.006,0.036,0.005c-0.001,0.02-0.003,0.029-0.004,0.05
				c-0.013,0.001-0.032,0.003-0.059-0.002c-0.03-0.007-0.054-0.025-0.067-0.046c-0.017-0.024-0.02-0.056-0.014-0.098
				c0.01-0.079,0.013-0.118,0.021-0.197c-0.023-0.005-0.032-0.008-0.056-0.013c0.003-0.02,0.002-0.029,0.004-0.049
				c0.023,0.005,0.038,0.007,0.062,0.012c0.003-0.027,0.002-0.039,0.005-0.066C18.247,10.557,18.26,10.557,18.287,10.555z"/>
			<path d="M18.403,10.97c0.02,0.017,0.053,0.036,0.086,0.042c0.048,0.011,0.075-0.005,0.079-0.036
				c0.004-0.032-0.014-0.051-0.061-0.08c-0.063-0.039-0.091-0.082-0.086-0.125c0.007-0.058,0.061-0.096,0.14-0.078
				c0.037,0.008,0.067,0.024,0.085,0.041c-0.008,0.018-0.012,0.027-0.02,0.045c-0.014-0.012-0.04-0.031-0.073-0.038
				c-0.039-0.008-0.064,0.01-0.067,0.037c-0.003,0.03,0.016,0.048,0.061,0.077c0.061,0.038,0.093,0.074,0.086,0.127
				c-0.008,0.064-0.066,0.099-0.152,0.08c-0.04-0.009-0.074-0.026-0.1-0.047C18.39,10.998,18.395,10.988,18.403,10.97z"/>
			<path d="M7.083,9.124c0.013,0.078,0.018,0.117,0.031,0.195C7.12,9.362,7.126,9.4,7.129,9.439c0.001,0,0.001,0,0.002,0
				c0.011-0.035,0.029-0.07,0.044-0.106C7.208,9.264,7.222,9.23,7.253,9.161C7.276,9.166,7.288,9.167,7.31,9.172
				C7.326,9.25,7.336,9.29,7.352,9.367c0.009,0.047,0.015,0.086,0.02,0.125c-0.001,0,0,0,0.002,0
				c0.011-0.035,0.024-0.07,0.041-0.111c0.028-0.068,0.042-0.102,0.07-0.169C7.51,9.217,7.522,9.219,7.548,9.225
				C7.486,9.359,7.456,9.425,7.394,9.56C7.37,9.554,7.358,9.552,7.333,9.547C7.318,9.473,7.31,9.436,7.294,9.362
				c-0.009-0.043-0.016-0.08-0.021-0.125c0-0.002,0,0,0-0.001C7.26,9.278,7.244,9.312,7.227,9.348
				C7.196,9.412,7.18,9.444,7.149,9.507c-0.024-0.005-0.036-0.009-0.06-0.014C7.06,9.339,7.044,9.262,7.014,9.107
				C7.042,9.113,7.056,9.118,7.083,9.124z"/>
			<path d="M7.926,9.489c-0.014,0.133-0.115,0.169-0.203,0.15c-0.1-0.022-0.169-0.11-0.158-0.225c0.012-0.121,0.1-0.172,0.201-0.15
				C7.874,9.288,7.938,9.379,7.926,9.489z M7.634,9.428c-0.008,0.08,0.032,0.148,0.097,0.163C7.794,9.605,7.85,9.557,7.858,9.475
				c0.006-0.062-0.019-0.146-0.097-0.164C7.681,9.294,7.641,9.36,7.634,9.428z"/>
			<path d="M8.019,9.442c0.004-0.043,0.006-0.08,0.007-0.114c0.023,0.005,0.035,0.008,0.059,0.013
				C8.083,9.37,8.082,9.384,8.08,9.413c0.001,0,0.003,0,0.004,0.001c0.021-0.045,0.065-0.067,0.11-0.057
				C8.202,9.357,8.208,9.36,8.213,9.362C8.211,9.387,8.209,9.4,8.207,9.425C8.2,9.422,8.192,9.421,8.183,9.419
				C8.136,9.409,8.1,9.436,8.084,9.483c-0.001,0.008-0.003,0.02-0.004,0.03C8.072,9.59,8.068,9.628,8.06,9.706
				C8.033,9.7,8.02,9.697,7.993,9.691C8.003,9.592,8.008,9.542,8.019,9.442z"/>
			<path d="M8.334,9.565C8.332,9.565,8.333,9.565,8.334,9.565c0.011-0.012,0.023-0.023,0.034-0.034
				c0.049-0.041,0.075-0.062,0.123-0.103c0.032,0.007,0.047,0.012,0.08,0.019c-0.063,0.047-0.094,0.07-0.157,0.117
				c0.057,0.099,0.084,0.149,0.141,0.249C8.522,9.806,8.505,9.802,8.473,9.795c-0.043-0.081-0.065-0.12-0.109-0.201
				C8.348,9.606,8.34,9.613,8.325,9.625C8.32,9.679,8.317,9.705,8.312,9.759C8.285,9.753,8.271,9.751,8.245,9.745
				c0.022-0.212,0.033-0.318,0.054-0.53C8.326,9.221,8.34,9.224,8.367,9.229C8.354,9.364,8.348,9.431,8.334,9.565z"/>
			<path d="M8.615,9.826C8.63,9.681,8.64,9.609,8.654,9.464c0.027,0.006,0.04,0.01,0.067,0.016C8.707,9.625,8.7,9.697,8.685,9.842
				C8.658,9.836,8.642,9.832,8.615,9.826z M8.74,9.379C8.738,9.402,8.719,9.417,8.693,9.411c-0.025-0.005-0.039-0.027-0.037-0.05
				c0.002-0.023,0.021-0.038,0.046-0.032C8.727,9.334,8.742,9.356,8.74,9.379z"/>
			<path d="M8.822,9.6C8.826,9.562,8.829,9.533,8.83,9.503c0.024,0.005,0.035,0.008,0.059,0.013c-0.001,0.024,0,0.036-0.001,0.06
				l0.001,0c0.022-0.03,0.069-0.054,0.13-0.041c0.052,0.011,0.128,0.059,0.115,0.182C9.124,9.803,9.118,9.847,9.109,9.933
				c-0.027-0.006-0.04-0.008-0.066-0.014C9.051,9.835,9.056,9.793,9.065,9.71c0.006-0.059-0.013-0.111-0.076-0.125
				c-0.043-0.01-0.08,0.013-0.097,0.046C8.889,9.639,8.886,9.652,8.885,9.663C8.876,9.75,8.873,9.792,8.863,9.879
				C8.836,9.873,8.822,9.871,8.795,9.865C8.806,9.759,8.812,9.705,8.822,9.6z"/>
			<path d="M9.538,9.972c-0.009,0.084-0.03,0.132-0.068,0.155c-0.041,0.024-0.095,0.025-0.141,0.015
				c-0.043-0.01-0.09-0.03-0.118-0.056c0.009-0.019,0.012-0.029,0.021-0.047c0.023,0.021,0.06,0.043,0.105,0.053
				c0.068,0.015,0.124-0.009,0.133-0.102C9.473,9.973,9.473,9.965,9.475,9.95c-0.001,0-0.001,0-0.002-0.002
				c-0.024,0.03-0.065,0.048-0.122,0.036c-0.091-0.02-0.15-0.11-0.14-0.21C9.223,9.651,9.312,9.6,9.397,9.619
				c0.063,0.014,0.094,0.053,0.107,0.087h0.001c0.003-0.021,0.006-0.033,0.009-0.054c0.024,0.005,0.036,0.009,0.06,0.015
				C9.57,9.691,9.566,9.72,9.562,9.763C9.553,9.847,9.547,9.888,9.538,9.972z M9.49,9.792c0.001-0.011,0.001-0.023-0.001-0.031
				C9.48,9.72,9.453,9.683,9.403,9.672C9.339,9.658,9.287,9.7,9.278,9.784C9.271,9.855,9.302,9.922,9.375,9.938
				c0.042,0.009,0.08-0.007,0.099-0.045c0.005-0.011,0.008-0.024,0.01-0.036C9.485,9.831,9.488,9.818,9.49,9.792z"/>
			<path d="M10.159,9.974c-0.014,0.133-0.115,0.171-0.204,0.151c-0.099-0.021-0.169-0.109-0.157-0.224
				C9.811,9.78,9.9,9.728,10.001,9.75C10.107,9.773,10.171,9.864,10.159,9.974z M9.867,9.913c-0.008,0.08,0.03,0.15,0.095,0.164
				c0.064,0.014,0.119-0.034,0.128-0.116C10.096,9.9,10.076,9.817,9.996,9.8C9.917,9.782,9.874,9.846,9.867,9.913z"/>
			<path d="M10.252,9.913c0.004-0.038,0.007-0.07,0.008-0.1c0.024,0.005,0.036,0.008,0.06,0.014
				c-0.001,0.024-0.001,0.037-0.002,0.062h0.001c0.022-0.03,0.068-0.055,0.129-0.041c0.052,0.011,0.126,0.059,0.113,0.183
				c-0.009,0.086-0.012,0.129-0.021,0.215c-0.027-0.006-0.041-0.01-0.067-0.016c0.009-0.083,0.013-0.124,0.022-0.208
				c0.006-0.059-0.011-0.113-0.074-0.126c-0.043-0.01-0.081,0.014-0.098,0.048c-0.004,0.007-0.006,0.019-0.007,0.03
				c-0.009,0.087-0.015,0.13-0.024,0.217c-0.027-0.006-0.04-0.009-0.066-0.015C10.236,10.07,10.241,10.018,10.252,9.913z"/>
			<path d="M10.938,9.872c-0.004,0.035-0.005,0.052-0.009,0.087c0.039,0.008,0.058,0.014,0.097,0.022
				c-0.002,0.02-0.004,0.029-0.006,0.049c-0.039-0.008-0.057-0.013-0.096-0.021c-0.008,0.078-0.013,0.118-0.022,0.196
				c-0.005,0.045,0.005,0.073,0.042,0.081c0.019,0.004,0.031,0.004,0.041,0.003c-0.001,0.021-0.002,0.031-0.003,0.052
				c-0.014,0.001-0.035,0.002-0.061-0.004c-0.032-0.007-0.054-0.022-0.068-0.043c-0.017-0.024-0.021-0.058-0.016-0.1
				c0.009-0.079,0.014-0.12,0.022-0.199c-0.022-0.005-0.034-0.007-0.057-0.013c0.002-0.02,0.003-0.029,0.005-0.049
				c0.022,0.005,0.034,0.007,0.057,0.012c0.003-0.027,0.005-0.042,0.008-0.069C10.898,9.875,10.911,9.874,10.938,9.872z"/>
			<path d="M11.118,9.827c0.027,0.006,0.041,0.009,0.067,0.015c-0.009,0.091-0.014,0.135-0.023,0.226l0.001,0.001
				c0.013-0.016,0.031-0.03,0.054-0.037c0.021-0.007,0.044-0.009,0.07-0.003c0.05,0.011,0.125,0.058,0.111,0.182
				c-0.01,0.086-0.014,0.13-0.023,0.216c-0.027-0.006-0.041-0.009-0.067-0.015c0.01-0.083,0.014-0.123,0.023-0.206
				c0.006-0.059-0.011-0.115-0.073-0.129c-0.043-0.009-0.082,0.016-0.099,0.048c-0.004,0.009-0.005,0.019-0.006,0.031
				c-0.009,0.087-0.015,0.13-0.024,0.217c-0.027-0.006-0.041-0.009-0.068-0.015C11.085,10.146,11.096,10.04,11.118,9.827z"/>
			<path d="M11.539,10.29c-0.008,0.089,0.045,0.138,0.113,0.152c0.047,0.011,0.078,0.008,0.104,0.004
				c0.002,0.02,0.004,0.03,0.007,0.05c-0.025,0.005-0.067,0.009-0.126-0.004c-0.114-0.025-0.172-0.112-0.16-0.222
				c0.012-0.109,0.087-0.181,0.194-0.157c0.121,0.026,0.14,0.136,0.133,0.203c-0.001,0.013-0.003,0.024-0.006,0.031
				C11.694,10.325,11.643,10.312,11.539,10.29z M11.742,10.285c0.006-0.04-0.006-0.11-0.081-0.126
				c-0.069-0.015-0.103,0.039-0.114,0.083C11.625,10.259,11.664,10.268,11.742,10.285z"/>
			<path d="M12.485,10.442c0.004-0.071,0.01-0.157,0.018-0.219c-0.001,0-0.001,0-0.002-0.001c-0.025,0.055-0.053,0.114-0.087,0.179
				c-0.047,0.09-0.071,0.134-0.119,0.224c-0.02-0.004-0.029-0.007-0.049-0.012c-0.022-0.104-0.036-0.154-0.058-0.258
				c-0.016-0.077-0.028-0.146-0.036-0.208c0,0,0,0-0.001-0.001c-0.008,0.062-0.022,0.146-0.035,0.221
				c-0.016,0.085-0.024,0.127-0.04,0.212c-0.025-0.005-0.038-0.008-0.063-0.014c0.038-0.198,0.056-0.297,0.092-0.496
				c0.034,0.007,0.052,0.011,0.086,0.019c0.024,0.105,0.036,0.157,0.06,0.263c0.013,0.066,0.024,0.126,0.031,0.181l0.003,0
				c0.02-0.048,0.044-0.098,0.074-0.156c0.047-0.089,0.071-0.136,0.118-0.226c0.034,0.007,0.05,0.011,0.084,0.018
				c-0.009,0.205-0.014,0.308-0.025,0.512c-0.026-0.006-0.04-0.009-0.065-0.015C12.478,10.577,12.48,10.532,12.485,10.442z"/>
			<path d="M12.698,10.542c-0.009,0.089,0.044,0.139,0.112,0.153c0.047,0.01,0.079,0.009,0.104,0.004
				c0.002,0.02,0.003,0.03,0.006,0.05c-0.025,0.006-0.067,0.008-0.126-0.005c-0.114-0.025-0.172-0.112-0.159-0.222
				c0.012-0.109,0.087-0.18,0.194-0.156c0.121,0.026,0.14,0.137,0.132,0.203c-0.001,0.013-0.004,0.023-0.006,0.031
				C12.853,10.578,12.802,10.564,12.698,10.542z M12.9,10.538c0.006-0.041-0.006-0.109-0.081-0.126
				c-0.069-0.015-0.102,0.04-0.113,0.083C12.784,10.512,12.822,10.521,12.9,10.538z"/>
			<path d="M13.153,10.356c-0.004,0.035-0.006,0.052-0.01,0.087c0.038,0.008,0.057,0.013,0.095,0.021
				c-0.002,0.02-0.002,0.028-0.004,0.048c-0.038-0.008-0.06-0.01-0.098-0.019c-0.009,0.078-0.011,0.116-0.021,0.193
				c-0.006,0.045,0.004,0.073,0.04,0.082c0.019,0.004,0.033,0.005,0.043,0.004c-0.001,0.02-0.003,0.03-0.004,0.05
				c-0.014,0.001-0.037,0.001-0.062-0.005c-0.031-0.007-0.054-0.022-0.068-0.043c-0.017-0.024-0.019-0.056-0.014-0.099
				c0.01-0.079,0.015-0.121,0.023-0.2c-0.023-0.005-0.033-0.006-0.057-0.011c0.002-0.02,0.001-0.03,0.003-0.05
				c0.023,0.005,0.036,0.006,0.06,0.011c0.003-0.027,0.006-0.039,0.009-0.065C13.116,10.359,13.126,10.358,13.153,10.356z"/>
			<path d="M13.542,10.811c-0.004,0.031-0.008,0.062-0.007,0.087c-0.024-0.005-0.036-0.008-0.061-0.014
				c0-0.019,0.001-0.027,0.001-0.045l0.001,0c-0.025,0.023-0.068,0.039-0.121,0.027c-0.075-0.016-0.104-0.075-0.098-0.126
				c0.011-0.087,0.095-0.118,0.236-0.086c0-0.003,0.003-0.005,0.003-0.008c0.004-0.029-0.003-0.084-0.078-0.1
				c-0.034-0.007-0.068-0.005-0.096,0.006c-0.004-0.019-0.009-0.028-0.013-0.047c0.033-0.012,0.079-0.015,0.126-0.005
				c0.113,0.024,0.132,0.105,0.123,0.177C13.553,10.731,13.549,10.757,13.542,10.811z M13.488,10.699
				c-0.073-0.017-0.155-0.023-0.164,0.047c-0.006,0.044,0.022,0.07,0.055,0.078c0.049,0.01,0.084-0.015,0.099-0.042
				c0.003-0.008,0.004-0.013,0.005-0.02C13.485,10.737,13.485,10.724,13.488,10.699z"/>
			<path d="M13.631,10.881c0.004-0.027,0.025-0.043,0.053-0.037c0.025,0.006,0.04,0.029,0.036,0.056
				c-0.003,0.026-0.024,0.042-0.052,0.036C13.642,10.93,13.628,10.907,13.631,10.881z M13.662,10.779
				c0.014-0.145,0.021-0.219,0.033-0.364c0.029,0.006,0.043,0.011,0.072,0.018c-0.021,0.143-0.031,0.214-0.054,0.356
				C13.693,10.785,13.683,10.784,13.662,10.779z"/>
			<path d="M13.876,10.464c0.03-0.001,0.075,0.005,0.121,0.015c0.066,0.014,0.109,0.037,0.137,0.067
				c0.023,0.025,0.039,0.06,0.034,0.1c-0.006,0.049-0.044,0.083-0.1,0.089c-0.001,0.001,0.001,0.001-0.004,0.001
				c0.047,0.022,0.102,0.076,0.092,0.149c-0.006,0.044-0.028,0.074-0.058,0.092c-0.039,0.024-0.098,0.027-0.182,0.009
				c-0.046-0.01-0.079-0.021-0.102-0.028C13.841,10.76,13.854,10.662,13.876,10.464z M13.889,10.924
				c0.014,0.005,0.029,0.011,0.053,0.016c0.069,0.015,0.137,0.005,0.146-0.068c0.008-0.068-0.049-0.112-0.121-0.127
				c-0.022-0.005-0.032-0.007-0.055-0.012C13.902,10.809,13.898,10.847,13.889,10.924z M13.918,10.684
				c0.024,0.005,0.036,0.009,0.061,0.014c0.069,0.015,0.111-0.013,0.117-0.062c0.007-0.058-0.032-0.092-0.099-0.106
				c-0.03-0.007-0.051-0.009-0.062-0.009C13.928,10.586,13.926,10.619,13.918,10.684z"/>
			<path d="M14.289,10.519c0.027,0.006,0.043,0.01,0.07,0.016c-0.024,0.211-0.04,0.317-0.068,0.529
				c-0.026-0.006-0.04-0.009-0.066-0.015C14.253,10.837,14.265,10.73,14.289,10.519z"/>
			<path d="M14.675,11.058c-0.004,0.031-0.007,0.063-0.007,0.088c-0.024-0.005-0.037-0.009-0.062-0.014
				c0.001-0.019,0-0.029,0.001-0.048c-0.001,0-0.003,0-0.002,0c-0.025,0.023-0.066,0.041-0.119,0.029
				c-0.075-0.016-0.108-0.076-0.102-0.128c0.012-0.087,0.103-0.118,0.243-0.086c0-0.003-0.002-0.005-0.002-0.008
				c0.004-0.029,0.003-0.086-0.071-0.102c-0.035-0.007-0.072-0.003-0.101,0.008c-0.004-0.019-0.006-0.029-0.01-0.048
				c0.032-0.012,0.078-0.015,0.125-0.005c0.112,0.024,0.131,0.105,0.122,0.177C14.685,10.977,14.682,11.004,14.675,11.058z
				 M14.622,10.947c-0.072-0.017-0.156-0.024-0.165,0.046c-0.006,0.044,0.021,0.069,0.054,0.077c0.049,0.01,0.081-0.012,0.096-0.04
				c0.003-0.008,0.005-0.014,0.006-0.021C14.615,10.984,14.619,10.972,14.622,10.947z"/>
			<path d="M14.771,11.1c0.019,0.017,0.053,0.037,0.085,0.044c0.048,0.01,0.072-0.007,0.076-0.038
				c0.004-0.032-0.015-0.052-0.061-0.081c-0.062-0.039-0.088-0.08-0.082-0.124c0.008-0.059,0.061-0.095,0.14-0.078
				c0.036,0.008,0.069,0.025,0.087,0.042c-0.009,0.018-0.012,0.027-0.021,0.045c-0.014-0.013-0.04-0.031-0.073-0.039
				c-0.038-0.008-0.062,0.009-0.065,0.036c-0.004,0.03,0.017,0.05,0.062,0.079c0.059,0.037,0.085,0.075,0.078,0.129
				c-0.009,0.064-0.065,0.097-0.151,0.079c-0.04-0.009-0.074-0.027-0.099-0.048C14.756,11.127,14.761,11.118,14.771,11.1z"/>
			<path d="M15.209,10.804c-0.004,0.035-0.006,0.051-0.01,0.086c0.038,0.008,0.055,0.012,0.093,0.02
				c-0.003,0.02-0.003,0.029-0.006,0.049c-0.038-0.008-0.057-0.012-0.095-0.02c-0.01,0.078-0.014,0.118-0.024,0.196
				c-0.006,0.045,0.003,0.072,0.039,0.08c0.019,0.004,0.03,0.006,0.039,0.005c-0.002,0.021,0.001,0.031-0.001,0.051
				c-0.013,0.002-0.038,0-0.064-0.005c-0.03-0.007-0.054-0.022-0.067-0.043c-0.016-0.024-0.019-0.057-0.013-0.099
				c0.011-0.079,0.016-0.118,0.025-0.197c-0.022-0.005-0.031-0.008-0.054-0.013c0.003-0.02,0.001-0.03,0.003-0.05
				c0.022,0.005,0.034,0.008,0.057,0.013c0.004-0.027,0.007-0.042,0.011-0.069C15.169,10.805,15.182,10.806,15.209,10.804z"/>
			<path d="M15.517,11.08c0.006-0.046,0.009-0.083,0.012-0.118c0.023,0.005,0.035,0.007,0.059,0.013
				c-0.002,0.025,0,0.037-0.002,0.062l-0.001,0c0.033-0.039,0.08-0.052,0.14-0.039c0.09,0.02,0.147,0.107,0.133,0.216
				c-0.018,0.13-0.11,0.175-0.196,0.157c-0.048-0.011-0.088-0.041-0.104-0.082c-0.002-0.001-0.001,0-0.002-0.002
				c-0.011,0.079-0.02,0.121-0.031,0.199c-0.026-0.006-0.038-0.01-0.064-0.016C15.482,11.314,15.496,11.236,15.517,11.08z
				 M15.567,11.191c-0.001,0.011-0.002,0.019-0.001,0.026c0.004,0.048,0.045,0.089,0.092,0.099c0.071,0.015,0.116-0.033,0.128-0.116
				c0.01-0.071-0.019-0.141-0.089-0.156c-0.045-0.01-0.092,0.017-0.111,0.058c-0.004,0.007-0.008,0.019-0.009,0.026
				C15.574,11.154,15.57,11.167,15.567,11.191z"/>
			<path d="M15.948,11.169c0.006-0.043,0.009-0.079,0.011-0.113c0.023,0.005,0.035,0.008,0.059,0.013
				c-0.003,0.029-0.004,0.044-0.007,0.073c0.001,0,0.002-0.001,0.003-0.001c0.023-0.045,0.069-0.067,0.114-0.058
				c0.007,0.001,0.011,0.005,0.017,0.007c-0.003,0.025-0.005,0.037-0.008,0.062c-0.007-0.002-0.014-0.003-0.023-0.006
				c-0.047-0.01-0.088,0.019-0.102,0.063c-0.002,0.008-0.005,0.02-0.007,0.03c-0.011,0.077-0.016,0.116-0.027,0.193
				c-0.026-0.006-0.04-0.009-0.066-0.015C15.926,11.319,15.935,11.269,15.948,11.169z"/>
			<path d="M16.512,11.36c-0.02,0.133-0.124,0.171-0.212,0.152c-0.099-0.022-0.164-0.11-0.147-0.225
				c0.017-0.12,0.105-0.173,0.206-0.151C16.464,11.159,16.527,11.25,16.512,11.36z M16.223,11.298
				c-0.012,0.079,0.022,0.151,0.088,0.165c0.064,0.014,0.121-0.034,0.133-0.116c0.009-0.061-0.013-0.146-0.091-0.163
				C16.273,11.167,16.232,11.23,16.223,11.298z"/>
			<path d="M16.461,11.648c0.031,0.004,0.058,0,0.075-0.014c0.021-0.017,0.035-0.043,0.049-0.129
				c0.019-0.122,0.027-0.182,0.044-0.304c0.026,0.006,0.04,0.009,0.066,0.015c-0.018,0.132-0.028,0.197-0.049,0.329
				c-0.011,0.07-0.03,0.113-0.067,0.139c-0.034,0.023-0.083,0.024-0.118,0.016C16.461,11.68,16.461,11.67,16.461,11.648z
				 M16.718,11.117c-0.003,0.022-0.023,0.037-0.052,0.03c-0.023-0.005-0.036-0.026-0.033-0.048c0.003-0.023,0.021-0.039,0.046-0.033
				C16.704,11.072,16.721,11.094,16.718,11.117z"/>
			<path d="M16.812,11.44c-0.012,0.089,0.04,0.139,0.107,0.153c0.047,0.01,0.078,0.008,0.104,0.003
				c0.002,0.02,0.001,0.03,0.003,0.05c-0.025,0.006-0.068,0.009-0.126-0.004c-0.113-0.024-0.166-0.113-0.149-0.222
				c0.016-0.109,0.092-0.18,0.198-0.156c0.12,0.026,0.136,0.136,0.126,0.203c-0.002,0.013-0.004,0.022-0.006,0.03
				C16.968,11.475,16.915,11.463,16.812,11.44z M17.018,11.436c0.007-0.041-0.003-0.109-0.078-0.125
				c-0.069-0.015-0.105,0.039-0.118,0.083C16.899,11.41,16.939,11.418,17.018,11.436z"/>
			<path d="M17.39,11.73c-0.019,0.005-0.057,0.007-0.105-0.003c-0.11-0.024-0.169-0.113-0.152-0.224s0.103-0.175,0.223-0.149
				c0.038,0.008,0.073,0.025,0.091,0.039c-0.01,0.019-0.014,0.028-0.023,0.047c-0.014-0.012-0.037-0.028-0.072-0.035
				c-0.085-0.019-0.138,0.035-0.148,0.109c-0.013,0.083,0.032,0.146,0.104,0.162c0.038,0.008,0.063,0.006,0.084,0.002
				C17.391,11.699,17.389,11.709,17.39,11.73z"/>
			<path d="M17.627,11.331c-0.005,0.035-0.01,0.052-0.015,0.086c0.038,0.008,0.058,0.014,0.096,0.022
				c-0.003,0.02-0.005,0.028-0.008,0.048c-0.038-0.008-0.055-0.012-0.093-0.02c-0.012,0.078-0.016,0.117-0.028,0.195
				c-0.008,0.045,0,0.072,0.036,0.08c0.019,0.004,0.03,0.005,0.039,0.004c-0.002,0.021-0.002,0.03-0.004,0.05
				c-0.013,0.001-0.037,0.003-0.063-0.003c-0.03-0.007-0.05-0.022-0.062-0.043c-0.016-0.024-0.02-0.058-0.013-0.1
				c0.013-0.079,0.019-0.12,0.03-0.199c-0.022-0.005-0.035-0.007-0.058-0.012c0.003-0.02,0.006-0.029,0.009-0.049
				c0.022,0.005,0.031,0.007,0.054,0.012c0.004-0.027,0.009-0.04,0.013-0.066C17.587,11.335,17.6,11.333,17.627,11.331z"/>
			<path d="M17.668,11.899c0.024-0.042,0.059-0.116,0.075-0.168c0.03,0.003,0.046,0.005,0.076,0.009
				c-0.029,0.06-0.08,0.134-0.106,0.165C17.693,11.902,17.688,11.901,17.668,11.899z"/>
			<path d="M6.979,10.217c-0.008,0.089,0.044,0.137,0.111,0.152c0.047,0.011,0.078,0.009,0.104,0.004
				c0.002,0.02,0.006,0.03,0.008,0.05c-0.024,0.006-0.069,0.008-0.126-0.005c-0.113-0.025-0.173-0.113-0.161-0.222
				c0.013-0.109,0.089-0.18,0.196-0.156c0.12,0.026,0.14,0.136,0.132,0.202c-0.001,0.013-0.005,0.024-0.007,0.031
				C7.134,10.251,7.083,10.24,6.979,10.217z M7.18,10.211c0.006-0.04-0.006-0.108-0.08-0.125c-0.069-0.015-0.104,0.04-0.115,0.083
				C7.063,10.187,7.102,10.194,7.18,10.211z"/>
			<path d="M7.303,10.391c0.019,0.016,0.054,0.038,0.086,0.045c0.047,0.01,0.073-0.007,0.076-0.038
				c0.004-0.032-0.014-0.053-0.06-0.081c-0.063-0.039-0.091-0.081-0.086-0.124c0.007-0.059,0.061-0.095,0.139-0.078
				c0.038,0.008,0.069,0.025,0.087,0.042c-0.008,0.018-0.013,0.024-0.022,0.042c-0.014-0.012-0.04-0.028-0.074-0.035
				c-0.038-0.008-0.062,0.007-0.064,0.034c-0.003,0.03,0.016,0.051,0.061,0.079c0.059,0.037,0.09,0.075,0.084,0.129
				c-0.008,0.064-0.064,0.098-0.149,0.079c-0.041-0.009-0.078-0.027-0.102-0.048C7.289,10.419,7.294,10.409,7.303,10.391z"/>
			<path d="M7.634,10.282c0.006-0.046,0.006-0.083,0.009-0.118c0.024,0.005,0.036,0.007,0.06,0.012
				c-0.001,0.025-0.001,0.038-0.003,0.062h0.001c0.032-0.038,0.079-0.053,0.139-0.04c0.09,0.02,0.148,0.107,0.135,0.216
				c-0.016,0.129-0.104,0.176-0.19,0.158c-0.048-0.011-0.089-0.04-0.105-0.081c-0.001-0.002-0.001-0.002-0.001-0.001
				c-0.01,0.079-0.017,0.118-0.027,0.196c-0.026-0.006-0.038-0.007-0.064-0.013C7.606,10.518,7.616,10.439,7.634,10.282z
				 M7.689,10.393c-0.001,0.01-0.002,0.02-0.001,0.028c0.006,0.049,0.043,0.087,0.091,0.097c0.071,0.015,0.118-0.031,0.128-0.114
				c0.008-0.072-0.024-0.143-0.094-0.158c-0.045-0.01-0.092,0.018-0.11,0.06C7.7,10.313,7.698,10.32,7.697,10.329
				C7.694,10.354,7.692,10.368,7.689,10.393z"/>
			<path d="M8.095,10.459c-0.009,0.089,0.043,0.138,0.111,0.153c0.047,0.01,0.078,0.008,0.103,0.004
				c0.002,0.02,0.004,0.03,0.007,0.05c-0.025,0.005-0.068,0.009-0.126-0.004c-0.114-0.025-0.169-0.113-0.156-0.223
				c0.013-0.109,0.084-0.18,0.191-0.156c0.121,0.026,0.143,0.136,0.135,0.203c-0.001,0.013-0.003,0.022-0.006,0.029
				C8.25,10.493,8.198,10.482,8.095,10.459z M8.298,10.456c0.006-0.04-0.006-0.11-0.08-0.126c-0.069-0.015-0.106,0.04-0.117,0.083
				C8.179,10.429,8.22,10.438,8.298,10.456z"/>
			<path d="M8.68,10.748c-0.018,0.005-0.059,0.01-0.108-0.001c-0.111-0.024-0.172-0.114-0.159-0.225
				c0.014-0.111,0.099-0.175,0.22-0.149c0.039,0.008,0.075,0.025,0.091,0.039c-0.008,0.019-0.014,0.027-0.021,0.046
				c-0.016-0.011-0.039-0.026-0.074-0.034c-0.084-0.019-0.139,0.034-0.148,0.108c-0.01,0.083,0.038,0.147,0.111,0.163
				c0.039,0.008,0.065,0.004,0.085,0.001C8.679,10.717,8.678,10.727,8.68,10.748z"/>
			<path d="M8.758,10.777c0.019-0.145,0.028-0.217,0.045-0.361c0.027,0.006,0.041,0.009,0.067,0.015
				c-0.017,0.145-0.027,0.216-0.046,0.361C8.798,10.786,8.785,10.783,8.758,10.777z M8.89,10.329
				c-0.002,0.023-0.022,0.039-0.049,0.033c-0.024-0.005-0.038-0.027-0.036-0.05c0.003-0.022,0.022-0.037,0.046-0.032
				C8.876,10.287,8.893,10.306,8.89,10.329z"/>
			<path d="M9.204,10.787c-0.004,0.031-0.006,0.062-0.006,0.088c-0.024-0.005-0.036-0.009-0.06-0.014
				c0-0.019,0.001-0.026,0.001-0.045c0,0-0.001-0.001-0.001-0.001c-0.024,0.024-0.067,0.04-0.119,0.029
				c-0.074-0.017-0.107-0.076-0.1-0.129c0.011-0.087,0.096-0.118,0.238-0.085c0-0.003,0.001-0.004,0.002-0.007
				c0.003-0.029,0.001-0.084-0.073-0.1c-0.036-0.008-0.071-0.006-0.098,0.005c-0.004-0.019-0.008-0.028-0.013-0.047
				c0.032-0.012,0.079-0.016,0.126-0.006c0.113,0.024,0.13,0.105,0.121,0.178C9.215,10.706,9.211,10.732,9.204,10.787z
				 M9.152,10.674c-0.072-0.017-0.157-0.021-0.167,0.049c-0.005,0.044,0.022,0.068,0.055,0.075c0.048,0.011,0.084-0.012,0.098-0.041
				c0.002-0.007,0.005-0.014,0.006-0.02C9.148,10.712,9.149,10.699,9.152,10.674z"/>
			<path d="M9.369,10.366c0.027,0.006,0.039,0.01,0.066,0.016c-0.025,0.212-0.037,0.316-0.066,0.528
				c-0.027-0.006-0.041-0.008-0.068-0.014C9.329,10.684,9.344,10.578,9.369,10.366z"/>
			<path d="M9.548,10.405c0.027,0.006,0.041,0.01,0.067,0.016c-0.025,0.212-0.039,0.318-0.067,0.53
				c-0.027-0.006-0.04-0.01-0.066-0.016C9.51,10.724,9.523,10.617,9.548,10.405z"/>
			<path d="M9.731,10.618c0.021,0.092,0.031,0.14,0.052,0.232c0.005,0.025,0.013,0.056,0.016,0.078c0-0.001,0,0,0.001,0
				c0.01-0.02,0.021-0.046,0.034-0.07c0.04-0.078,0.059-0.117,0.099-0.195c0.028,0.006,0.042,0.008,0.07,0.015
				C9.95,10.772,9.924,10.82,9.87,10.914c-0.064,0.113-0.105,0.167-0.157,0.197c-0.037,0.021-0.07,0.025-0.087,0.025
				c-0.003-0.023-0.005-0.035-0.009-0.058c0.018-0.001,0.041-0.008,0.063-0.02c0.021-0.011,0.045-0.029,0.065-0.06
				c0.004-0.007,0.008-0.012,0.009-0.016c0.001-0.004-0.001-0.008-0.004-0.018c-0.036-0.145-0.054-0.217-0.091-0.362
				C9.688,10.61,9.702,10.612,9.731,10.618z"/>
			<path d="M10.286,10.948c-0.03,0.059-0.043,0.088-0.074,0.146c-0.027-0.006-0.042-0.01-0.069-0.016
				c0.098-0.186,0.146-0.277,0.24-0.463c0.031,0.007,0.047,0.009,0.078,0.016c0.045,0.217,0.069,0.326,0.109,0.542
				c-0.028-0.006-0.044-0.01-0.073-0.017c-0.013-0.068-0.018-0.102-0.031-0.169C10.394,10.972,10.357,10.964,10.286,10.948z
				 M10.46,10.936c-0.013-0.062-0.018-0.095-0.031-0.157c-0.007-0.034-0.012-0.067-0.016-0.098h-0.001
				c-0.011,0.028-0.023,0.058-0.038,0.085c-0.027,0.054-0.041,0.081-0.068,0.135C10.368,10.914,10.398,10.922,10.46,10.936z"/>
			<path d="M10.678,10.926c0.005-0.038,0.007-0.068,0.01-0.099c0.023,0.005,0.034,0.008,0.058,0.014
				c-0.002,0.024-0.003,0.035-0.005,0.059c0.001,0,0.001,0.001,0.002,0.001c0.024-0.03,0.064-0.056,0.125-0.042
				c0.049,0.011,0.084,0.05,0.094,0.096c0.002,0,0.001,0,0.002,0c0.014-0.019,0.031-0.03,0.048-0.038
				c0.024-0.012,0.049-0.015,0.083-0.008c0.049,0.011,0.116,0.059,0.099,0.184c-0.012,0.085-0.017,0.126-0.029,0.211
				c-0.026-0.006-0.041-0.008-0.067-0.014c0.012-0.082,0.02-0.122,0.031-0.204c0.01-0.07-0.013-0.117-0.066-0.128
				c-0.038-0.008-0.068,0.014-0.085,0.042c-0.004,0.009-0.007,0.019-0.009,0.031c-0.012,0.089-0.02,0.135-0.033,0.224
				c-0.025-0.006-0.039-0.009-0.064-0.015c0.013-0.086,0.019-0.129,0.031-0.215c0.008-0.057-0.014-0.105-0.064-0.116
				c-0.041-0.009-0.076,0.017-0.091,0.048c-0.004,0.008-0.007,0.021-0.009,0.032c-0.012,0.087-0.02,0.129-0.033,0.216
				c-0.026-0.005-0.038-0.01-0.064-0.015C10.656,11.083,10.664,11.031,10.678,10.926z"/>
			<path d="M11.337,10.969c0.021,0.092,0.03,0.139,0.049,0.231c0.004,0.026,0.011,0.057,0.013,0.079c0,0,0,0,0.001,0
				c0.01-0.02,0.021-0.046,0.035-0.07c0.041-0.078,0.062-0.118,0.103-0.196c0.028,0.006,0.042,0.009,0.07,0.016
				c-0.054,0.094-0.081,0.141-0.136,0.235c-0.066,0.114-0.109,0.17-0.16,0.199c-0.037,0.021-0.072,0.024-0.088,0.024
				c-0.003-0.023-0.004-0.036-0.007-0.059c0.018-0.001,0.041-0.006,0.063-0.018c0.021-0.011,0.045-0.031,0.066-0.062
				c0.004-0.006,0.008-0.011,0.008-0.015c0.001-0.004,0-0.009-0.002-0.018c-0.034-0.145-0.052-0.216-0.088-0.36
				C11.294,10.961,11.308,10.963,11.337,10.969z"/>
			<path d="M12.047,11.408c-0.005,0.031-0.007,0.062-0.007,0.088c-0.024-0.005-0.037-0.008-0.061-0.013
				c0.001-0.019,0.001-0.027,0.002-0.045c-0.001,0-0.001,0-0.002-0.002c-0.025,0.023-0.066,0.041-0.12,0.03
				c-0.074-0.017-0.104-0.076-0.096-0.128c0.013-0.087,0.098-0.117,0.24-0.085c0-0.003,0.001-0.005,0.002-0.008
				c0.004-0.029,0.002-0.085-0.073-0.1c-0.035-0.008-0.071-0.007-0.099,0.005c-0.004-0.019-0.006-0.029-0.01-0.048
				c0.034-0.012,0.079-0.015,0.125-0.005c0.112,0.024,0.129,0.107,0.118,0.179C12.061,11.328,12.056,11.354,12.047,11.408z
				 M11.999,11.296c-0.072-0.017-0.157-0.022-0.168,0.048c-0.006,0.044,0.021,0.07,0.053,0.077c0.048,0.011,0.086-0.013,0.099-0.041
				c0.003-0.006,0.006-0.014,0.007-0.021C11.993,11.334,11.996,11.321,11.999,11.296z"/>
			<path d="M12.182,11.255c0.006-0.037,0.008-0.068,0.011-0.098c0.023,0.005,0.036,0.008,0.06,0.013
				c-0.002,0.024-0.003,0.036-0.005,0.061h0.002c0.023-0.03,0.069-0.054,0.129-0.041c0.051,0.011,0.127,0.059,0.108,0.183
				c-0.013,0.086-0.02,0.129-0.034,0.215c-0.027-0.006-0.041-0.011-0.067-0.017c0.014-0.083,0.021-0.124,0.033-0.207
				c0.008-0.059-0.005-0.112-0.068-0.125c-0.043-0.01-0.083,0.015-0.101,0.049c-0.004,0.007-0.006,0.018-0.008,0.029
				c-0.013,0.087-0.02,0.129-0.034,0.216c-0.027-0.006-0.04-0.008-0.066-0.014C12.158,11.413,12.167,11.361,12.182,11.255z"/>
			<path d="M12.956,11.148c-0.025,0.175-0.039,0.263-0.067,0.438c-0.005,0.032-0.01,0.068-0.012,0.094
				c-0.023-0.005-0.034-0.007-0.057-0.013c0.003-0.025,0.002-0.039,0.005-0.063c0.001,0,0,0-0.001,0.001
				c-0.027,0.035-0.073,0.055-0.133,0.041c-0.087-0.019-0.144-0.106-0.127-0.215c0.018-0.121,0.103-0.178,0.191-0.159
				c0.057,0.013,0.09,0.048,0.103,0.08c0.001-0.001,0.001,0,0.002-0.001c0.013-0.086,0.019-0.128,0.031-0.214
				C12.916,11.142,12.93,11.143,12.956,11.148z M12.844,11.45c0.001-0.008,0.002-0.02,0.001-0.028
				c-0.003-0.042-0.035-0.085-0.085-0.096c-0.069-0.015-0.118,0.035-0.13,0.114c-0.012,0.073,0.016,0.143,0.086,0.158
				c0.044,0.01,0.09-0.011,0.11-0.057c0.003-0.009,0.005-0.018,0.007-0.028C12.837,11.488,12.84,11.475,12.844,11.45z"/>
			<path d="M13.204,11.751c-0.017-0.212-0.029-0.319-0.052-0.531c0.028,0.006,0.043,0.01,0.071,0.017
				c0.01,0.107,0.012,0.162,0.02,0.269c0.006,0.065,0.01,0.13,0.011,0.181c-0.002,0,0.001,0,0.002,0
				c0.017-0.048,0.043-0.105,0.07-0.166c0.043-0.096,0.063-0.144,0.105-0.24c0.027,0.006,0.042,0.01,0.069,0.016
				c0.01,0.107,0.014,0.161,0.022,0.269c0.005,0.062,0.009,0.125,0.008,0.18h-0.002c0.02-0.053,0.046-0.106,0.072-0.164
				c0.043-0.096,0.065-0.144,0.107-0.239c0.027,0.006,0.038,0.01,0.065,0.016c-0.088,0.188-0.132,0.282-0.225,0.471
				c-0.027-0.006-0.043-0.01-0.07-0.016c-0.007-0.11-0.011-0.164-0.02-0.274c-0.005-0.068-0.007-0.119-0.005-0.171
				c-0.004-0.001-0.003-0.001-0.002-0.001c-0.017,0.048-0.038,0.094-0.068,0.155c-0.045,0.098-0.068,0.148-0.115,0.247
				C13.242,11.761,13.231,11.757,13.204,11.751z"/>
			<path d="M13.743,11.869c0.026-0.144,0.039-0.215,0.062-0.359c0.026,0.006,0.04,0.009,0.066,0.015
				c-0.022,0.145-0.034,0.215-0.061,0.359C13.784,11.878,13.77,11.875,13.743,11.869z M13.895,11.424
				c-0.004,0.023-0.022,0.038-0.049,0.032c-0.023-0.005-0.039-0.028-0.035-0.051c0.004-0.022,0.023-0.037,0.047-0.032
				C13.882,11.379,13.898,11.401,13.895,11.424z"/>
			<path d="M14.007,11.38c0.026,0.006,0.041,0.009,0.067,0.015c-0.032,0.211-0.049,0.318-0.088,0.529
				c-0.026-0.006-0.04-0.009-0.066-0.015C13.959,11.697,13.976,11.592,14.007,11.38z"/>
			<path d="M14.187,11.419c0.026,0.006,0.039,0.009,0.065,0.015c-0.032,0.212-0.049,0.318-0.088,0.529
				c-0.026-0.006-0.041-0.01-0.067-0.016C14.136,11.736,14.154,11.631,14.187,11.419z"/>
			<path d="M14.258,11.943c0.005-0.027,0.027-0.043,0.055-0.037c0.025,0.006,0.041,0.03,0.036,0.058
				c-0.005,0.027-0.026,0.043-0.054,0.037C14.269,11.995,14.253,11.97,14.258,11.943z"/>
			<path d="M6.91,11.135c-0.031,0.059-0.046,0.089-0.078,0.147c-0.027-0.006-0.04-0.01-0.067-0.016
				c0.101-0.186,0.148-0.279,0.245-0.465c0.031,0.007,0.047,0.01,0.078,0.017c0.043,0.216,0.064,0.326,0.101,0.542
				c-0.028-0.006-0.042-0.009-0.069-0.015c-0.012-0.068-0.019-0.102-0.031-0.17C7.017,11.16,6.982,11.151,6.91,11.135z
				 M7.085,11.122c-0.012-0.062-0.017-0.095-0.029-0.158c-0.008-0.035-0.011-0.066-0.015-0.097H7.04
				c-0.012,0.027-0.023,0.058-0.038,0.086c-0.028,0.054-0.042,0.082-0.07,0.136C6.993,11.102,7.023,11.108,7.085,11.122z"/>
			<path d="M7.339,10.845c0.027,0.006,0.041,0.01,0.068,0.016c-0.028,0.212-0.045,0.318-0.079,0.53
				c-0.027-0.006-0.04-0.008-0.066-0.014C7.296,11.165,7.311,11.057,7.339,10.845z"/>
			<path d="M7.443,11.348c0.018,0.016,0.05,0.037,0.082,0.044c0.047,0.01,0.075-0.008,0.08-0.039
				c0.005-0.032-0.013-0.053-0.059-0.081c-0.062-0.039-0.086-0.08-0.08-0.124c0.009-0.058,0.062-0.095,0.14-0.078
				c0.037,0.008,0.068,0.024,0.085,0.041C7.683,11.13,7.679,11.14,7.67,11.158c-0.012-0.012-0.037-0.032-0.071-0.039
				c-0.04-0.009-0.062,0.008-0.067,0.035c-0.004,0.03,0.013,0.05,0.058,0.079c0.058,0.037,0.087,0.075,0.079,0.128
				c-0.01,0.063-0.068,0.097-0.153,0.078c-0.04-0.008-0.075-0.026-0.099-0.047C7.427,11.375,7.434,11.366,7.443,11.348z"/>
			<path d="M8.099,11.371c-0.021,0.133-0.125,0.17-0.213,0.151c-0.098-0.021-0.162-0.108-0.145-0.223
				c0.019-0.12,0.109-0.174,0.209-0.152C8.056,11.17,8.116,11.261,8.099,11.371z M7.809,11.311
				c-0.013,0.079,0.025,0.149,0.089,0.163c0.064,0.014,0.118-0.035,0.131-0.116c0.01-0.062-0.01-0.146-0.088-0.163
				C7.863,11.177,7.819,11.243,7.809,11.311z"/>
			<path d="M8.077,11.651c0.023-0.041,0.058-0.118,0.075-0.17c0.03,0.003,0.044,0.005,0.074,0.009
				c-0.029,0.059-0.076,0.136-0.103,0.166C8.104,11.654,8.096,11.653,8.077,11.651z"/>
			<path d="M8.918,11.51c0.007-0.07,0.016-0.156,0.025-0.219c0-0.001,0,0-0.001,0c-0.026,0.054-0.056,0.112-0.091,0.177
				c-0.052,0.09-0.081,0.136-0.134,0.226c-0.02-0.004-0.029-0.006-0.049-0.011c-0.016-0.104-0.022-0.156-0.04-0.259
				c-0.013-0.077-0.023-0.146-0.028-0.208c-0.003-0.001-0.003-0.001-0.003-0.001c-0.01,0.062-0.027,0.146-0.044,0.221
				c-0.02,0.085-0.031,0.128-0.051,0.213c-0.025-0.005-0.037-0.009-0.062-0.014c0.049-0.198,0.073-0.297,0.117-0.496
				c0.034,0.007,0.05,0.012,0.084,0.019c0.021,0.105,0.03,0.158,0.049,0.263c0.009,0.067,0.018,0.125,0.022,0.18h0
				c0.021-0.048,0.052-0.101,0.085-0.159c0.051-0.089,0.077-0.132,0.127-0.222c0.034,0.007,0.05,0.011,0.084,0.019
				c-0.017,0.204-0.028,0.305-0.052,0.509c-0.026-0.006-0.039-0.009-0.064-0.015C8.902,11.644,8.908,11.6,8.918,11.51z"/>
			<path d="M9.33,11.741c-0.005,0.031-0.008,0.062-0.009,0.088c-0.024-0.005-0.037-0.008-0.061-0.014
				c0.001-0.019,0.002-0.027,0.003-0.046c0-0.001-0.002,0-0.002-0.001c-0.025,0.023-0.067,0.042-0.12,0.03
				c-0.073-0.017-0.102-0.076-0.093-0.128c0.015-0.087,0.101-0.119,0.241-0.087c0-0.003,0.001-0.005,0.001-0.008
				c0.005-0.029,0.007-0.085-0.068-0.101c-0.034-0.007-0.072-0.004-0.099,0.007c-0.003-0.019-0.005-0.029-0.009-0.048
				c0.032-0.012,0.079-0.015,0.125-0.004c0.112,0.025,0.127,0.105,0.115,0.176C9.346,11.66,9.34,11.687,9.33,11.741z M9.284,11.629
				c-0.071-0.017-0.155-0.022-0.167,0.047c-0.008,0.043,0.019,0.069,0.051,0.076c0.048,0.011,0.087-0.013,0.1-0.041
				c0.003-0.006,0.004-0.014,0.005-0.02C9.277,11.667,9.279,11.654,9.284,11.629z"/>
			<path d="M9.466,11.602c0.007-0.042,0.013-0.079,0.016-0.113c0.023,0.005,0.035,0.007,0.058,0.013
				c-0.003,0.029-0.006,0.044-0.009,0.073c0.001,0,0.002,0,0.003,0c0.025-0.045,0.07-0.067,0.114-0.057
				c0.007,0.001,0.012,0.004,0.018,0.005c-0.004,0.025-0.006,0.038-0.011,0.062c-0.006-0.002-0.014-0.003-0.023-0.006
				c-0.046-0.01-0.087,0.018-0.102,0.063c-0.002,0.008-0.005,0.02-0.007,0.03c-0.013,0.077-0.02,0.114-0.034,0.191
				c-0.026-0.006-0.042-0.008-0.069-0.014C9.439,11.751,9.449,11.702,9.466,11.602z"/>
			<path d="M9.772,11.725c0.001,0,0.002,0,0.002,0c0.01-0.01,0.025-0.024,0.038-0.035c0.052-0.04,0.077-0.06,0.128-0.101
				c0.032,0.007,0.048,0.011,0.08,0.018c-0.066,0.047-0.1,0.071-0.166,0.118c0.049,0.099,0.074,0.147,0.121,0.246
				c-0.032-0.007-0.048-0.01-0.08-0.017c-0.037-0.08-0.055-0.12-0.093-0.2c-0.016,0.012-0.025,0.018-0.041,0.03
				c-0.01,0.054-0.014,0.082-0.024,0.136c-0.026-0.006-0.04-0.009-0.066-0.015c0.04-0.212,0.058-0.318,0.091-0.53
				c0.026,0.006,0.039,0.009,0.065,0.015C9.807,11.524,9.796,11.591,9.772,11.725z"/>
			<path d="M10.187,11.951c0.017,0.016,0.05,0.037,0.082,0.043c0.047,0.01,0.074-0.007,0.08-0.037
				c0.006-0.032-0.01-0.051-0.054-0.08c-0.062-0.039-0.086-0.082-0.078-0.125c0.01-0.058,0.068-0.096,0.145-0.079
				c0.037,0.008,0.066,0.026,0.083,0.042c-0.009,0.018-0.013,0.027-0.023,0.044c-0.013-0.012-0.039-0.032-0.073-0.039
				c-0.038-0.008-0.062,0.01-0.066,0.037c-0.005,0.03,0.013,0.047,0.056,0.076c0.057,0.037,0.084,0.077,0.074,0.13
				c-0.012,0.063-0.071,0.099-0.155,0.08c-0.04-0.009-0.073-0.029-0.096-0.049C10.172,11.978,10.177,11.969,10.187,11.951z"/>
			<path d="M10.802,12.051c-0.007,0.039-0.014,0.072-0.017,0.101c-0.023-0.005-0.035-0.008-0.058-0.013
				c0.003-0.024,0.004-0.036,0.007-0.06c-0.001,0-0.001,0-0.003,0c-0.021,0.025-0.067,0.055-0.131,0.041
				c-0.057-0.012-0.117-0.059-0.093-0.185c0.016-0.084,0.022-0.127,0.037-0.212c0.026,0.006,0.04,0.009,0.066,0.015
				c-0.014,0.08-0.021,0.119-0.036,0.198c-0.013,0.069-0.001,0.122,0.059,0.135c0.044,0.01,0.08-0.015,0.098-0.042
				c0.005-0.008,0.011-0.02,0.014-0.033c0.017-0.088,0.024-0.133,0.04-0.221c0.026,0.006,0.039,0.009,0.064,0.015
				C10.831,11.895,10.822,11.947,10.802,12.051z"/>
			<path d="M11.151,12.22c-0.019,0.004-0.058,0.008-0.107-0.002c-0.109-0.024-0.165-0.114-0.143-0.225s0.111-0.174,0.23-0.148
				c0.038,0.009,0.073,0.026,0.089,0.04c-0.01,0.019-0.014,0.027-0.024,0.046c-0.015-0.011-0.039-0.026-0.075-0.034
				c-0.083-0.018-0.14,0.033-0.154,0.106c-0.016,0.083,0.026,0.147,0.097,0.163c0.039,0.008,0.065,0.007,0.086,0.003
				C11.152,12.189,11.151,12.199,11.151,12.22z"/>
			<path d="M11.332,12.069c0.001-0.001,0.001,0,0.002,0c0.011-0.01,0.027-0.024,0.039-0.034c0.053-0.04,0.078-0.061,0.13-0.101
				c0.032,0.007,0.046,0.011,0.078,0.018c-0.067,0.047-0.1,0.071-0.167,0.118c0.047,0.099,0.07,0.148,0.115,0.247
				c-0.032-0.007-0.048-0.01-0.081-0.017c-0.035-0.08-0.052-0.121-0.088-0.201c-0.016,0.012-0.024,0.018-0.04,0.03
				c-0.011,0.054-0.017,0.082-0.029,0.136c-0.026-0.006-0.04-0.01-0.066-0.016c0.045-0.212,0.064-0.315,0.101-0.527
				c0.026,0.006,0.041,0.008,0.067,0.014C11.371,11.869,11.358,11.936,11.332,12.069z"/>
			<path d="M11.583,12.261c0.017,0.016,0.05,0.036,0.083,0.043c0.047,0.01,0.075-0.007,0.082-0.038
				c0.006-0.032-0.01-0.052-0.054-0.081c-0.06-0.039-0.084-0.082-0.075-0.125c0.012-0.058,0.067-0.094,0.146-0.077
				c0.036,0.008,0.067,0.024,0.084,0.041c-0.01,0.018-0.015,0.028-0.024,0.045c-0.012-0.012-0.038-0.03-0.071-0.037
				c-0.039-0.009-0.063,0.007-0.069,0.034c-0.005,0.03,0.013,0.051,0.056,0.079c0.056,0.037,0.083,0.075,0.071,0.128
				c-0.014,0.063-0.072,0.098-0.157,0.079c-0.039-0.008-0.073-0.028-0.096-0.048C11.567,12.287,11.572,12.279,11.583,12.261z"/>
			<path d="M11.859,12.349c0.005-0.027,0.026-0.042,0.054-0.036c0.025,0.006,0.04,0.028,0.033,0.057
				c-0.006,0.026-0.028,0.042-0.056,0.036C11.864,12.399,11.854,12.375,11.859,12.349z"/>
		</g>
	</g>
	<g>
		
			<linearGradient id="SVGID_18_" gradientUnits="userSpaceOnUse" x1="-9.6812" y1="35.4141" x2="-9.6812" y2="-8.8476" gradientTransform="matrix(1 0 0.1763 1 19.2647 0)">
			<stop  offset="0.0982" style="stop-color:#5B2400"/>
			<stop  offset="0.8221" style="stop-color:#EEA43D"/>
			<stop  offset="1" style="stop-color:#FBB040"/>
		</linearGradient>
		<path fill="url(#SVGID_18_)" d="M0.824,21.017c-0.188,0.348-0.019,0.633,0.377,0.633H17.72c0.396,0,0.874-0.285,1.063-0.633
			l5.26-9.695c0.189-0.348,0.02-0.633-0.376-0.633h-0.024c-0.396,0-0.872-0.142-1.058-0.314c-0.186-0.173-0.662-0.315-1.058-0.315
			h-2.828c-0.396,0-1.014,0.136-1.373,0.302l-0.055,0.025c-0.359,0.167-0.978,0.302-1.373,0.302H7.15
			c-0.396,0-0.875,0.285-1.063,0.633L0.824,21.017z"/>
		<path fill="none" stroke="#673C30" stroke-width="0.25" d="M0.824,21.017c-0.188,0.348-0.019,0.633,0.377,0.633H17.72
			c0.396,0,0.874-0.285,1.063-0.633l5.26-9.695c0.189-0.348,0.02-0.633-0.376-0.633h-0.024c-0.396,0-0.872-0.142-1.058-0.314
			c-0.186-0.173-0.662-0.315-1.058-0.315h-2.828c-0.396,0-1.014,0.136-1.373,0.302l-0.055,0.025
			c-0.359,0.167-0.978,0.302-1.373,0.302H7.15c-0.396,0-0.875,0.285-1.063,0.633L0.824,21.017z"/>
	</g>
</g>
<g>
	<g>
		<radialGradient id="SVGID_19_" cx="-20.0005" cy="40.001" r="17.7984" gradientUnits="userSpaceOnUse">
			<stop  offset="0.0061" style="stop-color:#FFC40C"/>
			<stop  offset="0.054" style="stop-color:#F8BD11"/>
			<stop  offset="0.1108" style="stop-color:#EBB01A"/>
			<stop  offset="0.172" style="stop-color:#D69B22"/>
			<stop  offset="0.2365" style="stop-color:#B97F26"/>
			<stop  offset="0.3035" style="stop-color:#965E23"/>
			<stop  offset="0.3717" style="stop-color:#6F3B18"/>
			<stop  offset="0.3742" style="stop-color:#6E3A17"/>
			<stop  offset="0.5583" style="stop-color:#150100"/>
		</radialGradient>
		<circle fill="url(#SVGID_19_)" cx="-17.542" cy="42.271" r="5.295"/>
		<radialGradient id="SVGID_20_" cx="-19.1182" cy="41.5576" r="2.5435" gradientUnits="userSpaceOnUse">
			<stop  offset="0.2331" style="stop-color:#FFFFFF"/>
			<stop  offset="0.7481" style="stop-color:#FFFFFF;stop-opacity:0"/>
		</radialGradient>
		<circle opacity="0.63" fill="url(#SVGID_20_)" cx="-19.118" cy="41.557" r="2.543"/>
	</g>
	<polygon fill="none" stroke="#FBB040" stroke-width="0.5" points="-26.042,36.848 -26.042,46.941 -17.66,51.84 -9.042,46.822 
		-9.042,36.906 -17.601,32.006 	"/>
	<polygon opacity="0.4" fill="#FBB040" points="-26.042,36.936 -26.042,47.029 -17.66,51.93 -9.042,46.91 -9.042,36.994 
		-17.601,32.096 	"/>
	<g>
		<polyline fill="none" stroke="#FBB040" stroke-width="0.5" points="-26.042,36.848 -17.601,41.629 -9.042,36.906 		"/>
		<line fill="none" stroke="#FBB040" stroke-width="0.5" x1="-17.66" y1="51.84" x2="-17.66" y2="41.629"/>
	</g>
</g>
</svg>
