<?xml version="1.0" encoding="UTF-8" standalone="no"?>
<!-- Generator: Adobe Illustrator 14.0.0, SVG Export Plug-In . SVG Version: 6.00 Build 43363)  -->

<svg
   xmlns:dc="http://purl.org/dc/elements/1.1/"
   xmlns:cc="http://creativecommons.org/ns#"
   xmlns:rdf="http://www.w3.org/1999/02/22-rdf-syntax-ns#"
   xmlns:svg="http://www.w3.org/2000/svg"
   xmlns="http://www.w3.org/2000/svg"
   xmlns:sodipodi="http://sodipodi.sourceforge.net/DTD/sodipodi-0.dtd"
   xmlns:inkscape="http://www.inkscape.org/namespaces/inkscape"
   version="1.1"
   id="Layer_1"
   x="0px"
   y="0px"
   width="25px"
   height="25px"
   viewBox="0 0 25 25"
   enable-background="new 0 0 25 25"
   xml:space="preserve"
   inkscape:version="0.48.0 r9654"
   sodipodi:docname="PointLight.svg"
   inkscape:export-filename="C:\Users\David\Documents\Work\KabalaEngine\Data\UI\Icons\PointLight.png"
   inkscape:export-xdpi="90"
   inkscape:export-ydpi="90"><metadata
   id="metadata539"><rdf:RDF><cc:Work
       rdf:about=""><dc:format>image/svg+xml</dc:format><dc:type
         rdf:resource="http://purl.org/dc/dcmitype/StillImage" /><dc:title></dc:title></cc:Work></rdf:RDF></metadata><defs
   id="defs537"><radialGradient
     id="SVGID_157_"
     cx="189.4985"
     cy="87.134804"
     r="11.4685"
     gradientTransform="matrix(0.8011,0.5985,-0.5892,0.7887,89.0276,-95.0015)"
     gradientUnits="userSpaceOnUse"><stop
       offset="0.1963"
       style="stop-color:#FFE8BA"
       id="stop3228" /><stop
       offset="0.9141"
       style="stop-color:#FFE8BA;stop-opacity:0"
       id="stop3230" /></radialGradient><linearGradient
     id="SVGID_158_"
     gradientUnits="userSpaceOnUse"
     x1="189.3472"
     y1="94.043503"
     x2="189.3472"
     y2="93.0438"><stop
       offset="0.0491"
       style="stop-color:#171418"
       id="stop3237" /><stop
       offset="0.5951"
       style="stop-color:#353438"
       id="stop3239" /></linearGradient><radialGradient
     id="SVGID_159_"
     cx="187.9971"
     cy="92.996597"
     r="1.4956"
     gradientTransform="matrix(1.2211,0,0,0.556,-40.1992,41.2929)"
     gradientUnits="userSpaceOnUse"><stop
       offset="0.3313"
       style="stop-color:#FBB040"
       id="stop3246" /><stop
       offset="0.6933"
       style="stop-color:#353438"
       id="stop3248" /><stop
       offset="0.9509"
       style="stop-color:#171418"
       id="stop3250" /></radialGradient><radialGradient
     id="SVGID_160_"
     cx="187.9971"
     cy="92.797401"
     r="1.4956"
     gradientTransform="matrix(1.2211,0,0,0.556,-40.1992,41.2044)"
     gradientUnits="userSpaceOnUse"><stop
       offset="0.3313"
       style="stop-color:#FBB040"
       id="stop3255" /><stop
       offset="0.6933"
       style="stop-color:#353438"
       id="stop3257" /><stop
       offset="0.9509"
       style="stop-color:#171418"
       id="stop3259" /></radialGradient><radialGradient
     id="SVGID_161_"
     cx="187.9971"
     cy="92.508301"
     r="1.4952"
     gradientTransform="matrix(1.2211,0,0,0.556,-40.1992,41.0761)"
     gradientUnits="userSpaceOnUse"><stop
       offset="0.3313"
       style="stop-color:#FBB040"
       id="stop3264" /><stop
       offset="0.6933"
       style="stop-color:#353438"
       id="stop3266" /><stop
       offset="0.9509"
       style="stop-color:#171418"
       id="stop3268" /></radialGradient><radialGradient
     id="SVGID_162_"
     cx="187.9971"
     cy="92.147003"
     r="1.4952"
     gradientTransform="matrix(1.2211,0,0,0.556,-40.1992,40.9156)"
     gradientUnits="userSpaceOnUse"><stop
       offset="0.3313"
       style="stop-color:#FBB040"
       id="stop3273" /><stop
       offset="0.6933"
       style="stop-color:#353438"
       id="stop3275" /><stop
       offset="0.9509"
       style="stop-color:#171418"
       id="stop3277" /></radialGradient><radialGradient
     id="SVGID_163_"
     cx="193.30521"
     cy="90.005402"
     r="0.25220001"
     gradientTransform="matrix(1,0,0,1.0987,0,-7.5757)"
     gradientUnits="userSpaceOnUse"><stop
       offset="0.2331"
       style="stop-color:#FDC064;stop-opacity:0.73"
       id="stop3284" /><stop
       offset="1"
       style="stop-color:#FFE497"
       id="stop3286" /></radialGradient><radialGradient
     id="SVGID_164_"
     cx="188.5923"
     cy="87.694298"
     r="3.5090001"
     gradientTransform="matrix(0.9102,0,0,1,17.6899,0)"
     gradientUnits="userSpaceOnUse"><stop
       offset="0.2331"
       style="stop-color:#FDC064;stop-opacity:0.73"
       id="stop3291" /><stop
       offset="1"
       style="stop-color:#FFE497"
       id="stop3293" /></radialGradient><radialGradient
     id="SVGID_165_"
     cx="193.24409"
     cy="90.004402"
     r="0.25220001"
     gradientTransform="matrix(1,0,0,1.0987,0,-7.5755)"
     gradientUnits="userSpaceOnUse"><stop
       offset="0.2331"
       style="stop-color:#FDC064;stop-opacity:0.73"
       id="stop3302" /><stop
       offset="1"
       style="stop-color:#FFE497"
       id="stop3304" /></radialGradient><radialGradient
     id="SVGID_166_"
     cx="193.1992"
     cy="89.650902"
     r="0.42770001"
     gradientTransform="matrix(0.99,0,0,1.0909,1.791,-6.95)"
     gradientUnits="userSpaceOnUse"><stop
       offset="0.2331"
       style="stop-color:#FDC064;stop-opacity:0.73"
       id="stop3309" /><stop
       offset="1"
       style="stop-color:#FFE497"
       id="stop3311" /></radialGradient><radialGradient
     id="SVGID_167_"
     cx="193.0874"
     cy="89.321297"
     r="0.58999997"
     gradientTransform="matrix(0.98,0,0,1.0823,3.583,-6.2728)"
     gradientUnits="userSpaceOnUse"><stop
       offset="0.2331"
       style="stop-color:#FDC064;stop-opacity:0.73"
       id="stop3316" /><stop
       offset="1"
       style="stop-color:#FFE497"
       id="stop3318" /></radialGradient><radialGradient
     id="SVGID_168_"
     cx="192.1235"
     cy="89.006302"
     r="0.76120001"
     gradientTransform="matrix(0.9701,0,0,1.073,6.1577,-5.5407)"
     gradientUnits="userSpaceOnUse"><stop
       offset="0.2331"
       style="stop-color:#FDC064;stop-opacity:0.73"
       id="stop3323" /><stop
       offset="1"
       style="stop-color:#FFE497"
       id="stop3325" /></radialGradient><radialGradient
     id="SVGID_169_"
     cx="191.95309"
     cy="88.717796"
     r="0.95550001"
     gradientTransform="matrix(0.9601,0,0,1.0628,7.9492,-4.7573)"
     gradientUnits="userSpaceOnUse"><stop
       offset="0.2331"
       style="stop-color:#FDC064;stop-opacity:0.73"
       id="stop3330" /><stop
       offset="1"
       style="stop-color:#FFE497"
       id="stop3332" /></radialGradient><radialGradient
     id="SVGID_170_"
     cx="191.71581"
     cy="88.458"
     r="1.1856"
     gradientTransform="matrix(0.9501,0,0,1.0519,9.7402,-3.9197)"
     gradientUnits="userSpaceOnUse"><stop
       offset="0.2331"
       style="stop-color:#FDC064;stop-opacity:0.73"
       id="stop3337" /><stop
       offset="1"
       style="stop-color:#FFE497"
       id="stop3339" /></radialGradient><radialGradient
     id="SVGID_171_"
     cx="191.3667"
     cy="88.226601"
     r="1.4916"
     gradientTransform="matrix(0.9401,0,0,1.0401,11.5317,-3.0269)"
     gradientUnits="userSpaceOnUse"><stop
       offset="0.2331"
       style="stop-color:#FDC064;stop-opacity:0.73"
       id="stop3344" /><stop
       offset="1"
       style="stop-color:#FFE497"
       id="stop3346" /></radialGradient><radialGradient
     id="SVGID_172_"
     cx="190.8765"
     cy="88.068398"
     r="1.9372"
     gradientTransform="matrix(0.9301,0,0,1.0275,13.3232,-2.0793)"
     gradientUnits="userSpaceOnUse"><stop
       offset="0.2331"
       style="stop-color:#FDC064;stop-opacity:0.73"
       id="stop3351" /><stop
       offset="1"
       style="stop-color:#FFE497"
       id="stop3353" /></radialGradient><radialGradient
     id="SVGID_173_"
     cx="189.3521"
     cy="87.867699"
     r="2.5901"
     gradientTransform="matrix(0.9202,0,0,1.0142,15.8979,-1.069)"
     gradientUnits="userSpaceOnUse"><stop
       offset="0.2331"
       style="stop-color:#FDC064;stop-opacity:0.73"
       id="stop3358" /><stop
       offset="1"
       style="stop-color:#FFE497"
       id="stop3360" /></radialGradient><radialGradient
     id="SVGID_174_"
     cx="188.52541"
     cy="87.693802"
     r="3.5090001"
     gradientTransform="matrix(0.9102,0,0,1,17.6899,0)"
     gradientUnits="userSpaceOnUse"><stop
       offset="0.2331"
       style="stop-color:#FDC064;stop-opacity:0.73"
       id="stop3365" /><stop
       offset="1"
       style="stop-color:#FFE497"
       id="stop3367" /></radialGradient><radialGradient
     id="SVGID_175_"
     cx="191.0327"
     cy="91.176804"
     r="2.6515"
     gradientTransform="matrix(1.3376,-0.0149,0.0194,1.7397,-67.9472,-67.7916)"
     gradientUnits="userSpaceOnUse"><stop
       offset="0"
       style="stop-color:#726658;stop-opacity:0.5"
       id="stop3372" /><stop
       offset="0.1023"
       style="stop-color:#7A6A58;stop-opacity:0.4293"
       id="stop3374" /><stop
       offset="0.2692"
       style="stop-color:#907657;stop-opacity:0.3141"
       id="stop3376" /><stop
       offset="0.4798"
       style="stop-color:#B88B52;stop-opacity:0.1686"
       id="stop3378" /><stop
       offset="0.7239"
       style="stop-color:#FBB040;stop-opacity:0"
       id="stop3380" /></radialGradient></defs><sodipodi:namedview
   pagecolor="#ffffff"
   bordercolor="#666666"
   borderopacity="1"
   objecttolerance="10"
   gridtolerance="10"
   guidetolerance="10"
   inkscape:pageopacity="0"
   inkscape:pageshadow="2"
   inkscape:window-width="1284"
   inkscape:window-height="698"
   id="namedview535"
   showgrid="false"
   inkscape:zoom="10.44"
   inkscape:cx="12.5"
   inkscape:cy="20.162835"
   inkscape:window-x="283"
   inkscape:window-y="44"
   inkscape:window-maximized="0"
   inkscape:current-layer="Layer_1" />




<g
   transform="translate(-177.18569,-74.682894)"
   id="g3225"><radialGradient
     id="radialGradient6543"
     cx="189.4985"
     cy="87.134804"
     r="11.4685"
     gradientTransform="matrix(0.8011,0.5985,-0.5892,0.7887,89.0276,-95.0015)"
     gradientUnits="userSpaceOnUse"><stop
       offset="0.1963"
       style="stop-color:#FFE8BA"
       id="stop6545" /><stop
       offset="0.9141"
       style="stop-color:#FFE8BA;stop-opacity:0"
       id="stop6547" /></radialGradient><circle
     d="m 200.29201,87.135002 c 0,5.937061 -4.81294,10.75 -10.75,10.75 -5.93706,0 -10.75,-4.812939 -10.75,-10.75 0,-5.937061 4.81294,-10.75 10.75,-10.75 5.93706,0 10.75,4.812939 10.75,10.75 z"
     style="opacity:0.68999999;fill:url(#SVGID_157_)"
     sodipodi:ry="10.75"
     sodipodi:rx="10.75"
     sodipodi:cy="87.135002"
     sodipodi:cx="189.54201"
     cx="189.54201"
     cy="87.135002"
     r="10.75"
     id="circle3232" /><g
     id="g3234"><linearGradient
       id="linearGradient6551"
       gradientUnits="userSpaceOnUse"
       x1="189.3472"
       y1="94.043503"
       x2="189.3472"
       y2="93.0438"><stop
         offset="0.0491"
         style="stop-color:#171418"
         id="stop6553" /><stop
         offset="0.5951"
         style="stop-color:#353438"
         id="stop6555" /></linearGradient><path
       style="fill:url(#SVGID_158_)"
       inkscape:connector-curvature="0"
       d="m 190.261,93.487 h -1.829 c 0.25,0.654 1.493,0.734 1.829,0 z"
       id="path3241" /><g
       id="g3243"><radialGradient
         id="radialGradient6559"
         cx="187.9971"
         cy="92.996597"
         r="1.4956"
         gradientTransform="matrix(1.2211,0,0,0.556,-40.1992,41.2929)"
         gradientUnits="userSpaceOnUse"><stop
           offset="0.3313"
           style="stop-color:#FBB040"
           id="stop6561" /><stop
           offset="0.6933"
           style="stop-color:#353438"
           id="stop6563" /><stop
           offset="0.9509"
           style="stop-color:#171418"
           id="stop6565" /></radialGradient><ellipse
         d="m 190.388,93.299004 c 0,0.258469 -0.46607,0.468 -1.041,0.468 -0.57493,0 -1.041,-0.209531 -1.041,-0.468 0,-0.25847 0.46607,-0.468 1.041,-0.468 0.57493,0 1.041,0.20953 1.041,0.468 z"
         style="fill:url(#SVGID_159_)"
         sodipodi:ry="0.46799999"
         sodipodi:rx="1.041"
         sodipodi:cy="93.299004"
         sodipodi:cx="189.347"
         cx="189.347"
         cy="93.299004"
         rx="1.041"
         ry="0.46799999"
         id="ellipse3252" /><radialGradient
         id="radialGradient6568"
         cx="187.9971"
         cy="92.797401"
         r="1.4956"
         gradientTransform="matrix(1.2211,0,0,0.556,-40.1992,41.2044)"
         gradientUnits="userSpaceOnUse"><stop
           offset="0.3313"
           style="stop-color:#FBB040"
           id="stop6570" /><stop
           offset="0.6933"
           style="stop-color:#353438"
           id="stop6572" /><stop
           offset="0.9509"
           style="stop-color:#171418"
           id="stop6574" /></radialGradient><ellipse
         d="m 190.388,93.098999 c 0,0.259022 -0.46607,0.469 -1.041,0.469 -0.57493,0 -1.041,-0.209978 -1.041,-0.469 0,-0.259022 0.46607,-0.469 1.041,-0.469 0.57493,0 1.041,0.209978 1.041,0.469 z"
         style="fill:url(#SVGID_160_)"
         sodipodi:ry="0.46900001"
         sodipodi:rx="1.041"
         sodipodi:cy="93.098999"
         sodipodi:cx="189.347"
         cx="189.347"
         cy="93.098999"
         rx="1.041"
         ry="0.46900001"
         id="ellipse3261" /><radialGradient
         id="radialGradient6577"
         cx="187.9971"
         cy="92.508301"
         r="1.4952"
         gradientTransform="matrix(1.2211,0,0,0.556,-40.1992,41.0761)"
         gradientUnits="userSpaceOnUse"><stop
           offset="0.3313"
           style="stop-color:#FBB040"
           id="stop6579" /><stop
           offset="0.6933"
           style="stop-color:#353438"
           id="stop6581" /><stop
           offset="0.9509"
           style="stop-color:#171418"
           id="stop6583" /></radialGradient><ellipse
         d="m 190.388,92.810997 c 0,0.258469 -0.46607,0.468 -1.041,0.468 -0.57493,0 -1.041,-0.209531 -1.041,-0.468 0,-0.258469 0.46607,-0.468 1.041,-0.468 0.57493,0 1.041,0.209531 1.041,0.468 z"
         style="fill:url(#SVGID_161_)"
         sodipodi:ry="0.46799999"
         sodipodi:rx="1.041"
         sodipodi:cy="92.810997"
         sodipodi:cx="189.347"
         cx="189.347"
         cy="92.810997"
         rx="1.041"
         ry="0.46799999"
         id="ellipse3270" /><radialGradient
         id="radialGradient6586"
         cx="187.9971"
         cy="92.147003"
         r="1.4952"
         gradientTransform="matrix(1.2211,0,0,0.556,-40.1992,40.9156)"
         gradientUnits="userSpaceOnUse"><stop
           offset="0.3313"
           style="stop-color:#FBB040"
           id="stop6588" /><stop
           offset="0.6933"
           style="stop-color:#353438"
           id="stop6590" /><stop
           offset="0.9509"
           style="stop-color:#171418"
           id="stop6592" /></radialGradient><ellipse
         d="m 190.388,92.448997 c 0,0.25847 -0.46607,0.468 -1.041,0.468 -0.57493,0 -1.041,-0.20953 -1.041,-0.468 0,-0.258469 0.46607,-0.467999 1.041,-0.467999 0.57493,0 1.041,0.20953 1.041,0.467999 z"
         style="fill:url(#SVGID_162_)"
         sodipodi:ry="0.46799999"
         sodipodi:rx="1.041"
         sodipodi:cy="92.448997"
         sodipodi:cx="189.347"
         cx="189.347"
         cy="92.448997"
         rx="1.041"
         ry="0.46799999"
         id="ellipse3279" /></g><g
       id="g3281"><radialGradient
         id="radialGradient6596"
         cx="193.30521"
         cy="90.005402"
         r="0.25220001"
         gradientTransform="matrix(1,0,0,1.0987,0,-7.5757)"
         gradientUnits="userSpaceOnUse"><stop
           offset="0.2331"
           style="stop-color:#FDC064;stop-opacity:0.73"
           id="stop6598" /><stop
           offset="1"
           style="stop-color:#FFE497"
           id="stop6600" /></radialGradient><path
         style="fill:url(#SVGID_163_)"
         inkscape:connector-curvature="0"
         d="m 189.318,91.052 c -0.542,0 -1.051,-0.13 -1.498,-0.359 0.043,0.053 0.083,0.1 0.128,0.155 0.657,0.778 0.424,1.637 1.427,1.637 1.043,0 0.772,-0.877 1.357,-1.637 0.05,-0.065 0.093,-0.122 0.141,-0.184 -0.461,0.247 -0.99,0.388 -1.555,0.388 z"
         id="path3288" /><radialGradient
         id="radialGradient6603"
         cx="188.5923"
         cy="87.694298"
         r="3.5090001"
         gradientTransform="matrix(0.9102,0,0,1,17.6899,0)"
         gradientUnits="userSpaceOnUse"><stop
           offset="0.2331"
           style="stop-color:#FDC064;stop-opacity:0.73"
           id="stop6605" /><stop
           offset="1"
           style="stop-color:#FFE497"
           id="stop6607" /></radialGradient><ellipse
         d="m 192.541,87.694 c 0,1.937967 -1.43,3.509 -3.194,3.509 -1.764,0 -3.194,-1.571033 -3.194,-3.509 0,-1.937967 1.43,-3.509 3.194,-3.509 1.764,0 3.194,1.571033 3.194,3.509 z"
         style="fill:url(#SVGID_164_)"
         sodipodi:ry="3.5090001"
         sodipodi:rx="3.194"
         sodipodi:cy="87.694"
         sodipodi:cx="189.347"
         cx="189.347"
         cy="87.694"
         rx="3.194"
         ry="3.5090001"
         id="ellipse3295" /></g><g
       id="g3297"><g
         id="g3299"><radialGradient
           id="radialGradient6612"
           cx="193.24409"
           cy="90.004402"
           r="0.25220001"
           gradientTransform="matrix(1,0,0,1.0987,0,-7.5755)"
           gradientUnits="userSpaceOnUse"><stop
             offset="0.2331"
             style="stop-color:#FDC064;stop-opacity:0.73"
             id="stop6614" /><stop
             offset="1"
             style="stop-color:#FFE497"
             id="stop6616" /></radialGradient><path
           style="fill:url(#SVGID_165_)"
           inkscape:connector-curvature="0"
           d="m 189.257,91.052 c -0.542,0 -1.051,-0.129 -1.498,-0.358 0.043,0.053 0.083,0.1 0.128,0.154 0.165,0.194 0.273,0.394 0.359,0.583 0.086,0.189 0.15,0.371 0.225,0.526 0.149,0.312 0.342,0.527 0.843,0.527 0.521,0 0.714,-0.219 0.851,-0.533 0.068,-0.157 0.122,-0.338 0.195,-0.527 0.073,-0.189 0.166,-0.386 0.312,-0.576 0.049,-0.064 0.092,-0.122 0.14,-0.184 -0.23,0.124 -0.478,0.221 -0.739,0.287 -0.26,0.066 -0.534,0.101 -0.816,0.101 z"
           id="path3306" /><radialGradient
           id="radialGradient6619"
           cx="193.1992"
           cy="89.650902"
           r="0.42770001"
           gradientTransform="matrix(0.99,0,0,1.0909,1.791,-6.95)"
           gradientUnits="userSpaceOnUse"><stop
             offset="0.2331"
             style="stop-color:#FDC064;stop-opacity:0.73"
             id="stop6621" /><stop
             offset="1"
             style="stop-color:#FFE497"
             id="stop6623" /></radialGradient><path
           style="fill:url(#SVGID_166_)"
           inkscape:connector-curvature="0"
           d="m 187.65,90.014 c 0.461,0.133 1.002,0.205 1.582,0.205 0.318,0 0.625,-0.011 0.91,-0.034 0.283,-0.024 0.546,-0.062 0.781,-0.115 -0.036,0.07 -0.066,0.135 -0.104,0.208 -0.113,0.215 -0.192,0.438 -0.251,0.662 -0.073,0.274 -0.157,0.531 -0.277,0.745 -0.193,0.345 -0.446,0.588 -1.007,0.588 -0.543,0 -0.796,-0.238 -1,-0.582 -0.126,-0.212 -0.223,-0.468 -0.304,-0.744 -0.073,-0.25 -0.157,-0.499 -0.258,-0.736 -0.031,-0.07 -0.05,-0.132 -0.072,-0.197 z"
           id="path3313" /><radialGradient
           id="radialGradient6626"
           cx="193.0874"
           cy="89.321297"
           r="0.58999997"
           gradientTransform="matrix(0.98,0,0,1.0823,3.583,-6.2728)"
           gradientUnits="userSpaceOnUse"><stop
             offset="0.2331"
             style="stop-color:#FDC064;stop-opacity:0.73"
             id="stop6628" /><stop
             offset="1"
             style="stop-color:#FFE497"
             id="stop6630" /></radialGradient><path
           style="fill:url(#SVGID_167_)"
           inkscape:connector-curvature="0"
           d="m 187.54,89.35 c 0.476,0.037 1.049,0.05 1.667,0.05 0.354,0 0.693,0.016 1.003,0.035 0.305,0.019 0.583,0.038 0.822,0.055 -0.023,0.078 -0.042,0.152 -0.069,0.232 -0.079,0.24 -0.141,0.492 -0.189,0.747 -0.069,0.361 -0.185,0.694 -0.358,0.962 -0.245,0.378 -0.562,0.643 -1.164,0.643 -0.586,0 -0.903,-0.26 -1.157,-0.638 -0.18,-0.267 -0.311,-0.599 -0.383,-0.961 -0.062,-0.311 -0.116,-0.612 -0.158,-0.89 -0.013,-0.083 -0.012,-0.159 -0.014,-0.235 z"
           id="path3320" /><radialGradient
           id="radialGradient6633"
           cx="192.1235"
           cy="89.006302"
           r="0.76120001"
           gradientTransform="matrix(0.9701,0,0,1.073,6.1577,-5.5407)"
           gradientUnits="userSpaceOnUse"><stop
             offset="0.2331"
             style="stop-color:#FDC064;stop-opacity:0.73"
             id="stop6635" /><stop
             offset="1"
             style="stop-color:#FFE497"
             id="stop6637" /></radialGradient><path
           style="fill:url(#SVGID_168_)"
           inkscape:connector-curvature="0"
           d="m 187.456,88.737 c 0.49,-0.059 1.096,-0.104 1.751,-0.104 0.391,0 0.762,0.041 1.096,0.102 0.328,0.06 0.621,0.139 0.864,0.228 -0.01,0.084 -0.018,0.167 -0.033,0.256 -0.045,0.265 -0.087,0.546 -0.127,0.833 -0.062,0.448 -0.212,0.856 -0.442,1.179 -0.294,0.414 -0.678,0.698 -1.32,0.698 -0.628,0 -1.013,-0.281 -1.315,-0.694 -0.235,-0.321 -0.399,-0.729 -0.462,-1.178 -0.052,-0.37 -0.072,-0.727 -0.057,-1.043 0.005,-0.099 0.025,-0.188 0.045,-0.277 z"
           id="path3327" /><radialGradient
           id="radialGradient6640"
           cx="191.95309"
           cy="88.717796"
           r="0.95550001"
           gradientTransform="matrix(0.9601,0,0,1.0628,7.9492,-4.7573)"
           gradientUnits="userSpaceOnUse"><stop
             offset="0.2331"
             style="stop-color:#FDC064;stop-opacity:0.73"
             id="stop6642" /><stop
             offset="1"
             style="stop-color:#FFE497"
             id="stop6644" /></radialGradient><path
           style="fill:url(#SVGID_169_)"
           inkscape:connector-curvature="0"
           d="m 187.404,88.15 c 0.505,-0.155 1.143,-0.258 1.835,-0.258 0.427,0 0.83,0.065 1.189,0.169 0.349,0.102 0.658,0.238 0.906,0.398 0.003,0.092 0.006,0.183 0.002,0.28 -0.012,0.291 -0.033,0.601 -0.065,0.918 -0.054,0.535 -0.238,1.02 -0.524,1.396 -0.342,0.449 -0.794,0.753 -1.476,0.753 -0.67,0 -1.123,-0.301 -1.472,-0.75 -0.291,-0.374 -0.487,-0.859 -0.541,-1.396 -0.043,-0.429 -0.028,-0.84 0.043,-1.195 0.023,-0.112 0.062,-0.215 0.103,-0.315 z"
           id="path3334" /><radialGradient
           id="radialGradient6647"
           cx="191.71581"
           cy="88.458"
           r="1.1856"
           gradientTransform="matrix(0.9501,0,0,1.0519,9.7402,-3.9197)"
           gradientUnits="userSpaceOnUse"><stop
             offset="0.2331"
             style="stop-color:#FDC064;stop-opacity:0.73"
             id="stop6649" /><stop
             offset="1"
             style="stop-color:#FFE497"
             id="stop6651" /></radialGradient><path
           style="fill:url(#SVGID_170_)"
           inkscape:connector-curvature="0"
           d="m 187.341,87.562 c 0.52,-0.251 1.189,-0.411 1.92,-0.411 0.463,0 0.899,0.089 1.283,0.237 0.372,0.143 0.695,0.338 0.947,0.569 0.016,0.099 0.03,0.199 0.038,0.304 0.022,0.314 0.021,0.654 -0.004,1.004 -0.045,0.622 -0.262,1.185 -0.606,1.613 -0.39,0.486 -0.911,0.808 -1.633,0.808 -0.712,0 -1.233,-0.319 -1.629,-0.805 -0.348,-0.427 -0.577,-0.99 -0.62,-1.613 -0.034,-0.488 0.018,-0.954 0.144,-1.349 0.041,-0.129 0.099,-0.246 0.16,-0.357 z"
           id="path3341" /><radialGradient
           id="radialGradient6654"
           cx="191.3667"
           cy="88.226601"
           r="1.4916"
           gradientTransform="matrix(0.9401,0,0,1.0401,11.5317,-3.0269)"
           gradientUnits="userSpaceOnUse"><stop
             offset="0.2331"
             style="stop-color:#FDC064;stop-opacity:0.73"
             id="stop6656" /><stop
             offset="1"
             style="stop-color:#FFE497"
             id="stop6658" /></radialGradient><path
           style="fill:url(#SVGID_171_)"
           inkscape:connector-curvature="0"
           d="m 187.266,86.975 c 0.534,-0.348 1.236,-0.566 2.005,-0.566 0.498,0 0.967,0.114 1.376,0.305 0.394,0.184 0.733,0.438 0.989,0.74 0.028,0.106 0.055,0.214 0.073,0.328 0.056,0.34 0.076,0.708 0.058,1.089 -0.035,0.709 -0.286,1.349 -0.688,1.83 -0.437,0.522 -1.027,0.863 -1.789,0.863 -0.755,0 -1.346,-0.338 -1.787,-0.86 -0.405,-0.48 -0.666,-1.12 -0.699,-1.83 -0.025,-0.548 0.063,-1.067 0.244,-1.502 0.059,-0.143 0.136,-0.274 0.218,-0.397 z"
           id="path3348" /><radialGradient
           id="radialGradient6661"
           cx="190.8765"
           cy="88.068398"
           r="1.9372"
           gradientTransform="matrix(0.9301,0,0,1.0275,13.3232,-2.0793)"
           gradientUnits="userSpaceOnUse"><stop
             offset="0.2331"
             style="stop-color:#FDC064;stop-opacity:0.73"
             id="stop6663" /><stop
             offset="1"
             style="stop-color:#FFE497"
             id="stop6665" /></radialGradient><path
           style="fill:url(#SVGID_172_)"
           inkscape:connector-curvature="0"
           d="m 187.19,86.431 c 0.549,-0.443 1.283,-0.72 2.089,-0.72 0.534,0 1.036,0.138 1.469,0.373 0.416,0.226 0.771,0.539 1.031,0.911 0.042,0.114 0.079,0.23 0.109,0.352 0.09,0.365 0.132,0.762 0.12,1.175 -0.024,0.796 -0.311,1.515 -0.771,2.047 -0.484,0.56 -1.143,0.918 -1.945,0.918 -0.798,0 -1.457,-0.357 -1.944,-0.917 -0.463,-0.532 -0.756,-1.251 -0.778,-2.047 -0.017,-0.607 0.11,-1.178 0.345,-1.655 0.078,-0.157 0.172,-0.303 0.275,-0.437 z"
           id="path3355" /><radialGradient
           id="radialGradient6668"
           cx="189.3521"
           cy="87.867699"
           r="2.5901"
           gradientTransform="matrix(0.9202,0,0,1.0142,15.8979,-1.069)"
           gradientUnits="userSpaceOnUse"><stop
             offset="0.2331"
             style="stop-color:#FDC064;stop-opacity:0.73"
             id="stop6670" /><stop
             offset="1"
             style="stop-color:#FFE497"
             id="stop6672" /></radialGradient><path
           style="fill:url(#SVGID_173_)"
           inkscape:connector-curvature="0"
           d="m 187.108,85.822 c 0.564,-0.539 1.33,-0.874 2.174,-0.874 0.57,0 1.105,0.162 1.563,0.441 0.438,0.266 0.807,0.639 1.072,1.083 0.054,0.121 0.103,0.246 0.145,0.376 0.123,0.39 0.188,0.815 0.182,1.261 -0.012,0.883 -0.334,1.681 -0.854,2.265 -0.531,0.597 -1.26,0.972 -2.102,0.972 -0.84,0 -1.569,-0.374 -2.102,-0.972 -0.52,-0.583 -0.846,-1.381 -0.857,-2.264 -0.008,-0.667 0.156,-1.291 0.445,-1.808 0.098,-0.174 0.211,-0.333 0.334,-0.48 z"
           id="path3362" /><radialGradient
           id="radialGradient6675"
           cx="188.52541"
           cy="87.693802"
           r="3.5090001"
           gradientTransform="matrix(0.9102,0,0,1,17.6899,0)"
           gradientUnits="userSpaceOnUse"><stop
             offset="0.2331"
             style="stop-color:#FDC064;stop-opacity:0.73"
             id="stop6677" /><stop
             offset="1"
             style="stop-color:#FFE497"
             id="stop6679" /></radialGradient><path
           style="fill:url(#SVGID_174_)"
           inkscape:connector-curvature="0"
           d="m 192.479,87.693 c 0,0.97 -0.357,1.847 -0.936,2.482 -0.578,0.635 -1.376,1.027 -2.258,1.027 -0.882,0 -1.68,-0.393 -2.258,-1.027 -0.578,-0.635 -0.936,-1.512 -0.936,-2.482 0,-0.969 0.358,-1.846 0.936,-2.48 0.578,-0.635 1.376,-1.028 2.258,-1.028 1.765,0 3.194,1.571 3.194,3.508 z"
           id="path3369" /></g></g><radialGradient
       id="radialGradient6682"
       cx="191.0327"
       cy="91.176804"
       r="2.6515"
       gradientTransform="matrix(1.3376,-0.0149,0.0194,1.7397,-67.9472,-67.7916)"
       gradientUnits="userSpaceOnUse"><stop
         offset="0"
         style="stop-color:#726658;stop-opacity:0.5"
         id="stop6684" /><stop
         offset="0.1023"
         style="stop-color:#7A6A58;stop-opacity:0.4293"
         id="stop6686" /><stop
         offset="0.2692"
         style="stop-color:#907657;stop-opacity:0.3141"
         id="stop6688" /><stop
         offset="0.4798"
         style="stop-color:#B88B52;stop-opacity:0.1686"
         id="stop6690" /><stop
         offset="0.7239"
         style="stop-color:#FBB040;stop-opacity:0"
         id="stop6692" /></radialGradient><path
       style="opacity:0.4;fill:url(#SVGID_175_)"
       inkscape:connector-curvature="0"
       d="m 191.913,87.952 c 0.021,1.843 -1.112,3.351 -2.529,3.366 -1.416,0.016 -2.583,-1.465 -2.603,-3.31 -0.021,-1.843 1.112,-3.35 2.529,-3.365 1.417,-0.016 2.583,1.465 2.603,3.309 z"
       id="path3382" /><g
       id="g3384"><g
         id="g3386"><path
           style="fill:#ffe8ba"
           inkscape:connector-curvature="0"
           d="m 189.692,92.42 c -0.103,-1.196 -0.102,-2.397 -0.285,-3.585 -0.073,-0.476 -0.224,-1.23 -0.68,-1.502 -0.546,-0.326 -0.271,1.379 -0.249,1.472 0.32,1.347 2.415,-0.923 1.712,-2.015 -0.028,-0.044 -0.169,0.01 -0.192,0.043 -0.425,0.624 -0.365,1.373 -0.451,2.095 -0.137,1.154 -0.16,2.318 -0.114,3.478 0.001,0.03 0.195,0 0.193,-0.052 -0.066,-1.647 -0.055,-3.444 0.304,-5.062 0.174,-0.784 0.199,0.135 0.155,0.368 -0.068,0.355 -0.252,0.69 -0.445,0.991 -0.39,0.61 -0.858,0.569 -1.019,-0.108 -0.109,-0.461 -0.169,-1.556 0.307,-0.644 0.681,1.306 0.449,3.147 0.571,4.572 0.003,0.034 0.198,-0.001 0.193,-0.051 l 0,0 z"
           id="path3388" /></g></g><g
       style="opacity:0.7"
       id="g3390"><path
         style="fill:#ffffff"
         inkscape:connector-curvature="0"
         d="m 187.883,86.304 c 0.326,-0.4 0.625,-0.636 0.567,-0.722 -0.126,-0.189 -0.63,-0.252 -0.63,-0.252 -0.254,0.056 -0.504,0.17 -0.83,0.666 l 0.893,0.308 z"
         id="path3392" /><path
         style="fill:#ffffff"
         inkscape:connector-curvature="0"
         d="m 187.703,86.542 c -0.294,-0.083 -0.578,-0.198 -0.834,-0.351 -0.436,0.759 -0.527,2.199 0.258,2.983 0.189,0.189 0.031,-0.662 0.031,-0.662 -0.088,-0.847 0.212,-1.496 0.545,-1.97 z"
         id="path3394" /></g></g></g></svg>