<?xml version="1.0" encoding="utf-8"?>
<!-- Generator: Adobe Illustrator 14.0.0, SVG Export Plug-In . SVG Version: 6.00 Build 43363)  -->
<!DOCTYPE svg PUBLIC "-//W3C//DTD SVG 1.1//EN" "http://www.w3.org/Graphics/SVG/1.1/DTD/svg11.dtd">
<svg version="1.1" id="Layer_1" xmlns="http://www.w3.org/2000/svg" xmlns:xlink="http://www.w3.org/1999/xlink" x="0px" y="0px"
	 width="25px" height="25px" viewBox="0 0 25 25" enable-background="new 0 0 25 25" xml:space="preserve">
<g>
	<linearGradient id="SVGID_1_" gradientUnits="userSpaceOnUse" x1="7.2573" y1="40.209" x2="7.2573" y2="32.0215">
		<stop  offset="0.0982" style="stop-color:#5B2400"/>
		<stop  offset="0.8221" style="stop-color:#EEA43D"/>
		<stop  offset="1" style="stop-color:#FBB040"/>
	</linearGradient>
	<ellipse fill-rule="evenodd" clip-rule="evenodd" fill="url(#SVGID_1_)" cx="7.257" cy="36.115" rx="3.508" ry="4.094"/>
	<linearGradient id="SVGID_2_" gradientUnits="userSpaceOnUse" x1="12.3433" y1="40.5215" x2="12.3433" y2="33.2715">
		<stop  offset="0.2945" style="stop-color:#5B2400"/>
		<stop  offset="0.8221" style="stop-color:#EEA43D"/>
		<stop  offset="1" style="stop-color:#FBB040"/>
	</linearGradient>
	<ellipse fill-rule="evenodd" clip-rule="evenodd" fill="url(#SVGID_2_)" cx="12.343" cy="36.896" rx="2.906" ry="3.625"/>
	<linearGradient id="SVGID_3_" gradientUnits="userSpaceOnUse" x1="11.8579" y1="47.584" x2="11.8579" y2="38.752">
		<stop  offset="0" style="stop-color:#A76426"/>
		<stop  offset="0.169" style="stop-color:#A26023"/>
		<stop  offset="0.3959" style="stop-color:#95551B"/>
		<stop  offset="0.6558" style="stop-color:#80430B"/>
		<stop  offset="0.9382" style="stop-color:#632B00"/>
		<stop  offset="1" style="stop-color:#5B2400"/>
	</linearGradient>
	<path fill-rule="evenodd" clip-rule="evenodd" fill="url(#SVGID_3_)" d="M8.457,38.752c0,0,0.642,0.182,0.581,0.846
		c-0.055,0.586,0.182,6.221,0.047,7.688c-0.028,0.275-0.014,0.32,0.089,0.291c0.461-0.131,0.563-0.215,5.212-1.605
		c0,0,0.928-0.121,0.869-1.363c-0.061-1.328-0.121-4.648-0.121-4.648s-0.056-0.543-0.842-0.662
		C13.505,39.174,8.457,38.752,8.457,38.752z"/>
	<g>
		<path fill-rule="evenodd" clip-rule="evenodd" fill="#FBB040" d="M9.36,47.115c0,0.396-0.31,0.625-0.688,0.508l-5.361-1.658
			c-0.378-0.117-0.688-0.537-0.688-0.934v-5.684c0-0.396,0.324-0.713,0.72-0.705l5.297,0.117c0.396,0.01,0.72,0.34,0.72,0.736
			V47.115z"/>
	</g>
	<linearGradient id="SVGID_4_" gradientUnits="userSpaceOnUse" x1="3.3564" y1="42.6055" x2="6.4131" y2="42.6055">
		<stop  offset="0" style="stop-color:#A76426"/>
		<stop  offset="1" style="stop-color:#5B2400"/>
	</linearGradient>
	<path fill-rule="evenodd" clip-rule="evenodd" fill="url(#SVGID_4_)" d="M3.356,37.98v9.25c0.281-0.455,3.057-3.398,3.057-3.398
		v-2.594L3.356,37.98z"/>
	<polygon fill-rule="evenodd" clip-rule="evenodd" fill="#FBB040" points="3.356,47.23 -2.497,44.902 -2.497,39.135 3.356,37.98 	
		"/>
	<linearGradient id="SVGID_5_" gradientUnits="userSpaceOnUse" x1="12.1846" y1="39.3027" x2="13.7473" y2="33.4704">
		<stop  offset="0" style="stop-color:#A76426"/>
		<stop  offset="0.169" style="stop-color:#A26023"/>
		<stop  offset="0.3959" style="stop-color:#95551B"/>
		<stop  offset="0.6558" style="stop-color:#80430B"/>
		<stop  offset="0.9382" style="stop-color:#632B00"/>
		<stop  offset="1" style="stop-color:#5B2400"/>
	</linearGradient>
	<path fill-rule="evenodd" clip-rule="evenodd" fill="url(#SVGID_5_)" d="M14.438,39.336c0.631-0.611,1.045-1.578,1.045-2.676
		c0-1.848-1.16-3.348-2.591-3.348s-2.59,1.5-2.59,3.348c0,0.91,0.282,1.732,0.737,2.336C11.879,39.072,13.142,39.199,14.438,39.336z
		"/>
	<linearGradient id="SVGID_6_" gradientUnits="userSpaceOnUse" x1="6.8262" y1="38.9834" x2="8.6152" y2="32.3068">
		<stop  offset="0" style="stop-color:#A76426"/>
		<stop  offset="0.169" style="stop-color:#A26023"/>
		<stop  offset="0.3959" style="stop-color:#95551B"/>
		<stop  offset="0.6558" style="stop-color:#80430B"/>
		<stop  offset="0.9382" style="stop-color:#632B00"/>
		<stop  offset="1" style="stop-color:#5B2400"/>
	</linearGradient>
	<path fill-rule="evenodd" clip-rule="evenodd" fill="url(#SVGID_6_)" d="M9.54,38.836c0.768-0.68,1.271-1.752,1.271-2.971
		c0-2.053-1.41-3.719-3.148-3.719c-1.739,0-3.148,1.666-3.148,3.719c0,1.01,0.431,2.09,0.984,2.762
		C6.517,38.711,7.915,38.752,9.54,38.836z"/>
	<circle fill-rule="evenodd" clip-rule="evenodd" fill="#FBB040" cx="7.915" cy="35.752" r="0.25"/>
	<g>
		<linearGradient id="SVGID_7_" gradientUnits="userSpaceOnUse" x1="-2.4971" y1="42.0186" x2="1.6963" y2="42.0186">
			<stop  offset="0" style="stop-color:#A76426"/>
			<stop  offset="0.169" style="stop-color:#A26023"/>
			<stop  offset="0.3959" style="stop-color:#95551B"/>
			<stop  offset="0.6558" style="stop-color:#80430B"/>
			<stop  offset="0.9382" style="stop-color:#632B00"/>
			<stop  offset="1" style="stop-color:#5B2400"/>
		</linearGradient>
		<path fill-rule="evenodd" clip-rule="evenodd" fill="url(#SVGID_7_)" d="M-2.497,39.135v5.768c0.281-0.285,4.192-1.35,4.192-1.35
			s0-2.688,0.001-2.688L-2.497,39.135z"/>
		
			<radialGradient id="SVGID_8_" cx="1.1729" cy="41.9902" r="3.1123" gradientTransform="matrix(-0.0094 -1 0.8074 -0.0076 -32.7173 43.4825)" gradientUnits="userSpaceOnUse">
			<stop  offset="0" style="stop-color:#27AAE1"/>
			<stop  offset="0.1288" style="stop-color:#7556A4"/>
			<stop  offset="0.3129" style="stop-color:#000000"/>
			<stop  offset="0.5583" style="stop-color:#150100"/>
		</radialGradient>
		<path fill-rule="evenodd" clip-rule="evenodd" fill="url(#SVGID_8_)" d="M2.149,41.143c-0.214-0.334-0.527-0.549-0.881-0.549
			c-0.643,0-1.164,0.697-1.164,1.557c0,0.861,0.521,1.559,1.164,1.559c0.354,0,0.667-0.215,0.881-0.549V41.143z"/>
	</g>
	<ellipse fill-rule="evenodd" clip-rule="evenodd" fill="#FBB040" cx="13.041" cy="36.584" rx="0.206" ry="0.25"/>
</g>
<g opacity="0.8">
	<linearGradient id="SVGID_9_" gradientUnits="userSpaceOnUse" x1="-16.6187" y1="12.4941" x2="-16.6187" y2="2.1055">
		<stop  offset="0.0982" style="stop-color:#5B2400"/>
		<stop  offset="0.8221" style="stop-color:#EEA43D"/>
		<stop  offset="1" style="stop-color:#FBB040"/>
	</linearGradient>
	<ellipse fill-rule="evenodd" clip-rule="evenodd" fill="url(#SVGID_9_)" cx="-16.619" cy="7.299" rx="4.452" ry="5.195"/>
	<linearGradient id="SVGID_10_" gradientUnits="userSpaceOnUse" x1="-10.167" y1="12.8906" x2="-10.167" y2="3.6914">
		<stop  offset="0.2945" style="stop-color:#5B2400"/>
		<stop  offset="0.8221" style="stop-color:#EEA43D"/>
		<stop  offset="1" style="stop-color:#FBB040"/>
	</linearGradient>
	<ellipse fill-rule="evenodd" clip-rule="evenodd" fill="url(#SVGID_10_)" cx="-10.167" cy="8.291" rx="3.688" ry="4.6"/>
	<linearGradient id="SVGID_11_" gradientUnits="userSpaceOnUse" x1="-10.7817" y1="21.8506" x2="-10.7817" y2="10.6436">
		<stop  offset="0" style="stop-color:#A76426"/>
		<stop  offset="0.169" style="stop-color:#A26023"/>
		<stop  offset="0.3959" style="stop-color:#95551B"/>
		<stop  offset="0.6558" style="stop-color:#80430B"/>
		<stop  offset="0.9382" style="stop-color:#632B00"/>
		<stop  offset="1" style="stop-color:#5B2400"/>
	</linearGradient>
	<path fill-rule="evenodd" clip-rule="evenodd" fill="url(#SVGID_11_)" d="M-15.097,10.643c0,0,0.813,0.23,0.739,1.073
		c-0.069,0.744,0.228,7.894,0.06,9.755c-0.038,0.349-0.018,0.406,0.111,0.369c0.585-0.166,0.714-0.272,6.614-2.037
		c0,0,1.177-0.154,1.103-1.729c-0.079-1.686-0.154-5.899-0.154-5.899s-0.071-0.687-1.07-0.84
		C-8.69,11.178-15.097,10.643-15.097,10.643z"/>
	<g>
		<path fill-rule="evenodd" clip-rule="evenodd" fill="#FBB040" d="M-13.951,21.45c0,0.396-0.31,0.624-0.688,0.507l-7.172-2.218
			c-0.378-0.117-0.688-0.537-0.688-0.933v-7.602c0-0.396,0.324-0.713,0.72-0.704l7.108,0.159c0.396,0.009,0.72,0.34,0.72,0.736
			V21.45z"/>
	</g>
	<linearGradient id="SVGID_12_" gradientUnits="userSpaceOnUse" x1="-21.5664" y1="15.5332" x2="-17.6885" y2="15.5332">
		<stop  offset="0" style="stop-color:#A76426"/>
		<stop  offset="1" style="stop-color:#5B2400"/>
	</linearGradient>
	<path fill-rule="evenodd" clip-rule="evenodd" fill="url(#SVGID_12_)" d="M-21.566,9.664v11.737
		c0.356-0.577,3.875-4.312,3.875-4.312s0-3.291,0.002-3.291L-21.566,9.664z"/>
	<polygon fill-rule="evenodd" clip-rule="evenodd" fill="#FBB040" points="-21.566,21.401 -28.994,18.448 -28.994,11.129 
		-21.566,9.664 	"/>
	<linearGradient id="SVGID_13_" gradientUnits="userSpaceOnUse" x1="-10.3682" y1="11.3452" x2="-8.3843" y2="3.9414">
		<stop  offset="0" style="stop-color:#A76426"/>
		<stop  offset="0.169" style="stop-color:#A26023"/>
		<stop  offset="0.3959" style="stop-color:#95551B"/>
		<stop  offset="0.6558" style="stop-color:#80430B"/>
		<stop  offset="0.9382" style="stop-color:#632B00"/>
		<stop  offset="1" style="stop-color:#5B2400"/>
	</linearGradient>
	<path fill-rule="evenodd" clip-rule="evenodd" fill="url(#SVGID_13_)" d="M-7.508,11.384c0.803-0.776,1.325-2,1.325-3.395
		c0-2.345-1.472-4.248-3.286-4.248c-1.813,0-3.286,1.903-3.286,4.248c0,1.155,0.359,2.197,0.935,2.966
		C-10.755,11.049-9.153,11.21-7.508,11.384z"/>
	<linearGradient id="SVGID_14_" gradientUnits="userSpaceOnUse" x1="-17.1655" y1="10.9365" x2="-14.8962" y2="2.4672">
		<stop  offset="0" style="stop-color:#A76426"/>
		<stop  offset="0.169" style="stop-color:#A26023"/>
		<stop  offset="0.3959" style="stop-color:#95551B"/>
		<stop  offset="0.6558" style="stop-color:#80430B"/>
		<stop  offset="0.9382" style="stop-color:#632B00"/>
		<stop  offset="1" style="stop-color:#5B2400"/>
	</linearGradient>
	<path fill-rule="evenodd" clip-rule="evenodd" fill="url(#SVGID_14_)" d="M-13.721,10.75c0.972-0.86,1.61-2.221,1.61-3.767
		c0-2.606-1.789-4.718-3.994-4.718c-2.206,0-3.995,2.112-3.995,4.718c0,1.281,0.548,2.652,1.249,3.502
		C-17.557,10.591-15.785,10.643-13.721,10.75z"/>
	<circle fill-rule="evenodd" clip-rule="evenodd" fill="#FBB040" cx="-15.783" cy="6.837" r="0.317"/>
	<g>
		<linearGradient id="SVGID_15_" gradientUnits="userSpaceOnUse" x1="-28.9961" y1="14.7891" x2="-23.6753" y2="14.7891">
			<stop  offset="0" style="stop-color:#A76426"/>
			<stop  offset="0.169" style="stop-color:#A26023"/>
			<stop  offset="0.3959" style="stop-color:#95551B"/>
			<stop  offset="0.6558" style="stop-color:#80430B"/>
			<stop  offset="0.9382" style="stop-color:#632B00"/>
			<stop  offset="1" style="stop-color:#5B2400"/>
		</linearGradient>
		<path fill-rule="evenodd" clip-rule="evenodd" fill="url(#SVGID_15_)" d="M-28.996,11.129v7.319
			c0.357-0.362,5.321-1.713,5.321-1.713v-3.41L-28.996,11.129z"/>
		
			<radialGradient id="SVGID_16_" cx="-24.3398" cy="14.7529" r="3.9489" gradientTransform="matrix(-0.0094 -1 0.8074 -0.0076 -36.4801 -9.4736)" gradientUnits="userSpaceOnUse">
			<stop  offset="0" style="stop-color:#27AAE1"/>
			<stop  offset="0.1288" style="stop-color:#7556A4"/>
			<stop  offset="0.3129" style="stop-color:#000000"/>
			<stop  offset="0.5583" style="stop-color:#150100"/>
		</radialGradient>
		<path fill-rule="evenodd" clip-rule="evenodd" fill="url(#SVGID_16_)" d="M-23.101,13.678c-0.27-0.424-0.667-0.697-1.118-0.697
			c-0.815,0-1.477,0.886-1.477,1.976c0,1.093,0.662,1.978,1.477,1.978c0.451,0,0.848-0.272,1.118-0.696V13.678z"/>
	</g>
	<ellipse fill-rule="evenodd" clip-rule="evenodd" fill="#FBB040" cx="-9.28" cy="7.894" rx="0.26" ry="0.317"/>
</g>
<g>
	<g>
		<linearGradient id="SVGID_17_" gradientUnits="userSpaceOnUse" x1="-15.6294" y1="-2.1426" x2="-15.6294" y2="-16.1543">
			<stop  offset="0.0982" style="stop-color:#5B2400"/>
			<stop  offset="0.8221" style="stop-color:#EEA43D"/>
			<stop  offset="1" style="stop-color:#FBB040"/>
		</linearGradient>
		<path fill="url(#SVGID_17_)" d="M-6.651-2.862c0,0.396-0.324,0.72-0.72,0.72h-16.516c-0.396,0-0.72-0.324-0.72-0.72v-11.807
			c0-0.396,0.324-0.72,0.72-0.72h0.024c0.396,0,0.95-0.172,1.23-0.382s0.834-0.382,1.23-0.382h2.826c0.396,0,0.95,0.172,1.23,0.382
			s0.834,0.382,1.23,0.382h8.746c0.396,0,0.72,0.324,0.72,0.72V-2.862z"/>
		<path fill="none" stroke="#673C30" stroke-width="0.25" d="M-6.651-2.862c0,0.396-0.324,0.72-0.72,0.72h-16.516
			c-0.396,0-0.72-0.324-0.72-0.72v-11.807c0-0.396,0.324-0.72,0.72-0.72h0.024c0.396,0,0.95-0.172,1.23-0.382
			s0.834-0.382,1.23-0.382h2.826c0.396,0,0.95,0.172,1.23,0.382s0.834,0.382,1.23,0.382h8.746c0.396,0,0.72,0.324,0.72,0.72V-2.862z
			"/>
	</g>
	<path fill="#C3D2D1" d="M-24.11-3.276c2.649-6.357,0.868-11.049,3.512-14.985c4.189,0.361,14.814,1.973,14.814,1.973
		c-1.751,3.985-0.253,6.874-2.67,11.331C-10.871-0.497-24.11-3.276-24.11-3.276z"/>
	<path fill="#FFFFFF" d="M-23.354-4.196c3.143-6.385,1.611-11.336,4.589-15.223c4.297,0.644,15.148,2.992,15.148,2.992
		c-2.064,3.995-0.708,7.071-3.487,11.51C-9.885-0.478-23.354-4.196-23.354-4.196z"/>
	<g>
		<g>
			<path d="M-17.839-17.292c-0.062-0.014-0.091-0.02-0.153-0.033c0.005-0.022,0.007-0.034,0.012-0.056
				c0.148,0.033,0.223,0.051,0.372,0.084c-0.005,0.022-0.008,0.032-0.013,0.054c-0.062-0.014-0.092-0.021-0.153-0.035
				c-0.039,0.179-0.056,0.271-0.088,0.45c-0.026-0.006-0.04-0.011-0.066-0.017C-17.896-17.025-17.878-17.113-17.839-17.292z"/>
			<path d="M-17.346-16.906c-0.025,0.133-0.126,0.169-0.213,0.15c-0.098-0.021-0.162-0.11-0.14-0.224
				c0.023-0.12,0.118-0.172,0.218-0.15C-17.377-17.107-17.325-17.016-17.346-16.906z M-17.633-16.967
				c-0.015,0.08,0.021,0.148,0.085,0.163c0.063,0.014,0.121-0.033,0.137-0.115c0.012-0.061-0.004-0.145-0.081-0.162
				C-17.57-17.098-17.62-17.035-17.633-16.967z"/>
			<path d="M-17.042-17.024c0.005,0.078,0.009,0.116,0.015,0.194c0.001,0.042,0.004,0.082,0.005,0.121c0,0,0.001,0,0.002,0.001
				c0.015-0.035,0.035-0.072,0.053-0.108c0.037-0.068,0.056-0.103,0.094-0.171c0.022,0.005,0.033,0.007,0.056,0.012
				c0.009,0.077,0.014,0.116,0.024,0.193c0.006,0.045,0.01,0.086,0.011,0.125c0.001,0,0,0,0.001,0
				c0.013-0.035,0.029-0.07,0.048-0.11c0.034-0.068,0.051-0.103,0.085-0.171c0.026,0.006,0.038,0.009,0.064,0.015
				c-0.074,0.134-0.111,0.201-0.182,0.335c-0.024-0.005-0.035-0.009-0.059-0.014c-0.011-0.074-0.016-0.11-0.025-0.184
				c-0.004-0.042-0.01-0.081-0.012-0.125h0c-0.017,0.041-0.034,0.075-0.053,0.111c-0.036,0.063-0.055,0.095-0.09,0.159
				c-0.024-0.005-0.036-0.008-0.06-0.014c-0.019-0.154-0.028-0.23-0.043-0.384C-17.081-17.033-17.068-17.03-17.042-17.024z"/>
			<path d="M-16.481-17.078c0.026,0.006,0.041,0.008,0.067,0.014c-0.018,0.09-0.028,0.136-0.044,0.227h0.001
				c0.013-0.016,0.035-0.028,0.057-0.035c0.02-0.006,0.045-0.01,0.07-0.004c0.049,0.011,0.12,0.058,0.099,0.182
				c-0.015,0.086-0.021,0.131-0.036,0.217c-0.027-0.006-0.039-0.01-0.066-0.016c0.014-0.083,0.019-0.125,0.033-0.208
				c0.01-0.058-0.001-0.112-0.062-0.126c-0.043-0.009-0.082,0.013-0.101,0.045c-0.005,0.009-0.008,0.019-0.01,0.031
				c-0.016,0.087-0.022,0.13-0.037,0.217c-0.027-0.006-0.042-0.007-0.068-0.013C-16.544-16.759-16.524-16.866-16.481-17.078z"/>
			<path d="M-15.801-16.568c-0.022,0.133-0.124,0.173-0.212,0.153c-0.098-0.021-0.163-0.11-0.143-0.224
				c0.021-0.12,0.114-0.174,0.214-0.152C-15.838-16.768-15.782-16.678-15.801-16.568z M-16.089-16.627
				c-0.014,0.08,0.022,0.148,0.086,0.163c0.064,0.014,0.121-0.035,0.134-0.116c0.01-0.061-0.007-0.145-0.085-0.162
				C-16.03-16.759-16.077-16.694-16.089-16.627z"/>
			<path d="M-15.701-16.629c0.007-0.038,0.009-0.068,0.014-0.099c0.023,0.005,0.036,0.009,0.059,0.015
				c-0.003,0.024-0.005,0.035-0.009,0.059c0.001,0,0.001,0.001,0.002,0.001c0.026-0.03,0.067-0.055,0.127-0.042
				c0.049,0.01,0.082,0.048,0.089,0.095c0,0,0.001,0,0.003,0c0.016-0.018,0.031-0.029,0.049-0.037
				c0.025-0.011,0.05-0.016,0.084-0.009c0.048,0.011,0.115,0.059,0.094,0.184c-0.014,0.085-0.02,0.127-0.033,0.212
				c-0.026-0.006-0.041-0.01-0.067-0.016c0.012-0.082,0.02-0.124,0.033-0.205c0.012-0.069-0.007-0.116-0.06-0.127
				c-0.038-0.008-0.072,0.013-0.09,0.042c-0.005,0.009-0.009,0.02-0.011,0.031c-0.015,0.089-0.021,0.135-0.035,0.224
				c-0.026-0.006-0.039-0.009-0.064-0.015c0.014-0.086,0.02-0.129,0.034-0.216c0.009-0.058-0.009-0.104-0.059-0.114
				c-0.04-0.009-0.076,0.016-0.093,0.047c-0.005,0.008-0.009,0.02-0.011,0.03c-0.015,0.087-0.021,0.132-0.035,0.219
				c-0.025-0.006-0.04-0.01-0.065-0.016C-15.728-16.471-15.719-16.523-15.701-16.629z"/>
			<path d="M-14.954-16.191c0.021-0.145,0.033-0.216,0.057-0.36c0.027,0.006,0.041,0.008,0.067,0.014
				c-0.024,0.145-0.036,0.218-0.058,0.363C-14.914-16.181-14.927-16.186-14.954-16.191z M-14.804-16.637
				c-0.004,0.022-0.024,0.036-0.05,0.03c-0.024-0.005-0.037-0.026-0.033-0.048s0.024-0.039,0.049-0.033
				C-14.814-16.683-14.8-16.66-14.804-16.637z"/>
			<path d="M-14.625-16.584c-0.006,0.035-0.01,0.053-0.016,0.087c0.038,0.008,0.057,0.013,0.095,0.021
				c-0.003,0.02-0.005,0.03-0.009,0.05c-0.038-0.008-0.057-0.013-0.095-0.021c-0.013,0.078-0.02,0.118-0.031,0.196
				c-0.006,0.045,0.003,0.073,0.041,0.081c0.018,0.004,0.028,0.004,0.038,0.004c-0.001,0.02-0.002,0.03-0.004,0.05
				c-0.014,0.002-0.035,0.002-0.061-0.004c-0.032-0.007-0.053-0.022-0.067-0.043c-0.016-0.023-0.018-0.057-0.011-0.1
				c0.012-0.079,0.02-0.118,0.033-0.197c-0.023-0.005-0.036-0.01-0.059-0.015c0.003-0.02,0.007-0.028,0.01-0.048
				c0.023,0.005,0.033,0.007,0.056,0.012c0.004-0.027,0.008-0.042,0.012-0.068C-14.666-16.581-14.652-16.582-14.625-16.584z"/>
			<path d="M-14.325-16.325c0.006-0.038,0.009-0.069,0.013-0.099c0.023,0.005,0.035,0.006,0.058,0.011
				c-0.002,0.024-0.005,0.037-0.008,0.061c0.001,0,0.003,0,0.004,0c0.026-0.03,0.065-0.055,0.126-0.042
				c0.049,0.011,0.081,0.05,0.089,0.097c0.002,0,0.001,0.001,0.002,0c0.016-0.019,0.033-0.03,0.05-0.039
				c0.023-0.012,0.05-0.015,0.084-0.008c0.048,0.011,0.116,0.057,0.097,0.183c-0.013,0.085-0.019,0.128-0.03,0.213
				c-0.026-0.006-0.041-0.008-0.067-0.014c0.011-0.082,0.019-0.123,0.031-0.205c0.011-0.07-0.009-0.118-0.062-0.129
				c-0.038-0.008-0.074,0.015-0.089,0.043c-0.005,0.009-0.007,0.02-0.009,0.031c-0.014,0.089-0.021,0.132-0.033,0.222
				c-0.026-0.006-0.039-0.006-0.064-0.012c0.012-0.086,0.019-0.131,0.032-0.218c0.009-0.058-0.01-0.105-0.061-0.116
				c-0.041-0.009-0.079,0.018-0.095,0.048c-0.005,0.009-0.007,0.02-0.009,0.031c-0.014,0.087-0.022,0.13-0.034,0.217
				c-0.026-0.006-0.038-0.009-0.063-0.015C-14.35-16.168-14.342-16.22-14.325-16.325z"/>
			<path d="M-13.463-15.953c-0.004,0.031-0.008,0.062-0.007,0.087c-0.024-0.005-0.037-0.008-0.061-0.013
				c0-0.019-0.001-0.029,0-0.048c0.001,0.001,0.001,0,0,0.001c-0.024,0.023-0.068,0.04-0.121,0.028
				c-0.074-0.017-0.105-0.077-0.098-0.129c0.013-0.087,0.099-0.118,0.239-0.086c0-0.003,0.001-0.004,0.002-0.007
				c0.004-0.029,0.004-0.086-0.07-0.102c-0.034-0.007-0.072-0.006-0.099,0.006c-0.003-0.019-0.005-0.027-0.009-0.046
				c0.032-0.012,0.08-0.016,0.126-0.006c0.112,0.024,0.126,0.106,0.116,0.178C-13.453-16.035-13.455-16.007-13.463-15.953z
				 M-13.515-16.066c-0.071-0.018-0.158-0.022-0.167,0.048c-0.006,0.043,0.021,0.069,0.053,0.077
				c0.048,0.01,0.084-0.014,0.098-0.042c0.003-0.007,0.006-0.015,0.006-0.021C-13.521-16.028-13.519-16.041-13.515-16.066z"/>
			<path d="M-13.297-16.202c0.019,0.092,0.027,0.139,0.046,0.231c0.006,0.025,0.011,0.057,0.014,0.08c0.001,0,0.002,0,0.003,0
				c0.01-0.02,0.019-0.047,0.033-0.07c0.041-0.079,0.062-0.117,0.104-0.196c0.028,0.006,0.041,0.008,0.068,0.015
				c-0.055,0.095-0.081,0.141-0.135,0.236c-0.064,0.113-0.105,0.17-0.155,0.199c-0.037,0.021-0.071,0.024-0.088,0.023
				c-0.004-0.023-0.006-0.034-0.01-0.057c0.018-0.001,0.041-0.008,0.062-0.02c0.02-0.01,0.046-0.031,0.066-0.062
				c0.004-0.006,0.008-0.01,0.008-0.013c0-0.004-0.002-0.009-0.005-0.018c-0.036-0.145-0.052-0.219-0.086-0.364
				C-13.341-16.211-13.326-16.208-13.297-16.202z"/>
			<path d="M-12.592-15.688c-0.019,0.005-0.059,0.008-0.108-0.002c-0.111-0.024-0.173-0.114-0.157-0.225
				c0.015-0.111,0.104-0.175,0.225-0.149c0.039,0.008,0.072,0.026,0.089,0.041c-0.009,0.019-0.014,0.028-0.023,0.047
				c-0.015-0.012-0.039-0.027-0.074-0.034c-0.085-0.019-0.138,0.034-0.148,0.108c-0.012,0.083,0.036,0.146,0.109,0.162
				c0.039,0.008,0.063,0.006,0.083,0.001C-12.596-15.719-12.594-15.708-12.592-15.688z"/>
			<path d="M-12.164-15.771c-0.018,0.133-0.119,0.172-0.207,0.153c-0.099-0.021-0.167-0.111-0.151-0.226
				c0.017-0.12,0.108-0.172,0.209-0.15C-12.208-15.97-12.149-15.88-12.164-15.771z M-12.454-15.829
				c-0.011,0.08,0.026,0.149,0.091,0.163c0.064,0.014,0.119-0.036,0.13-0.117c0.008-0.062-0.011-0.143-0.089-0.16
				C-12.4-15.96-12.444-15.897-12.454-15.829z"/>
			<path d="M-12.067-15.832c0.005-0.038,0.008-0.067,0.01-0.097c0.023,0.005,0.036,0.007,0.059,0.013
				C-12-15.892-12-15.881-12.001-15.856v0.001c0.023-0.03,0.07-0.054,0.13-0.041c0.051,0.011,0.125,0.057,0.109,0.182
				c-0.011,0.086-0.015,0.129-0.026,0.215c-0.027-0.006-0.041-0.007-0.068-0.013c0.01-0.083,0.015-0.125,0.025-0.209
				c0.008-0.059-0.006-0.112-0.068-0.125c-0.043-0.01-0.082,0.014-0.1,0.048c-0.004,0.008-0.007,0.019-0.009,0.03
				c-0.012,0.087-0.018,0.129-0.028,0.216c-0.027-0.006-0.04-0.008-0.066-0.014C-12.088-15.673-12.082-15.726-12.067-15.832z"/>
			<path d="M-11.416-15.431c-0.019,0.005-0.059,0.009-0.108-0.002c-0.11-0.024-0.175-0.114-0.16-0.225
				c0.014-0.111,0.104-0.176,0.224-0.15c0.04,0.008,0.071,0.026,0.088,0.041c-0.008,0.019-0.013,0.027-0.021,0.046
				c-0.016-0.012-0.039-0.025-0.075-0.033c-0.084-0.018-0.138,0.032-0.148,0.106c-0.011,0.083,0.038,0.148,0.111,0.164
				c0.039,0.008,0.063,0.005,0.084,0.001C-11.419-15.462-11.418-15.451-11.416-15.431z"/>
			<path d="M-11.284-15.562c-0.009,0.09,0.042,0.137,0.11,0.151c0.048,0.01,0.079,0.011,0.105,0.006
				c0.002,0.02,0.002,0.029,0.004,0.049c-0.024,0.006-0.065,0.009-0.124-0.003c-0.114-0.025-0.172-0.113-0.158-0.222
				s0.09-0.181,0.197-0.157c0.121,0.026,0.138,0.137,0.13,0.203c-0.001,0.014-0.004,0.022-0.006,0.03
				C-11.129-15.528-11.181-15.54-11.284-15.562z M-11.084-15.566c0.006-0.042-0.002-0.11-0.077-0.126
				c-0.069-0.015-0.105,0.04-0.117,0.084C-11.2-15.592-11.162-15.583-11.084-15.566z"/>
			<path d="M-10.932-15.567c0.005-0.042,0.01-0.079,0.012-0.112c0.023,0.005,0.035,0.006,0.059,0.011
				c-0.003,0.029-0.004,0.045-0.007,0.074c0.001,0,0.002-0.001,0.003-0.001c0.023-0.045,0.069-0.066,0.114-0.056
				c0.006,0.001,0.011,0.002,0.016,0.004c-0.003,0.025-0.005,0.039-0.008,0.063c-0.006-0.003-0.015-0.005-0.023-0.007
				c-0.045-0.011-0.082,0.018-0.098,0.064c-0.002,0.009-0.005,0.02-0.007,0.03c-0.01,0.077-0.015,0.115-0.024,0.192
				c-0.026-0.006-0.039-0.009-0.065-0.015C-10.949-15.418-10.944-15.468-10.932-15.567z"/>
			<path d="M-10.678-15.527c0.005-0.038,0.007-0.069,0.009-0.1c0.024,0.005,0.036,0.01,0.06,0.015
				c-0.001,0.024-0.003,0.036-0.004,0.06l0.002,0c0.023-0.03,0.07-0.054,0.13-0.041c0.051,0.011,0.125,0.059,0.11,0.183
				c-0.01,0.086-0.015,0.129-0.024,0.215c-0.026-0.006-0.042-0.009-0.068-0.015c0.009-0.083,0.015-0.124,0.025-0.208
				c0.007-0.059-0.009-0.112-0.072-0.126c-0.043-0.009-0.083,0.014-0.1,0.048c-0.004,0.008-0.005,0.018-0.006,0.029
				c-0.011,0.087-0.016,0.131-0.026,0.218c-0.027-0.006-0.041-0.008-0.068-0.014C-10.698-15.368-10.691-15.422-10.678-15.527z"/>
			<path d="M-10.298-15.213c0.003-0.028,0.024-0.043,0.05-0.037c0.028,0.006,0.043,0.029,0.041,0.057
				c-0.003,0.026-0.023,0.042-0.051,0.036C-10.285-15.163-10.301-15.187-10.298-15.213z M-10.265-15.477
				c0.003-0.028,0.022-0.042,0.048-0.037c0.028,0.006,0.043,0.027,0.04,0.056c-0.004,0.025-0.025,0.044-0.053,0.038
				C-10.256-15.426-10.269-15.451-10.265-15.477z"/>
			<path d="M-18.217-15.576c0.026,0.006,0.041,0.011,0.067,0.017c-0.012,0.097-0.018,0.145-0.029,0.243c0.001,0,0.001,0,0.002,0
				c0.016-0.017,0.031-0.032,0.045-0.046c0.071-0.062,0.108-0.092,0.18-0.154c0.033,0.007,0.049,0.01,0.082,0.018
				c-0.084,0.069-0.126,0.104-0.209,0.174c0.067,0.134,0.1,0.201,0.167,0.335c-0.031-0.007-0.046-0.011-0.077-0.018
				c-0.057-0.114-0.085-0.171-0.142-0.285c-0.022,0.018-0.035,0.028-0.057,0.045c-0.009,0.077-0.013,0.115-0.021,0.192
				c-0.026-0.006-0.04-0.009-0.066-0.015C-18.252-15.272-18.241-15.375-18.217-15.576z"/>
			<path d="M-17.582-15.007c-0.003,0.031-0.005,0.06-0.003,0.086c-0.024-0.005-0.036-0.007-0.06-0.012
				c0-0.019-0.001-0.028-0.001-0.047c0-0.001,0-0.001-0.001-0.001c-0.024,0.024-0.065,0.042-0.118,0.031
				c-0.075-0.017-0.107-0.077-0.102-0.129c0.009-0.088,0.093-0.118,0.235-0.086c0-0.003,0.001-0.006,0.002-0.009
				c0.003-0.029-0.001-0.086-0.075-0.102c-0.036-0.007-0.071-0.006-0.099,0.005c-0.004-0.019-0.007-0.027-0.011-0.046
				c0.032-0.012,0.081-0.015,0.127-0.004c0.113,0.025,0.13,0.106,0.123,0.178C-17.573-15.089-17.576-15.061-17.582-15.007z
				 M-17.637-15.121c-0.074-0.018-0.157-0.023-0.164,0.047c-0.005,0.044,0.023,0.07,0.057,0.077
				c0.049,0.011,0.082-0.012,0.096-0.041c0.003-0.007,0.005-0.015,0.005-0.021C-17.64-15.084-17.64-15.096-17.637-15.121z"/>
			<path d="M-17.422-15.429c0.026,0.006,0.039,0.009,0.065,0.015c-0.011,0.091-0.016,0.137-0.025,0.229c0,0,0.001,0,0.002,0
				c0.027-0.036,0.073-0.051,0.13-0.039c0.093,0.021,0.15,0.108,0.138,0.217c-0.014,0.13-0.104,0.175-0.187,0.157
				c-0.053-0.011-0.094-0.039-0.117-0.092c0,0-0.002-0.001-0.003-0.001c-0.004,0.023-0.006,0.035-0.011,0.059
				c-0.022-0.005-0.033-0.008-0.056-0.013c0.004-0.025,0.01-0.061,0.013-0.093C-17.453-15.167-17.442-15.254-17.422-15.429z
				 M-17.4-15.029c0,0.009,0,0.018,0.001,0.025c0.007,0.048,0.043,0.088,0.092,0.099c0.071,0.015,0.117-0.032,0.126-0.116
				c0.008-0.072-0.023-0.142-0.096-0.158c-0.044-0.01-0.091,0.012-0.109,0.059c-0.003,0.008-0.007,0.019-0.008,0.028
				C-17.397-15.066-17.397-15.055-17.4-15.029z"/>
			<path d="M-16.781-14.833c-0.003,0.031-0.004,0.062-0.003,0.087c-0.024-0.005-0.037-0.01-0.061-0.015
				c0-0.019,0.001-0.027,0.001-0.045c-0.001,0-0.002,0-0.002,0c-0.024,0.024-0.067,0.042-0.12,0.03
				c-0.076-0.017-0.106-0.077-0.101-0.129c0.009-0.088,0.093-0.118,0.236-0.086c0-0.003,0.001-0.005,0.001-0.008
				c0.003-0.029,0-0.085-0.076-0.101c-0.035-0.008-0.074-0.006-0.101,0.005c-0.004-0.019-0.006-0.028-0.011-0.047
				c0.033-0.012,0.079-0.015,0.125-0.005c0.113,0.024,0.132,0.105,0.125,0.178C-16.772-14.916-16.775-14.887-16.781-14.833z
				 M-16.834-14.946c-0.074-0.018-0.158-0.022-0.165,0.047c-0.004,0.044,0.023,0.07,0.056,0.077
				c0.049,0.011,0.084-0.013,0.098-0.041c0.003-0.007,0.003-0.014,0.004-0.021C-16.839-14.909-16.837-14.921-16.834-14.946z"/>
			<path d="M-16.623-15.254c0.027,0.006,0.04,0.008,0.066,0.014c-0.024,0.213-0.035,0.32-0.057,0.532
				c-0.027-0.006-0.041-0.008-0.067-0.014C-16.658-14.935-16.646-15.042-16.623-15.254z"/>
			<path d="M-16.232-14.713c-0.003,0.031-0.004,0.062-0.004,0.088c-0.024-0.005-0.036-0.008-0.06-0.013c0-0.019,0-0.029,0-0.048
				c-0.002,0.001-0.001,0-0.002,0.001c-0.024,0.024-0.066,0.04-0.119,0.028c-0.076-0.017-0.107-0.077-0.102-0.129
				c0.009-0.088,0.092-0.118,0.235-0.086c0-0.003,0.002-0.005,0.002-0.008c0.003-0.029-0.001-0.084-0.076-0.1
				c-0.035-0.007-0.072-0.006-0.1,0.005c-0.004-0.019-0.006-0.028-0.011-0.047c0.033-0.012,0.08-0.016,0.126-0.005
				c0.113,0.024,0.132,0.107,0.125,0.179C-16.223-14.795-16.227-14.768-16.232-14.713z M-16.287-14.827
				c-0.074-0.018-0.157-0.022-0.165,0.048c-0.004,0.044,0.023,0.071,0.056,0.078c0.05,0.011,0.083-0.014,0.097-0.043
				c0.003-0.007,0.004-0.013,0.005-0.02C-16.291-14.789-16.29-14.802-16.287-14.827z"/>
			<path d="M-15.916-14.729c-0.007,0.09,0.047,0.138,0.115,0.153c0.048,0.01,0.078,0.008,0.104,0.003
				c0.003,0.02,0.004,0.03,0.007,0.05c-0.025,0.005-0.067,0.009-0.126-0.004c-0.114-0.025-0.173-0.114-0.162-0.223
				s0.084-0.179,0.192-0.155c0.121,0.026,0.141,0.135,0.134,0.202c-0.001,0.013-0.003,0.022-0.006,0.029
				C-15.761-14.696-15.812-14.707-15.916-14.729z M-15.713-14.734c0.005-0.041-0.007-0.109-0.083-0.126
				c-0.069-0.015-0.104,0.04-0.115,0.084C-15.832-14.759-15.791-14.751-15.713-14.734z"/>
			<path d="M-15.561-14.75c0.003-0.038,0.007-0.068,0.009-0.099c0.024,0.005,0.034,0.009,0.058,0.014
				c-0.001,0.024,0,0.035-0.001,0.059v0.001c0.022-0.03,0.071-0.054,0.13-0.041c0.052,0.011,0.126,0.058,0.113,0.183
				c-0.009,0.086-0.014,0.129-0.023,0.216c-0.027-0.006-0.04-0.01-0.066-0.016c0.009-0.083,0.012-0.125,0.021-0.208
				c0.006-0.059-0.01-0.112-0.073-0.126c-0.043-0.01-0.08,0.014-0.097,0.048c-0.004,0.007-0.005,0.018-0.006,0.029
				c-0.009,0.087-0.014,0.131-0.023,0.219c-0.027-0.006-0.041-0.009-0.067-0.015C-15.576-14.591-15.572-14.644-15.561-14.75z"/>
			<path d="M-14.844-14.378c-0.009,0.083-0.031,0.131-0.069,0.154c-0.039,0.024-0.092,0.025-0.139,0.015
				c-0.044-0.01-0.091-0.032-0.119-0.059c0.009-0.019,0.013-0.026,0.022-0.044c0.022,0.021,0.06,0.042,0.105,0.052
				c0.067,0.015,0.123-0.009,0.132-0.102c0.001-0.016,0.002-0.024,0.004-0.04l0,0.001c-0.023,0.03-0.068,0.047-0.125,0.034
				c-0.092-0.02-0.149-0.109-0.139-0.21c0.013-0.123,0.101-0.174,0.187-0.156c0.062,0.014,0.095,0.053,0.107,0.086v0
				c0.003-0.021,0.007-0.031,0.01-0.052c0.024,0.005,0.036,0.007,0.06,0.013c-0.006,0.025-0.01,0.054-0.014,0.098
				C-14.831-14.504-14.836-14.462-14.844-14.378z M-14.893-14.558c0.001-0.011,0.001-0.022,0-0.03
				c-0.009-0.042-0.038-0.08-0.087-0.091c-0.063-0.014-0.117,0.028-0.125,0.112c-0.007,0.072,0.025,0.139,0.096,0.154
				c0.042,0.009,0.081-0.009,0.1-0.047c0.005-0.011,0.008-0.022,0.01-0.034C-14.897-14.519-14.895-14.532-14.893-14.558z"/>
			<path d="M-14.743-14.302c0.015-0.145,0.023-0.218,0.038-0.363c0.027,0.006,0.041,0.009,0.067,0.015
				c-0.015,0.145-0.023,0.217-0.038,0.362C-14.703-14.293-14.716-14.296-14.743-14.302z M-14.62-14.749
				c-0.002,0.022-0.021,0.036-0.047,0.03c-0.025-0.005-0.04-0.026-0.037-0.048c0.002-0.022,0.022-0.038,0.047-0.032
				C-14.633-14.794-14.618-14.772-14.62-14.749z"/>
			<path d="M-14.537-14.527c0.003-0.037,0.005-0.069,0.006-0.099c0.024,0.005,0.037,0.009,0.061,0.014
				c-0.001,0.024-0.003,0.036-0.004,0.06l0.002,0c0.022-0.03,0.069-0.055,0.129-0.042c0.052,0.011,0.128,0.058,0.115,0.183
				c-0.009,0.086-0.014,0.13-0.022,0.216c-0.027-0.006-0.04-0.008-0.067-0.014c0.009-0.083,0.012-0.126,0.021-0.21
				c0.006-0.059-0.012-0.111-0.074-0.125c-0.043-0.01-0.082,0.013-0.099,0.047c-0.004,0.007-0.004,0.019-0.005,0.03
				c-0.009,0.087-0.015,0.132-0.023,0.219c-0.027-0.006-0.041-0.01-0.068-0.016C-14.554-14.369-14.548-14.421-14.537-14.527z"/>
			<path d="M-14.086-14.331c-0.007,0.09,0.046,0.138,0.114,0.153c0.048,0.011,0.079,0.008,0.104,0.003
				c0.003,0.02,0.003,0.03,0.006,0.05c-0.025,0.005-0.067,0.009-0.126-0.004c-0.114-0.024-0.173-0.114-0.162-0.223
				s0.085-0.181,0.192-0.157c0.121,0.026,0.142,0.136,0.135,0.203c-0.001,0.013-0.002,0.023-0.006,0.03
				C-13.931-14.298-13.982-14.308-14.086-14.331z M-13.885-14.336c0.005-0.042-0.006-0.11-0.082-0.126
				c-0.069-0.015-0.103,0.039-0.114,0.083C-14.002-14.362-13.963-14.353-13.885-14.336z"/>
			<path d="M-13.569-14.302c0.004-0.043,0.004-0.079,0.006-0.113c0.023,0.005,0.037,0.007,0.06,0.012
				c-0.002,0.029-0.002,0.044-0.004,0.073c0.001,0,0.002,0.001,0.003,0.001c0.021-0.045,0.065-0.068,0.11-0.058
				c0.007,0.001,0.011,0.005,0.017,0.006c-0.002,0.025-0.003,0.037-0.006,0.062c-0.006-0.002-0.013-0.003-0.022-0.005
				c-0.047-0.01-0.089,0.018-0.099,0.062c-0.001,0.008-0.003,0.019-0.004,0.029c-0.008,0.077-0.013,0.117-0.021,0.194
				c-0.027-0.006-0.041-0.009-0.067-0.015C-13.586-14.152-13.58-14.202-13.569-14.302z"/>
			<path d="M-13.027-14.032c-0.004,0.039-0.006,0.073-0.007,0.102c-0.024-0.005-0.037-0.009-0.061-0.015
				c0.001-0.024,0.003-0.035,0.004-0.059c-0.002,0-0.001,0-0.003,0c-0.02,0.025-0.064,0.054-0.13,0.04
				c-0.058-0.013-0.123-0.06-0.11-0.187c0.009-0.084,0.012-0.125,0.021-0.21c0.027,0.006,0.04,0.008,0.067,0.014
				c-0.008,0.08-0.012,0.119-0.021,0.199c-0.007,0.069,0.011,0.121,0.072,0.134c0.045,0.01,0.078-0.014,0.093-0.041
				c0.005-0.008,0.01-0.02,0.012-0.032c0.009-0.088,0.012-0.133,0.021-0.221c0.027,0.006,0.042,0.008,0.069,0.014
				C-13.011-14.188-13.017-14.137-13.027-14.032z"/>
			<path d="M-12.873-14.438c0.027,0.006,0.041,0.01,0.067,0.016c-0.022,0.212-0.032,0.319-0.054,0.532
				c-0.027-0.006-0.04-0.01-0.066-0.016C-12.904-14.12-12.895-14.226-12.873-14.438z"/>
			<path d="M-12.692-14.028c-0.007,0.089,0.047,0.139,0.114,0.154c0.049,0.011,0.079,0.008,0.104,0.002
				c0.002,0.02,0.005,0.03,0.007,0.05c-0.024,0.006-0.067,0.01-0.126-0.002c-0.114-0.025-0.173-0.114-0.162-0.223
				s0.085-0.182,0.193-0.158c0.121,0.026,0.14,0.137,0.133,0.204c-0.001,0.013-0.001,0.023-0.005,0.031
				C-12.536-13.994-12.589-14.006-12.692-14.028z M-12.49-14.032c0.005-0.041-0.007-0.11-0.082-0.127
				c-0.069-0.015-0.103,0.04-0.114,0.084C-12.608-14.058-12.568-14.049-12.49-14.032z"/>
			<path d="M-12.365-13.852c0.019,0.017,0.052,0.037,0.085,0.043c0.048,0.011,0.075-0.006,0.078-0.037
				c0.003-0.032-0.016-0.053-0.062-0.082c-0.065-0.039-0.091-0.081-0.086-0.125c0.006-0.059,0.058-0.096,0.137-0.079
				c0.038,0.008,0.069,0.027,0.088,0.044c-0.008,0.018-0.011,0.025-0.02,0.043c-0.014-0.012-0.04-0.03-0.075-0.038
				c-0.039-0.008-0.061,0.008-0.064,0.035c-0.003,0.03,0.015,0.05,0.061,0.078c0.06,0.037,0.092,0.076,0.087,0.13
				c-0.007,0.064-0.063,0.097-0.15,0.079c-0.04-0.008-0.075-0.027-0.1-0.048C-12.379-13.826-12.374-13.833-12.365-13.852z"/>
			<path d="M-12.082-13.762c0.002-0.027,0.023-0.043,0.051-0.038c0.026,0.006,0.043,0.028,0.041,0.056
				c-0.003,0.027-0.025,0.044-0.053,0.038C-12.07-13.712-12.085-13.735-12.082-13.762z"/>
			<path d="M-11.649-13.791c-0.028,0.059-0.042,0.088-0.07,0.147c-0.027-0.006-0.041-0.009-0.068-0.015
				c0.091-0.187,0.136-0.28,0.227-0.467c0.031,0.007,0.047,0.01,0.078,0.017c0.05,0.217,0.075,0.326,0.124,0.543
				c-0.028-0.006-0.042-0.009-0.069-0.016c-0.016-0.068-0.023-0.104-0.039-0.172C-11.54-13.768-11.576-13.775-11.649-13.791z
				 M-11.474-13.805c-0.014-0.062-0.021-0.094-0.036-0.156c-0.008-0.035-0.012-0.068-0.018-0.099l-0.001,0.001
				c-0.011,0.028-0.023,0.057-0.036,0.084c-0.026,0.054-0.04,0.082-0.065,0.135C-11.568-13.825-11.536-13.818-11.474-13.805z"/>
			<path d="M-11.291-13.618c0.02,0.017,0.053,0.036,0.087,0.043c0.047,0.01,0.072-0.007,0.075-0.038
				c0.003-0.032-0.013-0.052-0.06-0.081c-0.065-0.039-0.094-0.081-0.089-0.125c0.006-0.059,0.059-0.095,0.138-0.078
				c0.037,0.008,0.071,0.024,0.088,0.042c-0.008,0.018-0.012,0.027-0.02,0.045c-0.014-0.013-0.04-0.03-0.074-0.038
				c-0.039-0.008-0.064,0.01-0.067,0.038c-0.003,0.029,0.02,0.048,0.065,0.076c0.06,0.037,0.09,0.075,0.084,0.128
				c-0.007,0.064-0.062,0.099-0.148,0.081c-0.042-0.009-0.076-0.027-0.102-0.048C-11.304-13.591-11.3-13.6-11.291-13.618z"/>
			<path d="M-10.452-13.911c-0.018,0.175-0.026,0.262-0.045,0.438c-0.004,0.032-0.006,0.069-0.007,0.095
				c-0.024-0.005-0.035-0.008-0.059-0.013c0.001-0.025,0.002-0.039,0.004-0.064c-0.001,0-0.001,0-0.002,0
				c-0.025,0.036-0.072,0.056-0.133,0.043c-0.088-0.02-0.148-0.109-0.137-0.219c0.012-0.12,0.096-0.176,0.184-0.157
				c0.058,0.013,0.091,0.047,0.105,0.079c0-0.001,0-0.001,0.001-0.001c0.009-0.086,0.015-0.129,0.024-0.216
				C-10.49-13.92-10.479-13.917-10.452-13.911z M-10.551-13.608c0.001-0.009,0.001-0.021,0-0.029
				c-0.006-0.043-0.038-0.086-0.089-0.097c-0.069-0.015-0.118,0.037-0.126,0.116c-0.007,0.074,0.024,0.141,0.095,0.156
				c0.044,0.01,0.088-0.011,0.106-0.057c0.003-0.008,0.005-0.017,0.006-0.027C-10.556-13.571-10.553-13.583-10.551-13.608z"/>
			<path d="M-10.042-13.467c-0.014,0.134-0.116,0.172-0.205,0.152c-0.099-0.021-0.167-0.109-0.155-0.224
				c0.013-0.12,0.1-0.175,0.201-0.153C-10.095-13.668-10.03-13.577-10.042-13.467z M-10.334-13.528
				c-0.008,0.08,0.03,0.151,0.095,0.165c0.064,0.014,0.12-0.034,0.128-0.116c0.007-0.061-0.017-0.146-0.096-0.163
				S-10.327-13.596-10.334-13.528z"/>
			<path d="M-9.686-13.661c-0.003,0.035-0.005,0.053-0.009,0.088c0.038,0.008,0.058,0.013,0.096,0.021
				c-0.002,0.02-0.004,0.029-0.006,0.049c-0.038-0.008-0.056-0.012-0.094-0.02c-0.008,0.078-0.013,0.117-0.021,0.195
				c-0.005,0.045,0.006,0.074,0.042,0.082c0.019,0.004,0.029,0.003,0.039,0.002c-0.001,0.021-0.002,0.03-0.003,0.051
				c-0.014,0.002-0.034,0.002-0.061-0.003c-0.031-0.007-0.054-0.022-0.068-0.043c-0.017-0.024-0.02-0.058-0.015-0.1
				c0.009-0.079,0.013-0.12,0.021-0.199c-0.023-0.005-0.034-0.008-0.057-0.013c0.002-0.02,0.004-0.03,0.006-0.05
				c0.023,0.005,0.034,0.008,0.057,0.013c0.003-0.027,0.004-0.04,0.007-0.067C-9.726-13.658-9.713-13.659-9.686-13.661z"/>
			<path d="M-9.505-13.705c0.027,0.006,0.04,0.009,0.067,0.015c-0.009,0.091-0.015,0.136-0.024,0.227l0.002,0
				c0.012-0.016,0.031-0.03,0.053-0.037c0.019-0.006,0.044-0.009,0.069-0.003c0.051,0.011,0.126,0.058,0.112,0.182
				c-0.009,0.086-0.016,0.13-0.025,0.216c-0.027-0.006-0.039-0.007-0.066-0.013c0.01-0.083,0.014-0.126,0.023-0.209
				c0.006-0.059-0.009-0.111-0.072-0.125c-0.043-0.01-0.084,0.014-0.099,0.044c-0.003,0.008-0.005,0.019-0.006,0.031
				c-0.01,0.087-0.015,0.131-0.025,0.218c-0.027-0.006-0.041-0.01-0.068-0.016C-9.54-13.388-9.527-13.492-9.505-13.705z"/>
			<path d="M-9.086-13.243c-0.008,0.089,0.045,0.138,0.113,0.153c0.047,0.01,0.079,0.01,0.104,0.005
				c0.002,0.02,0.004,0.03,0.007,0.05c-0.024,0.006-0.068,0.01-0.126-0.003c-0.114-0.025-0.171-0.115-0.159-0.224
				s0.085-0.18,0.192-0.157c0.121,0.027,0.142,0.136,0.134,0.202c-0.001,0.014-0.002,0.022-0.005,0.03
				C-8.929-13.209-8.982-13.22-9.086-13.243z M-8.882-13.247c0.005-0.042-0.007-0.109-0.081-0.126
				c-0.069-0.015-0.105,0.037-0.116,0.082C-9.001-13.274-8.961-13.264-8.882-13.247z"/>
			<path d="M-8.329-12.993c-0.003,0.031-0.006,0.063-0.005,0.088c-0.024-0.005-0.037-0.008-0.061-0.014c0-0.019,0-0.028,0-0.047
				c0,0-0.001,0,0,0c-0.024,0.023-0.067,0.039-0.119,0.027c-0.075-0.017-0.106-0.076-0.101-0.128
				c0.01-0.087,0.094-0.117,0.236-0.085c0-0.003,0-0.005,0.001-0.008c0.003-0.029,0-0.086-0.075-0.102
				c-0.035-0.008-0.072-0.006-0.1,0.005c-0.004-0.019-0.007-0.027-0.011-0.046c0.033-0.012,0.079-0.015,0.125-0.005
				c0.113,0.024,0.135,0.106,0.126,0.179C-8.319-13.074-8.323-13.047-8.329-12.993z M-8.383-13.105
				c-0.073-0.018-0.155-0.022-0.163,0.047c-0.005,0.044,0.02,0.071,0.052,0.078c0.049,0.011,0.083-0.013,0.098-0.042
				c0.003-0.007,0.006-0.014,0.007-0.021C-8.387-13.068-8.386-13.08-8.383-13.105z"/>
			<path d="M-8.203-13.132c0.004-0.043,0.01-0.079,0.012-0.113c0.023,0.005,0.034,0.008,0.057,0.013
				c-0.002,0.029-0.002,0.042-0.004,0.071c0.001,0,0.002,0.002,0.003,0.002c0.021-0.045,0.065-0.067,0.11-0.057
				c0.007,0.001,0.011,0.003,0.018,0.005c-0.003,0.025-0.004,0.039-0.007,0.064c-0.007-0.003-0.013-0.004-0.023-0.007
				c-0.046-0.01-0.085,0.016-0.1,0.063c-0.002,0.009-0.004,0.021-0.005,0.031c-0.009,0.077-0.013,0.116-0.022,0.193
				c-0.026-0.006-0.041-0.009-0.067-0.015C-8.22-12.981-8.214-13.032-8.203-13.132z"/>
			<path d="M-7.832-13.257c-0.004,0.035-0.004,0.052-0.008,0.087c0.039,0.008,0.055,0.013,0.094,0.021
				c-0.002,0.02-0.002,0.029-0.005,0.049c-0.039-0.008-0.057-0.012-0.096-0.021C-7.855-13.041-7.859-13-7.869-12.923
				c-0.005,0.044,0.004,0.071,0.041,0.079c0.019,0.004,0.029,0.005,0.039,0.005c-0.001,0.02,0,0.031-0.001,0.051
				c-0.014,0.001-0.037,0.001-0.062-0.004c-0.032-0.007-0.054-0.022-0.069-0.044c-0.016-0.024-0.018-0.058-0.012-0.1
				c0.009-0.079,0.015-0.12,0.024-0.199c-0.023-0.005-0.037-0.006-0.06-0.011c0.002-0.02,0.005-0.03,0.008-0.05
				c0.023,0.005,0.033,0.007,0.056,0.012c0.003-0.027,0.004-0.041,0.007-0.068C-7.873-13.254-7.858-13.255-7.832-13.257z"/>
			<path d="M-7.713-12.769c0.018-0.145,0.027-0.217,0.043-0.363c0.027,0.006,0.039,0.008,0.065,0.014
				c-0.017,0.146-0.024,0.217-0.042,0.361C-7.673-12.762-7.686-12.763-7.713-12.769z M-7.582-13.217
				c-0.002,0.022-0.021,0.035-0.047,0.029c-0.025-0.005-0.041-0.026-0.038-0.049c0.002-0.022,0.022-0.037,0.047-0.031
				C-7.596-13.262-7.58-13.24-7.582-13.217z"/>
			<path d="M-7.536-12.8c0.02,0.016,0.053,0.038,0.087,0.045c0.047,0.01,0.073-0.007,0.077-0.038
				c0.004-0.032-0.013-0.052-0.061-0.08c-0.063-0.039-0.091-0.082-0.086-0.125c0.007-0.058,0.062-0.095,0.141-0.078
				c0.037,0.008,0.069,0.025,0.086,0.042c-0.008,0.018-0.012,0.026-0.021,0.044c-0.014-0.012-0.039-0.029-0.073-0.037
				c-0.039-0.008-0.064,0.009-0.067,0.036c-0.003,0.03,0.016,0.048,0.061,0.077c0.061,0.038,0.092,0.074,0.085,0.128
				c-0.008,0.064-0.066,0.099-0.151,0.081c-0.042-0.009-0.075-0.028-0.101-0.049C-7.549-12.773-7.545-12.782-7.536-12.8z"/>
			<path d="M-7.098-13.096c-0.004,0.035-0.008,0.052-0.012,0.087c0.038,0.008,0.057,0.013,0.095,0.021
				c-0.002,0.02-0.003,0.029-0.005,0.049c-0.038-0.008-0.056-0.013-0.094-0.021c-0.009,0.078-0.016,0.118-0.025,0.196
				c-0.006,0.045,0.006,0.073,0.042,0.081c0.019,0.004,0.028,0.005,0.038,0.004c-0.001,0.02,0,0.03-0.001,0.05
				c-0.013,0.001-0.036,0.002-0.062-0.004c-0.031-0.007-0.052-0.024-0.066-0.046c-0.016-0.024-0.021-0.056-0.015-0.098
				c0.01-0.079,0.017-0.119,0.026-0.198c-0.023-0.005-0.037-0.006-0.06-0.011c0.002-0.02,0.004-0.03,0.007-0.05
				c0.023,0.005,0.033,0.007,0.056,0.012c0.003-0.027,0.006-0.039,0.009-0.066C-7.139-13.092-7.125-13.094-7.098-13.096z"/>
			<path d="M-6.983-12.679c0.02,0.017,0.054,0.037,0.088,0.043c0.047,0.011,0.071-0.006,0.075-0.037
				c0.004-0.032-0.012-0.052-0.06-0.081c-0.063-0.039-0.09-0.081-0.085-0.125c0.007-0.058,0.06-0.096,0.139-0.078
				c0.037,0.008,0.069,0.024,0.086,0.041c-0.008,0.018-0.011,0.027-0.02,0.045C-6.772-12.881-6.8-12.9-6.833-12.907
				c-0.039-0.008-0.063,0.011-0.066,0.038c-0.003,0.03,0.018,0.046,0.063,0.075c0.061,0.038,0.088,0.074,0.082,0.127
				c-0.008,0.064-0.064,0.098-0.15,0.079c-0.041-0.009-0.076-0.025-0.101-0.046C-6.998-12.652-6.993-12.661-6.983-12.679z"/>
			<path d="M-18.305-14.526c0.013,0.078,0.02,0.117,0.032,0.194c0.006,0.043,0.012,0.083,0.015,0.122
				c0.001,0,0.001-0.001,0.002-0.001c0.011-0.035,0.029-0.07,0.045-0.106c0.032-0.069,0.045-0.103,0.077-0.171
				c0.022,0.005,0.034,0.006,0.057,0.011c0.016,0.077,0.026,0.118,0.042,0.195c0.009,0.047,0.015,0.086,0.019,0.125
				c0,0,0,0,0.001-0.001c0.011-0.035,0.025-0.069,0.042-0.11c0.028-0.068,0.041-0.102,0.069-0.169
				c0.026,0.006,0.039,0.007,0.065,0.013c-0.062,0.134-0.092,0.202-0.154,0.336c-0.024-0.005-0.037-0.008-0.061-0.013
				c-0.016-0.074-0.023-0.111-0.039-0.185c-0.009-0.043-0.017-0.08-0.021-0.125c0,0,0-0.002,0-0.001
				c-0.013,0.042-0.028,0.076-0.045,0.112c-0.031,0.063-0.046,0.096-0.077,0.16c-0.024-0.005-0.038-0.008-0.062-0.014
				c-0.03-0.154-0.045-0.232-0.075-0.387C-18.346-14.536-18.332-14.532-18.305-14.526z"/>
			<path d="M-17.461-14.16c-0.014,0.133-0.114,0.171-0.203,0.152c-0.1-0.022-0.168-0.111-0.157-0.226
				c0.012-0.121,0.099-0.173,0.201-0.151C-17.512-14.362-17.45-14.27-17.461-14.16z M-17.752-14.221
				c-0.008,0.08,0.033,0.149,0.098,0.164c0.063,0.014,0.117-0.035,0.125-0.117c0.006-0.062-0.018-0.145-0.097-0.162
				C-17.705-14.354-17.746-14.289-17.752-14.221z"/>
			<path d="M-17.369-14.206c0.004-0.043,0.008-0.081,0.009-0.115c0.023,0.005,0.036,0.008,0.06,0.013
				c-0.001,0.029-0.002,0.044-0.004,0.073c0.001,0,0.002,0,0.003,0.001c0.021-0.045,0.066-0.068,0.111-0.058
				c0.007,0.001,0.012,0.004,0.017,0.006c-0.002,0.025-0.004,0.037-0.006,0.062c-0.006-0.003-0.012-0.004-0.021-0.007
				c-0.047-0.01-0.084,0.018-0.1,0.065c-0.001,0.008-0.004,0.019-0.006,0.03c-0.008,0.077-0.011,0.115-0.019,0.192
				c-0.027-0.006-0.04-0.008-0.067-0.014C-17.383-14.057-17.379-14.106-17.369-14.206z"/>
			<path d="M-17.055-14.084c0.001,0,0.002,0,0.002,0c0.01-0.011,0.022-0.024,0.034-0.035c0.049-0.041,0.074-0.062,0.122-0.102
				c0.032,0.007,0.049,0.01,0.081,0.017c-0.063,0.047-0.094,0.071-0.157,0.119c0.057,0.099,0.084,0.15,0.141,0.249
				c-0.033-0.007-0.049-0.012-0.082-0.019c-0.043-0.081-0.064-0.119-0.108-0.2c-0.015,0.012-0.023,0.018-0.038,0.03
				c-0.005,0.054-0.009,0.08-0.015,0.134c-0.026-0.006-0.04-0.008-0.066-0.014c0.022-0.212,0.032-0.318,0.054-0.53
				c0.027,0.006,0.041,0.008,0.068,0.014C-17.033-14.286-17.041-14.218-17.055-14.084z"/>
			<path d="M-16.771-13.823c0.015-0.145,0.023-0.216,0.038-0.361c0.027,0.006,0.039,0.008,0.066,0.014
				c-0.015,0.145-0.021,0.217-0.036,0.361C-16.729-13.814-16.744-13.817-16.771-13.823z M-16.646-14.27
				c-0.002,0.022-0.021,0.037-0.047,0.031c-0.025-0.005-0.038-0.027-0.036-0.05c0.002-0.023,0.02-0.038,0.045-0.032
				C-16.661-14.315-16.644-14.293-16.646-14.27z"/>
			<path d="M-16.564-14.048c0.004-0.037,0.006-0.068,0.007-0.098c0.024,0.005,0.036,0.008,0.06,0.013
				c-0.001,0.024-0.001,0.037-0.002,0.062l0,0c0.022-0.03,0.069-0.055,0.129-0.042c0.052,0.011,0.127,0.059,0.114,0.182
				c-0.009,0.086-0.012,0.13-0.021,0.216c-0.027-0.006-0.042-0.01-0.069-0.016c0.009-0.083,0.014-0.125,0.023-0.208
				c0.006-0.059-0.012-0.111-0.075-0.125c-0.043-0.01-0.081,0.013-0.097,0.047c-0.004,0.007-0.006,0.021-0.007,0.031
				c-0.009,0.087-0.014,0.129-0.023,0.216c-0.027-0.006-0.04-0.008-0.066-0.014C-16.58-13.89-16.575-13.943-16.564-14.048z"/>
			<path d="M-15.848-13.676c-0.009,0.084-0.031,0.131-0.069,0.154c-0.041,0.024-0.094,0.025-0.141,0.015
				c-0.043-0.01-0.092-0.031-0.12-0.057c0.009-0.019,0.014-0.028,0.023-0.047c0.023,0.021,0.06,0.043,0.105,0.053
				c0.068,0.015,0.123-0.01,0.133-0.103c0.002-0.016,0.002-0.023,0.004-0.039c-0.001,0-0.001,0-0.002,0
				c-0.024,0.03-0.066,0.048-0.123,0.036c-0.091-0.02-0.149-0.11-0.139-0.21c0.012-0.122,0.101-0.174,0.186-0.155
				c0.063,0.014,0.095,0.053,0.109,0.087h0.001c0.003-0.021,0.005-0.033,0.009-0.054c0.024,0.005,0.035,0.009,0.059,0.015
				c-0.005,0.025-0.008,0.053-0.013,0.096C-15.834-13.803-15.839-13.76-15.848-13.676z M-15.896-13.857
				c0.001-0.011,0.001-0.021-0.001-0.029c-0.009-0.041-0.037-0.081-0.087-0.092c-0.064-0.014-0.115,0.029-0.124,0.113
				c-0.007,0.071,0.023,0.138,0.095,0.154c0.042,0.009,0.082-0.007,0.1-0.046c0.005-0.011,0.008-0.023,0.009-0.035
				C-15.901-13.818-15.899-13.831-15.896-13.857z"/>
			<path d="M-15.228-13.676c-0.014,0.133-0.115,0.172-0.204,0.153c-0.099-0.021-0.169-0.11-0.157-0.225
				c0.013-0.121,0.102-0.175,0.203-0.153C-15.279-13.877-15.216-13.786-15.228-13.676z M-15.52-13.736
				c-0.008,0.08,0.029,0.15,0.095,0.164c0.064,0.014,0.119-0.036,0.128-0.118c0.006-0.062-0.015-0.144-0.095-0.161
				C-15.47-13.868-15.513-13.804-15.52-13.736z"/>
			<path d="M-15.133-13.737c0.004-0.038,0.005-0.068,0.006-0.099c0.024,0.005,0.036,0.008,0.06,0.014
				c-0.001,0.024-0.001,0.037-0.002,0.062l0.001-0.001c0.022-0.03,0.068-0.055,0.129-0.041c0.052,0.011,0.128,0.059,0.114,0.183
				c-0.009,0.086-0.013,0.129-0.022,0.215c-0.027-0.006-0.041-0.007-0.068-0.013c0.009-0.083,0.014-0.126,0.023-0.21
				c0.006-0.059-0.011-0.113-0.074-0.127c-0.043-0.01-0.08,0.015-0.097,0.049c-0.004,0.007-0.007,0.019-0.008,0.03
				c-0.009,0.087-0.014,0.131-0.023,0.218c-0.027-0.006-0.041-0.01-0.067-0.016C-15.15-13.58-15.145-13.632-15.133-13.737z"/>
			<path d="M-14.449-13.776c-0.004,0.035-0.005,0.051-0.009,0.085c0.039,0.008,0.058,0.014,0.096,0.022
				c-0.002,0.02-0.003,0.03-0.005,0.05c-0.039-0.008-0.057-0.013-0.096-0.021c-0.008,0.078-0.014,0.118-0.022,0.196
				c-0.005,0.045,0.005,0.074,0.042,0.082c0.019,0.004,0.03,0.003,0.04,0.002c-0.001,0.021-0.001,0.032-0.002,0.052
				c-0.014,0.001-0.035,0-0.061-0.005c-0.032-0.007-0.054-0.021-0.068-0.042c-0.017-0.024-0.021-0.058-0.017-0.1
				c0.009-0.079,0.013-0.119,0.021-0.198c-0.022-0.005-0.033-0.007-0.056-0.013c0.002-0.02,0.003-0.03,0.005-0.05
				c0.022,0.005,0.034,0.007,0.057,0.013c0.003-0.027,0.005-0.041,0.008-0.068C-14.489-13.774-14.476-13.774-14.449-13.776z"/>
			<path d="M-14.269-13.821c0.027,0.006,0.041,0.008,0.067,0.014c-0.009,0.091-0.015,0.135-0.024,0.226l0.002,0
				c0.013-0.016,0.031-0.028,0.054-0.035c0.021-0.007,0.044-0.008,0.07-0.003c0.05,0.011,0.126,0.059,0.112,0.183
				c-0.009,0.086-0.015,0.129-0.024,0.215c-0.027-0.006-0.041-0.009-0.068-0.015c0.009-0.083,0.014-0.124,0.023-0.207
				c0.006-0.059-0.011-0.113-0.073-0.127c-0.043-0.009-0.08,0.014-0.097,0.046c-0.004,0.009-0.006,0.019-0.008,0.031
				c-0.009,0.087-0.015,0.13-0.025,0.217c-0.027-0.006-0.04-0.009-0.066-0.015C-14.302-13.503-14.291-13.609-14.269-13.821z"/>
			<path d="M-13.847-13.359c-0.008,0.089,0.044,0.138,0.113,0.152c0.047,0.011,0.077,0.008,0.103,0.004
				c0.002,0.02,0.005,0.03,0.007,0.05c-0.025,0.005-0.067,0.009-0.126-0.004c-0.114-0.025-0.173-0.113-0.161-0.223
				c0.012-0.109,0.088-0.179,0.195-0.156c0.121,0.026,0.139,0.136,0.131,0.203c-0.001,0.013-0.002,0.022-0.005,0.03
				C-13.693-13.326-13.744-13.337-13.847-13.359z M-13.646-13.364c0.006-0.04-0.005-0.11-0.081-0.126
				c-0.069-0.015-0.104,0.039-0.115,0.083C-13.763-13.39-13.724-13.381-13.646-13.364z"/>
			<path d="M-12.901-13.208c0.004-0.071,0.01-0.157,0.018-0.219c-0.001,0-0.001,0-0.002,0c-0.025,0.055-0.053,0.113-0.087,0.178
				c-0.047,0.09-0.07,0.134-0.118,0.224c-0.02-0.004-0.03-0.004-0.05-0.009c-0.022-0.104-0.034-0.156-0.057-0.26
				c-0.016-0.077-0.03-0.145-0.038-0.208c-0.001-0.001,0-0.001-0.002,0c-0.008,0.062-0.021,0.144-0.033,0.219
				c-0.016,0.085-0.022,0.127-0.038,0.213c-0.025-0.005-0.039-0.008-0.064-0.013c0.038-0.198,0.056-0.297,0.092-0.496
				c0.034,0.007,0.052,0.011,0.086,0.019c0.024,0.105,0.036,0.157,0.06,0.263c0.014,0.066,0.024,0.125,0.031,0.181l0.002,0.001
				c0.02-0.048,0.045-0.099,0.075-0.158c0.047-0.089,0.07-0.134,0.117-0.224c0.034,0.007,0.051,0.011,0.085,0.018
				c-0.009,0.205-0.014,0.308-0.025,0.511c-0.026-0.006-0.04-0.008-0.066-0.014C-12.91-13.072-12.906-13.118-12.901-13.208z"/>
			<path d="M-12.689-13.108c-0.009,0.089,0.045,0.139,0.113,0.154c0.047,0.01,0.079,0.009,0.104,0.004
				c0.002,0.02,0.002,0.029,0.004,0.049c-0.025,0.006-0.067,0.008-0.125-0.005c-0.114-0.025-0.171-0.112-0.158-0.222
				c0.013-0.109,0.088-0.18,0.195-0.156c0.121,0.026,0.14,0.138,0.132,0.204c-0.001,0.013-0.004,0.022-0.006,0.03
				C-12.534-13.072-12.586-13.085-12.689-13.108z M-12.488-13.111c0.006-0.041-0.003-0.109-0.079-0.126
				c-0.069-0.015-0.105,0.04-0.116,0.083C-12.604-13.137-12.566-13.128-12.488-13.111z"/>
			<path d="M-12.231-13.294c-0.004,0.035-0.006,0.054-0.01,0.089c0.038,0.008,0.057,0.012,0.095,0.021
				c-0.002,0.02-0.003,0.027-0.006,0.047c-0.038-0.008-0.057-0.011-0.095-0.019c-0.009,0.078-0.013,0.115-0.022,0.193
				c-0.006,0.045,0.003,0.074,0.04,0.083c0.019,0.004,0.03,0.004,0.04,0.004c-0.001,0.02-0.002,0.031-0.003,0.051
				c-0.014,0.001-0.036,0.001-0.062-0.004c-0.032-0.007-0.053-0.022-0.068-0.043c-0.016-0.024-0.021-0.057-0.015-0.1
				c0.01-0.079,0.014-0.119,0.023-0.198c-0.023-0.005-0.034-0.007-0.057-0.012c0.002-0.02,0.004-0.03,0.006-0.05
				c0.023,0.005,0.033,0.006,0.056,0.011c0.003-0.027,0.007-0.039,0.01-0.066C-12.271-13.29-12.258-13.292-12.231-13.294z"/>
			<path d="M-11.845-12.838c-0.004,0.031-0.007,0.062-0.007,0.087c-0.024-0.005-0.036-0.007-0.06-0.013c0-0.019,0-0.028,0-0.046
				l-0.001,0c-0.025,0.023-0.067,0.038-0.12,0.026c-0.075-0.016-0.105-0.075-0.099-0.127c0.011-0.087,0.096-0.117,0.238-0.085
				c0-0.003,0-0.005,0.001-0.008c0.004-0.029,0.001-0.084-0.074-0.1c-0.035-0.007-0.073-0.006-0.1,0.005
				c-0.004-0.019-0.004-0.027-0.009-0.046c0.033-0.012,0.078-0.017,0.124-0.007c0.113,0.024,0.131,0.107,0.122,0.179
				C-11.834-12.918-11.838-12.893-11.845-12.838z M-11.897-12.95c-0.073-0.017-0.156-0.023-0.165,0.046
				c-0.006,0.044,0.02,0.07,0.053,0.077c0.048,0.01,0.085-0.013,0.1-0.041c0.003-0.008,0.004-0.014,0.005-0.02
				C-11.901-12.912-11.9-12.925-11.897-12.95z"/>
			<path d="M-11.756-12.77c0.003-0.027,0.025-0.042,0.053-0.036c0.026,0.006,0.041,0.029,0.037,0.056
				c-0.003,0.026-0.024,0.042-0.052,0.036C-11.745-12.72-11.759-12.743-11.756-12.77z M-11.724-12.872
				c0.014-0.145,0.021-0.216,0.034-0.361c0.029,0.006,0.042,0.01,0.071,0.017c-0.021,0.143-0.031,0.214-0.053,0.356
				C-11.693-12.865-11.704-12.868-11.724-12.872z"/>
			<path d="M-11.511-13.186c0.031-0.001,0.078,0.005,0.123,0.015c0.066,0.014,0.106,0.038,0.134,0.067
				c0.023,0.025,0.04,0.059,0.035,0.099c-0.006,0.049-0.045,0.084-0.101,0.091c-0.001,0.001,0,0.001-0.001,0.002
				c0.047,0.022,0.099,0.076,0.09,0.15c-0.005,0.044-0.028,0.073-0.057,0.09c-0.039,0.024-0.098,0.027-0.182,0.009
				c-0.045-0.01-0.08-0.021-0.102-0.028C-11.545-12.889-11.534-12.987-11.511-13.186z M-11.5-12.724
				c0.014,0.005,0.034,0.009,0.058,0.014c0.069,0.015,0.134,0.005,0.143-0.068c0.008-0.068-0.048-0.112-0.121-0.128
				c-0.022-0.005-0.032-0.006-0.054-0.011C-11.484-12.84-11.49-12.801-11.5-12.724z M-11.47-12.965
				c0.024,0.005,0.038,0.009,0.062,0.015c0.069,0.015,0.113-0.015,0.119-0.064c0.006-0.058-0.034-0.09-0.101-0.104
				c-0.031-0.007-0.048-0.009-0.06-0.009C-11.457-13.063-11.462-13.03-11.47-12.965z"/>
			<path d="M-11.096-13.131c0.027,0.006,0.04,0.011,0.066,0.017c-0.024,0.211-0.036,0.317-0.064,0.529
				c-0.027-0.006-0.041-0.008-0.067-0.014C-11.133-12.812-11.12-12.919-11.096-13.131z"/>
			<path d="M-10.713-12.592c-0.004,0.031-0.007,0.062-0.007,0.087c-0.024-0.005-0.037-0.007-0.061-0.012
				c0-0.019,0.001-0.028,0.002-0.046c-0.002,0-0.001,0-0.002,0c-0.025,0.023-0.067,0.039-0.12,0.027
				c-0.075-0.016-0.106-0.076-0.099-0.128c0.012-0.087,0.098-0.117,0.239-0.085c0-0.003,0.001-0.005,0.002-0.008
				c0.004-0.029,0-0.085-0.074-0.101c-0.036-0.007-0.071-0.005-0.099,0.006c-0.004-0.019-0.006-0.028-0.01-0.047
				c0.032-0.012,0.08-0.015,0.126-0.005c0.113,0.024,0.131,0.107,0.122,0.179C-10.702-12.671-10.706-12.646-10.713-12.592z
				 M-10.765-12.703c-0.073-0.017-0.159-0.023-0.168,0.046c-0.006,0.044,0.022,0.068,0.056,0.075c0.048,0.01,0.083-0.012,0.099-0.04
				c0.003-0.008,0.003-0.014,0.004-0.021C-10.771-12.667-10.768-12.678-10.765-12.703z"/>
			<path d="M-10.616-12.55c0.019,0.017,0.05,0.038,0.083,0.045c0.048,0.01,0.074-0.01,0.079-0.041
				c0.004-0.032-0.014-0.051-0.06-0.079c-0.062-0.039-0.089-0.08-0.083-0.124c0.007-0.059,0.062-0.095,0.142-0.078
				c0.037,0.008,0.069,0.025,0.086,0.042c-0.008,0.018-0.014,0.027-0.022,0.045c-0.014-0.013-0.039-0.03-0.073-0.038
				c-0.039-0.008-0.062,0.008-0.066,0.035c-0.003,0.03,0.016,0.05,0.061,0.078c0.059,0.037,0.089,0.075,0.082,0.129
				c-0.009,0.064-0.065,0.097-0.151,0.079c-0.041-0.009-0.076-0.027-0.101-0.048C-10.631-12.522-10.625-12.532-10.616-12.55z"/>
			<path d="M-10.178-12.846c-0.004,0.035-0.006,0.051-0.011,0.085c0.038,0.008,0.056,0.013,0.094,0.021
				c-0.002,0.02-0.003,0.03-0.005,0.05c-0.038-0.008-0.057-0.013-0.095-0.021c-0.01,0.078-0.015,0.117-0.026,0.195
				c-0.006,0.045,0.002,0.072,0.039,0.08c0.019,0.004,0.031,0.006,0.04,0.005c-0.001,0.021-0.003,0.031-0.004,0.052
				c-0.013,0.002-0.034,0-0.061-0.006c-0.031-0.007-0.055-0.021-0.068-0.042c-0.016-0.024-0.017-0.057-0.011-0.1
				c0.011-0.079,0.015-0.118,0.025-0.197c-0.023-0.005-0.035-0.008-0.058-0.013c0.002-0.02,0.005-0.03,0.008-0.05
				c0.023,0.005,0.033,0.008,0.056,0.013c0.003-0.027,0.005-0.041,0.008-0.068C-10.218-12.843-10.205-12.844-10.178-12.846z"/>
			<path d="M-9.872-12.569c0.006-0.046,0.008-0.083,0.012-0.118c0.024,0.005,0.036,0.006,0.06,0.012
				c-0.001,0.025-0.002,0.038-0.003,0.063l0,0c0.033-0.039,0.082-0.054,0.141-0.041c0.09,0.02,0.147,0.108,0.132,0.217
				c-0.018,0.13-0.11,0.176-0.196,0.157c-0.048-0.011-0.089-0.042-0.105-0.083c0,0,0,0.001-0.001,0
				c-0.011,0.079-0.017,0.12-0.028,0.198c-0.026-0.006-0.041-0.011-0.067-0.017C-9.904-12.336-9.893-12.413-9.872-12.569z
				 M-9.819-12.458c-0.001,0.011-0.001,0.019,0,0.027c0.004,0.048,0.042,0.088,0.089,0.099c0.071,0.015,0.118-0.032,0.13-0.115
				c0.01-0.071-0.02-0.143-0.09-0.158c-0.045-0.01-0.091,0.018-0.11,0.059c-0.003,0.007-0.009,0.02-0.01,0.027
				C-9.814-12.495-9.816-12.483-9.819-12.458z"/>
			<path d="M-9.44-12.479c0.006-0.043,0.01-0.08,0.012-0.114c0.023,0.005,0.036,0.007,0.06,0.013
				c-0.002,0.029-0.005,0.043-0.008,0.072c0.001,0,0.002,0,0.003,0c0.024-0.045,0.069-0.067,0.113-0.058
				c0.007,0.001,0.012,0.004,0.018,0.006c-0.003,0.025-0.004,0.038-0.008,0.062c-0.007-0.002-0.014-0.004-0.024-0.007
				c-0.046-0.01-0.087,0.02-0.101,0.064c-0.002,0.008-0.004,0.02-0.006,0.03c-0.011,0.077-0.017,0.115-0.028,0.192
				c-0.027-0.006-0.04-0.008-0.067-0.014C-9.461-12.331-9.454-12.38-9.44-12.479z"/>
			<path d="M-8.877-12.29c-0.019,0.133-0.123,0.17-0.21,0.151c-0.098-0.022-0.164-0.109-0.148-0.223
				c0.017-0.12,0.106-0.173,0.207-0.151C-8.922-12.49-8.861-12.4-8.877-12.29z M-9.168-12.351c-0.011,0.079,0.026,0.15,0.091,0.165
				c0.064,0.014,0.121-0.034,0.132-0.115c0.009-0.061-0.012-0.146-0.09-0.163C-9.114-12.482-9.159-12.418-9.168-12.351z"/>
			<path d="M-8.926-12.003c0.031,0.004,0.059,0.002,0.076-0.012c0.022-0.017,0.035-0.043,0.048-0.129
				c0.018-0.122,0.026-0.182,0.043-0.303c0.026,0.006,0.04,0.009,0.066,0.015c-0.018,0.132-0.028,0.197-0.048,0.329
				c-0.011,0.07-0.029,0.113-0.066,0.139c-0.035,0.023-0.084,0.025-0.119,0.017C-8.926-11.97-8.926-11.981-8.926-12.003z
				 M-8.67-12.532c-0.002,0.022-0.021,0.037-0.05,0.03c-0.024-0.005-0.036-0.026-0.033-0.048c0.003-0.023,0.023-0.039,0.048-0.033
				C-8.68-12.577-8.667-12.555-8.67-12.532z"/>
			<path d="M-8.574-12.208c-0.011,0.089,0.038,0.137,0.105,0.152c0.047,0.01,0.08,0.008,0.106,0.003
				c0.001,0.02,0.001,0.031,0.003,0.051c-0.025,0.006-0.066,0.01-0.125-0.003c-0.113-0.024-0.167-0.112-0.151-0.222
				c0.016-0.109,0.092-0.181,0.198-0.158c0.12,0.026,0.137,0.137,0.127,0.204c-0.002,0.013-0.006,0.022-0.008,0.03
				C-8.42-12.174-8.471-12.186-8.574-12.208z M-8.371-12.214c0.007-0.041-0.002-0.108-0.077-0.125
				c-0.069-0.015-0.105,0.04-0.118,0.083C-8.487-12.239-8.449-12.231-8.371-12.214z"/>
			<path d="M-7.995-11.919c-0.019,0.005-0.059,0.007-0.108-0.004c-0.11-0.024-0.171-0.112-0.154-0.223
				c0.017-0.111,0.105-0.176,0.226-0.15c0.039,0.008,0.071,0.025,0.088,0.039c-0.009,0.019-0.013,0.029-0.022,0.048
				c-0.013-0.012-0.037-0.028-0.073-0.035c-0.085-0.019-0.14,0.034-0.151,0.108c-0.013,0.083,0.034,0.146,0.107,0.163
				c0.038,0.008,0.063,0.005,0.083,0.001C-7.998-11.951-7.996-11.94-7.995-11.919z"/>
			<path d="M-7.761-12.319c-0.005,0.035-0.006,0.053-0.011,0.087c0.038,0.008,0.058,0.014,0.095,0.022
				c-0.003,0.02-0.005,0.028-0.008,0.048c-0.038-0.008-0.058-0.012-0.096-0.02c-0.011,0.078-0.017,0.116-0.029,0.194
				c-0.007,0.045,0,0.072,0.036,0.08c0.019,0.004,0.032,0.004,0.042,0.004c-0.002,0.021-0.005,0.031-0.007,0.051
				c-0.013,0.001-0.033,0.002-0.06-0.003c-0.03-0.007-0.052-0.022-0.065-0.043c-0.015-0.024-0.017-0.058-0.01-0.1
				c0.013-0.079,0.017-0.119,0.029-0.198c-0.023-0.005-0.035-0.007-0.058-0.012c0.003-0.02,0.004-0.029,0.007-0.049
				c0.023,0.005,0.036,0.006,0.059,0.011c0.004-0.027,0.005-0.039,0.009-0.066C-7.801-12.314-7.788-12.317-7.761-12.319z"/>
			<path d="M-7.721-11.751c0.024-0.042,0.059-0.116,0.075-0.168c0.03,0.003,0.045,0.005,0.076,0.008
				c-0.029,0.06-0.076,0.134-0.103,0.165C-7.691-11.749-7.702-11.75-7.721-11.751z"/>
			<path d="M-18.408-13.433c-0.008,0.089,0.044,0.138,0.112,0.153c0.047,0.011,0.079,0.008,0.104,0.003
				c0.002,0.02,0.004,0.029,0.006,0.049c-0.024,0.006-0.068,0.008-0.125-0.005c-0.113-0.025-0.172-0.113-0.16-0.222
				c0.013-0.109,0.089-0.178,0.196-0.155c0.12,0.026,0.14,0.136,0.132,0.202c-0.001,0.013-0.005,0.023-0.007,0.03
				C-18.253-13.399-18.304-13.41-18.408-13.433z M-18.208-13.438c0.006-0.04-0.005-0.108-0.08-0.125
				c-0.069-0.015-0.104,0.039-0.115,0.083C-18.324-13.463-18.286-13.455-18.208-13.438z"/>
			<path d="M-18.084-13.259c0.019,0.016,0.053,0.039,0.085,0.046c0.047,0.01,0.074-0.008,0.077-0.039
				c0.004-0.032-0.014-0.053-0.06-0.082c-0.063-0.039-0.091-0.08-0.086-0.124c0.007-0.059,0.061-0.095,0.139-0.078
				c0.038,0.008,0.069,0.025,0.087,0.042c-0.008,0.018-0.013,0.024-0.022,0.042c-0.014-0.012-0.04-0.029-0.074-0.036
				c-0.038-0.008-0.062,0.008-0.065,0.035c-0.003,0.03,0.016,0.05,0.062,0.079c0.059,0.037,0.09,0.075,0.084,0.128
				c-0.008,0.064-0.064,0.099-0.149,0.08c-0.041-0.009-0.078-0.027-0.102-0.047C-18.097-13.229-18.093-13.241-18.084-13.259z"/>
			<path d="M-17.752-13.368c0.006-0.046,0.005-0.083,0.009-0.118c0.024,0.005,0.036,0.007,0.06,0.013
				c-0.001,0.025-0.001,0.038-0.002,0.063v0c0.032-0.038,0.08-0.053,0.139-0.04c0.09,0.02,0.149,0.108,0.136,0.217
				c-0.016,0.129-0.105,0.175-0.191,0.157c-0.048-0.011-0.09-0.04-0.106-0.081c0,0-0.001-0.001,0,0
				c-0.01,0.079-0.016,0.117-0.026,0.195c-0.026-0.006-0.039-0.007-0.065-0.013C-17.78-13.132-17.77-13.211-17.752-13.368z
				 M-17.698-13.257c-0.001,0.01-0.001,0.02,0,0.028c0.006,0.049,0.043,0.088,0.091,0.098c0.071,0.015,0.118-0.031,0.128-0.114
				c0.008-0.072-0.023-0.144-0.093-0.159c-0.045-0.01-0.093,0.019-0.111,0.061c-0.003,0.007-0.005,0.015-0.006,0.023
				C-17.692-13.294-17.695-13.282-17.698-13.257z"/>
			<path d="M-17.292-13.189c-0.009,0.089,0.043,0.138,0.111,0.153c0.047,0.01,0.08,0.008,0.105,0.003
				c0.002,0.02,0.003,0.03,0.005,0.05c-0.025,0.005-0.068,0.009-0.126-0.003c-0.114-0.025-0.169-0.113-0.157-0.223
				c0.013-0.109,0.085-0.18,0.192-0.156c0.121,0.026,0.142,0.136,0.134,0.203c-0.001,0.013-0.003,0.022-0.006,0.029
				C-17.137-13.156-17.189-13.167-17.292-13.189z M-17.091-13.193c0.006-0.04-0.004-0.11-0.078-0.127
				c-0.069-0.015-0.106,0.04-0.117,0.083C-17.208-13.22-17.169-13.21-17.091-13.193z"/>
			<path d="M-16.706-12.902c-0.018,0.005-0.059,0.009-0.108-0.001c-0.111-0.024-0.172-0.114-0.159-0.225
				c0.014-0.111,0.099-0.175,0.219-0.149c0.039,0.008,0.075,0.024,0.091,0.039c-0.008,0.019-0.013,0.028-0.021,0.047
				c-0.016-0.011-0.04-0.026-0.075-0.034c-0.084-0.019-0.139,0.034-0.148,0.109c-0.01,0.083,0.038,0.147,0.111,0.163
				c0.039,0.008,0.064,0.003,0.085,0C-16.708-12.933-16.708-12.922-16.706-12.902z"/>
			<path d="M-16.628-12.872c0.019-0.145,0.027-0.217,0.044-0.362c0.027,0.006,0.041,0.009,0.067,0.015
				c-0.017,0.145-0.026,0.217-0.045,0.362C-16.589-12.862-16.602-12.866-16.628-12.872z M-16.497-13.32
				c-0.002,0.023-0.021,0.039-0.048,0.033c-0.024-0.005-0.039-0.026-0.036-0.049c0.003-0.022,0.021-0.037,0.045-0.032
				C-16.511-13.363-16.495-13.343-16.497-13.32z"/>
			<path d="M-16.182-12.862c-0.004,0.031-0.007,0.062-0.006,0.087c-0.024-0.005-0.036-0.009-0.06-0.014
				c0-0.019,0.001-0.028,0.001-0.046c-0.001,0-0.003,0.001-0.001,0c-0.024,0.024-0.068,0.04-0.12,0.029
				c-0.074-0.017-0.107-0.076-0.101-0.128c0.011-0.087,0.098-0.118,0.239-0.086c0-0.003,0-0.004,0.001-0.007
				c0.003-0.029,0.002-0.086-0.073-0.101c-0.036-0.008-0.072-0.005-0.099,0.007c-0.004-0.019-0.005-0.028-0.01-0.047
				c0.032-0.012,0.077-0.016,0.125-0.005c0.113,0.024,0.13,0.105,0.122,0.177C-16.171-12.944-16.175-12.917-16.182-12.862z
				 M-16.234-12.976c-0.072-0.017-0.157-0.022-0.167,0.048c-0.005,0.044,0.022,0.069,0.055,0.076
				c0.048,0.011,0.084-0.011,0.098-0.04c0.002-0.007,0.004-0.014,0.005-0.021C-16.24-12.937-16.237-12.951-16.234-12.976z"/>
			<path d="M-16.018-13.283c0.027,0.006,0.039,0.01,0.066,0.016c-0.025,0.212-0.037,0.316-0.065,0.528
				c-0.027-0.006-0.041-0.008-0.067-0.014C-16.057-12.965-16.043-13.071-16.018-13.283z"/>
			<path d="M-15.838-13.244c0.027,0.006,0.04,0.01,0.067,0.016c-0.025,0.212-0.038,0.318-0.067,0.53
				c-0.027-0.006-0.04-0.009-0.066-0.015C-15.876-12.925-15.863-13.032-15.838-13.244z"/>
			<path d="M-15.656-13.032c0.021,0.092,0.032,0.141,0.053,0.233c0.005,0.025,0.012,0.055,0.015,0.077
				c0.002,0,0.002,0.001,0.002,0.001c0.01-0.02,0.021-0.045,0.034-0.07c0.04-0.078,0.059-0.118,0.099-0.196
				c0.028,0.006,0.043,0.01,0.071,0.016c-0.053,0.094-0.08,0.141-0.133,0.235c-0.064,0.113-0.105,0.168-0.157,0.198
				c-0.037,0.021-0.071,0.024-0.088,0.024c-0.003-0.023-0.006-0.035-0.01-0.059c0.018-0.001,0.041-0.007,0.063-0.019
				c0.021-0.011,0.045-0.031,0.066-0.062c0.004-0.007,0.007-0.01,0.008-0.014c0.001-0.004,0-0.01-0.003-0.02
				c-0.036-0.145-0.053-0.217-0.091-0.362C-15.698-13.04-15.686-13.038-15.656-13.032z"/>
			<path d="M-15.101-12.701c-0.03,0.059-0.045,0.09-0.075,0.148c-0.027-0.006-0.042-0.011-0.069-0.017
				c0.098-0.186,0.147-0.278,0.242-0.464c0.031,0.007,0.045,0.009,0.076,0.016c0.045,0.217,0.069,0.327,0.109,0.543
				c-0.028-0.006-0.044-0.011-0.072-0.017c-0.013-0.068-0.018-0.102-0.031-0.169C-14.993-12.677-15.029-12.686-15.101-12.701z
				 M-14.927-12.715c-0.013-0.062-0.018-0.094-0.031-0.156c-0.007-0.034-0.012-0.067-0.017-0.098h-0.001
				c-0.011,0.028-0.022,0.058-0.037,0.085c-0.027,0.054-0.041,0.081-0.068,0.135C-15.019-12.735-14.989-12.729-14.927-12.715z"/>
			<path d="M-14.709-12.723c0.005-0.038,0.007-0.069,0.01-0.099c0.023,0.005,0.034,0.008,0.058,0.014
				c-0.002,0.024-0.003,0.034-0.005,0.058c0.001,0,0.002,0.001,0.003,0.001c0.024-0.03,0.062-0.056,0.124-0.042
				c0.049,0.011,0.084,0.049,0.094,0.095c0.001,0.001,0.001,0.001,0.002,0.001c0.014-0.019,0.03-0.03,0.047-0.039
				c0.024-0.011,0.049-0.015,0.083-0.007c0.049,0.011,0.119,0.059,0.101,0.184c-0.012,0.085-0.019,0.127-0.031,0.212
				c-0.026-0.006-0.04-0.009-0.066-0.015c0.012-0.082,0.018-0.122,0.029-0.204c0.01-0.07-0.01-0.117-0.063-0.128
				c-0.038-0.008-0.07,0.013-0.087,0.042c-0.004,0.009-0.008,0.021-0.01,0.033c-0.012,0.089-0.019,0.134-0.032,0.223
				c-0.025-0.006-0.039-0.009-0.064-0.015c0.013-0.086,0.019-0.129,0.031-0.216c0.008-0.058-0.014-0.104-0.064-0.115
				c-0.041-0.009-0.077,0.016-0.092,0.046c-0.004,0.008-0.008,0.021-0.01,0.032c-0.012,0.087-0.018,0.129-0.031,0.216
				c-0.026-0.005-0.038-0.009-0.064-0.014C-14.731-12.566-14.723-12.618-14.709-12.723z"/>
			<path d="M-14.049-12.679c0.021,0.092,0.03,0.136,0.049,0.229c0.004,0.026,0.011,0.058,0.013,0.081c0,0,0-0.001,0.002-0.001
				c0.01-0.02,0.02-0.045,0.034-0.069c0.041-0.078,0.061-0.118,0.102-0.196c0.028,0.006,0.042,0.009,0.07,0.016
				c-0.054,0.094-0.082,0.142-0.137,0.236c-0.066,0.114-0.109,0.169-0.16,0.198c-0.037,0.021-0.071,0.023-0.087,0.023
				c-0.003-0.023-0.005-0.035-0.009-0.058c0.018-0.001,0.041-0.006,0.063-0.019c0.021-0.011,0.046-0.031,0.067-0.062
				c0.004-0.006,0.009-0.011,0.009-0.015c0.001-0.004-0.001-0.009-0.004-0.018c-0.034-0.145-0.051-0.217-0.087-0.362
				C-14.094-12.689-14.079-12.685-14.049-12.679z"/>
			<path d="M-13.34-12.24c-0.005,0.031-0.009,0.061-0.009,0.086c-0.024-0.005-0.035-0.007-0.059-0.012
				c0.001-0.019,0.001-0.028,0.002-0.047c0,0-0.001,0-0.002-0.001c-0.025,0.023-0.066,0.041-0.12,0.029
				c-0.074-0.017-0.104-0.076-0.096-0.129c0.013-0.087,0.098-0.117,0.24-0.085c0-0.003,0-0.005,0.001-0.008
				c0.004-0.029,0.004-0.085-0.071-0.1c-0.035-0.008-0.071-0.006-0.099,0.005c-0.004-0.019-0.007-0.028-0.011-0.047
				c0.034-0.012,0.08-0.015,0.126-0.004c0.112,0.024,0.128,0.104,0.118,0.176C-13.327-12.323-13.332-12.294-13.34-12.24z
				 M-13.389-12.354c-0.072-0.018-0.157-0.023-0.168,0.047c-0.006,0.044,0.021,0.07,0.054,0.077c0.048,0.011,0.086-0.012,0.099-0.04
				c0.003-0.006,0.005-0.014,0.006-0.02C-13.395-12.314-13.392-12.329-13.389-12.354z"/>
			<path d="M-13.205-12.396c0.006-0.037,0.008-0.067,0.011-0.097c0.023,0.005,0.036,0.006,0.06,0.011
				c-0.002,0.024-0.004,0.038-0.006,0.062l0.002,0c0.023-0.03,0.07-0.053,0.13-0.04c0.051,0.011,0.126,0.058,0.107,0.181
				c-0.013,0.086-0.019,0.128-0.033,0.214c-0.027-0.006-0.041-0.008-0.067-0.014c0.014-0.083,0.02-0.125,0.032-0.208
				c0.008-0.059-0.006-0.112-0.069-0.125c-0.043-0.01-0.081,0.014-0.099,0.047c-0.004,0.007-0.007,0.02-0.009,0.03
				c-0.013,0.087-0.019,0.129-0.033,0.216c-0.027-0.006-0.042-0.008-0.069-0.014C-13.23-12.236-13.22-12.29-13.205-12.396z"/>
			<path d="M-12.431-12.501c-0.024,0.175-0.038,0.264-0.067,0.438c-0.005,0.032-0.011,0.067-0.013,0.093
				c-0.023-0.005-0.035-0.007-0.058-0.013c0.003-0.025,0.004-0.038,0.007-0.063c0,0,0,0,0,0c-0.027,0.035-0.076,0.055-0.136,0.042
				c-0.087-0.019-0.142-0.106-0.126-0.215c0.018-0.121,0.104-0.178,0.191-0.159c0.057,0.013,0.09,0.048,0.103,0.08
				c0,0,0.001-0.001,0.001-0.001c0.013-0.086,0.019-0.129,0.031-0.215C-12.471-12.508-12.457-12.507-12.431-12.501z M-12.543-12.198
				c0.001-0.008,0.002-0.021,0.001-0.03c-0.003-0.042-0.036-0.084-0.086-0.095c-0.069-0.015-0.117,0.036-0.129,0.114
				c-0.012,0.073,0.017,0.142,0.087,0.157c0.044,0.01,0.088-0.011,0.109-0.057c0.003-0.009,0.005-0.016,0.007-0.026
				C-12.55-12.16-12.547-12.173-12.543-12.198z"/>
			<path d="M-12.184-11.897c-0.017-0.212-0.027-0.32-0.05-0.532c0.028,0.006,0.043,0.01,0.071,0.017
				c0.009,0.107,0.013,0.161,0.021,0.268c0.006,0.065,0.009,0.131,0.009,0.181c0,0,0.001,0,0.003,0.001
				c0.017-0.048,0.042-0.105,0.07-0.166c0.043-0.096,0.063-0.144,0.105-0.239c0.027,0.006,0.042,0.01,0.07,0.016
				c0.01,0.107,0.014,0.161,0.022,0.269c0.005,0.062,0.008,0.125,0.007,0.18l0,0c0.02-0.053,0.045-0.107,0.071-0.165
				c0.043-0.096,0.064-0.142,0.106-0.237c0.027,0.006,0.04,0.01,0.067,0.016c-0.088,0.188-0.132,0.281-0.226,0.469
				c-0.027-0.006-0.041-0.01-0.068-0.017c-0.007-0.11-0.012-0.163-0.021-0.273c-0.005-0.068-0.009-0.12-0.007-0.172
				c0,0-0.001,0-0.001,0c-0.017,0.048-0.036,0.094-0.066,0.155c-0.045,0.098-0.068,0.148-0.115,0.246
				C-12.143-11.889-12.156-11.892-12.184-11.897z"/>
			<path d="M-11.643-11.78c0.026-0.144,0.037-0.216,0.06-0.36c0.027,0.006,0.041,0.008,0.067,0.014
				c-0.023,0.145-0.036,0.217-0.062,0.361C-11.604-11.771-11.617-11.774-11.643-11.78z M-11.492-12.226
				c-0.003,0.023-0.022,0.039-0.049,0.033c-0.023-0.005-0.039-0.027-0.035-0.05c0.003-0.022,0.024-0.037,0.047-0.032
				C-11.504-12.27-11.489-12.249-11.492-12.226z"/>
			<path d="M-11.379-12.27c0.027,0.006,0.041,0.009,0.068,0.015c-0.032,0.211-0.05,0.318-0.089,0.529
				c-0.026-0.006-0.041-0.009-0.067-0.015C-11.429-11.952-11.411-12.058-11.379-12.27z"/>
			<path d="M-11.201-12.23c0.026,0.006,0.041,0.009,0.067,0.015c-0.032,0.212-0.051,0.316-0.09,0.528
				c-0.026-0.006-0.039-0.009-0.065-0.015C-11.25-11.914-11.233-12.019-11.201-12.23z"/>
			<path d="M-11.128-11.706c0.005-0.027,0.026-0.043,0.054-0.037c0.025,0.006,0.041,0.03,0.035,0.058
				c-0.005,0.027-0.026,0.042-0.054,0.036C-11.119-11.655-11.133-11.679-11.128-11.706z"/>
			<path d="M-18.477-12.514c-0.031,0.059-0.045,0.087-0.077,0.146c-0.027-0.006-0.041-0.009-0.068-0.015
				c0.101-0.186,0.149-0.279,0.246-0.465c0.031,0.007,0.048,0.01,0.08,0.017c0.043,0.216,0.062,0.327,0.099,0.543
				c-0.028-0.006-0.042-0.011-0.069-0.017c-0.012-0.068-0.019-0.102-0.031-0.17C-18.37-12.49-18.405-12.499-18.477-12.514z
				 M-18.301-12.528c-0.012-0.062-0.018-0.093-0.029-0.156c-0.008-0.035-0.012-0.068-0.015-0.098h-0.001
				c-0.012,0.027-0.024,0.057-0.039,0.085c-0.028,0.054-0.04,0.082-0.068,0.136C-18.392-12.548-18.362-12.542-18.301-12.528z"/>
			<path d="M-18.047-12.804c0.027,0.006,0.039,0.01,0.065,0.016c-0.028,0.212-0.042,0.317-0.076,0.529
				c-0.027-0.006-0.039-0.008-0.065-0.014C-18.089-12.484-18.076-12.592-18.047-12.804z"/>
			<path d="M-17.943-12.302c0.018,0.016,0.05,0.036,0.082,0.043c0.047,0.01,0.075-0.007,0.08-0.038
				c0.005-0.032-0.013-0.053-0.058-0.081c-0.062-0.039-0.088-0.08-0.082-0.124c0.009-0.058,0.062-0.095,0.141-0.078
				c0.037,0.008,0.068,0.024,0.085,0.041c-0.009,0.018-0.011,0.028-0.02,0.046c-0.012-0.012-0.04-0.032-0.074-0.039
				c-0.04-0.009-0.062,0.01-0.067,0.037c-0.004,0.03,0.014,0.049,0.059,0.078c0.058,0.037,0.088,0.075,0.08,0.128
				c-0.01,0.063-0.067,0.098-0.152,0.079c-0.04-0.008-0.076-0.027-0.1-0.047C-17.959-12.275-17.953-12.284-17.943-12.302z"/>
			<path d="M-17.288-12.28c-0.021,0.133-0.125,0.171-0.214,0.152c-0.098-0.021-0.162-0.11-0.144-0.224
				c0.019-0.12,0.109-0.173,0.209-0.151C-17.331-12.48-17.271-12.39-17.288-12.28z M-17.578-12.34
				c-0.013,0.079,0.024,0.149,0.088,0.164c0.064,0.014,0.12-0.034,0.133-0.116c0.01-0.062-0.01-0.146-0.088-0.163
				C-17.523-12.472-17.568-12.408-17.578-12.34z"/>
			<path d="M-17.312-11.998c0.023-0.041,0.061-0.117,0.077-0.169c0.03,0.003,0.045,0.005,0.075,0.008
				c-0.029,0.059-0.077,0.135-0.104,0.166C-17.281-11.996-17.293-11.996-17.312-11.998z"/>
			<path d="M-16.469-12.139c0.007-0.07,0.016-0.156,0.025-0.219c0-0.001,0,0-0.001,0c-0.026,0.054-0.057,0.113-0.092,0.178
				c-0.052,0.09-0.079,0.134-0.133,0.224c-0.02-0.004-0.03-0.006-0.05-0.011c-0.016-0.104-0.023-0.155-0.041-0.258
				c-0.013-0.077-0.022-0.146-0.027-0.208c-0.002,0.001-0.002-0.002-0.003-0.001c-0.01,0.062-0.027,0.146-0.044,0.221
				c-0.02,0.085-0.03,0.128-0.051,0.214c-0.025-0.005-0.037-0.009-0.062-0.014c0.049-0.198,0.073-0.297,0.117-0.495
				c0.034,0.007,0.049,0.011,0.083,0.018c0.021,0.105,0.031,0.158,0.05,0.263c0.009,0.067,0.018,0.125,0.022,0.179v0.001
				c0.021-0.048,0.051-0.101,0.085-0.159c0.051-0.089,0.076-0.133,0.126-0.223c0.034,0.007,0.051,0.011,0.085,0.018
				c-0.017,0.204-0.027,0.307-0.051,0.511c-0.026-0.006-0.04-0.009-0.066-0.015C-16.485-12.005-16.479-12.049-16.469-12.139z"/>
			<path d="M-16.056-11.908c-0.005,0.031-0.009,0.062-0.01,0.087c-0.024-0.005-0.037-0.007-0.061-0.012
				c0.001-0.019,0.001-0.028,0.003-0.046c0,0-0.001,0-0.001-0.001c-0.025,0.023-0.069,0.041-0.122,0.029
				c-0.073-0.017-0.1-0.076-0.091-0.128c0.015-0.087,0.102-0.118,0.242-0.086c0-0.003,0.001-0.005,0.001-0.008
				c0.005-0.029,0.006-0.084-0.069-0.1c-0.034-0.007-0.073-0.005-0.1,0.006c-0.003-0.019-0.005-0.029-0.008-0.048
				c0.032-0.012,0.08-0.015,0.126-0.005c0.112,0.025,0.126,0.106,0.114,0.177C-16.041-11.99-16.046-11.962-16.056-11.908z
				 M-16.104-12.02c-0.071-0.017-0.154-0.022-0.167,0.047c-0.008,0.043,0.018,0.069,0.05,0.076c0.048,0.011,0.088-0.014,0.101-0.041
				c0.003-0.006,0.003-0.013,0.005-0.02C-16.11-11.982-16.108-11.995-16.104-12.02z"/>
			<path d="M-15.92-12.047c0.007-0.042,0.012-0.079,0.016-0.113c0.023,0.005,0.035,0.007,0.058,0.012
				c-0.003,0.029-0.006,0.044-0.009,0.073c0.001,0,0.002,0,0.003,0c0.025-0.045,0.071-0.067,0.115-0.057
				c0.007,0.001,0.012,0.004,0.018,0.005c-0.004,0.025-0.007,0.038-0.011,0.062c-0.006-0.002-0.013-0.004-0.022-0.007
				c-0.046-0.01-0.088,0.019-0.103,0.064c-0.002,0.008-0.006,0.02-0.008,0.03c-0.013,0.077-0.019,0.115-0.033,0.192
				c-0.026-0.006-0.042-0.009-0.068-0.015C-15.946-11.898-15.937-11.947-15.92-12.047z"/>
			<path d="M-15.614-11.924c0.001,0,0.001,0,0.002,0c0.01-0.01,0.025-0.025,0.038-0.035c0.052-0.04,0.077-0.059,0.128-0.1
				c0.032,0.007,0.048,0.009,0.08,0.016c-0.066,0.047-0.101,0.072-0.167,0.119c0.049,0.099,0.075,0.148,0.122,0.247
				c-0.032-0.007-0.048-0.011-0.08-0.018c-0.037-0.08-0.056-0.12-0.093-0.2c-0.016,0.012-0.024,0.018-0.04,0.03
				c-0.01,0.054-0.015,0.081-0.025,0.135c-0.026-0.006-0.04-0.007-0.066-0.013c0.04-0.212,0.059-0.319,0.092-0.531
				c0.026,0.006,0.039,0.009,0.065,0.015C-15.58-12.125-15.591-12.058-15.614-11.924z"/>
			<path d="M-15.201-11.699c0.017,0.016,0.051,0.037,0.083,0.043c0.047,0.01,0.075-0.007,0.081-0.037
				c0.006-0.032-0.01-0.051-0.055-0.08c-0.062-0.039-0.086-0.082-0.078-0.125c0.01-0.058,0.066-0.096,0.144-0.079
				c0.037,0.008,0.067,0.026,0.084,0.043c-0.009,0.018-0.014,0.026-0.024,0.044c-0.013-0.012-0.037-0.03-0.071-0.037
				c-0.038-0.008-0.063,0.009-0.068,0.036c-0.005,0.03,0.013,0.047,0.057,0.075c0.057,0.037,0.085,0.076,0.075,0.129
				c-0.012,0.063-0.071,0.099-0.155,0.08c-0.04-0.009-0.074-0.029-0.096-0.049C-15.215-11.672-15.211-11.681-15.201-11.699z"/>
			<path d="M-14.585-11.599c-0.008,0.039-0.014,0.072-0.017,0.101c-0.023-0.005-0.036-0.008-0.059-0.014
				c0.003-0.024,0.004-0.036,0.007-0.06c0,0,0,0.001-0.001,0.001c-0.021,0.025-0.068,0.055-0.132,0.04
				c-0.057-0.013-0.118-0.059-0.094-0.185c0.016-0.084,0.024-0.127,0.039-0.211c0.026,0.006,0.038,0.008,0.064,0.014
				c-0.014,0.08-0.021,0.119-0.036,0.199c-0.013,0.069,0,0.121,0.059,0.134c0.044,0.01,0.081-0.014,0.098-0.041
				c0.005-0.008,0.011-0.02,0.013-0.033c0.017-0.088,0.026-0.133,0.042-0.221c0.026,0.006,0.038,0.009,0.063,0.015
				C-14.556-11.755-14.564-11.703-14.585-11.599z"/>
			<path d="M-14.234-11.429c-0.019,0.004-0.06,0.008-0.11-0.003c-0.109-0.024-0.164-0.114-0.142-0.225s0.11-0.175,0.229-0.149
				c0.038,0.009,0.072,0.027,0.089,0.041c-0.01,0.019-0.014,0.027-0.024,0.046c-0.015-0.011-0.037-0.026-0.073-0.034
				c-0.083-0.018-0.141,0.034-0.155,0.107c-0.016,0.083,0.027,0.146,0.098,0.162c0.039,0.008,0.064,0.005,0.085,0.001
				C-14.235-11.461-14.234-11.449-14.234-11.429z"/>
			<path d="M-14.055-11.58c0.002-0.001,0.001,0,0.002,0c0.011-0.01,0.025-0.025,0.038-0.035c0.053-0.04,0.08-0.059,0.132-0.1
				c0.032,0.007,0.046,0.01,0.078,0.017c-0.067,0.047-0.101,0.071-0.168,0.118c0.047,0.099,0.071,0.148,0.116,0.247
				c-0.032-0.007-0.047-0.01-0.08-0.017c-0.035-0.08-0.053-0.121-0.089-0.201c-0.016,0.012-0.026,0.018-0.042,0.03
				c-0.011,0.054-0.016,0.081-0.027,0.135c-0.026-0.006-0.04-0.009-0.066-0.015c0.045-0.212,0.064-0.316,0.102-0.528
				c0.026,0.006,0.041,0.009,0.067,0.015C-14.016-11.78-14.028-11.714-14.055-11.58z"/>
			<path d="M-13.804-11.389c0.017,0.016,0.05,0.036,0.082,0.043c0.047,0.01,0.075-0.006,0.082-0.037
				c0.006-0.032-0.01-0.053-0.054-0.081c-0.06-0.039-0.085-0.082-0.077-0.125c0.012-0.058,0.069-0.094,0.147-0.077
				c0.036,0.008,0.066,0.025,0.083,0.042c-0.01,0.018-0.014,0.025-0.024,0.043c-0.012-0.012-0.038-0.029-0.071-0.036
				c-0.039-0.009-0.064,0.008-0.069,0.035c-0.005,0.03,0.012,0.05,0.055,0.078c0.056,0.037,0.084,0.076,0.073,0.129
				c-0.014,0.063-0.072,0.097-0.158,0.079c-0.039-0.008-0.073-0.028-0.096-0.048C-13.819-11.363-13.814-11.371-13.804-11.389z"/>
			<path d="M-13.529-11.301c0.006-0.027,0.028-0.042,0.055-0.036c0.025,0.006,0.04,0.028,0.033,0.057
				c-0.006,0.026-0.028,0.041-0.056,0.035C-13.522-11.251-13.535-11.274-13.529-11.301z"/>
		</g>
	</g>
	<g>
		
			<linearGradient id="SVGID_18_" gradientUnits="userSpaceOnUse" x1="-30.8975" y1="11.7651" x2="-30.8975" y2="-32.4984" gradientTransform="matrix(1 0 0.1763 1 19.2647 0)">
			<stop  offset="0.0982" style="stop-color:#5B2400"/>
			<stop  offset="0.8221" style="stop-color:#EEA43D"/>
			<stop  offset="1" style="stop-color:#FBB040"/>
		</linearGradient>
		<path fill="url(#SVGID_18_)" d="M-24.562-2.633C-24.751-2.285-24.582-2-24.186-2h16.519c0.396,0,0.874-0.285,1.063-0.633
			l5.26-9.695c0.189-0.348,0.02-0.633-0.376-0.633h-0.024c-0.396,0-0.872-0.142-1.058-0.314c-0.186-0.173-0.662-0.315-1.058-0.315
			h-2.828c-0.396,0-1.014,0.136-1.373,0.302l-0.055,0.025c-0.359,0.167-0.978,0.302-1.373,0.302h-8.748
			c-0.396,0-0.875,0.285-1.063,0.633L-24.562-2.633z"/>
		<path fill="none" stroke="#673C30" stroke-width="0.25" d="M-24.562-2.633C-24.751-2.285-24.582-2-24.186-2h16.519
			c0.396,0,0.874-0.285,1.063-0.633l5.26-9.695c0.189-0.348,0.02-0.633-0.376-0.633h-0.024c-0.396,0-0.872-0.142-1.058-0.314
			c-0.186-0.173-0.662-0.315-1.058-0.315h-2.828c-0.396,0-1.014,0.136-1.373,0.302l-0.055,0.025
			c-0.359,0.167-0.978,0.302-1.373,0.302h-8.748c-0.396,0-0.875,0.285-1.063,0.633L-24.562-2.633z"/>
	</g>
</g>
<g>
	<g>
		<radialGradient id="SVGID_19_" cx="9.228" cy="10.1421" r="21.297" gradientUnits="userSpaceOnUse">
			<stop  offset="0.0061" style="stop-color:#FFC40C"/>
			<stop  offset="0.054" style="stop-color:#F8BD11"/>
			<stop  offset="0.1108" style="stop-color:#EBB01A"/>
			<stop  offset="0.172" style="stop-color:#D69B22"/>
			<stop  offset="0.2365" style="stop-color:#B97F26"/>
			<stop  offset="0.3035" style="stop-color:#965E23"/>
			<stop  offset="0.3717" style="stop-color:#6F3B18"/>
			<stop  offset="0.3742" style="stop-color:#6E3A17"/>
			<stop  offset="0.5583" style="stop-color:#150100"/>
		</radialGradient>
		<path fill="url(#SVGID_19_)" d="M18.506,12.858c0,3.501-2.838,6.336-6.333,6.336c-3.501,0-6.338-2.835-6.338-6.336
			c0-3.498,2.837-6.337,6.338-6.337C15.668,6.521,18.506,9.36,18.506,12.858z"/>
		<radialGradient id="SVGID_20_" cx="10.2837" cy="12.0049" r="3.0432" gradientUnits="userSpaceOnUse">
			<stop  offset="0.2331" style="stop-color:#FFFFFF"/>
			<stop  offset="0.7481" style="stop-color:#FFFFFF;stop-opacity:0"/>
		</radialGradient>
		<circle opacity="0.63" fill="url(#SVGID_20_)" cx="10.284" cy="12.004" r="3.042"/>
	</g>
	<polygon fill="none" stroke="#FBB040" stroke-width="0.5" points="2,6.37 2,18.446 12.028,24.308 22.34,18.305 22.34,6.439 
		12.1,0.576 	"/>
	<polygon opacity="0.4" fill="#FBB040" points="2,6.474 2,18.553 12.028,24.415 22.34,18.409 22.34,6.544 12.1,0.683 	"/>
	<g>
		<polyline fill="none" stroke="#FBB040" stroke-width="0.5" points="2,6.37 12.1,12.09 22.34,6.439 		"/>
		<line fill="none" stroke="#FBB040" stroke-width="0.5" x1="12.028" y1="24.308" x2="12.028" y2="12.09"/>
	</g>
</g>
</svg>
