<?xml version="1.0" encoding="UTF-8" standalone="no"?>
<!-- Generator: Adobe Illustrator 9.0, SVG Export Plug-In  -->
<svg
   xmlns:dc="http://purl.org/dc/elements/1.1/"
   xmlns:cc="http://web.resource.org/cc/"
   xmlns:rdf="http://www.w3.org/1999/02/22-rdf-syntax-ns#"
   xmlns:svg="http://www.w3.org/2000/svg"
   xmlns="http://www.w3.org/2000/svg"
   xmlns:xlink="http://www.w3.org/1999/xlink"
   xmlns:sodipodi="http://sodipodi.sourceforge.net/DTD/sodipodi-0.dtd"
   xmlns:inkscape="http://www.inkscape.org/namespaces/inkscape"
   width="48.000000px"
   height="48.000000px"
   xml:space="preserve"
   id="svg16168"
   sodipodi:version="0.32"
   inkscape:version="0.45.1"
   sodipodi:docname="Image.svg"
   sodipodi:docbase="C:\Documents and Settings\David\My Documents\Work\VSE\WorldBuilder\WorldBuilder\Interface\Images\Icons"
   inkscape:output_extension="org.inkscape.output.svg.inkscape"><metadata
   id="metadata16236">
  <rdf:RDF>
    <cc:Work
   rdf:about="">
      <dc:format>image/svg+xml</dc:format>



      <dc:type
   rdf:resource="http://purl.org/dc/dcmitype/StillImage" />



    <dc:title>Genric Image</dc:title>
<dc:creator>
  <cc:Agent>
    <dc:title>Jakub Steiner</dc:title>
  </cc:Agent>
</dc:creator>
<dc:subject>
  <rdf:Bag><rdf:li>image</rdf:li><rdf:li>picture</rdf:li><rdf:li>snapshot</rdf:li><rdf:li>photo</rdf:li></rdf:Bag>
</dc:subject>
<cc:license
   rdf:resource="http://creativecommons.org/licenses/by-sa/2.0/" />
</cc:Work>



  
<cc:License
   rdf:about="http://creativecommons.org/licenses/by/2.0/"><cc:permits
     rdf:resource="http://web.resource.org/cc/Reproduction" /><cc:permits
     rdf:resource="http://web.resource.org/cc/Distribution" /><cc:requires
     rdf:resource="http://web.resource.org/cc/Notice" /><cc:requires
     rdf:resource="http://web.resource.org/cc/Attribution" /><cc:permits
     rdf:resource="http://web.resource.org/cc/DerivativeWorks" /><cc:requires
     rdf:resource="http://web.resource.org/cc/ShareAlike" /></cc:License></rdf:RDF>



</metadata>



<defs
   id="defs16234"><linearGradient
   inkscape:collect="always"
   id="linearGradient5060"><stop
     style="stop-color:black;stop-opacity:1;"
     offset="0"
     id="stop5062" /><stop
     style="stop-color:black;stop-opacity:0;"
     offset="1"
     id="stop5064" /></linearGradient><linearGradient
   id="linearGradient5048"><stop
     style="stop-color:black;stop-opacity:0;"
     offset="0"
     id="stop5050" /><stop
     id="stop5056"
     offset="0.5"
     style="stop-color:black;stop-opacity:1;" /><stop
     style="stop-color:black;stop-opacity:0;"
     offset="1"
     id="stop5052" /></linearGradient><linearGradient
   id="linearGradient8171"><stop
     style="stop-color:#bbbdba;stop-opacity:1;"
     offset="0"
     id="stop8173" /><stop
     style="stop-color:#70746e;stop-opacity:1;"
     offset="1"
     id="stop8175" /></linearGradient><linearGradient
   inkscape:collect="always"
   id="linearGradient8155"><stop
     style="stop-color:#ffffff;stop-opacity:1;"
     offset="0"
     id="stop8157" /><stop
     style="stop-color:#ffffff;stop-opacity:0;"
     offset="1"
     id="stop8159" /></linearGradient><linearGradient
   id="linearGradient2224"><stop
     style="stop-color:#7c7c7c;stop-opacity:1;"
     offset="0"
     id="stop2226" /><stop
     style="stop-color:#b8b8b8;stop-opacity:1;"
     offset="1"
     id="stop2228" /></linearGradient><linearGradient
   inkscape:collect="always"
   id="linearGradient2251"><stop
     style="stop-color:#ffffff;stop-opacity:1;"
     offset="0"
     id="stop2253" /><stop
     style="stop-color:#ffffff;stop-opacity:0;"
     offset="1"
     id="stop2255" /></linearGradient><linearGradient
   id="linearGradient7648"
   gradientUnits="userSpaceOnUse"
   x1="21.9326"
   y1="24.6274"
   x2="21.9326"
   y2="7.1091"
   style="stroke-dasharray:none;stroke-miterlimit:4.0000000;stroke-width:1.2166667">
			<stop
   offset="0"
   style="stop-color:#8595bc;stop-opacity:1;"
   id="stop7650" />




			<stop
   offset="1"
   style="stop-color:#041a3b;stop-opacity:1;"
   id="stop7652" />




		</linearGradient><linearGradient
   id="linearGradient2392"><stop
     id="stop2394"
     offset="0.0000000"
     style="stop-color:#715b26;stop-opacity:1.0000000;" /><stop
     id="stop2396"
     offset="1.0000000"
     style="stop-color:#312710;stop-opacity:1.0000000;" /></linearGradient><linearGradient
   inkscape:collect="always"
   id="linearGradient12129"><stop
     style="stop-color:#000000;stop-opacity:1;"
     offset="0"
     id="stop12131" /><stop
     style="stop-color:#000000;stop-opacity:0;"
     offset="1"
     id="stop12133" /></linearGradient>
		
		<linearGradient
   style="stroke-dasharray:none;stroke-miterlimit:4.0000000;stroke-width:1.2166667"
   y2="36.0328"
   x2="31.0813"
   y1="3.7319"
   x1="12.4873"
   gradientUnits="userSpaceOnUse"
   id="aigrd1">
			<stop
   id="stop16177"
   style="stop-color:#D2D2D2;stroke-dasharray:none;stroke-miterlimit:4.0000000;stroke-width:1.2166667"
   offset="0" />




			<stop
   id="stop16179"
   style="stop-color:#EDEDED;stroke-dasharray:none;stroke-miterlimit:4.0000000;stroke-width:1.2166667"
   offset="1" />




		</linearGradient>




		
		<linearGradient
   style="stroke-dasharray:none;stroke-miterlimit:4.0000000;stroke-width:1.2166667"
   y2="22.5769"
   x2="21.9168"
   y1="30.3413"
   x1="21.877"
   gradientUnits="userSpaceOnUse"
   id="aigrd2">
			<stop
   id="stop16184"
   style="stop-color:#5e4f07;stop-opacity:1.0000000;"
   offset="0.0000000" />




			<stop
   id="stop16186"
   style="stop-color:#348a31;stop-opacity:1.0000000;"
   offset="1.0000000" />




		</linearGradient>




		
		
		
		
		
		<linearGradient
   style="stroke-dasharray:none;stroke-miterlimit:4.0000000;stroke-width:1.2166667"
   y2="7.1091"
   x2="21.9326"
   y1="24.6274"
   x1="21.9326"
   gradientUnits="userSpaceOnUse"
   id="aigrd3">
			<stop
   id="stop16199"
   style="stop-color:#D0D6E5;stroke-dasharray:none;stroke-miterlimit:4.0000000;stroke-width:1.2166667"
   offset="0" />




			<stop
   id="stop16201"
   style="stop-color:#093A80;stroke-dasharray:none;stroke-miterlimit:4.0000000;stroke-width:1.2166667"
   offset="1" />




		</linearGradient>




		
		
		
		
		
		
		
	











<radialGradient
   inkscape:collect="always"
   xlink:href="#linearGradient12129"
   id="radialGradient12135"
   cx="24.218407"
   cy="41.636040"
   fx="24.218407"
   fy="41.636040"
   r="22.097088"
   gradientTransform="matrix(1.000000,0.000000,0.000000,0.184000,0.000000,33.97501)"
   gradientUnits="userSpaceOnUse" /><linearGradient
   inkscape:collect="always"
   xlink:href="#aigrd1"
   id="linearGradient8148"
   gradientUnits="userSpaceOnUse"
   gradientTransform="matrix(1.4796041,0,0,1.2265685,52.984437,-0.8344293)"
   x1="12.4873"
   y1="3.7319"
   x2="31.0813"
   y2="36.0328" /><radialGradient
   inkscape:collect="always"
   xlink:href="#linearGradient8155"
   id="radialGradient8161"
   cx="12.700491"
   cy="10.404876"
   fx="12.700491"
   fy="10.404876"
   r="19.96875"
   gradientTransform="matrix(1.7649257,0,0,1.3935183,-12.937256,-2.1182932)"
   gradientUnits="userSpaceOnUse" /><linearGradient
   inkscape:collect="always"
   xlink:href="#linearGradient2251"
   id="linearGradient8166"
   gradientUnits="userSpaceOnUse"
   gradientTransform="matrix(1.0317999,0,0,1.2388492,4.3102072,-8.5756386)"
   x1="33.396004"
   y1="36.921333"
   x2="34.170048"
   y2="38.070381" /><linearGradient
   inkscape:collect="always"
   xlink:href="#linearGradient2224"
   id="linearGradient8169"
   gradientUnits="userSpaceOnUse"
   gradientTransform="matrix(1.0317999,0,0,1.2388492,4.3102072,-8.1110701)"
   x1="35.996582"
   y1="40.458221"
   x2="33.664921"
   y2="37.770721" /><linearGradient
   inkscape:collect="always"
   xlink:href="#linearGradient8171"
   id="linearGradient8177"
   x1="42.1875"
   y1="31"
   x2="45"
   y2="39.984692"
   gradientUnits="userSpaceOnUse"
   gradientTransform="matrix(1.0317999,0,0,1.2388492,-1.0010549,-4.3514205)" /><linearGradient
   inkscape:collect="always"
   xlink:href="#aigrd3"
   id="linearGradient8410"
   gradientUnits="userSpaceOnUse"
   gradientTransform="matrix(1.196047,0,0,1.4395672,-3.9680295,-5.1981856)"
   x1="21.9326"
   y1="24.6274"
   x2="21.9326"
   y2="7.1091" /><linearGradient
   inkscape:collect="always"
   xlink:href="#linearGradient7648"
   id="linearGradient8413"
   gradientUnits="userSpaceOnUse"
   gradientTransform="matrix(1.196047,0,0,-1.0377048,-3.9680295,49.755072)"
   x1="21.9326"
   y1="24.627399"
   x2="21.9326"
   y2="7.1090999" /><radialGradient
   inkscape:collect="always"
   xlink:href="#linearGradient5060"
   id="radialGradient8416"
   gradientUnits="userSpaceOnUse"
   gradientTransform="matrix(-6.2265067e-2,0,0,6.0839823e-2,45.288787,10.574037)"
   cx="605.71429"
   cy="486.64789"
   fx="605.71429"
   fy="486.64789"
   r="117.14286" /><radialGradient
   inkscape:collect="always"
   xlink:href="#linearGradient5060"
   id="radialGradient8419"
   gradientUnits="userSpaceOnUse"
   gradientTransform="matrix(6.2265067e-2,0,0,6.0839823e-2,0.3045368,10.574037)"
   cx="605.71429"
   cy="486.64789"
   fx="605.71429"
   fy="486.64789"
   r="117.14286" /><linearGradient
   inkscape:collect="always"
   xlink:href="#linearGradient5048"
   id="linearGradient8422"
   gradientUnits="userSpaceOnUse"
   gradientTransform="matrix(6.2265067e-2,0,0,6.0839823e-2,0.292283,10.574037)"
   x1="302.85715"
   y1="366.64789"
   x2="302.85715"
   y2="609.50507" /></defs>



<sodipodi:namedview
   inkscape:window-height="684"
   inkscape:window-width="1083"
   inkscape:pageshadow="2"
   inkscape:pageopacity="0.0"
   borderopacity="0.07058824"
   bordercolor="#666666"
   pagecolor="#ffffff"
   id="base"
   inkscape:zoom="8"
   inkscape:cx="33.742043"
   inkscape:cy="23.520072"
   inkscape:window-x="1342"
   inkscape:window-y="152"
   inkscape:current-layer="svg16168"
   showgrid="true"
   inkscape:showpageshadow="false" />




	
	<rect
   y="32.880833"
   x="7.764091"
   height="14.775385"
   width="30.065132"
   id="rect6709"
   style="opacity:0.40206185;color:#000000;fill:url(#linearGradient8422);fill-opacity:1;fill-rule:nonzero;stroke:none;stroke-width:1;stroke-linecap:round;stroke-linejoin:miter;marker:none;marker-start:none;marker-mid:none;marker-end:none;stroke-miterlimit:4;stroke-dasharray:none;stroke-dashoffset:0;stroke-opacity:1;visibility:visible;display:inline;overflow:visible" /><path
   sodipodi:nodetypes="cccc"
   id="path6711"
   d="M 37.829225,32.88134 C 37.829225,32.88134 37.829225,47.655909 37.829225,47.655909 C 41.035721,47.683723 45.580974,44.345679 45.580972,40.267674 C 45.580972,36.189669 42.002763,32.88134 37.829225,32.88134 z "
   style="opacity:0.40206185;color:#000000;fill:url(#radialGradient8419);fill-opacity:1;fill-rule:nonzero;stroke:none;stroke-width:1;stroke-linecap:round;stroke-linejoin:miter;marker:none;marker-start:none;marker-mid:none;marker-end:none;stroke-miterlimit:4;stroke-dasharray:none;stroke-dashoffset:0;stroke-opacity:1;visibility:visible;display:inline;overflow:visible" /><path
   style="opacity:0.40206185;color:#000000;fill:url(#radialGradient8416);fill-opacity:1;fill-rule:nonzero;stroke:none;stroke-width:1;stroke-linecap:round;stroke-linejoin:miter;marker:none;marker-start:none;marker-mid:none;marker-end:none;stroke-miterlimit:4;stroke-dasharray:none;stroke-dashoffset:0;stroke-opacity:1;visibility:visible;display:inline;overflow:visible"
   d="M 7.7640916,32.88134 C 7.7640916,32.88134 7.7640916,47.655909 7.7640916,47.655909 C 4.557594,47.683723 0.01234276,44.345679 0.01234276,40.267674 C 0.01234276,36.189669 3.5905516,32.88134 7.7640916,32.88134 z "
   id="path6713"
   sodipodi:nodetypes="cccc" /><path
   style="color:#000000;fill:url(#linearGradient8148);fill-opacity:1;fill-rule:nonzero;stroke:#bbbfbb;stroke-width:1.13059461;stroke-linecap:butt;stroke-linejoin:miter;marker:none;marker-start:none;marker-mid:none;marker-end:none;stroke-miterlimit:4;stroke-dashoffset:0;stroke-opacity:1;visibility:visible;display:inline;overflow:visible"
   d="M 1.8031415,3.6450723 L 43.757955,3.6450723 C 44.401023,3.6450723 44.918728,4.2666646 44.918728,5.0387771 L 44.918728,34.648272 C 44.918728,35.420385 36.193105,44.582964 35.550037,44.582964 L 1.8031415,44.582964 C 1.1600728,44.582964 0.64236787,43.961372 0.64236787,43.189259 L 0.64236787,5.0387771 C 0.64236787,4.2666646 1.1600728,3.6450723 1.8031415,3.6450723 z "
   id="rect7603"
   sodipodi:nodetypes="ccccccccc" />




















































<path
   style="fill:url(#linearGradient8413);fill-opacity:1;fill-rule:nonzero;stroke:none;stroke-width:1.2166667;stroke-miterlimit:4"
   d="M 4.157945,40.228174 L 41.302746,40.228174 L 41.302746,26.735691 L 4.157945,26.735691 L 4.157945,40.228174 z "
   id="path7644" /><path
   id="path16203"
   d="M 4.157945,8.0181053 L 41.302746,8.0181053 L 41.302746,26.735691 L 4.157945,26.735691 L 4.157945,8.0181053 z "
   style="fill:url(#linearGradient8410);fill-rule:nonzero;stroke:none;stroke-width:1.2166667;stroke-miterlimit:4" /><g
   transform="matrix(1.2543552,0,0,1.2486648,-6.1694229,-4.0020945)"
   style="fill-rule:nonzero;stroke:#000000;stroke-width:1.15611064;stroke-miterlimit:4"
   id="g16205">
			<g
   id="g16207">
				<path
   id="path16209"
   d="M 18.4,15.4 C 18.4,17.6 16.6,19.5 14.3,19.5 C 12.1,19.5 10.2,17.7 10.2,15.4 C 10.2,13.2 12,11.3 14.3,11.3 C 16.5,11.3 18.4,13.1 18.4,15.4 z "
   style="opacity:0.04999994;fill:#e8f52f;stroke:none" />




				<path
   id="path16211"
   d="M 18,15.4 C 18,17.4 16.4,19.1 14.3,19.1 C 12.3,19.1 10.6,17.5 10.6,15.4 C 10.6,13.4 12.2,11.7 14.3,11.7 C 16.3,11.7 18,13.3 18,15.4 L 18,15.4 z "
   style="opacity:0.20829994;fill:#ecf751;stroke:none" />




				<path
   id="path16213"
   d="M 17.6,15.4 C 17.6,17.2 16.1,18.7 14.3,18.7 C 12.5,18.7 11,17.2 11,15.4 C 11,13.6 12.5,12.1 14.3,12.1 C 16.1,12.1 17.6,13.6 17.6,15.4 L 17.6,15.4 z "
   style="opacity:0.36669994;fill:#f0f972;stroke:none" />




				<path
   id="path16215"
   d="M 17.2,15.4 C 17.2,17 15.9,18.3 14.3,18.3 C 12.7,18.3 11.4,17 11.4,15.4 C 11.4,13.8 12.7,12.5 14.3,12.5 C 15.9,12.5 17.2,13.8 17.2,15.4 z "
   style="opacity:0.525;fill:#f4fa95;stroke:none" />




				<path
   id="path16217"
   d="M 16.8,15.4 C 16.8,16.8 15.7,17.9 14.3,17.9 C 12.9,17.9 11.8,16.8 11.8,15.4 C 11.8,14 12.9,12.9 14.3,12.9 C 15.7,12.9 16.8,14 16.8,15.4 L 16.8,15.4 z "
   style="opacity:0.6833;fill:#f7fcb7;stroke:none" />




				<path
   id="path16219"
   d="M 16.4,15.4 C 16.4,16.6 15.4,17.5 14.3,17.5 C 13.2,17.5 12.2,16.5 12.2,15.4 C 12.2,14.3 13.2,13.3 14.3,13.3 C 15.4,13.3 16.4,14.3 16.4,15.4 z "
   style="opacity:0.8417;fill:#fbfddb;stroke:none" />




				<path
   id="path16221"
   d="M 16,15.4 C 16,16.4 15.2,17.2 14.2,17.2 C 13.2,17.2 12.4,16.4 12.4,15.4 C 12.4,14.4 13.2,13.6 14.2,13.6 C 15.2,13.6 16,14.4 16,15.4 L 16,15.4 z "
   style="fill:#ffffff;stroke:none" />




			</g>




		</g><g
   id="g8456"
   transform="translate(-40.625,8.5)"><path
     style="opacity:0.3;fill-rule:nonzero;stroke:none;stroke-width:1.2166667;stroke-miterlimit:4"
     d="M 64.321431,21.506939 L 73.478229,21.506939 L 75.234326,22.006406 L 72.223873,22.006406 C 72.223873,22.006406 75.234326,22.256138 76.739555,24.129136 C 78.24478,25.877267 74.983456,28 74.983456,28 C 74.983456,28 74.983456,28 74.983456,28 C 74.858021,27.625399 74.105406,24.628602 72.60018,23.379937 C 71.471258,22.381005 70.216903,22.131271 70.216903,22.131271 L 64.321431,22.131271 L 64.321431,21.631806 L 64.321431,21.506939 z "
     id="path16223" /><path
     style="opacity:0.3;fill-rule:nonzero;stroke:none;stroke-width:1.2166667;stroke-miterlimit:4"
     d="M 70.342341,22.256138 L 65.074046,22.256138 L 74.858021,27.750265 L 70.342341,22.256138 L 70.342341,22.256138 z "
     id="path16225" /><path
     style="fill:#515151;fill-rule:nonzero;stroke:none;stroke-width:1.2166667;stroke-miterlimit:4"
     d="M 64.321431,21.631806 L 73.478229,21.631806 L 74.858021,20.757739 L 71.847568,20.757739 C 71.847568,20.757739 74.607148,20.258274 74.983456,17.13661 C 75.359761,14.014947 70.718646,10.518686 70.718646,10.518686 C 70.718646,10.518686 70.718646,10.518686 70.718646,10.643552 C 70.84408,11.392751 72.098435,16.637145 71.220389,18.635011 C 70.84408,20.383139 69.715161,20.757739 69.715161,20.757739 L 63.945124,20.757739 L 64.195996,21.631806 L 64.321431,21.631806 z "
     id="path16227" /><path
     style="fill:#515151;fill-rule:nonzero;stroke:none;stroke-width:1.2166667;stroke-miterlimit:4"
     d="M 69.840598,20.258274 L 64.572303,20.258274 L 70.84408,10.768417 L 69.840598,20.258274 z "
     id="path16229" /></g><path
   style="color:#000000;fill:none;fill-opacity:1;fill-rule:nonzero;stroke:#ffffff;stroke-width:1.13059449;stroke-linecap:butt;stroke-linejoin:miter;marker:none;marker-start:none;marker-mid:none;marker-end:none;stroke-miterlimit:4;stroke-dashoffset:0;stroke-opacity:1;visibility:visible;display:inline;overflow:visible"
   d="M 1.8923511,4.8815473 L 43.607766,4.8815473 C 43.762931,4.8815473 43.887845,5.0315284 43.887845,5.217828 L 43.887845,34.576505 C 43.887845,35.748303 36.558202,43.344274 36.403039,43.344274 L 1.8923511,43.344274 C 1.7371881,43.344274 1.6122732,43.194292 1.6122732,43.007993 L 1.6122732,5.217828 C 1.6122732,5.0315284 1.7371881,4.8815473 1.8923511,4.8815473 z "
   id="rect7675"
   sodipodi:nodetypes="ccccccccc" /><rect
   style="opacity:0.84659095;color:#000000;fill:none;fill-opacity:1;fill-rule:nonzero;stroke:#4f4f4f;stroke-width:1.13059473;stroke-linecap:butt;stroke-linejoin:miter;marker:none;marker-start:none;marker-mid:none;marker-end:none;stroke-miterlimit:4;stroke-dasharray:none;stroke-dashoffset:0;stroke-opacity:1;visibility:visible;display:inline;overflow:visible"
   id="rect8163"
   width="36.177483"
   height="31.048658"
   x="4.6738448"
   y="8.656496" /><path
   style="color:#000000;fill:url(#linearGradient8169);fill-opacity:1;fill-rule:evenodd;stroke:url(#linearGradient8177);stroke-width:1.13059509;stroke-linecap:butt;stroke-linejoin:miter;marker:none;marker-start:none;marker-mid:none;marker-end:none;stroke-miterlimit:4;stroke-dasharray:none;stroke-dashoffset:0;stroke-opacity:1;visibility:visible;display:inline;overflow:visible"
   d="M 35.325165,44.544425 C 37.420151,44.953118 45.218881,38.932526 44.90482,34.016878 C 43.291846,37.01873 39.994978,35.610952 35.755561,35.807942 C 35.755561,35.807942 36.163503,43.925 35.325165,44.544425 z "
   id="path2210"
   sodipodi:nodetypes="cccc" /><path
   sodipodi:nodetypes="cccc"
   id="path2247"
   d="M 36.821726,41.829484 C 38.235064,40.982324 41.390793,39.170338 42.731495,36.840058 C 41.084645,37.682543 39.689944,37.099591 36.847827,37.075941 C 36.847827,37.075941 37.015311,40.869414 36.821726,41.829484 z "
   style="opacity:0.36931817;color:#000000;fill:none;fill-opacity:1;fill-rule:evenodd;stroke:url(#linearGradient8166);stroke-width:1.13059449;stroke-linecap:butt;stroke-linejoin:miter;marker:none;marker-start:none;marker-mid:none;marker-end:none;stroke-miterlimit:4;stroke-dasharray:none;stroke-dashoffset:0;stroke-opacity:1;visibility:visible;display:inline;overflow:visible" /><path
   style="opacity:0.30113639;color:#000000;fill:url(#radialGradient8161);fill-opacity:1;fill-rule:nonzero;stroke:none;stroke-width:1;stroke-linecap:butt;stroke-linejoin:miter;marker:none;marker-start:none;marker-mid:none;marker-end:none;stroke-miterlimit:4;stroke-dasharray:none;stroke-dashoffset:0;stroke-opacity:1;visibility:visible;display:inline;overflow:visible"
   d="M 2.1588324,5.5593731 L 2.1588324,32.891484 C 25.194878,33.992029 27.770308,16.709015 43.366341,16.709015 L 43.366341,5.5593731 L 2.1588324,5.5593731 z "
   id="rect8150"
   sodipodi:nodetypes="ccccc" /></svg>