<?xml version="1.0" encoding="UTF-8" standalone="no"?>
<!-- Created with Inkscape (http://www.inkscape.org/) -->
<svg
   xmlns:dc="http://purl.org/dc/elements/1.1/"
   xmlns:cc="http://web.resource.org/cc/"
   xmlns:rdf="http://www.w3.org/1999/02/22-rdf-syntax-ns#"
   xmlns:svg="http://www.w3.org/2000/svg"
   xmlns="http://www.w3.org/2000/svg"
   xmlns:xlink="http://www.w3.org/1999/xlink"
   xmlns:sodipodi="http://sodipodi.sourceforge.net/DTD/sodipodi-0.dtd"
   xmlns:inkscape="http://www.inkscape.org/namespaces/inkscape"
   width="48.000000px"
   height="48.000000px"
   id="svg249"
   sodipodi:version="0.32"
   inkscape:version="0.44"
   sodipodi:docbase="/home/dkabala/VSE/WorldBuilder/WorldBuilder/Interface/Images/Icons"
   sodipodi:docname="ImageForeground.svg"
   inkscape:export-filename="/home/jimmac/gfx/novell/pdes/trunk/docs/BIGmime-text.png"
   inkscape:export-xdpi="240.00000"
   inkscape:export-ydpi="240.00000">
  <defs
     id="defs3">
    <linearGradient
       id="linearGradient7648"
       gradientUnits="userSpaceOnUse"
       x1="21.9326"
       y1="24.6274"
       x2="21.9326"
       y2="7.1091"
       style="stroke-dasharray:none;stroke-miterlimit:4.0000000;stroke-width:1.2166667">
      <stop
         offset="0"
         style="stop-color:#8595bc;stop-opacity:1;"
         id="stop7650" />
      <stop
         offset="1"
         style="stop-color:#041a3b;stop-opacity:1;"
         id="stop7652" />
    </linearGradient>
    <linearGradient
       id="linearGradient5048">
      <stop
         style="stop-color:black;stop-opacity:0;"
         offset="0"
         id="stop5050" />
      <stop
         id="stop5056"
         offset="0.5"
         style="stop-color:black;stop-opacity:1;" />
      <stop
         style="stop-color:black;stop-opacity:0;"
         offset="1"
         id="stop5052" />
    </linearGradient>
    <linearGradient
       inkscape:collect="always"
       id="linearGradient4542">
      <stop
         style="stop-color:#000000;stop-opacity:1;"
         offset="0"
         id="stop4544" />
      <stop
         style="stop-color:#000000;stop-opacity:0;"
         offset="1"
         id="stop4546" />
    </linearGradient>
    <radialGradient
       inkscape:collect="always"
       xlink:href="#linearGradient4542"
       id="radialGradient4548"
       cx="24.306795"
       cy="42.07798"
       fx="24.306795"
       fy="42.07798"
       r="15.821514"
       gradientTransform="matrix(1.000000,0.000000,0.000000,0.284916,-6.310056e-16,30.08928)"
       gradientUnits="userSpaceOnUse" />
    <linearGradient
       id="linearGradient15662">
      <stop
         style="stop-color:#ffffff;stop-opacity:1.0000000;"
         offset="0.0000000"
         id="stop15664" />
      <stop
         style="stop-color:#f8f8f8;stop-opacity:1.0000000;"
         offset="1.0000000"
         id="stop15666" />
    </linearGradient>
    <radialGradient
       gradientUnits="userSpaceOnUse"
       fy="64.5679"
       fx="20.8921"
       r="5.257"
       cy="64.5679"
       cx="20.8921"
       id="aigrd3">
      <stop
         id="stop15573"
         style="stop-color:#F0F0F0"
         offset="0" />
      <stop
         id="stop15575"
         style="stop-color:#9a9a9a;stop-opacity:1.0000000;"
         offset="1.0000000" />
    </radialGradient>
    <radialGradient
       gradientUnits="userSpaceOnUse"
       fy="114.5684"
       fx="20.8921"
       r="5.256"
       cy="114.5684"
       cx="20.8921"
       id="aigrd2">
      <stop
         id="stop15566"
         style="stop-color:#F0F0F0"
         offset="0" />
      <stop
         id="stop15568"
         style="stop-color:#9a9a9a;stop-opacity:1.0000000;"
         offset="1.0000000" />
    </radialGradient>
    <linearGradient
       id="linearGradient269">
      <stop
         style="stop-color:#a3a3a3;stop-opacity:1.0000000;"
         offset="0.0000000"
         id="stop270" />
      <stop
         style="stop-color:#4c4c4c;stop-opacity:1.0000000;"
         offset="1.0000000"
         id="stop271" />
    </linearGradient>
    <linearGradient
       id="linearGradient259">
      <stop
         style="stop-color:#fafafa;stop-opacity:1.0000000;"
         offset="0.0000000"
         id="stop260" />
      <stop
         style="stop-color:#bbbbbb;stop-opacity:1.0000000;"
         offset="1.0000000"
         id="stop261" />
    </linearGradient>
    <linearGradient
       id="linearGradient12512">
      <stop
         style="stop-color:#ffffff;stop-opacity:1.0000000;"
         offset="0.0000000"
         id="stop12513" />
      <stop
         style="stop-color:#fff520;stop-opacity:0.89108908;"
         offset="0.50000000"
         id="stop12517" />
      <stop
         style="stop-color:#fff300;stop-opacity:0.0000000;"
         offset="1.0000000"
         id="stop12514" />
    </linearGradient>
    <radialGradient
       inkscape:collect="always"
       xlink:href="#linearGradient12512"
       id="radialGradient278"
       gradientUnits="userSpaceOnUse"
       cx="55.000000"
       cy="125.00000"
       fx="55.000000"
       fy="125.00000"
       r="14.375000" />
    <linearGradient
       inkscape:collect="always"
       xlink:href="#linearGradient7648"
       id="linearGradient39996"
       gradientUnits="userSpaceOnUse"
       gradientTransform="matrix(0.965988,0,0,-0.97053,-3.12722,71.91019)"
       x1="21.9326"
       y1="24.627399"
       x2="21.9326"
       y2="7.1090999" />
    <linearGradient
       inkscape:collect="always"
       xlink:href="#aigrd3"
       id="linearGradient39998"
       gradientUnits="userSpaceOnUse"
       gradientTransform="matrix(0.965988,0,0,1.346379,-3.12722,20.51426)"
       x1="21.9326"
       y1="24.6274"
       x2="21.9326"
       y2="7.1091" />
  </defs>
  <sodipodi:namedview
     id="base"
     pagecolor="#ffffff"
     bordercolor="#666666"
     borderopacity="0.32941176"
     inkscape:pageopacity="0.0"
     inkscape:pageshadow="2"
     inkscape:zoom="8"
     inkscape:cx="31.757495"
     inkscape:cy="23.551951"
     inkscape:current-layer="layer1"
     showgrid="true"
     inkscape:grid-bbox="true"
     inkscape:document-units="px"
     inkscape:window-width="1343"
     inkscape:window-height="880"
     inkscape:window-x="166"
     inkscape:window-y="151"
     inkscape:showpageshadow="false" />
  <metadata
     id="metadata4">
    <rdf:RDF>
      <cc:Work
         rdf:about="">
        <dc:format>image/svg+xml</dc:format>
        <dc:type
           rdf:resource="http://purl.org/dc/dcmitype/StillImage" />
        <dc:title>New Document</dc:title>
        <dc:creator>
          <cc:Agent>
            <dc:title>Jakub Steiner</dc:title>
          </cc:Agent>
        </dc:creator>
        <dc:source>http://jimmac.musichall.cz</dc:source>
        <cc:license
           rdf:resource="http://creativecommons.org/licenses/by-sa/2.0/" />
      </cc:Work>
      <cc:License
         rdf:about="http://creativecommons.org/licenses/by-sa/2.0/">
        <cc:permits
           rdf:resource="http://web.resource.org/cc/Reproduction" />
        <cc:permits
           rdf:resource="http://web.resource.org/cc/Distribution" />
        <cc:requires
           rdf:resource="http://web.resource.org/cc/Notice" />
        <cc:requires
           rdf:resource="http://web.resource.org/cc/Attribution" />
        <cc:permits
           rdf:resource="http://web.resource.org/cc/DerivativeWorks" />
        <cc:requires
           rdf:resource="http://web.resource.org/cc/ShareAlike" />
      </cc:License>
    </rdf:RDF>
  </metadata>
  <g
     inkscape:label="Shadow"
     id="layer6"
     inkscape:groupmode="layer" />
  <g
     id="layer1"
     inkscape:label="Base"
     inkscape:groupmode="layer"
     style="display:inline">
    <path
       sodipodi:nodetypes="cc"
       id="path15674"
       d="M 12.500000,5.0205154 L 12.500000,43.038228"
       style="fill:none;fill-opacity:0.75000000;fill-rule:evenodd;stroke:#ffffff;stroke-width:1.0000000;stroke-linecap:butt;stroke-linejoin:miter;stroke-miterlimit:4.0000000;stroke-opacity:0.20467831" />
    <rect
       style="opacity:0.5;fill:blue;fill-rule:evenodd;stroke:black;stroke-width:0.5;stroke-linecap:butt;stroke-linejoin:miter;stroke-miterlimit:4;stroke-dasharray:none;stroke-opacity:1"
       id="rect2818"
       width="30.5"
       height="30.5"
       x="4.25"
       y="5.375" />
    <rect
       style="opacity:1;fill:green;fill-rule:evenodd;stroke:black;stroke-width:0.5;stroke-linecap:butt;stroke-linejoin:miter;stroke-miterlimit:4;stroke-dasharray:none;stroke-opacity:1;display:inline"
       id="rect2822"
       width="30.5"
       height="30.5"
       x="13"
       y="13.25" />
    <g
       id="g39980"
       transform="matrix(1.004167,0,0,0.995851,9.860684,-19.2386)">
      <path
         id="path7644"
         d="M 3.435727,63 L 33.435732,63 L 33.435732,50.380936 L 3.435727,50.380936 L 3.435727,63 z "
         style="fill:url(#linearGradient39996);fill-opacity:1;fill-rule:nonzero;stroke:none;stroke-width:1.2166667;stroke-miterlimit:4;display:inline" />
      <path
         style="fill:url(#linearGradient39998);fill-rule:nonzero;stroke:none;stroke-width:1.2166667;stroke-miterlimit:4;display:inline"
         d="M 3.435727,32.875009 L 33.435732,32.875009 L 33.435732,50.380936 L 3.435727,50.380936 L 3.435727,32.875009 z "
         id="path16203" />
      <g
         transform="matrix(1.254355,0,0,1.248665,-7.79442,21.02604)"
         id="g16207"
         style="fill-rule:nonzero;stroke:black;stroke-width:1.15611064;stroke-miterlimit:4;display:inline">
        <path
           id="path16209"
           d="M 18.4,15.4 C 18.4,17.6 16.6,19.5 14.3,19.5 C 12.1,19.5 10.2,17.7 10.2,15.4 C 10.2,13.2 12,11.3 14.3,11.3 C 16.5,11.3 18.4,13.1 18.4,15.4 z "
           style="opacity:0.04999994;fill:#e8f52f;stroke:none" />
        <path
           id="path16211"
           d="M 18,15.4 C 18,17.4 16.4,19.1 14.3,19.1 C 12.3,19.1 10.6,17.5 10.6,15.4 C 10.6,13.4 12.2,11.7 14.3,11.7 C 16.3,11.7 18,13.3 18,15.4 L 18,15.4 z "
           style="opacity:0.20829994;fill:#ecf751;stroke:none" />
        <path
           id="path16213"
           d="M 17.6,15.4 C 17.6,17.2 16.1,18.7 14.3,18.7 C 12.5,18.7 11,17.2 11,15.4 C 11,13.6 12.5,12.1 14.3,12.1 C 16.1,12.1 17.6,13.6 17.6,15.4 L 17.6,15.4 z "
           style="opacity:0.36669994;fill:#f0f972;stroke:none" />
        <path
           id="path16215"
           d="M 17.2,15.4 C 17.2,17 15.9,18.3 14.3,18.3 C 12.7,18.3 11.4,17 11.4,15.4 C 11.4,13.8 12.7,12.5 14.3,12.5 C 15.9,12.5 17.2,13.8 17.2,15.4 z "
           style="opacity:0.525;fill:#f4fa95;stroke:none" />
        <path
           id="path16217"
           d="M 16.8,15.4 C 16.8,16.8 15.7,17.9 14.3,17.9 C 12.9,17.9 11.8,16.8 11.8,15.4 C 11.8,14 12.9,12.9 14.3,12.9 C 15.7,12.9 16.8,14 16.8,15.4 L 16.8,15.4 z "
           style="opacity:0.6833;fill:#f7fcb7;stroke:none" />
        <path
           id="path16219"
           d="M 16.4,15.4 C 16.4,16.6 15.4,17.5 14.3,17.5 C 13.2,17.5 12.2,16.5 12.2,15.4 C 12.2,14.3 13.2,13.3 14.3,13.3 C 15.4,13.3 16.4,14.3 16.4,15.4 z "
           style="opacity:0.8417;fill:#fbfddb;stroke:none" />
        <path
           id="path16221"
           d="M 16,15.4 C 16,16.4 15.2,17.2 14.2,17.2 C 13.2,17.2 12.4,16.4 12.4,15.4 C 12.4,14.4 13.2,13.6 14.2,13.6 C 15.2,13.6 16,14.4 16,15.4 L 16,15.4 z "
           style="fill:white;stroke:none" />
      </g>
      <path
         style="opacity:0.3;fill-rule:nonzero;stroke:none;stroke-width:1.2166667;stroke-miterlimit:4;display:inline"
         d="M 18.184991,53.363263 L 27.341789,53.363263 L 29.097886,53.86273 L 26.087433,53.86273 C 26.087433,53.86273 29.097886,54.112462 30.603115,55.98546 C 32.10834,57.733591 28.847016,59.856324 28.847016,59.856324 C 28.847016,59.856324 28.847016,59.856324 28.847016,59.856324 C 28.721581,59.481723 27.968966,56.484926 26.46374,55.236261 C 25.334818,54.237329 24.080463,53.987595 24.080463,53.987595 L 18.184991,53.987595 L 18.184991,53.48813 L 18.184991,53.363263 z "
         id="path16223" />
      <path
         style="opacity:0.3;fill-rule:nonzero;stroke:none;stroke-width:1.2166667;stroke-miterlimit:4;display:inline"
         d="M 24.205901,54.112462 L 18.937606,54.112462 L 28.721581,59.606589 L 24.205901,54.112462 L 24.205901,54.112462 z "
         id="path16225" />
      <path
         style="fill:#515151;fill-rule:nonzero;stroke:none;stroke-width:1.2166667;stroke-miterlimit:4;display:inline"
         d="M 18.184991,53.48813 L 27.341789,53.48813 L 28.721581,52.614063 L 25.711128,52.614063 C 25.711128,52.614063 28.470708,52.114598 28.847016,48.992934 C 29.223321,45.871271 24.582206,42.37501 24.582206,42.37501 C 24.582206,42.37501 24.582206,42.37501 24.582206,42.499876 C 24.70764,43.249075 25.961995,48.493469 25.083949,50.491335 C 24.70764,52.239463 23.578721,52.614063 23.578721,52.614063 L 17.808684,52.614063 L 18.059556,53.48813 L 18.184991,53.48813 z "
         id="path16227" />
      <path
         style="fill:#515151;fill-rule:nonzero;stroke:none;stroke-width:1.2166667;stroke-miterlimit:4;display:inline"
         d="M 23.704158,52.114598 L 18.435863,52.114598 L 24.70764,42.624741 L 23.704158,52.114598 z "
         id="path16229" />
    </g>
  </g>
  <g
     inkscape:groupmode="layer"
     id="layer4"
     inkscape:label="new"
     style="display:inline" />
</svg>
